{
	"asset":{
		"generator":"Khronos glTF Blender I/O v5.2.40",
		"version":"2.0"
	},
	"scene":0,
	"scenes":[
		{
			"name":"Scene",
			"nodes":[
				0,
				1,
				2,
				3,
				4,
				5,
				6
			]
		}
	],
	"nodes":[
		{
			"mesh":0,
			"name":"AltarPedestal",
			"scale":[
				1.5,
				0.5,
				1
			],
			"translation":[
				0,
				0.5,
				0
			]
		},
		{
			"mesh":1,
			"name":"AltarTopSlab",
			"scale":[
				1.7000000476837158,
				0.20000000298023224,
				1.2000000476837158
			],
			"translation":[
				0,
				1.2000000476837158,
				0
			]
		},
		{
			"mesh":2,
			"name":"BloodBasin",
			"translation":[
				0,
				1.5,
				0
			]
		},
		{
			"mesh":3,
			"name":"Spike_1.5_0.9",
			"translation":[
				1.5,
				1.100000023841858,
				-0.8999999761581421
			]
		},
		{
			"mesh":4,
			"name":"Spike_1.5_-0.9",
			"translation":[
				1.5,
				1.100000023841858,
				0.8999999761581421
			]
		},
		{
			"mesh":5,
			"name":"Spike_-1.5_0.9",
			"translation":[
				-1.5,
				1.100000023841858,
				-0.8999999761581421
			]
		},
		{
			"mesh":6,
			"name":"Spike_-1.5_-0.9",
			"translation":[
				-1.5,
				1.100000023841858,
				0.8999999761581421
			]
		}
	],
	"materials":[
		{
			"doubleSided":true,
			"name":"DarkGothicStone",
			"pbrMetallicRoughness":{
				"baseColorFactor":[
					0.07999999821186066,
					0.07000000029802322,
					0.09000000357627869,
					1
				],
				"metallicFactor":0,
				"roughnessFactor":0.8500000238418579
			}
		},
		{
			"doubleSided":true,
			"name":"CursedBlood",
			"pbrMetallicRoughness":{
				"baseColorFactor":[
					0.699999988079071,
					0.019999999552965164,
					0.05000000074505806,
					1
				],
				"metallicFactor":0,
				"roughnessFactor":0.15000000596046448
			}
		}
	],
	"meshes":[
		{
			"name":"Cube",
			"primitives":[
				{
					"attributes":{
						"POSITION":0,
						"NORMAL":1,
						"TEXCOORD_0":2
					},
					"indices":3,
					"material":0
				}
			]
		},
		{
			"name":"Cube.001",
			"primitives":[
				{
					"attributes":{
						"POSITION":4,
						"NORMAL":5,
						"TEXCOORD_0":6
					},
					"indices":3,
					"material":0
				}
			]
		},
		{
			"name":"Cylinder",
			"primitives":[
				{
					"attributes":{
						"POSITION":7,
						"NORMAL":8,
						"TEXCOORD_0":9
					},
					"indices":10,
					"material":1
				}
			]
		},
		{
			"name":"Cone.003",
			"primitives":[
				{
					"attributes":{
						"POSITION":11,
						"NORMAL":12,
						"TEXCOORD_0":13
					},
					"indices":10
				}
			]
		},
		{
			"name":"Cone.001",
			"primitives":[
				{
					"attributes":{
						"POSITION":14,
						"NORMAL":15,
						"TEXCOORD_0":16
					},
					"indices":10
				}
			]
		},
		{
			"name":"Cone.002",
			"primitives":[
				{
					"attributes":{
						"POSITION":17,
						"NORMAL":18,
						"TEXCOORD_0":19
					},
					"indices":10
				}
			]
		},
		{
			"name":"Cone",
			"primitives":[
				{
					"attributes":{
						"POSITION":20,
						"NORMAL":21,
						"TEXCOORD_0":22
					},
					"indices":10
				}
			]
		}
	],
	"accessors":[
		{
			"bufferView":0,
			"componentType":5126,
			"count":24,
			"max":[
				1,
				1,
				1
			],
			"min":[
				-1,
				-1,
				-1
			],
			"type":"VEC3"
		},
		{
			"bufferView":1,
			"componentType":5126,
			"count":24,
			"type":"VEC3"
		},
		{
			"bufferView":2,
			"componentType":5126,
			"count":24,
			"type":"VEC2"
		},
		{
			"bufferView":3,
			"componentType":5123,
			"count":36,
			"type":"SCALAR"
		},
		{
			"bufferView":4,
			"componentType":5126,
			"count":24,
			"max":[
				1,
				1,
				1
			],
			"min":[
				-1,
				-1,
				-1
			],
			"type":"VEC3"
		},
		{
			"bufferView":5,
			"componentType":5126,
			"count":24,
			"type":"VEC3"
		},
		{
			"bufferView":6,
			"componentType":5126,
			"count":24,
			"type":"VEC2"
		},
		{
			"bufferView":7,
			"componentType":5126,
			"count":192,
			"max":[
				0.699999988079071,
				0.15000000596046448,
				0.699999988079071
			],
			"min":[
				-0.699999988079071,
				-0.15000000596046448,
				-0.699999988079071
			],
			"type":"VEC3"
		},
		{
			"bufferView":8,
			"componentType":5126,
			"count":192,
			"type":"VEC3"
		},
		{
			"bufferView":9,
			"componentType":5126,
			"count":192,
			"type":"VEC2"
		},
		{
			"bufferView":10,
			"componentType":5123,
			"count":372,
			"type":"SCALAR"
		},
		{
			"bufferView":11,
			"componentType":5126,
			"count":192,
			"max":[
				0.20000000298023224,
				0.8999999761581421,
				0.20000000298023224
			],
			"min":[
				-0.20000000298023224,
				-0.8999999761581421,
				-0.20000000298023224
			],
			"type":"VEC3"
		},
		{
			"bufferView":12,
			"componentType":5126,
			"count":192,
			"type":"VEC3"
		},
		{
			"bufferView":13,
			"componentType":5126,
			"count":192,
			"type":"VEC2"
		},
		{
			"bufferView":14,
			"componentType":5126,
			"count":192,
			"max":[
				0.20000000298023224,
				0.8999999761581421,
				0.20000000298023224
			],
			"min":[
				-0.20000000298023224,
				-0.8999999761581421,
				-0.20000000298023224
			],
			"type":"VEC3"
		},
		{
			"bufferView":15,
			"componentType":5126,
			"count":192,
			"type":"VEC3"
		},
		{
			"bufferView":16,
			"componentType":5126,
			"count":192,
			"type":"VEC2"
		},
		{
			"bufferView":17,
			"componentType":5126,
			"count":192,
			"max":[
				0.20000000298023224,
				0.8999999761581421,
				0.20000000298023224
			],
			"min":[
				-0.20000000298023224,
				-0.8999999761581421,
				-0.20000000298023224
			],
			"type":"VEC3"
		},
		{
			"bufferView":18,
			"componentType":5126,
			"count":192,
			"type":"VEC3"
		},
		{
			"bufferView":19,
			"componentType":5126,
			"count":192,
			"type":"VEC2"
		},
		{
			"bufferView":20,
			"componentType":5126,
			"count":192,
			"max":[
				0.20000000298023224,
				0.8999999761581421,
				0.20000000298023224
			],
			"min":[
				-0.20000000298023224,
				-0.8999999761581421,
				-0.20000000298023224
			],
			"type":"VEC3"
		},
		{
			"bufferView":21,
			"componentType":5126,
			"count":192,
			"type":"VEC3"
		},
		{
			"bufferView":22,
			"componentType":5126,
			"count":192,
			"type":"VEC2"
		}
	],
	"bufferViews":[
		{
			"buffer":0,
			"byteLength":288,
			"byteOffset":0,
			"target":34962
		},
		{
			"buffer":0,
			"byteLength":288,
			"byteOffset":288,
			"target":34962
		},
		{
			"buffer":0,
			"byteLength":192,
			"byteOffset":576,
			"target":34962
		},
		{
			"buffer":0,
			"byteLength":72,
			"byteOffset":768,
			"target":34963
		},
		{
			"buffer":0,
			"byteLength":288,
			"byteOffset":840,
			"target":34962
		},
		{
			"buffer":0,
			"byteLength":288,
			"byteOffset":1128,
			"target":34962
		},
		{
			"buffer":0,
			"byteLength":192,
			"byteOffset":1416,
			"target":34962
		},
		{
			"buffer":0,
			"byteLength":2304,
			"byteOffset":1608,
			"target":34962
		},
		{
			"buffer":0,
			"byteLength":2304,
			"byteOffset":3912,
			"target":34962
		},
		{
			"buffer":0,
			"byteLength":1536,
			"byteOffset":6216,
			"target":34962
		},
		{
			"buffer":0,
			"byteLength":744,
			"byteOffset":7752,
			"target":34963
		},
		{
			"buffer":0,
			"byteLength":2304,
			"byteOffset":8496,
			"target":34962
		},
		{
			"buffer":0,
			"byteLength":2304,
			"byteOffset":10800,
			"target":34962
		},
		{
			"buffer":0,
			"byteLength":1536,
			"byteOffset":13104,
			"target":34962
		},
		{
			"buffer":0,
			"byteLength":2304,
			"byteOffset":14640,
			"target":34962
		},
		{
			"buffer":0,
			"byteLength":2304,
			"byteOffset":16944,
			"target":34962
		},
		{
			"buffer":0,
			"byteLength":1536,
			"byteOffset":19248,
			"target":34962
		},
		{
			"buffer":0,
			"byteLength":2304,
			"byteOffset":20784,
			"target":34962
		},
		{
			"buffer":0,
			"byteLength":2304,
			"byteOffset":23088,
			"target":34962
		},
		{
			"buffer":0,
			"byteLength":1536,
			"byteOffset":25392,
			"target":34962
		},
		{
			"buffer":0,
			"byteLength":2304,
			"byteOffset":26928,
			"target":34962
		},
		{
			"buffer":0,
			"byteLength":2304,
			"byteOffset":29232,
			"target":34962
		},
		{
			"buffer":0,
			"byteLength":1536,
			"byteOffset":31536,
			"target":34962
		}
	],
	"buffers":[
		{
			"byteLength":33072,
			"uri":"blood_altar.bin"
		}
	]
}
