{
	"asset":{
		"generator":"Khronos glTF Blender I/O v5.2.40",
		"version":"2.0"
	},
	"extensionsUsed":[
		"KHR_materials_emissive_strength"
	],
	"scene":0,
	"scenes":[
		{
			"name":"Scene",
			"nodes":[
				20
			]
		}
	],
	"nodes":[
		{
			"name":"Arm_L",
			"rotation":[
				-0.87164705991745,
				-0.33448243141174316,
				-0.33448243141174316,
				0.12835294008255005
			],
			"scale":[
				0.9999999403953552,
				0.9999998211860657,
				1
			],
			"translation":[
				0.3499999940395355,
				0.3999999761581421,
				0
			]
		},
		{
			"mesh":0,
			"name":"Cylinder",
			"rotation":[
				0.7071067690849304,
				1.8812704283277526e-08,
				1.9365737458088006e-08,
				0.7071067690849304
			],
			"translation":[
				-1.0999999046325684,
				0.37268128991127014,
				1.7999999523162842
			]
		},
		{
			"mesh":1,
			"name":"Torus",
			"rotation":[
				0.6512885093688965,
				0.2753602862358093,
				-0.27536025643348694,
				0.6512884497642517
			],
			"scale":[
				1,
				1.2000001668930054,
				0.30000001192092896
			],
			"translation":[
				-1.4000002145767212,
				0.3726813495159149,
				3.0999999046325684
			]
		},
		{
			"children":[
				1,
				2
			],
			"name":"Arm_R",
			"rotation":[
				-0.87164705991745,
				0.33448243141174316,
				0.33448243141174316,
				0.12835294008255005
			],
			"scale":[
				0.9999999403953552,
				0.9999998211860657,
				1
			],
			"translation":[
				-0.3499999940395355,
				0.3999999761581421,
				0
			]
		},
		{
			"mesh":2,
			"name":"Cone.001",
			"rotation":[
				0.7071067690849304,
				0,
				0,
				0.7071067690849304
			],
			"translation":[
				0.2199999988079071,
				0.5000001192092896,
				2.799999952316284
			]
		},
		{
			"mesh":3,
			"name":"Cone.002",
			"rotation":[
				0.7071067690849304,
				0,
				0,
				0.7071067690849304
			],
			"translation":[
				0.1532754749059677,
				0.6578184366226196,
				2.799999952316284
			]
		},
		{
			"mesh":4,
			"name":"Cone.003",
			"rotation":[
				0.7071067690849304,
				0,
				0,
				0.7071067690849304
			],
			"translation":[
				-0.00642389478161931,
				0.719906210899353,
				2.799999952316284
			]
		},
		{
			"mesh":5,
			"name":"Cone.004",
			"rotation":[
				0.7071067690849304,
				0,
				0,
				0.7071067690849304
			],
			"translation":[
				-0.1622266173362732,
				0.6486021280288696,
				2.799999952316284
			]
		},
		{
			"mesh":6,
			"name":"Cone.005",
			"rotation":[
				0.7071067690849304,
				0,
				0,
				0.7071067690849304
			],
			"translation":[
				-0.2196248471736908,
				0.4871577024459839,
				2.799999952316284
			]
		},
		{
			"mesh":7,
			"name":"Cone.006",
			"rotation":[
				0.7071067690849304,
				0,
				0,
				0.7071067690849304
			],
			"translation":[
				-0.14380159974098206,
				0.3335036039352417,
				2.799999952316284
			]
		},
		{
			"mesh":8,
			"name":"Cone.007",
			"rotation":[
				0.7071067690849304,
				0,
				0,
				0.7071067690849304
			],
			"translation":[
				0.019249776378273964,
				0.2808438539505005,
				2.799999952316284
			]
		},
		{
			"mesh":9,
			"name":"Cone.008",
			"rotation":[
				0.7071067690849304,
				0,
				0,
				0.7071067690849304
			],
			"translation":[
				0.1706244945526123,
				0.3611215353012085,
				2.799999952316284
			]
		},
		{
			"mesh":10,
			"name":"Sphere.001",
			"rotation":[
				0.7071067690849304,
				0,
				0,
				0.7071067690849304
			],
			"scale":[
				0.8500000238418579,
				1.100000023841858,
				0.949999988079071
			],
			"translation":[
				0,
				0.5000001192092896,
				2.5
			]
		},
		{
			"children":[
				4,
				5,
				6,
				7,
				8,
				9,
				10,
				11,
				12
			],
			"name":"Head",
			"translation":[
				0,
				0.5,
				0
			]
		},
		{
			"mesh":11,
			"name":"Sphere",
			"rotation":[
				0.7071067690849304,
				0,
				0,
				0.7071067690849304
			],
			"translation":[
				0,
				0.3500000238418579,
				1.7999999523162842
			]
		},
		{
			"children":[
				0,
				3,
				13,
				14
			],
			"name":"Chest",
			"translation":[
				0,
				0.3999999761581421,
				0
			]
		},
		{
			"name":"Leg_L",
			"rotation":[
				1,
				0,
				-4.371138828673793e-08,
				0
			],
			"translation":[
				0.25,
				0,
				0
			]
		},
		{
			"name":"Leg_R",
			"rotation":[
				1,
				0,
				-4.371138828673793e-08,
				0
			],
			"translation":[
				-0.25,
				0,
				0
			]
		},
		{
			"mesh":12,
			"name":"Cone",
			"rotation":[
				0.7071067690849304,
				0,
				0,
				0.7071067690849304
			],
			"scale":[
				1.100000023841858,
				1,
				0.800000011920929
			],
			"translation":[
				0,
				0.3999999761581421,
				1.2000000476837158
			]
		},
		{
			"children":[
				15,
				16,
				17,
				18
			],
			"name":"Hips",
			"translation":[
				0,
				1,
				0
			]
		},
		{
			"children":[
				19
			],
			"name":"ValthorRig"
		}
	],
	"animations":[
		{
			"channels":[
				{
					"sampler":0,
					"target":{
						"node":19,
						"path":"translation"
					}
				},
				{
					"sampler":1,
					"target":{
						"node":19,
						"path":"rotation"
					}
				},
				{
					"sampler":2,
					"target":{
						"node":19,
						"path":"scale"
					}
				},
				{
					"sampler":3,
					"target":{
						"node":15,
						"path":"translation"
					}
				},
				{
					"sampler":4,
					"target":{
						"node":15,
						"path":"rotation"
					}
				},
				{
					"sampler":5,
					"target":{
						"node":15,
						"path":"scale"
					}
				},
				{
					"sampler":6,
					"target":{
						"node":0,
						"path":"translation"
					}
				},
				{
					"sampler":7,
					"target":{
						"node":0,
						"path":"rotation"
					}
				},
				{
					"sampler":8,
					"target":{
						"node":0,
						"path":"scale"
					}
				},
				{
					"sampler":9,
					"target":{
						"node":3,
						"path":"translation"
					}
				},
				{
					"sampler":10,
					"target":{
						"node":3,
						"path":"rotation"
					}
				},
				{
					"sampler":11,
					"target":{
						"node":3,
						"path":"scale"
					}
				},
				{
					"sampler":12,
					"target":{
						"node":13,
						"path":"translation"
					}
				},
				{
					"sampler":13,
					"target":{
						"node":13,
						"path":"rotation"
					}
				},
				{
					"sampler":14,
					"target":{
						"node":13,
						"path":"scale"
					}
				},
				{
					"sampler":15,
					"target":{
						"node":16,
						"path":"translation"
					}
				},
				{
					"sampler":16,
					"target":{
						"node":16,
						"path":"rotation"
					}
				},
				{
					"sampler":17,
					"target":{
						"node":16,
						"path":"scale"
					}
				},
				{
					"sampler":18,
					"target":{
						"node":17,
						"path":"translation"
					}
				},
				{
					"sampler":19,
					"target":{
						"node":17,
						"path":"rotation"
					}
				},
				{
					"sampler":20,
					"target":{
						"node":17,
						"path":"scale"
					}
				}
			],
			"name":"attack",
			"samplers":[
				{
					"input":44,
					"interpolation":"STEP",
					"output":45
				},
				{
					"input":44,
					"interpolation":"STEP",
					"output":46
				},
				{
					"input":44,
					"interpolation":"STEP",
					"output":47
				},
				{
					"input":44,
					"interpolation":"STEP",
					"output":48
				},
				{
					"input":44,
					"interpolation":"STEP",
					"output":46
				},
				{
					"input":44,
					"interpolation":"STEP",
					"output":47
				},
				{
					"input":44,
					"interpolation":"STEP",
					"output":49
				},
				{
					"input":44,
					"interpolation":"STEP",
					"output":50
				},
				{
					"input":44,
					"interpolation":"STEP",
					"output":51
				},
				{
					"input":44,
					"interpolation":"STEP",
					"output":52
				},
				{
					"input":44,
					"interpolation":"STEP",
					"output":53
				},
				{
					"input":44,
					"interpolation":"STEP",
					"output":51
				},
				{
					"input":44,
					"interpolation":"STEP",
					"output":54
				},
				{
					"input":44,
					"interpolation":"STEP",
					"output":46
				},
				{
					"input":44,
					"interpolation":"STEP",
					"output":47
				},
				{
					"input":44,
					"interpolation":"STEP",
					"output":55
				},
				{
					"input":44,
					"interpolation":"STEP",
					"output":56
				},
				{
					"input":44,
					"interpolation":"STEP",
					"output":47
				},
				{
					"input":44,
					"interpolation":"STEP",
					"output":57
				},
				{
					"input":44,
					"interpolation":"STEP",
					"output":56
				},
				{
					"input":44,
					"interpolation":"STEP",
					"output":47
				}
			]
		},
		{
			"channels":[
				{
					"sampler":0,
					"target":{
						"node":19,
						"path":"translation"
					}
				},
				{
					"sampler":1,
					"target":{
						"node":19,
						"path":"rotation"
					}
				},
				{
					"sampler":2,
					"target":{
						"node":19,
						"path":"scale"
					}
				},
				{
					"sampler":3,
					"target":{
						"node":15,
						"path":"translation"
					}
				},
				{
					"sampler":4,
					"target":{
						"node":15,
						"path":"rotation"
					}
				},
				{
					"sampler":5,
					"target":{
						"node":15,
						"path":"scale"
					}
				},
				{
					"sampler":6,
					"target":{
						"node":0,
						"path":"translation"
					}
				},
				{
					"sampler":7,
					"target":{
						"node":0,
						"path":"rotation"
					}
				},
				{
					"sampler":8,
					"target":{
						"node":0,
						"path":"scale"
					}
				},
				{
					"sampler":9,
					"target":{
						"node":3,
						"path":"translation"
					}
				},
				{
					"sampler":10,
					"target":{
						"node":3,
						"path":"rotation"
					}
				},
				{
					"sampler":11,
					"target":{
						"node":3,
						"path":"scale"
					}
				},
				{
					"sampler":12,
					"target":{
						"node":13,
						"path":"translation"
					}
				},
				{
					"sampler":13,
					"target":{
						"node":13,
						"path":"rotation"
					}
				},
				{
					"sampler":14,
					"target":{
						"node":13,
						"path":"scale"
					}
				},
				{
					"sampler":15,
					"target":{
						"node":16,
						"path":"translation"
					}
				},
				{
					"sampler":16,
					"target":{
						"node":16,
						"path":"rotation"
					}
				},
				{
					"sampler":17,
					"target":{
						"node":16,
						"path":"scale"
					}
				},
				{
					"sampler":18,
					"target":{
						"node":17,
						"path":"translation"
					}
				},
				{
					"sampler":19,
					"target":{
						"node":17,
						"path":"rotation"
					}
				},
				{
					"sampler":20,
					"target":{
						"node":17,
						"path":"scale"
					}
				}
			],
			"name":"block",
			"samplers":[
				{
					"input":58,
					"interpolation":"STEP",
					"output":45
				},
				{
					"input":58,
					"interpolation":"STEP",
					"output":46
				},
				{
					"input":58,
					"interpolation":"STEP",
					"output":47
				},
				{
					"input":58,
					"interpolation":"STEP",
					"output":48
				},
				{
					"input":58,
					"interpolation":"STEP",
					"output":46
				},
				{
					"input":58,
					"interpolation":"STEP",
					"output":47
				},
				{
					"input":58,
					"interpolation":"STEP",
					"output":49
				},
				{
					"input":58,
					"interpolation":"STEP",
					"output":50
				},
				{
					"input":58,
					"interpolation":"STEP",
					"output":51
				},
				{
					"input":58,
					"interpolation":"STEP",
					"output":52
				},
				{
					"input":58,
					"interpolation":"STEP",
					"output":53
				},
				{
					"input":58,
					"interpolation":"STEP",
					"output":51
				},
				{
					"input":58,
					"interpolation":"STEP",
					"output":54
				},
				{
					"input":58,
					"interpolation":"STEP",
					"output":46
				},
				{
					"input":58,
					"interpolation":"STEP",
					"output":47
				},
				{
					"input":58,
					"interpolation":"STEP",
					"output":55
				},
				{
					"input":58,
					"interpolation":"STEP",
					"output":56
				},
				{
					"input":58,
					"interpolation":"STEP",
					"output":47
				},
				{
					"input":58,
					"interpolation":"STEP",
					"output":57
				},
				{
					"input":58,
					"interpolation":"STEP",
					"output":56
				},
				{
					"input":58,
					"interpolation":"STEP",
					"output":47
				}
			]
		},
		{
			"channels":[
				{
					"sampler":0,
					"target":{
						"node":19,
						"path":"translation"
					}
				},
				{
					"sampler":1,
					"target":{
						"node":19,
						"path":"rotation"
					}
				},
				{
					"sampler":2,
					"target":{
						"node":19,
						"path":"scale"
					}
				},
				{
					"sampler":3,
					"target":{
						"node":15,
						"path":"translation"
					}
				},
				{
					"sampler":4,
					"target":{
						"node":15,
						"path":"rotation"
					}
				},
				{
					"sampler":5,
					"target":{
						"node":15,
						"path":"scale"
					}
				},
				{
					"sampler":6,
					"target":{
						"node":0,
						"path":"translation"
					}
				},
				{
					"sampler":7,
					"target":{
						"node":0,
						"path":"rotation"
					}
				},
				{
					"sampler":8,
					"target":{
						"node":0,
						"path":"scale"
					}
				},
				{
					"sampler":9,
					"target":{
						"node":3,
						"path":"translation"
					}
				},
				{
					"sampler":10,
					"target":{
						"node":3,
						"path":"rotation"
					}
				},
				{
					"sampler":11,
					"target":{
						"node":3,
						"path":"scale"
					}
				},
				{
					"sampler":12,
					"target":{
						"node":13,
						"path":"translation"
					}
				},
				{
					"sampler":13,
					"target":{
						"node":13,
						"path":"rotation"
					}
				},
				{
					"sampler":14,
					"target":{
						"node":13,
						"path":"scale"
					}
				},
				{
					"sampler":15,
					"target":{
						"node":16,
						"path":"translation"
					}
				},
				{
					"sampler":16,
					"target":{
						"node":16,
						"path":"rotation"
					}
				},
				{
					"sampler":17,
					"target":{
						"node":16,
						"path":"scale"
					}
				},
				{
					"sampler":18,
					"target":{
						"node":17,
						"path":"translation"
					}
				},
				{
					"sampler":19,
					"target":{
						"node":17,
						"path":"rotation"
					}
				},
				{
					"sampler":20,
					"target":{
						"node":17,
						"path":"scale"
					}
				}
			],
			"name":"death",
			"samplers":[
				{
					"input":59,
					"interpolation":"LINEAR",
					"output":60
				},
				{
					"input":61,
					"interpolation":"STEP",
					"output":46
				},
				{
					"input":61,
					"interpolation":"STEP",
					"output":47
				},
				{
					"input":61,
					"interpolation":"STEP",
					"output":48
				},
				{
					"input":61,
					"interpolation":"STEP",
					"output":46
				},
				{
					"input":61,
					"interpolation":"STEP",
					"output":47
				},
				{
					"input":61,
					"interpolation":"STEP",
					"output":62
				},
				{
					"input":61,
					"interpolation":"STEP",
					"output":50
				},
				{
					"input":61,
					"interpolation":"STEP",
					"output":51
				},
				{
					"input":61,
					"interpolation":"STEP",
					"output":63
				},
				{
					"input":61,
					"interpolation":"STEP",
					"output":53
				},
				{
					"input":61,
					"interpolation":"STEP",
					"output":51
				},
				{
					"input":61,
					"interpolation":"STEP",
					"output":54
				},
				{
					"input":61,
					"interpolation":"STEP",
					"output":46
				},
				{
					"input":61,
					"interpolation":"STEP",
					"output":47
				},
				{
					"input":61,
					"interpolation":"STEP",
					"output":64
				},
				{
					"input":61,
					"interpolation":"STEP",
					"output":56
				},
				{
					"input":61,
					"interpolation":"STEP",
					"output":47
				},
				{
					"input":61,
					"interpolation":"STEP",
					"output":65
				},
				{
					"input":61,
					"interpolation":"STEP",
					"output":56
				},
				{
					"input":61,
					"interpolation":"STEP",
					"output":47
				}
			]
		},
		{
			"channels":[
				{
					"sampler":0,
					"target":{
						"node":19,
						"path":"translation"
					}
				},
				{
					"sampler":1,
					"target":{
						"node":19,
						"path":"rotation"
					}
				},
				{
					"sampler":2,
					"target":{
						"node":19,
						"path":"scale"
					}
				},
				{
					"sampler":3,
					"target":{
						"node":15,
						"path":"translation"
					}
				},
				{
					"sampler":4,
					"target":{
						"node":15,
						"path":"rotation"
					}
				},
				{
					"sampler":5,
					"target":{
						"node":15,
						"path":"scale"
					}
				},
				{
					"sampler":6,
					"target":{
						"node":0,
						"path":"translation"
					}
				},
				{
					"sampler":7,
					"target":{
						"node":0,
						"path":"rotation"
					}
				},
				{
					"sampler":8,
					"target":{
						"node":0,
						"path":"scale"
					}
				},
				{
					"sampler":9,
					"target":{
						"node":3,
						"path":"translation"
					}
				},
				{
					"sampler":10,
					"target":{
						"node":3,
						"path":"rotation"
					}
				},
				{
					"sampler":11,
					"target":{
						"node":3,
						"path":"scale"
					}
				},
				{
					"sampler":12,
					"target":{
						"node":13,
						"path":"translation"
					}
				},
				{
					"sampler":13,
					"target":{
						"node":13,
						"path":"rotation"
					}
				},
				{
					"sampler":14,
					"target":{
						"node":13,
						"path":"scale"
					}
				},
				{
					"sampler":15,
					"target":{
						"node":16,
						"path":"translation"
					}
				},
				{
					"sampler":16,
					"target":{
						"node":16,
						"path":"rotation"
					}
				},
				{
					"sampler":17,
					"target":{
						"node":16,
						"path":"scale"
					}
				},
				{
					"sampler":18,
					"target":{
						"node":17,
						"path":"translation"
					}
				},
				{
					"sampler":19,
					"target":{
						"node":17,
						"path":"rotation"
					}
				},
				{
					"sampler":20,
					"target":{
						"node":17,
						"path":"scale"
					}
				}
			],
			"name":"hurt",
			"samplers":[
				{
					"input":66,
					"interpolation":"STEP",
					"output":45
				},
				{
					"input":66,
					"interpolation":"STEP",
					"output":46
				},
				{
					"input":66,
					"interpolation":"STEP",
					"output":47
				},
				{
					"input":67,
					"interpolation":"LINEAR",
					"output":68
				},
				{
					"input":66,
					"interpolation":"STEP",
					"output":46
				},
				{
					"input":66,
					"interpolation":"STEP",
					"output":47
				},
				{
					"input":66,
					"interpolation":"STEP",
					"output":49
				},
				{
					"input":66,
					"interpolation":"STEP",
					"output":50
				},
				{
					"input":66,
					"interpolation":"STEP",
					"output":51
				},
				{
					"input":66,
					"interpolation":"STEP",
					"output":52
				},
				{
					"input":66,
					"interpolation":"STEP",
					"output":53
				},
				{
					"input":66,
					"interpolation":"STEP",
					"output":51
				},
				{
					"input":66,
					"interpolation":"STEP",
					"output":54
				},
				{
					"input":66,
					"interpolation":"STEP",
					"output":46
				},
				{
					"input":66,
					"interpolation":"STEP",
					"output":47
				},
				{
					"input":66,
					"interpolation":"STEP",
					"output":55
				},
				{
					"input":66,
					"interpolation":"STEP",
					"output":56
				},
				{
					"input":66,
					"interpolation":"STEP",
					"output":47
				},
				{
					"input":66,
					"interpolation":"STEP",
					"output":57
				},
				{
					"input":66,
					"interpolation":"STEP",
					"output":56
				},
				{
					"input":66,
					"interpolation":"STEP",
					"output":47
				}
			]
		},
		{
			"channels":[
				{
					"sampler":0,
					"target":{
						"node":19,
						"path":"translation"
					}
				},
				{
					"sampler":1,
					"target":{
						"node":19,
						"path":"rotation"
					}
				},
				{
					"sampler":2,
					"target":{
						"node":19,
						"path":"scale"
					}
				},
				{
					"sampler":3,
					"target":{
						"node":15,
						"path":"translation"
					}
				},
				{
					"sampler":4,
					"target":{
						"node":15,
						"path":"rotation"
					}
				},
				{
					"sampler":5,
					"target":{
						"node":15,
						"path":"scale"
					}
				},
				{
					"sampler":6,
					"target":{
						"node":0,
						"path":"translation"
					}
				},
				{
					"sampler":7,
					"target":{
						"node":0,
						"path":"rotation"
					}
				},
				{
					"sampler":8,
					"target":{
						"node":0,
						"path":"scale"
					}
				},
				{
					"sampler":9,
					"target":{
						"node":3,
						"path":"translation"
					}
				},
				{
					"sampler":10,
					"target":{
						"node":3,
						"path":"rotation"
					}
				},
				{
					"sampler":11,
					"target":{
						"node":3,
						"path":"scale"
					}
				},
				{
					"sampler":12,
					"target":{
						"node":13,
						"path":"translation"
					}
				},
				{
					"sampler":13,
					"target":{
						"node":13,
						"path":"rotation"
					}
				},
				{
					"sampler":14,
					"target":{
						"node":13,
						"path":"scale"
					}
				},
				{
					"sampler":15,
					"target":{
						"node":16,
						"path":"translation"
					}
				},
				{
					"sampler":16,
					"target":{
						"node":16,
						"path":"rotation"
					}
				},
				{
					"sampler":17,
					"target":{
						"node":16,
						"path":"scale"
					}
				},
				{
					"sampler":18,
					"target":{
						"node":17,
						"path":"translation"
					}
				},
				{
					"sampler":19,
					"target":{
						"node":17,
						"path":"rotation"
					}
				},
				{
					"sampler":20,
					"target":{
						"node":17,
						"path":"scale"
					}
				}
			],
			"name":"idle",
			"samplers":[
				{
					"input":69,
					"interpolation":"LINEAR",
					"output":70
				},
				{
					"input":58,
					"interpolation":"STEP",
					"output":46
				},
				{
					"input":58,
					"interpolation":"STEP",
					"output":47
				},
				{
					"input":69,
					"interpolation":"LINEAR",
					"output":71
				},
				{
					"input":58,
					"interpolation":"STEP",
					"output":46
				},
				{
					"input":58,
					"interpolation":"STEP",
					"output":47
				},
				{
					"input":58,
					"interpolation":"STEP",
					"output":49
				},
				{
					"input":58,
					"interpolation":"STEP",
					"output":50
				},
				{
					"input":58,
					"interpolation":"STEP",
					"output":51
				},
				{
					"input":58,
					"interpolation":"STEP",
					"output":52
				},
				{
					"input":58,
					"interpolation":"STEP",
					"output":53
				},
				{
					"input":58,
					"interpolation":"STEP",
					"output":51
				},
				{
					"input":58,
					"interpolation":"STEP",
					"output":54
				},
				{
					"input":58,
					"interpolation":"STEP",
					"output":46
				},
				{
					"input":58,
					"interpolation":"STEP",
					"output":47
				},
				{
					"input":58,
					"interpolation":"STEP",
					"output":55
				},
				{
					"input":58,
					"interpolation":"STEP",
					"output":56
				},
				{
					"input":58,
					"interpolation":"STEP",
					"output":47
				},
				{
					"input":58,
					"interpolation":"STEP",
					"output":57
				},
				{
					"input":58,
					"interpolation":"STEP",
					"output":56
				},
				{
					"input":58,
					"interpolation":"STEP",
					"output":47
				}
			]
		},
		{
			"channels":[
				{
					"sampler":0,
					"target":{
						"node":19,
						"path":"translation"
					}
				},
				{
					"sampler":1,
					"target":{
						"node":19,
						"path":"rotation"
					}
				},
				{
					"sampler":2,
					"target":{
						"node":19,
						"path":"scale"
					}
				},
				{
					"sampler":3,
					"target":{
						"node":15,
						"path":"translation"
					}
				},
				{
					"sampler":4,
					"target":{
						"node":15,
						"path":"rotation"
					}
				},
				{
					"sampler":5,
					"target":{
						"node":15,
						"path":"scale"
					}
				},
				{
					"sampler":6,
					"target":{
						"node":0,
						"path":"translation"
					}
				},
				{
					"sampler":7,
					"target":{
						"node":0,
						"path":"rotation"
					}
				},
				{
					"sampler":8,
					"target":{
						"node":0,
						"path":"scale"
					}
				},
				{
					"sampler":9,
					"target":{
						"node":3,
						"path":"translation"
					}
				},
				{
					"sampler":10,
					"target":{
						"node":3,
						"path":"rotation"
					}
				},
				{
					"sampler":11,
					"target":{
						"node":3,
						"path":"scale"
					}
				},
				{
					"sampler":12,
					"target":{
						"node":13,
						"path":"translation"
					}
				},
				{
					"sampler":13,
					"target":{
						"node":13,
						"path":"rotation"
					}
				},
				{
					"sampler":14,
					"target":{
						"node":13,
						"path":"scale"
					}
				},
				{
					"sampler":15,
					"target":{
						"node":16,
						"path":"translation"
					}
				},
				{
					"sampler":16,
					"target":{
						"node":16,
						"path":"rotation"
					}
				},
				{
					"sampler":17,
					"target":{
						"node":16,
						"path":"scale"
					}
				},
				{
					"sampler":18,
					"target":{
						"node":17,
						"path":"translation"
					}
				},
				{
					"sampler":19,
					"target":{
						"node":17,
						"path":"rotation"
					}
				},
				{
					"sampler":20,
					"target":{
						"node":17,
						"path":"scale"
					}
				}
			],
			"name":"walk",
			"samplers":[
				{
					"input":58,
					"interpolation":"STEP",
					"output":45
				},
				{
					"input":58,
					"interpolation":"STEP",
					"output":46
				},
				{
					"input":58,
					"interpolation":"STEP",
					"output":47
				},
				{
					"input":58,
					"interpolation":"STEP",
					"output":48
				},
				{
					"input":58,
					"interpolation":"STEP",
					"output":46
				},
				{
					"input":58,
					"interpolation":"STEP",
					"output":47
				},
				{
					"input":58,
					"interpolation":"STEP",
					"output":49
				},
				{
					"input":58,
					"interpolation":"STEP",
					"output":50
				},
				{
					"input":58,
					"interpolation":"STEP",
					"output":51
				},
				{
					"input":58,
					"interpolation":"STEP",
					"output":52
				},
				{
					"input":58,
					"interpolation":"STEP",
					"output":53
				},
				{
					"input":58,
					"interpolation":"STEP",
					"output":51
				},
				{
					"input":58,
					"interpolation":"STEP",
					"output":54
				},
				{
					"input":58,
					"interpolation":"STEP",
					"output":46
				},
				{
					"input":58,
					"interpolation":"STEP",
					"output":47
				},
				{
					"input":58,
					"interpolation":"STEP",
					"output":55
				},
				{
					"input":58,
					"interpolation":"STEP",
					"output":56
				},
				{
					"input":58,
					"interpolation":"STEP",
					"output":47
				},
				{
					"input":58,
					"interpolation":"STEP",
					"output":57
				},
				{
					"input":58,
					"interpolation":"STEP",
					"output":56
				},
				{
					"input":58,
					"interpolation":"STEP",
					"output":47
				}
			]
		}
	],
	"materials":[
		{
			"doubleSided":true,
			"name":"GothicCrown",
			"pbrMetallicRoughness":{
				"baseColorFactor":[
					0.20000000298023224,
					0.18000000715255737,
					0.2199999988079071,
					1
				],
				"metallicFactor":0.8999999761581421,
				"roughnessFactor":0.4000000059604645
			}
		},
		{
			"doubleSided":true,
			"emissiveFactor":[
				0.20000000298023224,
				0.8999999761581421,
				1
			],
			"extensions":{
				"KHR_materials_emissive_strength":{
					"emissiveStrength":2.5
				}
			},
			"name":"ReaperBlade",
			"pbrMetallicRoughness":{
				"baseColorFactor":[
					0.30000001192092896,
					0.3499999940395355,
					0.4000000059604645,
					1
				],
				"metallicFactor":0.8999999761581421,
				"roughnessFactor":0.30000001192092896
			}
		},
		{
			"doubleSided":true,
			"emissiveFactor":[
				0.10000000149011612,
				0.8500000238418579,
				1
			],
			"extensions":{
				"KHR_materials_emissive_strength":{
					"emissiveStrength":6
				}
			},
			"name":"SoulEthereal",
			"pbrMetallicRoughness":{
				"baseColorFactor":[
					0.10000000149011612,
					0.800000011920929,
					0.949999988079071,
					1
				],
				"metallicFactor":0.10000000149011612,
				"roughnessFactor":0.699999988079071
			}
		},
		{
			"doubleSided":true,
			"name":"WraithVoid",
			"pbrMetallicRoughness":{
				"baseColorFactor":[
					0.03999999910593033,
					0.029999999329447746,
					0.05999999865889549,
					1
				],
				"metallicFactor":0.10000000149011612,
				"roughnessFactor":0.8999999761581421
			}
		}
	],
	"meshes":[
		{
			"name":"Cylinder",
			"primitives":[
				{
					"attributes":{
						"POSITION":0,
						"NORMAL":1,
						"TEXCOORD_0":2
					},
					"indices":3,
					"material":0
				}
			]
		},
		{
			"name":"Torus",
			"primitives":[
				{
					"attributes":{
						"POSITION":4,
						"NORMAL":5,
						"TEXCOORD_0":6
					},
					"indices":7,
					"material":1
				}
			]
		},
		{
			"name":"Cone.001",
			"primitives":[
				{
					"attributes":{
						"POSITION":8,
						"NORMAL":9,
						"TEXCOORD_0":10
					},
					"indices":11,
					"material":0
				}
			]
		},
		{
			"name":"Cone.002",
			"primitives":[
				{
					"attributes":{
						"POSITION":12,
						"NORMAL":13,
						"TEXCOORD_0":14
					},
					"indices":11,
					"material":0
				}
			]
		},
		{
			"name":"Cone.003",
			"primitives":[
				{
					"attributes":{
						"POSITION":15,
						"NORMAL":16,
						"TEXCOORD_0":17
					},
					"indices":11,
					"material":0
				}
			]
		},
		{
			"name":"Cone.004",
			"primitives":[
				{
					"attributes":{
						"POSITION":18,
						"NORMAL":19,
						"TEXCOORD_0":20
					},
					"indices":11,
					"material":0
				}
			]
		},
		{
			"name":"Cone.005",
			"primitives":[
				{
					"attributes":{
						"POSITION":21,
						"NORMAL":22,
						"TEXCOORD_0":23
					},
					"indices":11,
					"material":0
				}
			]
		},
		{
			"name":"Cone.006",
			"primitives":[
				{
					"attributes":{
						"POSITION":24,
						"NORMAL":25,
						"TEXCOORD_0":26
					},
					"indices":11,
					"material":0
				}
			]
		},
		{
			"name":"Cone.007",
			"primitives":[
				{
					"attributes":{
						"POSITION":27,
						"NORMAL":28,
						"TEXCOORD_0":29
					},
					"indices":11,
					"material":0
				}
			]
		},
		{
			"name":"Cone.008",
			"primitives":[
				{
					"attributes":{
						"POSITION":30,
						"NORMAL":31,
						"TEXCOORD_0":32
					},
					"indices":11,
					"material":0
				}
			]
		},
		{
			"name":"Sphere.001",
			"primitives":[
				{
					"attributes":{
						"POSITION":33,
						"NORMAL":34,
						"TEXCOORD_0":35
					},
					"indices":36,
					"material":0
				}
			]
		},
		{
			"name":"Sphere",
			"primitives":[
				{
					"attributes":{
						"POSITION":37,
						"NORMAL":38,
						"TEXCOORD_0":39
					},
					"indices":40,
					"material":2
				}
			]
		},
		{
			"name":"Cone",
			"primitives":[
				{
					"attributes":{
						"POSITION":41,
						"NORMAL":42,
						"TEXCOORD_0":43
					},
					"indices":11,
					"material":3
				}
			]
		}
	],
	"skins":[
		{
			"inverseBindMatrices":72,
			"joints":[
				19,
				15,
				0,
				3,
				13,
				16,
				17
			],
			"name":"ValthorRig"
		}
	],
	"accessors":[
		{
			"bufferView":0,
			"componentType":5126,
			"count":192,
			"max":[
				0.05000000074505806,
				1.5,
				0.05000000074505806
			],
			"min":[
				-0.05000000074505806,
				-1.5,
				-0.05000000074505806
			],
			"type":"VEC3"
		},
		{
			"bufferView":1,
			"componentType":5126,
			"count":192,
			"type":"VEC3"
		},
		{
			"bufferView":2,
			"componentType":5126,
			"count":192,
			"type":"VEC2"
		},
		{
			"bufferView":3,
			"componentType":5123,
			"count":372,
			"type":"SCALAR"
		},
		{
			"bufferView":4,
			"componentType":5126,
			"count":2304,
			"max":[
				0.6600000262260437,
				0.05999999865889549,
				0.6600000262260437
			],
			"min":[
				-0.6600000262260437,
				-0.05999999865889549,
				-0.6600000262260437
			],
			"type":"VEC3"
		},
		{
			"bufferView":5,
			"componentType":5126,
			"count":2304,
			"type":"VEC3"
		},
		{
			"bufferView":6,
			"componentType":5126,
			"count":2304,
			"type":"VEC2"
		},
		{
			"bufferView":7,
			"componentType":5123,
			"count":3456,
			"type":"SCALAR"
		},
		{
			"bufferView":8,
			"componentType":5126,
			"count":128,
			"max":[
				0.05000000074505806,
				0.17499999701976776,
				0.05000000074505806
			],
			"min":[
				-0.05000000074505806,
				-0.17499999701976776,
				-0.05000000074505806
			],
			"type":"VEC3"
		},
		{
			"bufferView":9,
			"componentType":5126,
			"count":128,
			"type":"VEC3"
		},
		{
			"bufferView":10,
			"componentType":5126,
			"count":128,
			"type":"VEC2"
		},
		{
			"bufferView":11,
			"componentType":5123,
			"count":186,
			"type":"SCALAR"
		},
		{
			"bufferView":12,
			"componentType":5126,
			"count":128,
			"max":[
				0.05000000074505806,
				0.17499999701976776,
				0.05000000074505806
			],
			"min":[
				-0.05000000074505806,
				-0.17499999701976776,
				-0.05000000074505806
			],
			"type":"VEC3"
		},
		{
			"bufferView":13,
			"componentType":5126,
			"count":128,
			"type":"VEC3"
		},
		{
			"bufferView":14,
			"componentType":5126,
			"count":128,
			"type":"VEC2"
		},
		{
			"bufferView":15,
			"componentType":5126,
			"count":128,
			"max":[
				0.05000000074505806,
				0.17499999701976776,
				0.05000000074505806
			],
			"min":[
				-0.05000000074505806,
				-0.17499999701976776,
				-0.05000000074505806
			],
			"type":"VEC3"
		},
		{
			"bufferView":16,
			"componentType":5126,
			"count":128,
			"type":"VEC3"
		},
		{
			"bufferView":17,
			"componentType":5126,
			"count":128,
			"type":"VEC2"
		},
		{
			"bufferView":18,
			"componentType":5126,
			"count":128,
			"max":[
				0.05000000074505806,
				0.17499999701976776,
				0.05000000074505806
			],
			"min":[
				-0.05000000074505806,
				-0.17499999701976776,
				-0.05000000074505806
			],
			"type":"VEC3"
		},
		{
			"bufferView":19,
			"componentType":5126,
			"count":128,
			"type":"VEC3"
		},
		{
			"bufferView":20,
			"componentType":5126,
			"count":128,
			"type":"VEC2"
		},
		{
			"bufferView":21,
			"componentType":5126,
			"count":128,
			"max":[
				0.05000000074505806,
				0.17499999701976776,
				0.05000000074505806
			],
			"min":[
				-0.05000000074505806,
				-0.17499999701976776,
				-0.05000000074505806
			],
			"type":"VEC3"
		},
		{
			"bufferView":22,
			"componentType":5126,
			"count":128,
			"type":"VEC3"
		},
		{
			"bufferView":23,
			"componentType":5126,
			"count":128,
			"type":"VEC2"
		},
		{
			"bufferView":24,
			"componentType":5126,
			"count":128,
			"max":[
				0.05000000074505806,
				0.17499999701976776,
				0.05000000074505806
			],
			"min":[
				-0.05000000074505806,
				-0.17499999701976776,
				-0.05000000074505806
			],
			"type":"VEC3"
		},
		{
			"bufferView":25,
			"componentType":5126,
			"count":128,
			"type":"VEC3"
		},
		{
			"bufferView":26,
			"componentType":5126,
			"count":128,
			"type":"VEC2"
		},
		{
			"bufferView":27,
			"componentType":5126,
			"count":128,
			"max":[
				0.05000000074505806,
				0.17499999701976776,
				0.05000000074505806
			],
			"min":[
				-0.05000000074505806,
				-0.17499999701976776,
				-0.05000000074505806
			],
			"type":"VEC3"
		},
		{
			"bufferView":28,
			"componentType":5126,
			"count":128,
			"type":"VEC3"
		},
		{
			"bufferView":29,
			"componentType":5126,
			"count":128,
			"type":"VEC2"
		},
		{
			"bufferView":30,
			"componentType":5126,
			"count":128,
			"max":[
				0.05000000074505806,
				0.17499999701976776,
				0.05000000074505806
			],
			"min":[
				-0.05000000074505806,
				-0.17499999701976776,
				-0.05000000074505806
			],
			"type":"VEC3"
		},
		{
			"bufferView":31,
			"componentType":5126,
			"count":128,
			"type":"VEC3"
		},
		{
			"bufferView":32,
			"componentType":5126,
			"count":128,
			"type":"VEC2"
		},
		{
			"bufferView":33,
			"componentType":5126,
			"count":1984,
			"max":[
				0.2999999523162842,
				0.30000001192092896,
				0.299999862909317
			],
			"min":[
				-0.29999974370002747,
				-0.30000001192092896,
				-0.30000001192092896
			],
			"type":"VEC3"
		},
		{
			"bufferView":34,
			"componentType":5126,
			"count":1984,
			"type":"VEC3"
		},
		{
			"bufferView":35,
			"componentType":5126,
			"count":1984,
			"type":"VEC2"
		},
		{
			"bufferView":36,
			"componentType":5123,
			"count":2880,
			"type":"SCALAR"
		},
		{
			"bufferView":37,
			"componentType":5126,
			"count":1984,
			"max":[
				0.34999987483024597,
				0.3499999940395355,
				0.3499997556209564
			],
			"min":[
				-0.34999966621398926,
				-0.3499999940395355,
				-0.3499999940395355
			],
			"type":"VEC3"
		},
		{
			"bufferView":38,
			"componentType":5126,
			"count":1984,
			"type":"VEC3"
		},
		{
			"bufferView":39,
			"componentType":5126,
			"count":1984,
			"type":"VEC2"
		},
		{
			"bufferView":40,
			"componentType":5123,
			"count":2880,
			"type":"SCALAR"
		},
		{
			"bufferView":41,
			"componentType":5126,
			"count":128,
			"max":[
				0.699999988079071,
				1.100000023841858,
				0.699999988079071
			],
			"min":[
				-0.699999988079071,
				-1.100000023841858,
				-0.699999988079071
			],
			"type":"VEC3"
		},
		{
			"bufferView":42,
			"componentType":5126,
			"count":128,
			"type":"VEC3"
		},
		{
			"bufferView":43,
			"componentType":5126,
			"count":128,
			"type":"VEC2"
		},
		{
			"bufferView":44,
			"componentType":5126,
			"count":2,
			"max":[
				1
			],
			"min":[
				0.041666666666666664
			],
			"type":"SCALAR"
		},
		{
			"bufferView":45,
			"componentType":5126,
			"count":2,
			"type":"VEC3"
		},
		{
			"bufferView":46,
			"componentType":5126,
			"count":2,
			"type":"VEC4"
		},
		{
			"bufferView":47,
			"componentType":5126,
			"count":2,
			"type":"VEC3"
		},
		{
			"bufferView":48,
			"componentType":5126,
			"count":2,
			"type":"VEC3"
		},
		{
			"bufferView":49,
			"componentType":5126,
			"count":2,
			"type":"VEC3"
		},
		{
			"bufferView":50,
			"componentType":5126,
			"count":2,
			"type":"VEC4"
		},
		{
			"bufferView":51,
			"componentType":5126,
			"count":2,
			"type":"VEC3"
		},
		{
			"bufferView":52,
			"componentType":5126,
			"count":2,
			"type":"VEC3"
		},
		{
			"bufferView":53,
			"componentType":5126,
			"count":2,
			"type":"VEC4"
		},
		{
			"bufferView":54,
			"componentType":5126,
			"count":2,
			"type":"VEC3"
		},
		{
			"bufferView":55,
			"componentType":5126,
			"count":2,
			"type":"VEC3"
		},
		{
			"bufferView":56,
			"componentType":5126,
			"count":2,
			"type":"VEC4"
		},
		{
			"bufferView":57,
			"componentType":5126,
			"count":2,
			"type":"VEC3"
		},
		{
			"bufferView":58,
			"componentType":5126,
			"count":2,
			"max":[
				1.25
			],
			"min":[
				0.041666666666666664
			],
			"type":"SCALAR"
		},
		{
			"bufferView":59,
			"componentType":5126,
			"count":25,
			"max":[
				1.0416666666666667
			],
			"min":[
				0.041666666666666664
			],
			"type":"SCALAR"
		},
		{
			"bufferView":60,
			"componentType":5126,
			"count":25,
			"type":"VEC3"
		},
		{
			"bufferView":61,
			"componentType":5126,
			"count":2,
			"max":[
				1.0416666666666667
			],
			"min":[
				0.041666666666666664
			],
			"type":"SCALAR"
		},
		{
			"bufferView":62,
			"componentType":5126,
			"count":2,
			"type":"VEC3"
		},
		{
			"bufferView":63,
			"componentType":5126,
			"count":2,
			"type":"VEC3"
		},
		{
			"bufferView":64,
			"componentType":5126,
			"count":2,
			"type":"VEC3"
		},
		{
			"bufferView":65,
			"componentType":5126,
			"count":2,
			"type":"VEC3"
		},
		{
			"bufferView":66,
			"componentType":5126,
			"count":2,
			"max":[
				0.6666666666666666
			],
			"min":[
				0.041666666666666664
			],
			"type":"SCALAR"
		},
		{
			"bufferView":67,
			"componentType":5126,
			"count":16,
			"max":[
				0.6666666666666666
			],
			"min":[
				0.041666666666666664
			],
			"type":"SCALAR"
		},
		{
			"bufferView":68,
			"componentType":5126,
			"count":16,
			"type":"VEC3"
		},
		{
			"bufferView":69,
			"componentType":5126,
			"count":30,
			"max":[
				1.25
			],
			"min":[
				0.041666666666666664
			],
			"type":"SCALAR"
		},
		{
			"bufferView":70,
			"componentType":5126,
			"count":30,
			"type":"VEC3"
		},
		{
			"bufferView":71,
			"componentType":5126,
			"count":30,
			"type":"VEC3"
		},
		{
			"bufferView":72,
			"componentType":5126,
			"count":7,
			"type":"MAT4"
		}
	],
	"bufferViews":[
		{
			"buffer":0,
			"byteLength":2304,
			"byteOffset":0,
			"target":34962
		},
		{
			"buffer":0,
			"byteLength":2304,
			"byteOffset":2304,
			"target":34962
		},
		{
			"buffer":0,
			"byteLength":1536,
			"byteOffset":4608,
			"target":34962
		},
		{
			"buffer":0,
			"byteLength":744,
			"byteOffset":6144,
			"target":34963
		},
		{
			"buffer":0,
			"byteLength":27648,
			"byteOffset":6888,
			"target":34962
		},
		{
			"buffer":0,
			"byteLength":27648,
			"byteOffset":34536,
			"target":34962
		},
		{
			"buffer":0,
			"byteLength":18432,
			"byteOffset":62184,
			"target":34962
		},
		{
			"buffer":0,
			"byteLength":6912,
			"byteOffset":80616,
			"target":34963
		},
		{
			"buffer":0,
			"byteLength":1536,
			"byteOffset":87528,
			"target":34962
		},
		{
			"buffer":0,
			"byteLength":1536,
			"byteOffset":89064,
			"target":34962
		},
		{
			"buffer":0,
			"byteLength":1024,
			"byteOffset":90600,
			"target":34962
		},
		{
			"buffer":0,
			"byteLength":372,
			"byteOffset":91624,
			"target":34963
		},
		{
			"buffer":0,
			"byteLength":1536,
			"byteOffset":91996,
			"target":34962
		},
		{
			"buffer":0,
			"byteLength":1536,
			"byteOffset":93532,
			"target":34962
		},
		{
			"buffer":0,
			"byteLength":1024,
			"byteOffset":95068,
			"target":34962
		},
		{
			"buffer":0,
			"byteLength":1536,
			"byteOffset":96092,
			"target":34962
		},
		{
			"buffer":0,
			"byteLength":1536,
			"byteOffset":97628,
			"target":34962
		},
		{
			"buffer":0,
			"byteLength":1024,
			"byteOffset":99164,
			"target":34962
		},
		{
			"buffer":0,
			"byteLength":1536,
			"byteOffset":100188,
			"target":34962
		},
		{
			"buffer":0,
			"byteLength":1536,
			"byteOffset":101724,
			"target":34962
		},
		{
			"buffer":0,
			"byteLength":1024,
			"byteOffset":103260,
			"target":34962
		},
		{
			"buffer":0,
			"byteLength":1536,
			"byteOffset":104284,
			"target":34962
		},
		{
			"buffer":0,
			"byteLength":1536,
			"byteOffset":105820,
			"target":34962
		},
		{
			"buffer":0,
			"byteLength":1024,
			"byteOffset":107356,
			"target":34962
		},
		{
			"buffer":0,
			"byteLength":1536,
			"byteOffset":108380,
			"target":34962
		},
		{
			"buffer":0,
			"byteLength":1536,
			"byteOffset":109916,
			"target":34962
		},
		{
			"buffer":0,
			"byteLength":1024,
			"byteOffset":111452,
			"target":34962
		},
		{
			"buffer":0,
			"byteLength":1536,
			"byteOffset":112476,
			"target":34962
		},
		{
			"buffer":0,
			"byteLength":1536,
			"byteOffset":114012,
			"target":34962
		},
		{
			"buffer":0,
			"byteLength":1024,
			"byteOffset":115548,
			"target":34962
		},
		{
			"buffer":0,
			"byteLength":1536,
			"byteOffset":116572,
			"target":34962
		},
		{
			"buffer":0,
			"byteLength":1536,
			"byteOffset":118108,
			"target":34962
		},
		{
			"buffer":0,
			"byteLength":1024,
			"byteOffset":119644,
			"target":34962
		},
		{
			"buffer":0,
			"byteLength":23808,
			"byteOffset":120668,
			"target":34962
		},
		{
			"buffer":0,
			"byteLength":23808,
			"byteOffset":144476,
			"target":34962
		},
		{
			"buffer":0,
			"byteLength":15872,
			"byteOffset":168284,
			"target":34962
		},
		{
			"buffer":0,
			"byteLength":5760,
			"byteOffset":184156,
			"target":34963
		},
		{
			"buffer":0,
			"byteLength":23808,
			"byteOffset":189916,
			"target":34962
		},
		{
			"buffer":0,
			"byteLength":23808,
			"byteOffset":213724,
			"target":34962
		},
		{
			"buffer":0,
			"byteLength":15872,
			"byteOffset":237532,
			"target":34962
		},
		{
			"buffer":0,
			"byteLength":5760,
			"byteOffset":253404,
			"target":34963
		},
		{
			"buffer":0,
			"byteLength":1536,
			"byteOffset":259164,
			"target":34962
		},
		{
			"buffer":0,
			"byteLength":1536,
			"byteOffset":260700,
			"target":34962
		},
		{
			"buffer":0,
			"byteLength":1024,
			"byteOffset":262236,
			"target":34962
		},
		{
			"buffer":0,
			"byteLength":8,
			"byteOffset":263260
		},
		{
			"buffer":0,
			"byteLength":24,
			"byteOffset":263268
		},
		{
			"buffer":0,
			"byteLength":32,
			"byteOffset":263292
		},
		{
			"buffer":0,
			"byteLength":24,
			"byteOffset":263324
		},
		{
			"buffer":0,
			"byteLength":24,
			"byteOffset":263348
		},
		{
			"buffer":0,
			"byteLength":24,
			"byteOffset":263372
		},
		{
			"buffer":0,
			"byteLength":32,
			"byteOffset":263396
		},
		{
			"buffer":0,
			"byteLength":24,
			"byteOffset":263428
		},
		{
			"buffer":0,
			"byteLength":24,
			"byteOffset":263452
		},
		{
			"buffer":0,
			"byteLength":32,
			"byteOffset":263476
		},
		{
			"buffer":0,
			"byteLength":24,
			"byteOffset":263508
		},
		{
			"buffer":0,
			"byteLength":24,
			"byteOffset":263532
		},
		{
			"buffer":0,
			"byteLength":32,
			"byteOffset":263556
		},
		{
			"buffer":0,
			"byteLength":24,
			"byteOffset":263588
		},
		{
			"buffer":0,
			"byteLength":8,
			"byteOffset":263612
		},
		{
			"buffer":0,
			"byteLength":100,
			"byteOffset":263620
		},
		{
			"buffer":0,
			"byteLength":300,
			"byteOffset":263720
		},
		{
			"buffer":0,
			"byteLength":8,
			"byteOffset":264020
		},
		{
			"buffer":0,
			"byteLength":24,
			"byteOffset":264028
		},
		{
			"buffer":0,
			"byteLength":24,
			"byteOffset":264052
		},
		{
			"buffer":0,
			"byteLength":24,
			"byteOffset":264076
		},
		{
			"buffer":0,
			"byteLength":24,
			"byteOffset":264100
		},
		{
			"buffer":0,
			"byteLength":8,
			"byteOffset":264124
		},
		{
			"buffer":0,
			"byteLength":64,
			"byteOffset":264132
		},
		{
			"buffer":0,
			"byteLength":192,
			"byteOffset":264196
		},
		{
			"buffer":0,
			"byteLength":120,
			"byteOffset":264388
		},
		{
			"buffer":0,
			"byteLength":360,
			"byteOffset":264508
		},
		{
			"buffer":0,
			"byteLength":360,
			"byteOffset":264868
		},
		{
			"buffer":0,
			"byteLength":448,
			"byteOffset":265228
		}
	],
	"buffers":[
		{
			"byteLength":265676,
			"uri":"boss_valthor.bin"
		}
	]
}
