{
	"asset":{
		"generator":"Khronos glTF Blender I/O v5.2.40",
		"version":"2.0"
	},
	"extensionsUsed":[
		"KHR_materials_emissive_strength"
	],
	"scene":0,
	"scenes":[
		{
			"name":"Scene",
			"nodes":[
				13
			]
		}
	],
	"nodes":[
		{
			"mesh":0,
			"name":"Cylinder",
			"rotation":[
				0.7071067690849304,
				-1.8812704283277526e-08,
				-1.9365737458088006e-08,
				0.7071067690849304
			],
			"translation":[
				0.7500001192092896,
				0.4726811945438385,
				1.4000000953674316
			]
		},
		{
			"mesh":1,
			"name":"Sphere.001",
			"rotation":[
				0.7071067690849304,
				-1.8812704283277526e-08,
				-1.9365737458088006e-08,
				0.7071067690849304
			],
			"translation":[
				0.7500000596046448,
				0.47268161177635193,
				2.450000286102295
			]
		},
		{
			"children":[
				0,
				1
			],
			"name":"Arm_L",
			"rotation":[
				-0.87164705991745,
				-0.33448243141174316,
				-0.33448243141174316,
				0.12835294008255005
			],
			"scale":[
				0.9999999403953552,
				0.9999998211860657,
				1
			],
			"translation":[
				0.3499999940395355,
				0.3999999761581421,
				0
			]
		},
		{
			"name":"Arm_R",
			"rotation":[
				-0.87164705991745,
				0.33448243141174316,
				0.33448243141174316,
				0.12835294008255005
			],
			"scale":[
				0.9999999403953552,
				0.9999998211860657,
				1
			],
			"translation":[
				-0.3499999940395355,
				0.3999999761581421,
				0
			]
		},
		{
			"mesh":2,
			"name":"Sphere",
			"rotation":[
				0.7071067690849304,
				0,
				0,
				0.7071067690849304
			],
			"translation":[
				0,
				0.5000001192092896,
				2.1500000953674316
			]
		},
		{
			"children":[
				4
			],
			"name":"Head",
			"translation":[
				0,
				0.5,
				0
			]
		},
		{
			"mesh":3,
			"name":"Cube",
			"rotation":[
				0.7071067690849304,
				0,
				0,
				0.7071067690849304
			],
			"scale":[
				0.699999988079071,
				0.8999999761581421,
				0.44999998807907104
			],
			"translation":[
				0,
				0.5,
				1.5499999523162842
			]
		},
		{
			"children":[
				2,
				3,
				5,
				6
			],
			"name":"Chest",
			"translation":[
				0,
				0.3999999761581421,
				0
			]
		},
		{
			"name":"Leg_L",
			"rotation":[
				1,
				0,
				-4.371138828673793e-08,
				0
			],
			"translation":[
				0.25,
				0,
				0
			]
		},
		{
			"name":"Leg_R",
			"rotation":[
				1,
				0,
				-4.371138828673793e-08,
				0
			],
			"translation":[
				-0.25,
				0,
				0
			]
		},
		{
			"mesh":4,
			"name":"Cone",
			"rotation":[
				0.7071067690849304,
				0,
				0,
				0.7071067690849304
			],
			"translation":[
				0,
				0.3999999761581421,
				0.8999999761581421
			]
		},
		{
			"mesh":5,
			"name":"Cube.001",
			"rotation":[
				0.7071067690849304,
				0,
				0,
				0.7071067690849304
			],
			"scale":[
				0.3499999940395355,
				0.8999999761581421,
				1.2000000476837158
			],
			"translation":[
				-0.30000001192092896,
				0.25,
				1.100000023841858
			]
		},
		{
			"children":[
				7,
				8,
				9,
				10,
				11
			],
			"name":"Hips",
			"translation":[
				0,
				1,
				0
			]
		},
		{
			"children":[
				12
			],
			"name":"ClericRig"
		}
	],
	"animations":[
		{
			"channels":[
				{
					"sampler":0,
					"target":{
						"node":12,
						"path":"translation"
					}
				},
				{
					"sampler":1,
					"target":{
						"node":12,
						"path":"rotation"
					}
				},
				{
					"sampler":2,
					"target":{
						"node":12,
						"path":"scale"
					}
				},
				{
					"sampler":3,
					"target":{
						"node":7,
						"path":"translation"
					}
				},
				{
					"sampler":4,
					"target":{
						"node":7,
						"path":"rotation"
					}
				},
				{
					"sampler":5,
					"target":{
						"node":7,
						"path":"scale"
					}
				},
				{
					"sampler":6,
					"target":{
						"node":2,
						"path":"translation"
					}
				},
				{
					"sampler":7,
					"target":{
						"node":2,
						"path":"rotation"
					}
				},
				{
					"sampler":8,
					"target":{
						"node":2,
						"path":"scale"
					}
				},
				{
					"sampler":9,
					"target":{
						"node":3,
						"path":"translation"
					}
				},
				{
					"sampler":10,
					"target":{
						"node":3,
						"path":"rotation"
					}
				},
				{
					"sampler":11,
					"target":{
						"node":3,
						"path":"scale"
					}
				},
				{
					"sampler":12,
					"target":{
						"node":5,
						"path":"translation"
					}
				},
				{
					"sampler":13,
					"target":{
						"node":5,
						"path":"rotation"
					}
				},
				{
					"sampler":14,
					"target":{
						"node":5,
						"path":"scale"
					}
				},
				{
					"sampler":15,
					"target":{
						"node":8,
						"path":"translation"
					}
				},
				{
					"sampler":16,
					"target":{
						"node":8,
						"path":"rotation"
					}
				},
				{
					"sampler":17,
					"target":{
						"node":8,
						"path":"scale"
					}
				},
				{
					"sampler":18,
					"target":{
						"node":9,
						"path":"translation"
					}
				},
				{
					"sampler":19,
					"target":{
						"node":9,
						"path":"rotation"
					}
				},
				{
					"sampler":20,
					"target":{
						"node":9,
						"path":"scale"
					}
				}
			],
			"name":"attack",
			"samplers":[
				{
					"input":23,
					"interpolation":"STEP",
					"output":24
				},
				{
					"input":23,
					"interpolation":"STEP",
					"output":25
				},
				{
					"input":23,
					"interpolation":"STEP",
					"output":26
				},
				{
					"input":23,
					"interpolation":"STEP",
					"output":27
				},
				{
					"input":23,
					"interpolation":"STEP",
					"output":25
				},
				{
					"input":23,
					"interpolation":"STEP",
					"output":26
				},
				{
					"input":23,
					"interpolation":"STEP",
					"output":28
				},
				{
					"input":23,
					"interpolation":"STEP",
					"output":29
				},
				{
					"input":23,
					"interpolation":"STEP",
					"output":30
				},
				{
					"input":23,
					"interpolation":"STEP",
					"output":31
				},
				{
					"input":23,
					"interpolation":"STEP",
					"output":32
				},
				{
					"input":23,
					"interpolation":"STEP",
					"output":30
				},
				{
					"input":23,
					"interpolation":"STEP",
					"output":33
				},
				{
					"input":23,
					"interpolation":"STEP",
					"output":25
				},
				{
					"input":23,
					"interpolation":"STEP",
					"output":26
				},
				{
					"input":23,
					"interpolation":"STEP",
					"output":34
				},
				{
					"input":23,
					"interpolation":"STEP",
					"output":35
				},
				{
					"input":23,
					"interpolation":"STEP",
					"output":26
				},
				{
					"input":23,
					"interpolation":"STEP",
					"output":36
				},
				{
					"input":23,
					"interpolation":"STEP",
					"output":35
				},
				{
					"input":23,
					"interpolation":"STEP",
					"output":26
				}
			]
		},
		{
			"channels":[
				{
					"sampler":0,
					"target":{
						"node":12,
						"path":"translation"
					}
				},
				{
					"sampler":1,
					"target":{
						"node":12,
						"path":"rotation"
					}
				},
				{
					"sampler":2,
					"target":{
						"node":12,
						"path":"scale"
					}
				},
				{
					"sampler":3,
					"target":{
						"node":7,
						"path":"translation"
					}
				},
				{
					"sampler":4,
					"target":{
						"node":7,
						"path":"rotation"
					}
				},
				{
					"sampler":5,
					"target":{
						"node":7,
						"path":"scale"
					}
				},
				{
					"sampler":6,
					"target":{
						"node":2,
						"path":"translation"
					}
				},
				{
					"sampler":7,
					"target":{
						"node":2,
						"path":"rotation"
					}
				},
				{
					"sampler":8,
					"target":{
						"node":2,
						"path":"scale"
					}
				},
				{
					"sampler":9,
					"target":{
						"node":3,
						"path":"translation"
					}
				},
				{
					"sampler":10,
					"target":{
						"node":3,
						"path":"rotation"
					}
				},
				{
					"sampler":11,
					"target":{
						"node":3,
						"path":"scale"
					}
				},
				{
					"sampler":12,
					"target":{
						"node":5,
						"path":"translation"
					}
				},
				{
					"sampler":13,
					"target":{
						"node":5,
						"path":"rotation"
					}
				},
				{
					"sampler":14,
					"target":{
						"node":5,
						"path":"scale"
					}
				},
				{
					"sampler":15,
					"target":{
						"node":8,
						"path":"translation"
					}
				},
				{
					"sampler":16,
					"target":{
						"node":8,
						"path":"rotation"
					}
				},
				{
					"sampler":17,
					"target":{
						"node":8,
						"path":"scale"
					}
				},
				{
					"sampler":18,
					"target":{
						"node":9,
						"path":"translation"
					}
				},
				{
					"sampler":19,
					"target":{
						"node":9,
						"path":"rotation"
					}
				},
				{
					"sampler":20,
					"target":{
						"node":9,
						"path":"scale"
					}
				}
			],
			"name":"cast_heal",
			"samplers":[
				{
					"input":37,
					"interpolation":"STEP",
					"output":24
				},
				{
					"input":37,
					"interpolation":"STEP",
					"output":25
				},
				{
					"input":37,
					"interpolation":"STEP",
					"output":26
				},
				{
					"input":37,
					"interpolation":"STEP",
					"output":27
				},
				{
					"input":37,
					"interpolation":"STEP",
					"output":25
				},
				{
					"input":37,
					"interpolation":"STEP",
					"output":26
				},
				{
					"input":37,
					"interpolation":"STEP",
					"output":28
				},
				{
					"input":37,
					"interpolation":"STEP",
					"output":29
				},
				{
					"input":37,
					"interpolation":"STEP",
					"output":30
				},
				{
					"input":37,
					"interpolation":"STEP",
					"output":31
				},
				{
					"input":37,
					"interpolation":"STEP",
					"output":32
				},
				{
					"input":37,
					"interpolation":"STEP",
					"output":30
				},
				{
					"input":37,
					"interpolation":"STEP",
					"output":33
				},
				{
					"input":37,
					"interpolation":"STEP",
					"output":25
				},
				{
					"input":37,
					"interpolation":"STEP",
					"output":26
				},
				{
					"input":37,
					"interpolation":"STEP",
					"output":34
				},
				{
					"input":37,
					"interpolation":"STEP",
					"output":35
				},
				{
					"input":37,
					"interpolation":"STEP",
					"output":26
				},
				{
					"input":37,
					"interpolation":"STEP",
					"output":36
				},
				{
					"input":37,
					"interpolation":"STEP",
					"output":35
				},
				{
					"input":37,
					"interpolation":"STEP",
					"output":26
				}
			]
		},
		{
			"channels":[
				{
					"sampler":0,
					"target":{
						"node":12,
						"path":"translation"
					}
				},
				{
					"sampler":1,
					"target":{
						"node":12,
						"path":"rotation"
					}
				},
				{
					"sampler":2,
					"target":{
						"node":12,
						"path":"scale"
					}
				},
				{
					"sampler":3,
					"target":{
						"node":7,
						"path":"translation"
					}
				},
				{
					"sampler":4,
					"target":{
						"node":7,
						"path":"rotation"
					}
				},
				{
					"sampler":5,
					"target":{
						"node":7,
						"path":"scale"
					}
				},
				{
					"sampler":6,
					"target":{
						"node":2,
						"path":"translation"
					}
				},
				{
					"sampler":7,
					"target":{
						"node":2,
						"path":"rotation"
					}
				},
				{
					"sampler":8,
					"target":{
						"node":2,
						"path":"scale"
					}
				},
				{
					"sampler":9,
					"target":{
						"node":3,
						"path":"translation"
					}
				},
				{
					"sampler":10,
					"target":{
						"node":3,
						"path":"rotation"
					}
				},
				{
					"sampler":11,
					"target":{
						"node":3,
						"path":"scale"
					}
				},
				{
					"sampler":12,
					"target":{
						"node":5,
						"path":"translation"
					}
				},
				{
					"sampler":13,
					"target":{
						"node":5,
						"path":"rotation"
					}
				},
				{
					"sampler":14,
					"target":{
						"node":5,
						"path":"scale"
					}
				},
				{
					"sampler":15,
					"target":{
						"node":8,
						"path":"translation"
					}
				},
				{
					"sampler":16,
					"target":{
						"node":8,
						"path":"rotation"
					}
				},
				{
					"sampler":17,
					"target":{
						"node":8,
						"path":"scale"
					}
				},
				{
					"sampler":18,
					"target":{
						"node":9,
						"path":"translation"
					}
				},
				{
					"sampler":19,
					"target":{
						"node":9,
						"path":"rotation"
					}
				},
				{
					"sampler":20,
					"target":{
						"node":9,
						"path":"scale"
					}
				}
			],
			"name":"death",
			"samplers":[
				{
					"input":38,
					"interpolation":"LINEAR",
					"output":39
				},
				{
					"input":40,
					"interpolation":"STEP",
					"output":25
				},
				{
					"input":40,
					"interpolation":"STEP",
					"output":26
				},
				{
					"input":40,
					"interpolation":"STEP",
					"output":27
				},
				{
					"input":40,
					"interpolation":"STEP",
					"output":25
				},
				{
					"input":40,
					"interpolation":"STEP",
					"output":26
				},
				{
					"input":40,
					"interpolation":"STEP",
					"output":41
				},
				{
					"input":40,
					"interpolation":"STEP",
					"output":29
				},
				{
					"input":40,
					"interpolation":"STEP",
					"output":30
				},
				{
					"input":40,
					"interpolation":"STEP",
					"output":42
				},
				{
					"input":40,
					"interpolation":"STEP",
					"output":32
				},
				{
					"input":40,
					"interpolation":"STEP",
					"output":30
				},
				{
					"input":40,
					"interpolation":"STEP",
					"output":33
				},
				{
					"input":40,
					"interpolation":"STEP",
					"output":25
				},
				{
					"input":40,
					"interpolation":"STEP",
					"output":26
				},
				{
					"input":40,
					"interpolation":"STEP",
					"output":43
				},
				{
					"input":40,
					"interpolation":"STEP",
					"output":35
				},
				{
					"input":40,
					"interpolation":"STEP",
					"output":26
				},
				{
					"input":40,
					"interpolation":"STEP",
					"output":44
				},
				{
					"input":40,
					"interpolation":"STEP",
					"output":35
				},
				{
					"input":40,
					"interpolation":"STEP",
					"output":26
				}
			]
		},
		{
			"channels":[
				{
					"sampler":0,
					"target":{
						"node":12,
						"path":"translation"
					}
				},
				{
					"sampler":1,
					"target":{
						"node":12,
						"path":"rotation"
					}
				},
				{
					"sampler":2,
					"target":{
						"node":12,
						"path":"scale"
					}
				},
				{
					"sampler":3,
					"target":{
						"node":7,
						"path":"translation"
					}
				},
				{
					"sampler":4,
					"target":{
						"node":7,
						"path":"rotation"
					}
				},
				{
					"sampler":5,
					"target":{
						"node":7,
						"path":"scale"
					}
				},
				{
					"sampler":6,
					"target":{
						"node":2,
						"path":"translation"
					}
				},
				{
					"sampler":7,
					"target":{
						"node":2,
						"path":"rotation"
					}
				},
				{
					"sampler":8,
					"target":{
						"node":2,
						"path":"scale"
					}
				},
				{
					"sampler":9,
					"target":{
						"node":3,
						"path":"translation"
					}
				},
				{
					"sampler":10,
					"target":{
						"node":3,
						"path":"rotation"
					}
				},
				{
					"sampler":11,
					"target":{
						"node":3,
						"path":"scale"
					}
				},
				{
					"sampler":12,
					"target":{
						"node":5,
						"path":"translation"
					}
				},
				{
					"sampler":13,
					"target":{
						"node":5,
						"path":"rotation"
					}
				},
				{
					"sampler":14,
					"target":{
						"node":5,
						"path":"scale"
					}
				},
				{
					"sampler":15,
					"target":{
						"node":8,
						"path":"translation"
					}
				},
				{
					"sampler":16,
					"target":{
						"node":8,
						"path":"rotation"
					}
				},
				{
					"sampler":17,
					"target":{
						"node":8,
						"path":"scale"
					}
				},
				{
					"sampler":18,
					"target":{
						"node":9,
						"path":"translation"
					}
				},
				{
					"sampler":19,
					"target":{
						"node":9,
						"path":"rotation"
					}
				},
				{
					"sampler":20,
					"target":{
						"node":9,
						"path":"scale"
					}
				}
			],
			"name":"hurt",
			"samplers":[
				{
					"input":45,
					"interpolation":"STEP",
					"output":24
				},
				{
					"input":45,
					"interpolation":"STEP",
					"output":25
				},
				{
					"input":45,
					"interpolation":"STEP",
					"output":26
				},
				{
					"input":46,
					"interpolation":"LINEAR",
					"output":47
				},
				{
					"input":45,
					"interpolation":"STEP",
					"output":25
				},
				{
					"input":45,
					"interpolation":"STEP",
					"output":26
				},
				{
					"input":45,
					"interpolation":"STEP",
					"output":28
				},
				{
					"input":45,
					"interpolation":"STEP",
					"output":29
				},
				{
					"input":45,
					"interpolation":"STEP",
					"output":30
				},
				{
					"input":45,
					"interpolation":"STEP",
					"output":31
				},
				{
					"input":45,
					"interpolation":"STEP",
					"output":32
				},
				{
					"input":45,
					"interpolation":"STEP",
					"output":30
				},
				{
					"input":45,
					"interpolation":"STEP",
					"output":33
				},
				{
					"input":45,
					"interpolation":"STEP",
					"output":25
				},
				{
					"input":45,
					"interpolation":"STEP",
					"output":26
				},
				{
					"input":45,
					"interpolation":"STEP",
					"output":34
				},
				{
					"input":45,
					"interpolation":"STEP",
					"output":35
				},
				{
					"input":45,
					"interpolation":"STEP",
					"output":26
				},
				{
					"input":45,
					"interpolation":"STEP",
					"output":36
				},
				{
					"input":45,
					"interpolation":"STEP",
					"output":35
				},
				{
					"input":45,
					"interpolation":"STEP",
					"output":26
				}
			]
		},
		{
			"channels":[
				{
					"sampler":0,
					"target":{
						"node":12,
						"path":"translation"
					}
				},
				{
					"sampler":1,
					"target":{
						"node":12,
						"path":"rotation"
					}
				},
				{
					"sampler":2,
					"target":{
						"node":12,
						"path":"scale"
					}
				},
				{
					"sampler":3,
					"target":{
						"node":7,
						"path":"translation"
					}
				},
				{
					"sampler":4,
					"target":{
						"node":7,
						"path":"rotation"
					}
				},
				{
					"sampler":5,
					"target":{
						"node":7,
						"path":"scale"
					}
				},
				{
					"sampler":6,
					"target":{
						"node":2,
						"path":"translation"
					}
				},
				{
					"sampler":7,
					"target":{
						"node":2,
						"path":"rotation"
					}
				},
				{
					"sampler":8,
					"target":{
						"node":2,
						"path":"scale"
					}
				},
				{
					"sampler":9,
					"target":{
						"node":3,
						"path":"translation"
					}
				},
				{
					"sampler":10,
					"target":{
						"node":3,
						"path":"rotation"
					}
				},
				{
					"sampler":11,
					"target":{
						"node":3,
						"path":"scale"
					}
				},
				{
					"sampler":12,
					"target":{
						"node":5,
						"path":"translation"
					}
				},
				{
					"sampler":13,
					"target":{
						"node":5,
						"path":"rotation"
					}
				},
				{
					"sampler":14,
					"target":{
						"node":5,
						"path":"scale"
					}
				},
				{
					"sampler":15,
					"target":{
						"node":8,
						"path":"translation"
					}
				},
				{
					"sampler":16,
					"target":{
						"node":8,
						"path":"rotation"
					}
				},
				{
					"sampler":17,
					"target":{
						"node":8,
						"path":"scale"
					}
				},
				{
					"sampler":18,
					"target":{
						"node":9,
						"path":"translation"
					}
				},
				{
					"sampler":19,
					"target":{
						"node":9,
						"path":"rotation"
					}
				},
				{
					"sampler":20,
					"target":{
						"node":9,
						"path":"scale"
					}
				}
			],
			"name":"idle",
			"samplers":[
				{
					"input":48,
					"interpolation":"LINEAR",
					"output":49
				},
				{
					"input":37,
					"interpolation":"STEP",
					"output":25
				},
				{
					"input":37,
					"interpolation":"STEP",
					"output":26
				},
				{
					"input":48,
					"interpolation":"LINEAR",
					"output":50
				},
				{
					"input":37,
					"interpolation":"STEP",
					"output":25
				},
				{
					"input":37,
					"interpolation":"STEP",
					"output":26
				},
				{
					"input":37,
					"interpolation":"STEP",
					"output":28
				},
				{
					"input":37,
					"interpolation":"STEP",
					"output":29
				},
				{
					"input":37,
					"interpolation":"STEP",
					"output":30
				},
				{
					"input":37,
					"interpolation":"STEP",
					"output":31
				},
				{
					"input":37,
					"interpolation":"STEP",
					"output":32
				},
				{
					"input":37,
					"interpolation":"STEP",
					"output":30
				},
				{
					"input":37,
					"interpolation":"STEP",
					"output":33
				},
				{
					"input":37,
					"interpolation":"STEP",
					"output":25
				},
				{
					"input":37,
					"interpolation":"STEP",
					"output":26
				},
				{
					"input":37,
					"interpolation":"STEP",
					"output":34
				},
				{
					"input":37,
					"interpolation":"STEP",
					"output":35
				},
				{
					"input":37,
					"interpolation":"STEP",
					"output":26
				},
				{
					"input":37,
					"interpolation":"STEP",
					"output":36
				},
				{
					"input":37,
					"interpolation":"STEP",
					"output":35
				},
				{
					"input":37,
					"interpolation":"STEP",
					"output":26
				}
			]
		},
		{
			"channels":[
				{
					"sampler":0,
					"target":{
						"node":12,
						"path":"translation"
					}
				},
				{
					"sampler":1,
					"target":{
						"node":12,
						"path":"rotation"
					}
				},
				{
					"sampler":2,
					"target":{
						"node":12,
						"path":"scale"
					}
				},
				{
					"sampler":3,
					"target":{
						"node":7,
						"path":"translation"
					}
				},
				{
					"sampler":4,
					"target":{
						"node":7,
						"path":"rotation"
					}
				},
				{
					"sampler":5,
					"target":{
						"node":7,
						"path":"scale"
					}
				},
				{
					"sampler":6,
					"target":{
						"node":2,
						"path":"translation"
					}
				},
				{
					"sampler":7,
					"target":{
						"node":2,
						"path":"rotation"
					}
				},
				{
					"sampler":8,
					"target":{
						"node":2,
						"path":"scale"
					}
				},
				{
					"sampler":9,
					"target":{
						"node":3,
						"path":"translation"
					}
				},
				{
					"sampler":10,
					"target":{
						"node":3,
						"path":"rotation"
					}
				},
				{
					"sampler":11,
					"target":{
						"node":3,
						"path":"scale"
					}
				},
				{
					"sampler":12,
					"target":{
						"node":5,
						"path":"translation"
					}
				},
				{
					"sampler":13,
					"target":{
						"node":5,
						"path":"rotation"
					}
				},
				{
					"sampler":14,
					"target":{
						"node":5,
						"path":"scale"
					}
				},
				{
					"sampler":15,
					"target":{
						"node":8,
						"path":"translation"
					}
				},
				{
					"sampler":16,
					"target":{
						"node":8,
						"path":"rotation"
					}
				},
				{
					"sampler":17,
					"target":{
						"node":8,
						"path":"scale"
					}
				},
				{
					"sampler":18,
					"target":{
						"node":9,
						"path":"translation"
					}
				},
				{
					"sampler":19,
					"target":{
						"node":9,
						"path":"rotation"
					}
				},
				{
					"sampler":20,
					"target":{
						"node":9,
						"path":"scale"
					}
				}
			],
			"name":"walk",
			"samplers":[
				{
					"input":37,
					"interpolation":"STEP",
					"output":24
				},
				{
					"input":37,
					"interpolation":"STEP",
					"output":25
				},
				{
					"input":37,
					"interpolation":"STEP",
					"output":26
				},
				{
					"input":37,
					"interpolation":"STEP",
					"output":27
				},
				{
					"input":37,
					"interpolation":"STEP",
					"output":25
				},
				{
					"input":37,
					"interpolation":"STEP",
					"output":26
				},
				{
					"input":37,
					"interpolation":"STEP",
					"output":28
				},
				{
					"input":37,
					"interpolation":"STEP",
					"output":29
				},
				{
					"input":37,
					"interpolation":"STEP",
					"output":30
				},
				{
					"input":37,
					"interpolation":"STEP",
					"output":31
				},
				{
					"input":37,
					"interpolation":"STEP",
					"output":32
				},
				{
					"input":37,
					"interpolation":"STEP",
					"output":30
				},
				{
					"input":37,
					"interpolation":"STEP",
					"output":33
				},
				{
					"input":37,
					"interpolation":"STEP",
					"output":25
				},
				{
					"input":37,
					"interpolation":"STEP",
					"output":26
				},
				{
					"input":37,
					"interpolation":"STEP",
					"output":34
				},
				{
					"input":37,
					"interpolation":"STEP",
					"output":35
				},
				{
					"input":37,
					"interpolation":"STEP",
					"output":26
				},
				{
					"input":37,
					"interpolation":"STEP",
					"output":36
				},
				{
					"input":37,
					"interpolation":"STEP",
					"output":35
				},
				{
					"input":37,
					"interpolation":"STEP",
					"output":26
				}
			]
		}
	],
	"materials":[
		{
			"doubleSided":true,
			"name":"BoneStaff",
			"pbrMetallicRoughness":{
				"baseColorFactor":[
					0.75,
					0.7200000286102295,
					0.6499999761581421,
					1
				],
				"metallicFactor":0.10000000149011612,
				"roughnessFactor":0.800000011920929
			}
		},
		{
			"doubleSided":true,
			"emissiveFactor":[
				1,
				0.10000000149011612,
				0.10000000149011612
			],
			"extensions":{
				"KHR_materials_emissive_strength":{
					"emissiveStrength":6
				}
			},
			"name":"BloodOrb",
			"pbrMetallicRoughness":{
				"baseColorFactor":[
					0.8999999761581421,
					0.05000000074505806,
					0.05000000074505806,
					1
				],
				"metallicFactor":0.10000000149011612,
				"roughnessFactor":0.699999988079071
			}
		},
		{
			"doubleSided":true,
			"name":"OccultRobe",
			"pbrMetallicRoughness":{
				"baseColorFactor":[
					0.18000000715255737,
					0.05999999865889549,
					0.07999999821186066,
					1
				],
				"metallicFactor":0.10000000149011612,
				"roughnessFactor":0.8500000238418579
			}
		},
		{
			"doubleSided":true,
			"name":"SanguineTrim",
			"pbrMetallicRoughness":{
				"baseColorFactor":[
					0.6000000238418579,
					0.15000000596046448,
					0.18000000715255737,
					1
				],
				"metallicFactor":0.10000000149011612,
				"roughnessFactor":0.6000000238418579
			}
		}
	],
	"meshes":[
		{
			"name":"Cylinder",
			"primitives":[
				{
					"attributes":{
						"POSITION":0,
						"NORMAL":1,
						"TEXCOORD_0":2
					},
					"indices":3,
					"material":0
				}
			]
		},
		{
			"name":"Sphere.001",
			"primitives":[
				{
					"attributes":{
						"POSITION":4,
						"NORMAL":5,
						"TEXCOORD_0":6
					},
					"indices":7,
					"material":1
				}
			]
		},
		{
			"name":"Sphere",
			"primitives":[
				{
					"attributes":{
						"POSITION":8,
						"NORMAL":9,
						"TEXCOORD_0":10
					},
					"indices":11,
					"material":2
				}
			]
		},
		{
			"name":"Cube",
			"primitives":[
				{
					"attributes":{
						"POSITION":12,
						"NORMAL":13,
						"TEXCOORD_0":14
					},
					"indices":15,
					"material":2
				}
			]
		},
		{
			"name":"Cone",
			"primitives":[
				{
					"attributes":{
						"POSITION":16,
						"NORMAL":17,
						"TEXCOORD_0":18
					},
					"indices":19,
					"material":2
				}
			]
		},
		{
			"name":"Cube.001",
			"primitives":[
				{
					"attributes":{
						"POSITION":20,
						"NORMAL":21,
						"TEXCOORD_0":22
					},
					"indices":15,
					"material":3
				}
			]
		}
	],
	"skins":[
		{
			"inverseBindMatrices":51,
			"joints":[
				12,
				7,
				2,
				3,
				5,
				8,
				9
			],
			"name":"ClericRig"
		}
	],
	"accessors":[
		{
			"bufferView":0,
			"componentType":5126,
			"count":192,
			"max":[
				0.03500000014901161,
				1.0499999523162842,
				0.03500000014901161
			],
			"min":[
				-0.03500000014901161,
				-1.0499999523162842,
				-0.03500000014901161
			],
			"type":"VEC3"
		},
		{
			"bufferView":1,
			"componentType":5126,
			"count":192,
			"type":"VEC3"
		},
		{
			"bufferView":2,
			"componentType":5126,
			"count":192,
			"type":"VEC2"
		},
		{
			"bufferView":3,
			"componentType":5123,
			"count":372,
			"type":"SCALAR"
		},
		{
			"bufferView":4,
			"componentType":5126,
			"count":1984,
			"max":[
				0.1499999761581421,
				0.15000000596046448,
				0.1499999314546585
			],
			"min":[
				-0.14999987185001373,
				-0.15000000596046448,
				-0.15000000596046448
			],
			"type":"VEC3"
		},
		{
			"bufferView":5,
			"componentType":5126,
			"count":1984,
			"type":"VEC3"
		},
		{
			"bufferView":6,
			"componentType":5126,
			"count":1984,
			"type":"VEC2"
		},
		{
			"bufferView":7,
			"componentType":5123,
			"count":2880,
			"type":"SCALAR"
		},
		{
			"bufferView":8,
			"componentType":5126,
			"count":1984,
			"max":[
				0.25999996066093445,
				0.25999999046325684,
				0.25999993085861206
			],
			"min":[
				-0.2599999010562897,
				-0.25999999046325684,
				-0.2599998712539673
			],
			"type":"VEC3"
		},
		{
			"bufferView":9,
			"componentType":5126,
			"count":1984,
			"type":"VEC3"
		},
		{
			"bufferView":10,
			"componentType":5126,
			"count":1984,
			"type":"VEC2"
		},
		{
			"bufferView":11,
			"componentType":5123,
			"count":2880,
			"type":"SCALAR"
		},
		{
			"bufferView":12,
			"componentType":5126,
			"count":24,
			"max":[
				0.22499999403953552,
				0.22499999403953552,
				0.22499999403953552
			],
			"min":[
				-0.22499999403953552,
				-0.22499999403953552,
				-0.22499999403953552
			],
			"type":"VEC3"
		},
		{
			"bufferView":13,
			"componentType":5126,
			"count":24,
			"type":"VEC3"
		},
		{
			"bufferView":14,
			"componentType":5126,
			"count":24,
			"type":"VEC2"
		},
		{
			"bufferView":15,
			"componentType":5123,
			"count":36,
			"type":"SCALAR"
		},
		{
			"bufferView":16,
			"componentType":5126,
			"count":128,
			"max":[
				0.44999998807907104,
				0.699999988079071,
				0.44999998807907104
			],
			"min":[
				-0.44999998807907104,
				-0.699999988079071,
				-0.44999998807907104
			],
			"type":"VEC3"
		},
		{
			"bufferView":17,
			"componentType":5126,
			"count":128,
			"type":"VEC3"
		},
		{
			"bufferView":18,
			"componentType":5126,
			"count":128,
			"type":"VEC2"
		},
		{
			"bufferView":19,
			"componentType":5123,
			"count":186,
			"type":"SCALAR"
		},
		{
			"bufferView":20,
			"componentType":5126,
			"count":24,
			"max":[
				0.10000000149011612,
				0.10000000149011612,
				0.10000000149011612
			],
			"min":[
				-0.10000000149011612,
				-0.10000000149011612,
				-0.10000000149011612
			],
			"type":"VEC3"
		},
		{
			"bufferView":21,
			"componentType":5126,
			"count":24,
			"type":"VEC3"
		},
		{
			"bufferView":22,
			"componentType":5126,
			"count":24,
			"type":"VEC2"
		},
		{
			"bufferView":23,
			"componentType":5126,
			"count":2,
			"max":[
				1
			],
			"min":[
				0.041666666666666664
			],
			"type":"SCALAR"
		},
		{
			"bufferView":24,
			"componentType":5126,
			"count":2,
			"type":"VEC3"
		},
		{
			"bufferView":25,
			"componentType":5126,
			"count":2,
			"type":"VEC4"
		},
		{
			"bufferView":26,
			"componentType":5126,
			"count":2,
			"type":"VEC3"
		},
		{
			"bufferView":27,
			"componentType":5126,
			"count":2,
			"type":"VEC3"
		},
		{
			"bufferView":28,
			"componentType":5126,
			"count":2,
			"type":"VEC3"
		},
		{
			"bufferView":29,
			"componentType":5126,
			"count":2,
			"type":"VEC4"
		},
		{
			"bufferView":30,
			"componentType":5126,
			"count":2,
			"type":"VEC3"
		},
		{
			"bufferView":31,
			"componentType":5126,
			"count":2,
			"type":"VEC3"
		},
		{
			"bufferView":32,
			"componentType":5126,
			"count":2,
			"type":"VEC4"
		},
		{
			"bufferView":33,
			"componentType":5126,
			"count":2,
			"type":"VEC3"
		},
		{
			"bufferView":34,
			"componentType":5126,
			"count":2,
			"type":"VEC3"
		},
		{
			"bufferView":35,
			"componentType":5126,
			"count":2,
			"type":"VEC4"
		},
		{
			"bufferView":36,
			"componentType":5126,
			"count":2,
			"type":"VEC3"
		},
		{
			"bufferView":37,
			"componentType":5126,
			"count":2,
			"max":[
				1.25
			],
			"min":[
				0.041666666666666664
			],
			"type":"SCALAR"
		},
		{
			"bufferView":38,
			"componentType":5126,
			"count":25,
			"max":[
				1.0416666666666667
			],
			"min":[
				0.041666666666666664
			],
			"type":"SCALAR"
		},
		{
			"bufferView":39,
			"componentType":5126,
			"count":25,
			"type":"VEC3"
		},
		{
			"bufferView":40,
			"componentType":5126,
			"count":2,
			"max":[
				1.0416666666666667
			],
			"min":[
				0.041666666666666664
			],
			"type":"SCALAR"
		},
		{
			"bufferView":41,
			"componentType":5126,
			"count":2,
			"type":"VEC3"
		},
		{
			"bufferView":42,
			"componentType":5126,
			"count":2,
			"type":"VEC3"
		},
		{
			"bufferView":43,
			"componentType":5126,
			"count":2,
			"type":"VEC3"
		},
		{
			"bufferView":44,
			"componentType":5126,
			"count":2,
			"type":"VEC3"
		},
		{
			"bufferView":45,
			"componentType":5126,
			"count":2,
			"max":[
				0.6666666666666666
			],
			"min":[
				0.041666666666666664
			],
			"type":"SCALAR"
		},
		{
			"bufferView":46,
			"componentType":5126,
			"count":16,
			"max":[
				0.6666666666666666
			],
			"min":[
				0.041666666666666664
			],
			"type":"SCALAR"
		},
		{
			"bufferView":47,
			"componentType":5126,
			"count":16,
			"type":"VEC3"
		},
		{
			"bufferView":48,
			"componentType":5126,
			"count":30,
			"max":[
				1.25
			],
			"min":[
				0.041666666666666664
			],
			"type":"SCALAR"
		},
		{
			"bufferView":49,
			"componentType":5126,
			"count":30,
			"type":"VEC3"
		},
		{
			"bufferView":50,
			"componentType":5126,
			"count":30,
			"type":"VEC3"
		},
		{
			"bufferView":51,
			"componentType":5126,
			"count":7,
			"type":"MAT4"
		}
	],
	"bufferViews":[
		{
			"buffer":0,
			"byteLength":2304,
			"byteOffset":0,
			"target":34962
		},
		{
			"buffer":0,
			"byteLength":2304,
			"byteOffset":2304,
			"target":34962
		},
		{
			"buffer":0,
			"byteLength":1536,
			"byteOffset":4608,
			"target":34962
		},
		{
			"buffer":0,
			"byteLength":744,
			"byteOffset":6144,
			"target":34963
		},
		{
			"buffer":0,
			"byteLength":23808,
			"byteOffset":6888,
			"target":34962
		},
		{
			"buffer":0,
			"byteLength":23808,
			"byteOffset":30696,
			"target":34962
		},
		{
			"buffer":0,
			"byteLength":15872,
			"byteOffset":54504,
			"target":34962
		},
		{
			"buffer":0,
			"byteLength":5760,
			"byteOffset":70376,
			"target":34963
		},
		{
			"buffer":0,
			"byteLength":23808,
			"byteOffset":76136,
			"target":34962
		},
		{
			"buffer":0,
			"byteLength":23808,
			"byteOffset":99944,
			"target":34962
		},
		{
			"buffer":0,
			"byteLength":15872,
			"byteOffset":123752,
			"target":34962
		},
		{
			"buffer":0,
			"byteLength":5760,
			"byteOffset":139624,
			"target":34963
		},
		{
			"buffer":0,
			"byteLength":288,
			"byteOffset":145384,
			"target":34962
		},
		{
			"buffer":0,
			"byteLength":288,
			"byteOffset":145672,
			"target":34962
		},
		{
			"buffer":0,
			"byteLength":192,
			"byteOffset":145960,
			"target":34962
		},
		{
			"buffer":0,
			"byteLength":72,
			"byteOffset":146152,
			"target":34963
		},
		{
			"buffer":0,
			"byteLength":1536,
			"byteOffset":146224,
			"target":34962
		},
		{
			"buffer":0,
			"byteLength":1536,
			"byteOffset":147760,
			"target":34962
		},
		{
			"buffer":0,
			"byteLength":1024,
			"byteOffset":149296,
			"target":34962
		},
		{
			"buffer":0,
			"byteLength":372,
			"byteOffset":150320,
			"target":34963
		},
		{
			"buffer":0,
			"byteLength":288,
			"byteOffset":150692,
			"target":34962
		},
		{
			"buffer":0,
			"byteLength":288,
			"byteOffset":150980,
			"target":34962
		},
		{
			"buffer":0,
			"byteLength":192,
			"byteOffset":151268,
			"target":34962
		},
		{
			"buffer":0,
			"byteLength":8,
			"byteOffset":151460
		},
		{
			"buffer":0,
			"byteLength":24,
			"byteOffset":151468
		},
		{
			"buffer":0,
			"byteLength":32,
			"byteOffset":151492
		},
		{
			"buffer":0,
			"byteLength":24,
			"byteOffset":151524
		},
		{
			"buffer":0,
			"byteLength":24,
			"byteOffset":151548
		},
		{
			"buffer":0,
			"byteLength":24,
			"byteOffset":151572
		},
		{
			"buffer":0,
			"byteLength":32,
			"byteOffset":151596
		},
		{
			"buffer":0,
			"byteLength":24,
			"byteOffset":151628
		},
		{
			"buffer":0,
			"byteLength":24,
			"byteOffset":151652
		},
		{
			"buffer":0,
			"byteLength":32,
			"byteOffset":151676
		},
		{
			"buffer":0,
			"byteLength":24,
			"byteOffset":151708
		},
		{
			"buffer":0,
			"byteLength":24,
			"byteOffset":151732
		},
		{
			"buffer":0,
			"byteLength":32,
			"byteOffset":151756
		},
		{
			"buffer":0,
			"byteLength":24,
			"byteOffset":151788
		},
		{
			"buffer":0,
			"byteLength":8,
			"byteOffset":151812
		},
		{
			"buffer":0,
			"byteLength":100,
			"byteOffset":151820
		},
		{
			"buffer":0,
			"byteLength":300,
			"byteOffset":151920
		},
		{
			"buffer":0,
			"byteLength":8,
			"byteOffset":152220
		},
		{
			"buffer":0,
			"byteLength":24,
			"byteOffset":152228
		},
		{
			"buffer":0,
			"byteLength":24,
			"byteOffset":152252
		},
		{
			"buffer":0,
			"byteLength":24,
			"byteOffset":152276
		},
		{
			"buffer":0,
			"byteLength":24,
			"byteOffset":152300
		},
		{
			"buffer":0,
			"byteLength":8,
			"byteOffset":152324
		},
		{
			"buffer":0,
			"byteLength":64,
			"byteOffset":152332
		},
		{
			"buffer":0,
			"byteLength":192,
			"byteOffset":152396
		},
		{
			"buffer":0,
			"byteLength":120,
			"byteOffset":152588
		},
		{
			"buffer":0,
			"byteLength":360,
			"byteOffset":152708
		},
		{
			"buffer":0,
			"byteLength":360,
			"byteOffset":153068
		},
		{
			"buffer":0,
			"byteLength":448,
			"byteOffset":153428
		}
	],
	"buffers":[
		{
			"byteLength":153876,
			"uri":"cleric_bloodweaver.bin"
		}
	]
}
