{
	"asset":{
		"generator":"Khronos glTF Blender I/O v5.2.40",
		"version":"2.0"
	},
	"extensionsUsed":[
		"KHR_materials_emissive_strength"
	],
	"scene":0,
	"scenes":[
		{
			"name":"Scene",
			"nodes":[
				16
			]
		}
	],
	"nodes":[
		{
			"name":"Arm_L",
			"rotation":[
				-0.87164705991745,
				-0.33448243141174316,
				-0.33448243141174316,
				0.12835294008255005
			],
			"scale":[
				0.9999999403953552,
				0.9999998211860657,
				1
			],
			"translation":[
				0.3499999940395355,
				0.3999999761581421,
				0
			]
		},
		{
			"mesh":0,
			"name":"Cube.002",
			"rotation":[
				0.7071067690849304,
				3.978425411332864e-08,
				1.082931433415979e-08,
				0.7071067690849304
			],
			"scale":[
				0.2200000137090683,
				8.5,
				0.05000000074505806
			],
			"translation":[
				-0.75,
				0.3726816475391388,
				1.3499997854232788
			]
		},
		{
			"mesh":1,
			"name":"Cube.003",
			"rotation":[
				0.7071067690849304,
				4.731047908990149e-08,
				-5.269784963957136e-08,
				0.7071067690849304
			],
			"scale":[
				2.799999952316284,
				0.800000011920929,
				0.800000011920929
			],
			"translation":[
				-0.7499998211860657,
				0.37268149852752686,
				0.9999998211860657
			]
		},
		{
			"children":[
				1,
				2
			],
			"name":"Arm_R",
			"rotation":[
				-0.87164705991745,
				0.33448243141174316,
				0.33448243141174316,
				0.12835294008255005
			],
			"scale":[
				0.9999999403953552,
				0.9999998211860657,
				1
			],
			"translation":[
				-0.3499999940395355,
				0.3999999761581421,
				0
			]
		},
		{
			"mesh":2,
			"name":"Cone.002",
			"rotation":[
				0.7736228108406067,
				-0.023731239140033722,
				0.029024463146924973,
				0.6325363516807556
			],
			"scale":[
				1,
				0.9999999403953552,
				1
			],
			"translation":[
				-0.15000000596046448,
				0.5500000715255737,
				2.380000114440918
			]
		},
		{
			"mesh":3,
			"name":"Cone.003",
			"rotation":[
				0.7736228108406067,
				0.023731239140033722,
				-0.029024463146924973,
				0.6325363516807556
			],
			"scale":[
				1,
				0.9999999403953552,
				1
			],
			"translation":[
				0.15000000596046448,
				0.5500000715255737,
				2.380000114440918
			]
		},
		{
			"mesh":4,
			"name":"Cube.001",
			"rotation":[
				0.7071067690849304,
				0,
				0,
				0.7071067690849304
			],
			"scale":[
				3.5,
				0.4000000059604645,
				0.20000000298023224
			],
			"translation":[
				0,
				0.2900000810623169,
				2.119999885559082
			]
		},
		{
			"mesh":5,
			"name":"Cylinder",
			"rotation":[
				0.7071067690849304,
				0,
				0,
				0.7071067690849304
			],
			"translation":[
				0,
				0.5000001192092896,
				2.0999999046325684
			]
		},
		{
			"children":[
				4,
				5,
				6,
				7
			],
			"name":"Head",
			"translation":[
				0,
				0.5,
				0
			]
		},
		{
			"mesh":6,
			"name":"Cone",
			"rotation":[
				0.6930117011070251,
				0.1404804140329361,
				-0.1404804140329361,
				0.6930117607116699
			],
			"translation":[
				0.550000011920929,
				0.5,
				1.75
			]
		},
		{
			"mesh":7,
			"name":"Cone.001",
			"rotation":[
				0.6930117011070251,
				-0.1404804140329361,
				0.1404804140329361,
				0.6930117607116699
			],
			"translation":[
				-0.550000011920929,
				0.5,
				1.75
			]
		},
		{
			"mesh":8,
			"name":"Cube",
			"rotation":[
				0.7071067690849304,
				0,
				0,
				0.7071067690849304
			],
			"scale":[
				0.8500000238418579,
				1,
				0.550000011920929
			],
			"translation":[
				0,
				0.5,
				1.4500000476837158
			]
		},
		{
			"children":[
				0,
				3,
				8,
				9,
				10,
				11
			],
			"name":"Chest",
			"translation":[
				0,
				0.3999999761581421,
				0
			]
		},
		{
			"name":"Leg_L",
			"rotation":[
				1,
				0,
				-4.371138828673793e-08,
				0
			],
			"translation":[
				0.25,
				0,
				0
			]
		},
		{
			"name":"Leg_R",
			"rotation":[
				1,
				0,
				-4.371138828673793e-08,
				0
			],
			"translation":[
				-0.25,
				0,
				0
			]
		},
		{
			"children":[
				12,
				13,
				14
			],
			"name":"Hips",
			"translation":[
				0,
				1,
				0
			]
		},
		{
			"children":[
				15
			],
			"name":"KnightRig"
		}
	],
	"animations":[
		{
			"channels":[
				{
					"sampler":0,
					"target":{
						"node":15,
						"path":"translation"
					}
				},
				{
					"sampler":1,
					"target":{
						"node":15,
						"path":"rotation"
					}
				},
				{
					"sampler":2,
					"target":{
						"node":15,
						"path":"scale"
					}
				},
				{
					"sampler":3,
					"target":{
						"node":12,
						"path":"translation"
					}
				},
				{
					"sampler":4,
					"target":{
						"node":12,
						"path":"rotation"
					}
				},
				{
					"sampler":5,
					"target":{
						"node":12,
						"path":"scale"
					}
				},
				{
					"sampler":6,
					"target":{
						"node":0,
						"path":"translation"
					}
				},
				{
					"sampler":7,
					"target":{
						"node":0,
						"path":"rotation"
					}
				},
				{
					"sampler":8,
					"target":{
						"node":0,
						"path":"scale"
					}
				},
				{
					"sampler":9,
					"target":{
						"node":3,
						"path":"translation"
					}
				},
				{
					"sampler":10,
					"target":{
						"node":3,
						"path":"rotation"
					}
				},
				{
					"sampler":11,
					"target":{
						"node":3,
						"path":"scale"
					}
				},
				{
					"sampler":12,
					"target":{
						"node":8,
						"path":"translation"
					}
				},
				{
					"sampler":13,
					"target":{
						"node":8,
						"path":"rotation"
					}
				},
				{
					"sampler":14,
					"target":{
						"node":8,
						"path":"scale"
					}
				},
				{
					"sampler":15,
					"target":{
						"node":13,
						"path":"translation"
					}
				},
				{
					"sampler":16,
					"target":{
						"node":13,
						"path":"rotation"
					}
				},
				{
					"sampler":17,
					"target":{
						"node":13,
						"path":"scale"
					}
				},
				{
					"sampler":18,
					"target":{
						"node":14,
						"path":"translation"
					}
				},
				{
					"sampler":19,
					"target":{
						"node":14,
						"path":"rotation"
					}
				},
				{
					"sampler":20,
					"target":{
						"node":14,
						"path":"scale"
					}
				}
			],
			"name":"attack",
			"samplers":[
				{
					"input":30,
					"interpolation":"STEP",
					"output":31
				},
				{
					"input":30,
					"interpolation":"STEP",
					"output":32
				},
				{
					"input":30,
					"interpolation":"STEP",
					"output":33
				},
				{
					"input":30,
					"interpolation":"STEP",
					"output":34
				},
				{
					"input":30,
					"interpolation":"STEP",
					"output":32
				},
				{
					"input":30,
					"interpolation":"STEP",
					"output":33
				},
				{
					"input":30,
					"interpolation":"STEP",
					"output":35
				},
				{
					"input":30,
					"interpolation":"STEP",
					"output":36
				},
				{
					"input":30,
					"interpolation":"STEP",
					"output":37
				},
				{
					"input":30,
					"interpolation":"STEP",
					"output":38
				},
				{
					"input":30,
					"interpolation":"STEP",
					"output":39
				},
				{
					"input":30,
					"interpolation":"STEP",
					"output":37
				},
				{
					"input":30,
					"interpolation":"STEP",
					"output":40
				},
				{
					"input":30,
					"interpolation":"STEP",
					"output":32
				},
				{
					"input":30,
					"interpolation":"STEP",
					"output":33
				},
				{
					"input":30,
					"interpolation":"STEP",
					"output":41
				},
				{
					"input":30,
					"interpolation":"STEP",
					"output":42
				},
				{
					"input":30,
					"interpolation":"STEP",
					"output":33
				},
				{
					"input":30,
					"interpolation":"STEP",
					"output":43
				},
				{
					"input":30,
					"interpolation":"STEP",
					"output":42
				},
				{
					"input":30,
					"interpolation":"STEP",
					"output":33
				}
			]
		},
		{
			"channels":[
				{
					"sampler":0,
					"target":{
						"node":15,
						"path":"translation"
					}
				},
				{
					"sampler":1,
					"target":{
						"node":15,
						"path":"rotation"
					}
				},
				{
					"sampler":2,
					"target":{
						"node":15,
						"path":"scale"
					}
				},
				{
					"sampler":3,
					"target":{
						"node":12,
						"path":"translation"
					}
				},
				{
					"sampler":4,
					"target":{
						"node":12,
						"path":"rotation"
					}
				},
				{
					"sampler":5,
					"target":{
						"node":12,
						"path":"scale"
					}
				},
				{
					"sampler":6,
					"target":{
						"node":0,
						"path":"translation"
					}
				},
				{
					"sampler":7,
					"target":{
						"node":0,
						"path":"rotation"
					}
				},
				{
					"sampler":8,
					"target":{
						"node":0,
						"path":"scale"
					}
				},
				{
					"sampler":9,
					"target":{
						"node":3,
						"path":"translation"
					}
				},
				{
					"sampler":10,
					"target":{
						"node":3,
						"path":"rotation"
					}
				},
				{
					"sampler":11,
					"target":{
						"node":3,
						"path":"scale"
					}
				},
				{
					"sampler":12,
					"target":{
						"node":8,
						"path":"translation"
					}
				},
				{
					"sampler":13,
					"target":{
						"node":8,
						"path":"rotation"
					}
				},
				{
					"sampler":14,
					"target":{
						"node":8,
						"path":"scale"
					}
				},
				{
					"sampler":15,
					"target":{
						"node":13,
						"path":"translation"
					}
				},
				{
					"sampler":16,
					"target":{
						"node":13,
						"path":"rotation"
					}
				},
				{
					"sampler":17,
					"target":{
						"node":13,
						"path":"scale"
					}
				},
				{
					"sampler":18,
					"target":{
						"node":14,
						"path":"translation"
					}
				},
				{
					"sampler":19,
					"target":{
						"node":14,
						"path":"rotation"
					}
				},
				{
					"sampler":20,
					"target":{
						"node":14,
						"path":"scale"
					}
				}
			],
			"name":"block",
			"samplers":[
				{
					"input":44,
					"interpolation":"STEP",
					"output":31
				},
				{
					"input":44,
					"interpolation":"STEP",
					"output":32
				},
				{
					"input":44,
					"interpolation":"STEP",
					"output":33
				},
				{
					"input":44,
					"interpolation":"STEP",
					"output":34
				},
				{
					"input":44,
					"interpolation":"STEP",
					"output":32
				},
				{
					"input":44,
					"interpolation":"STEP",
					"output":33
				},
				{
					"input":44,
					"interpolation":"STEP",
					"output":35
				},
				{
					"input":44,
					"interpolation":"STEP",
					"output":36
				},
				{
					"input":44,
					"interpolation":"STEP",
					"output":37
				},
				{
					"input":44,
					"interpolation":"STEP",
					"output":38
				},
				{
					"input":44,
					"interpolation":"STEP",
					"output":39
				},
				{
					"input":44,
					"interpolation":"STEP",
					"output":37
				},
				{
					"input":44,
					"interpolation":"STEP",
					"output":40
				},
				{
					"input":44,
					"interpolation":"STEP",
					"output":32
				},
				{
					"input":44,
					"interpolation":"STEP",
					"output":33
				},
				{
					"input":44,
					"interpolation":"STEP",
					"output":41
				},
				{
					"input":44,
					"interpolation":"STEP",
					"output":42
				},
				{
					"input":44,
					"interpolation":"STEP",
					"output":33
				},
				{
					"input":44,
					"interpolation":"STEP",
					"output":43
				},
				{
					"input":44,
					"interpolation":"STEP",
					"output":42
				},
				{
					"input":44,
					"interpolation":"STEP",
					"output":33
				}
			]
		},
		{
			"channels":[
				{
					"sampler":0,
					"target":{
						"node":15,
						"path":"translation"
					}
				},
				{
					"sampler":1,
					"target":{
						"node":15,
						"path":"rotation"
					}
				},
				{
					"sampler":2,
					"target":{
						"node":15,
						"path":"scale"
					}
				},
				{
					"sampler":3,
					"target":{
						"node":12,
						"path":"translation"
					}
				},
				{
					"sampler":4,
					"target":{
						"node":12,
						"path":"rotation"
					}
				},
				{
					"sampler":5,
					"target":{
						"node":12,
						"path":"scale"
					}
				},
				{
					"sampler":6,
					"target":{
						"node":0,
						"path":"translation"
					}
				},
				{
					"sampler":7,
					"target":{
						"node":0,
						"path":"rotation"
					}
				},
				{
					"sampler":8,
					"target":{
						"node":0,
						"path":"scale"
					}
				},
				{
					"sampler":9,
					"target":{
						"node":3,
						"path":"translation"
					}
				},
				{
					"sampler":10,
					"target":{
						"node":3,
						"path":"rotation"
					}
				},
				{
					"sampler":11,
					"target":{
						"node":3,
						"path":"scale"
					}
				},
				{
					"sampler":12,
					"target":{
						"node":8,
						"path":"translation"
					}
				},
				{
					"sampler":13,
					"target":{
						"node":8,
						"path":"rotation"
					}
				},
				{
					"sampler":14,
					"target":{
						"node":8,
						"path":"scale"
					}
				},
				{
					"sampler":15,
					"target":{
						"node":13,
						"path":"translation"
					}
				},
				{
					"sampler":16,
					"target":{
						"node":13,
						"path":"rotation"
					}
				},
				{
					"sampler":17,
					"target":{
						"node":13,
						"path":"scale"
					}
				},
				{
					"sampler":18,
					"target":{
						"node":14,
						"path":"translation"
					}
				},
				{
					"sampler":19,
					"target":{
						"node":14,
						"path":"rotation"
					}
				},
				{
					"sampler":20,
					"target":{
						"node":14,
						"path":"scale"
					}
				}
			],
			"name":"death",
			"samplers":[
				{
					"input":45,
					"interpolation":"LINEAR",
					"output":46
				},
				{
					"input":47,
					"interpolation":"STEP",
					"output":32
				},
				{
					"input":47,
					"interpolation":"STEP",
					"output":33
				},
				{
					"input":47,
					"interpolation":"STEP",
					"output":34
				},
				{
					"input":47,
					"interpolation":"STEP",
					"output":32
				},
				{
					"input":47,
					"interpolation":"STEP",
					"output":33
				},
				{
					"input":47,
					"interpolation":"STEP",
					"output":48
				},
				{
					"input":47,
					"interpolation":"STEP",
					"output":36
				},
				{
					"input":47,
					"interpolation":"STEP",
					"output":37
				},
				{
					"input":47,
					"interpolation":"STEP",
					"output":49
				},
				{
					"input":47,
					"interpolation":"STEP",
					"output":39
				},
				{
					"input":47,
					"interpolation":"STEP",
					"output":37
				},
				{
					"input":47,
					"interpolation":"STEP",
					"output":40
				},
				{
					"input":47,
					"interpolation":"STEP",
					"output":32
				},
				{
					"input":47,
					"interpolation":"STEP",
					"output":33
				},
				{
					"input":47,
					"interpolation":"STEP",
					"output":50
				},
				{
					"input":47,
					"interpolation":"STEP",
					"output":42
				},
				{
					"input":47,
					"interpolation":"STEP",
					"output":33
				},
				{
					"input":47,
					"interpolation":"STEP",
					"output":51
				},
				{
					"input":47,
					"interpolation":"STEP",
					"output":42
				},
				{
					"input":47,
					"interpolation":"STEP",
					"output":33
				}
			]
		},
		{
			"channels":[
				{
					"sampler":0,
					"target":{
						"node":15,
						"path":"translation"
					}
				},
				{
					"sampler":1,
					"target":{
						"node":15,
						"path":"rotation"
					}
				},
				{
					"sampler":2,
					"target":{
						"node":15,
						"path":"scale"
					}
				},
				{
					"sampler":3,
					"target":{
						"node":12,
						"path":"translation"
					}
				},
				{
					"sampler":4,
					"target":{
						"node":12,
						"path":"rotation"
					}
				},
				{
					"sampler":5,
					"target":{
						"node":12,
						"path":"scale"
					}
				},
				{
					"sampler":6,
					"target":{
						"node":0,
						"path":"translation"
					}
				},
				{
					"sampler":7,
					"target":{
						"node":0,
						"path":"rotation"
					}
				},
				{
					"sampler":8,
					"target":{
						"node":0,
						"path":"scale"
					}
				},
				{
					"sampler":9,
					"target":{
						"node":3,
						"path":"translation"
					}
				},
				{
					"sampler":10,
					"target":{
						"node":3,
						"path":"rotation"
					}
				},
				{
					"sampler":11,
					"target":{
						"node":3,
						"path":"scale"
					}
				},
				{
					"sampler":12,
					"target":{
						"node":8,
						"path":"translation"
					}
				},
				{
					"sampler":13,
					"target":{
						"node":8,
						"path":"rotation"
					}
				},
				{
					"sampler":14,
					"target":{
						"node":8,
						"path":"scale"
					}
				},
				{
					"sampler":15,
					"target":{
						"node":13,
						"path":"translation"
					}
				},
				{
					"sampler":16,
					"target":{
						"node":13,
						"path":"rotation"
					}
				},
				{
					"sampler":17,
					"target":{
						"node":13,
						"path":"scale"
					}
				},
				{
					"sampler":18,
					"target":{
						"node":14,
						"path":"translation"
					}
				},
				{
					"sampler":19,
					"target":{
						"node":14,
						"path":"rotation"
					}
				},
				{
					"sampler":20,
					"target":{
						"node":14,
						"path":"scale"
					}
				}
			],
			"name":"hurt",
			"samplers":[
				{
					"input":52,
					"interpolation":"STEP",
					"output":31
				},
				{
					"input":52,
					"interpolation":"STEP",
					"output":32
				},
				{
					"input":52,
					"interpolation":"STEP",
					"output":33
				},
				{
					"input":53,
					"interpolation":"LINEAR",
					"output":54
				},
				{
					"input":52,
					"interpolation":"STEP",
					"output":32
				},
				{
					"input":52,
					"interpolation":"STEP",
					"output":33
				},
				{
					"input":52,
					"interpolation":"STEP",
					"output":35
				},
				{
					"input":52,
					"interpolation":"STEP",
					"output":36
				},
				{
					"input":52,
					"interpolation":"STEP",
					"output":37
				},
				{
					"input":52,
					"interpolation":"STEP",
					"output":38
				},
				{
					"input":52,
					"interpolation":"STEP",
					"output":39
				},
				{
					"input":52,
					"interpolation":"STEP",
					"output":37
				},
				{
					"input":52,
					"interpolation":"STEP",
					"output":40
				},
				{
					"input":52,
					"interpolation":"STEP",
					"output":32
				},
				{
					"input":52,
					"interpolation":"STEP",
					"output":33
				},
				{
					"input":52,
					"interpolation":"STEP",
					"output":41
				},
				{
					"input":52,
					"interpolation":"STEP",
					"output":42
				},
				{
					"input":52,
					"interpolation":"STEP",
					"output":33
				},
				{
					"input":52,
					"interpolation":"STEP",
					"output":43
				},
				{
					"input":52,
					"interpolation":"STEP",
					"output":42
				},
				{
					"input":52,
					"interpolation":"STEP",
					"output":33
				}
			]
		},
		{
			"channels":[
				{
					"sampler":0,
					"target":{
						"node":15,
						"path":"translation"
					}
				},
				{
					"sampler":1,
					"target":{
						"node":15,
						"path":"rotation"
					}
				},
				{
					"sampler":2,
					"target":{
						"node":15,
						"path":"scale"
					}
				},
				{
					"sampler":3,
					"target":{
						"node":12,
						"path":"translation"
					}
				},
				{
					"sampler":4,
					"target":{
						"node":12,
						"path":"rotation"
					}
				},
				{
					"sampler":5,
					"target":{
						"node":12,
						"path":"scale"
					}
				},
				{
					"sampler":6,
					"target":{
						"node":0,
						"path":"translation"
					}
				},
				{
					"sampler":7,
					"target":{
						"node":0,
						"path":"rotation"
					}
				},
				{
					"sampler":8,
					"target":{
						"node":0,
						"path":"scale"
					}
				},
				{
					"sampler":9,
					"target":{
						"node":3,
						"path":"translation"
					}
				},
				{
					"sampler":10,
					"target":{
						"node":3,
						"path":"rotation"
					}
				},
				{
					"sampler":11,
					"target":{
						"node":3,
						"path":"scale"
					}
				},
				{
					"sampler":12,
					"target":{
						"node":8,
						"path":"translation"
					}
				},
				{
					"sampler":13,
					"target":{
						"node":8,
						"path":"rotation"
					}
				},
				{
					"sampler":14,
					"target":{
						"node":8,
						"path":"scale"
					}
				},
				{
					"sampler":15,
					"target":{
						"node":13,
						"path":"translation"
					}
				},
				{
					"sampler":16,
					"target":{
						"node":13,
						"path":"rotation"
					}
				},
				{
					"sampler":17,
					"target":{
						"node":13,
						"path":"scale"
					}
				},
				{
					"sampler":18,
					"target":{
						"node":14,
						"path":"translation"
					}
				},
				{
					"sampler":19,
					"target":{
						"node":14,
						"path":"rotation"
					}
				},
				{
					"sampler":20,
					"target":{
						"node":14,
						"path":"scale"
					}
				}
			],
			"name":"idle",
			"samplers":[
				{
					"input":55,
					"interpolation":"LINEAR",
					"output":56
				},
				{
					"input":44,
					"interpolation":"STEP",
					"output":32
				},
				{
					"input":44,
					"interpolation":"STEP",
					"output":33
				},
				{
					"input":55,
					"interpolation":"LINEAR",
					"output":57
				},
				{
					"input":44,
					"interpolation":"STEP",
					"output":32
				},
				{
					"input":44,
					"interpolation":"STEP",
					"output":33
				},
				{
					"input":44,
					"interpolation":"STEP",
					"output":35
				},
				{
					"input":44,
					"interpolation":"STEP",
					"output":36
				},
				{
					"input":44,
					"interpolation":"STEP",
					"output":37
				},
				{
					"input":44,
					"interpolation":"STEP",
					"output":38
				},
				{
					"input":44,
					"interpolation":"STEP",
					"output":39
				},
				{
					"input":44,
					"interpolation":"STEP",
					"output":37
				},
				{
					"input":44,
					"interpolation":"STEP",
					"output":40
				},
				{
					"input":44,
					"interpolation":"STEP",
					"output":32
				},
				{
					"input":44,
					"interpolation":"STEP",
					"output":33
				},
				{
					"input":44,
					"interpolation":"STEP",
					"output":41
				},
				{
					"input":44,
					"interpolation":"STEP",
					"output":42
				},
				{
					"input":44,
					"interpolation":"STEP",
					"output":33
				},
				{
					"input":44,
					"interpolation":"STEP",
					"output":43
				},
				{
					"input":44,
					"interpolation":"STEP",
					"output":42
				},
				{
					"input":44,
					"interpolation":"STEP",
					"output":33
				}
			]
		},
		{
			"channels":[
				{
					"sampler":0,
					"target":{
						"node":15,
						"path":"translation"
					}
				},
				{
					"sampler":1,
					"target":{
						"node":15,
						"path":"rotation"
					}
				},
				{
					"sampler":2,
					"target":{
						"node":15,
						"path":"scale"
					}
				},
				{
					"sampler":3,
					"target":{
						"node":12,
						"path":"translation"
					}
				},
				{
					"sampler":4,
					"target":{
						"node":12,
						"path":"rotation"
					}
				},
				{
					"sampler":5,
					"target":{
						"node":12,
						"path":"scale"
					}
				},
				{
					"sampler":6,
					"target":{
						"node":0,
						"path":"translation"
					}
				},
				{
					"sampler":7,
					"target":{
						"node":0,
						"path":"rotation"
					}
				},
				{
					"sampler":8,
					"target":{
						"node":0,
						"path":"scale"
					}
				},
				{
					"sampler":9,
					"target":{
						"node":3,
						"path":"translation"
					}
				},
				{
					"sampler":10,
					"target":{
						"node":3,
						"path":"rotation"
					}
				},
				{
					"sampler":11,
					"target":{
						"node":3,
						"path":"scale"
					}
				},
				{
					"sampler":12,
					"target":{
						"node":8,
						"path":"translation"
					}
				},
				{
					"sampler":13,
					"target":{
						"node":8,
						"path":"rotation"
					}
				},
				{
					"sampler":14,
					"target":{
						"node":8,
						"path":"scale"
					}
				},
				{
					"sampler":15,
					"target":{
						"node":13,
						"path":"translation"
					}
				},
				{
					"sampler":16,
					"target":{
						"node":13,
						"path":"rotation"
					}
				},
				{
					"sampler":17,
					"target":{
						"node":13,
						"path":"scale"
					}
				},
				{
					"sampler":18,
					"target":{
						"node":14,
						"path":"translation"
					}
				},
				{
					"sampler":19,
					"target":{
						"node":14,
						"path":"rotation"
					}
				},
				{
					"sampler":20,
					"target":{
						"node":14,
						"path":"scale"
					}
				}
			],
			"name":"walk",
			"samplers":[
				{
					"input":44,
					"interpolation":"STEP",
					"output":31
				},
				{
					"input":44,
					"interpolation":"STEP",
					"output":32
				},
				{
					"input":44,
					"interpolation":"STEP",
					"output":33
				},
				{
					"input":44,
					"interpolation":"STEP",
					"output":34
				},
				{
					"input":44,
					"interpolation":"STEP",
					"output":32
				},
				{
					"input":44,
					"interpolation":"STEP",
					"output":33
				},
				{
					"input":44,
					"interpolation":"STEP",
					"output":35
				},
				{
					"input":44,
					"interpolation":"STEP",
					"output":36
				},
				{
					"input":44,
					"interpolation":"STEP",
					"output":37
				},
				{
					"input":44,
					"interpolation":"STEP",
					"output":38
				},
				{
					"input":44,
					"interpolation":"STEP",
					"output":39
				},
				{
					"input":44,
					"interpolation":"STEP",
					"output":37
				},
				{
					"input":44,
					"interpolation":"STEP",
					"output":40
				},
				{
					"input":44,
					"interpolation":"STEP",
					"output":32
				},
				{
					"input":44,
					"interpolation":"STEP",
					"output":33
				},
				{
					"input":44,
					"interpolation":"STEP",
					"output":41
				},
				{
					"input":44,
					"interpolation":"STEP",
					"output":42
				},
				{
					"input":44,
					"interpolation":"STEP",
					"output":33
				},
				{
					"input":44,
					"interpolation":"STEP",
					"output":43
				},
				{
					"input":44,
					"interpolation":"STEP",
					"output":42
				},
				{
					"input":44,
					"interpolation":"STEP",
					"output":33
				}
			]
		}
	],
	"materials":[
		{
			"doubleSided":true,
			"name":"CursedPlate",
			"pbrMetallicRoughness":{
				"baseColorFactor":[
					0.1599999964237213,
					0.15000000596046448,
					0.18000000715255737,
					1
				],
				"metallicFactor":0.8999999761581421,
				"roughnessFactor":0.44999998807907104
			}
		},
		{
			"doubleSided":true,
			"name":"GoldRuinTrim",
			"pbrMetallicRoughness":{
				"baseColorFactor":[
					0.6000000238418579,
					0.47999998927116394,
					0.25,
					1
				],
				"metallicFactor":0.8500000238418579,
				"roughnessFactor":0.5
			}
		},
		{
			"doubleSided":true,
			"emissiveFactor":[
				0.11111111571023506,
				0.6666667108182566,
				1
			],
			"extensions":{
				"KHR_materials_emissive_strength":{
					"emissiveStrength":3.1499999165534973
				}
			},
			"name":"GhostVisorGlow",
			"pbrMetallicRoughness":{
				"baseColorFactor":[
					0.20000000298023224,
					0.699999988079071,
					0.8999999761581421,
					1
				],
				"metallicFactor":0.10000000149011612,
				"roughnessFactor":0.30000001192092896
			}
		}
	],
	"meshes":[
		{
			"name":"Cube.002",
			"primitives":[
				{
					"attributes":{
						"POSITION":0,
						"NORMAL":1,
						"TEXCOORD_0":2
					},
					"indices":3,
					"material":0
				}
			]
		},
		{
			"name":"Cube.003",
			"primitives":[
				{
					"attributes":{
						"POSITION":4,
						"NORMAL":5,
						"TEXCOORD_0":6
					},
					"indices":3,
					"material":1
				}
			]
		},
		{
			"name":"Cone.002",
			"primitives":[
				{
					"attributes":{
						"POSITION":7,
						"NORMAL":8,
						"TEXCOORD_0":9
					},
					"indices":10,
					"material":1
				}
			]
		},
		{
			"name":"Cone.003",
			"primitives":[
				{
					"attributes":{
						"POSITION":11,
						"NORMAL":12,
						"TEXCOORD_0":13
					},
					"indices":10,
					"material":1
				}
			]
		},
		{
			"name":"Cube.001",
			"primitives":[
				{
					"attributes":{
						"POSITION":14,
						"NORMAL":15,
						"TEXCOORD_0":16
					},
					"indices":3,
					"material":2
				}
			]
		},
		{
			"name":"Cylinder",
			"primitives":[
				{
					"attributes":{
						"POSITION":17,
						"NORMAL":18,
						"TEXCOORD_0":19
					},
					"indices":20,
					"material":0
				}
			]
		},
		{
			"name":"Cone",
			"primitives":[
				{
					"attributes":{
						"POSITION":21,
						"NORMAL":22,
						"TEXCOORD_0":23
					},
					"indices":10,
					"material":1
				}
			]
		},
		{
			"name":"Cone.001",
			"primitives":[
				{
					"attributes":{
						"POSITION":24,
						"NORMAL":25,
						"TEXCOORD_0":26
					},
					"indices":10,
					"material":1
				}
			]
		},
		{
			"name":"Cube",
			"primitives":[
				{
					"attributes":{
						"POSITION":27,
						"NORMAL":28,
						"TEXCOORD_0":29
					},
					"indices":3,
					"material":0
				}
			]
		}
	],
	"skins":[
		{
			"inverseBindMatrices":58,
			"joints":[
				15,
				12,
				0,
				3,
				8,
				13,
				14
			],
			"name":"KnightRig"
		}
	],
	"accessors":[
		{
			"bufferView":0,
			"componentType":5126,
			"count":24,
			"max":[
				0.04500000178813934,
				0.04500000178813934,
				0.04500000178813934
			],
			"min":[
				-0.04500000178813934,
				-0.04500000178813934,
				-0.04500000178813934
			],
			"type":"VEC3"
		},
		{
			"bufferView":1,
			"componentType":5126,
			"count":24,
			"type":"VEC3"
		},
		{
			"bufferView":2,
			"componentType":5126,
			"count":24,
			"type":"VEC2"
		},
		{
			"bufferView":3,
			"componentType":5123,
			"count":36,
			"type":"SCALAR"
		},
		{
			"bufferView":4,
			"componentType":5126,
			"count":24,
			"max":[
				0.029999999329447746,
				0.029999999329447746,
				0.029999999329447746
			],
			"min":[
				-0.029999999329447746,
				-0.029999999329447746,
				-0.029999999329447746
			],
			"type":"VEC3"
		},
		{
			"bufferView":5,
			"componentType":5126,
			"count":24,
			"type":"VEC3"
		},
		{
			"bufferView":6,
			"componentType":5126,
			"count":24,
			"type":"VEC2"
		},
		{
			"bufferView":7,
			"componentType":5126,
			"count":128,
			"max":[
				0.05000000074505806,
				0.17499999701976776,
				0.05000000074505806
			],
			"min":[
				-0.05000000074505806,
				-0.17499999701976776,
				-0.05000000074505806
			],
			"type":"VEC3"
		},
		{
			"bufferView":8,
			"componentType":5126,
			"count":128,
			"type":"VEC3"
		},
		{
			"bufferView":9,
			"componentType":5126,
			"count":128,
			"type":"VEC2"
		},
		{
			"bufferView":10,
			"componentType":5123,
			"count":186,
			"type":"SCALAR"
		},
		{
			"bufferView":11,
			"componentType":5126,
			"count":128,
			"max":[
				0.05000000074505806,
				0.17499999701976776,
				0.05000000074505806
			],
			"min":[
				-0.05000000074505806,
				-0.17499999701976776,
				-0.05000000074505806
			],
			"type":"VEC3"
		},
		{
			"bufferView":12,
			"componentType":5126,
			"count":128,
			"type":"VEC3"
		},
		{
			"bufferView":13,
			"componentType":5126,
			"count":128,
			"type":"VEC2"
		},
		{
			"bufferView":14,
			"componentType":5126,
			"count":24,
			"max":[
				0.019999999552965164,
				0.019999999552965164,
				0.019999999552965164
			],
			"min":[
				-0.019999999552965164,
				-0.019999999552965164,
				-0.019999999552965164
			],
			"type":"VEC3"
		},
		{
			"bufferView":15,
			"componentType":5126,
			"count":24,
			"type":"VEC3"
		},
		{
			"bufferView":16,
			"componentType":5126,
			"count":24,
			"type":"VEC2"
		},
		{
			"bufferView":17,
			"componentType":5126,
			"count":192,
			"max":[
				0.2199999988079071,
				0.20000000298023224,
				0.2199999988079071
			],
			"min":[
				-0.2199999988079071,
				-0.20000000298023224,
				-0.2199999988079071
			],
			"type":"VEC3"
		},
		{
			"bufferView":18,
			"componentType":5126,
			"count":192,
			"type":"VEC3"
		},
		{
			"bufferView":19,
			"componentType":5126,
			"count":192,
			"type":"VEC2"
		},
		{
			"bufferView":20,
			"componentType":5123,
			"count":372,
			"type":"SCALAR"
		},
		{
			"bufferView":21,
			"componentType":5126,
			"count":128,
			"max":[
				0.18000000715255737,
				0.15000000596046448,
				0.18000000715255737
			],
			"min":[
				-0.18000000715255737,
				-0.15000000596046448,
				-0.18000000715255737
			],
			"type":"VEC3"
		},
		{
			"bufferView":22,
			"componentType":5126,
			"count":128,
			"type":"VEC3"
		},
		{
			"bufferView":23,
			"componentType":5126,
			"count":128,
			"type":"VEC2"
		},
		{
			"bufferView":24,
			"componentType":5126,
			"count":128,
			"max":[
				0.18000000715255737,
				0.15000000596046448,
				0.18000000715255737
			],
			"min":[
				-0.18000000715255737,
				-0.15000000596046448,
				-0.18000000715255737
			],
			"type":"VEC3"
		},
		{
			"bufferView":25,
			"componentType":5126,
			"count":128,
			"type":"VEC3"
		},
		{
			"bufferView":26,
			"componentType":5126,
			"count":128,
			"type":"VEC2"
		},
		{
			"bufferView":27,
			"componentType":5126,
			"count":24,
			"max":[
				0.23999999463558197,
				0.23999999463558197,
				0.23999999463558197
			],
			"min":[
				-0.23999999463558197,
				-0.23999999463558197,
				-0.23999999463558197
			],
			"type":"VEC3"
		},
		{
			"bufferView":28,
			"componentType":5126,
			"count":24,
			"type":"VEC3"
		},
		{
			"bufferView":29,
			"componentType":5126,
			"count":24,
			"type":"VEC2"
		},
		{
			"bufferView":30,
			"componentType":5126,
			"count":2,
			"max":[
				1
			],
			"min":[
				0.041666666666666664
			],
			"type":"SCALAR"
		},
		{
			"bufferView":31,
			"componentType":5126,
			"count":2,
			"type":"VEC3"
		},
		{
			"bufferView":32,
			"componentType":5126,
			"count":2,
			"type":"VEC4"
		},
		{
			"bufferView":33,
			"componentType":5126,
			"count":2,
			"type":"VEC3"
		},
		{
			"bufferView":34,
			"componentType":5126,
			"count":2,
			"type":"VEC3"
		},
		{
			"bufferView":35,
			"componentType":5126,
			"count":2,
			"type":"VEC3"
		},
		{
			"bufferView":36,
			"componentType":5126,
			"count":2,
			"type":"VEC4"
		},
		{
			"bufferView":37,
			"componentType":5126,
			"count":2,
			"type":"VEC3"
		},
		{
			"bufferView":38,
			"componentType":5126,
			"count":2,
			"type":"VEC3"
		},
		{
			"bufferView":39,
			"componentType":5126,
			"count":2,
			"type":"VEC4"
		},
		{
			"bufferView":40,
			"componentType":5126,
			"count":2,
			"type":"VEC3"
		},
		{
			"bufferView":41,
			"componentType":5126,
			"count":2,
			"type":"VEC3"
		},
		{
			"bufferView":42,
			"componentType":5126,
			"count":2,
			"type":"VEC4"
		},
		{
			"bufferView":43,
			"componentType":5126,
			"count":2,
			"type":"VEC3"
		},
		{
			"bufferView":44,
			"componentType":5126,
			"count":2,
			"max":[
				1.25
			],
			"min":[
				0.041666666666666664
			],
			"type":"SCALAR"
		},
		{
			"bufferView":45,
			"componentType":5126,
			"count":25,
			"max":[
				1.0416666666666667
			],
			"min":[
				0.041666666666666664
			],
			"type":"SCALAR"
		},
		{
			"bufferView":46,
			"componentType":5126,
			"count":25,
			"type":"VEC3"
		},
		{
			"bufferView":47,
			"componentType":5126,
			"count":2,
			"max":[
				1.0416666666666667
			],
			"min":[
				0.041666666666666664
			],
			"type":"SCALAR"
		},
		{
			"bufferView":48,
			"componentType":5126,
			"count":2,
			"type":"VEC3"
		},
		{
			"bufferView":49,
			"componentType":5126,
			"count":2,
			"type":"VEC3"
		},
		{
			"bufferView":50,
			"componentType":5126,
			"count":2,
			"type":"VEC3"
		},
		{
			"bufferView":51,
			"componentType":5126,
			"count":2,
			"type":"VEC3"
		},
		{
			"bufferView":52,
			"componentType":5126,
			"count":2,
			"max":[
				0.6666666666666666
			],
			"min":[
				0.041666666666666664
			],
			"type":"SCALAR"
		},
		{
			"bufferView":53,
			"componentType":5126,
			"count":16,
			"max":[
				0.6666666666666666
			],
			"min":[
				0.041666666666666664
			],
			"type":"SCALAR"
		},
		{
			"bufferView":54,
			"componentType":5126,
			"count":16,
			"type":"VEC3"
		},
		{
			"bufferView":55,
			"componentType":5126,
			"count":30,
			"max":[
				1.25
			],
			"min":[
				0.041666666666666664
			],
			"type":"SCALAR"
		},
		{
			"bufferView":56,
			"componentType":5126,
			"count":30,
			"type":"VEC3"
		},
		{
			"bufferView":57,
			"componentType":5126,
			"count":30,
			"type":"VEC3"
		},
		{
			"bufferView":58,
			"componentType":5126,
			"count":7,
			"type":"MAT4"
		}
	],
	"bufferViews":[
		{
			"buffer":0,
			"byteLength":288,
			"byteOffset":0,
			"target":34962
		},
		{
			"buffer":0,
			"byteLength":288,
			"byteOffset":288,
			"target":34962
		},
		{
			"buffer":0,
			"byteLength":192,
			"byteOffset":576,
			"target":34962
		},
		{
			"buffer":0,
			"byteLength":72,
			"byteOffset":768,
			"target":34963
		},
		{
			"buffer":0,
			"byteLength":288,
			"byteOffset":840,
			"target":34962
		},
		{
			"buffer":0,
			"byteLength":288,
			"byteOffset":1128,
			"target":34962
		},
		{
			"buffer":0,
			"byteLength":192,
			"byteOffset":1416,
			"target":34962
		},
		{
			"buffer":0,
			"byteLength":1536,
			"byteOffset":1608,
			"target":34962
		},
		{
			"buffer":0,
			"byteLength":1536,
			"byteOffset":3144,
			"target":34962
		},
		{
			"buffer":0,
			"byteLength":1024,
			"byteOffset":4680,
			"target":34962
		},
		{
			"buffer":0,
			"byteLength":372,
			"byteOffset":5704,
			"target":34963
		},
		{
			"buffer":0,
			"byteLength":1536,
			"byteOffset":6076,
			"target":34962
		},
		{
			"buffer":0,
			"byteLength":1536,
			"byteOffset":7612,
			"target":34962
		},
		{
			"buffer":0,
			"byteLength":1024,
			"byteOffset":9148,
			"target":34962
		},
		{
			"buffer":0,
			"byteLength":288,
			"byteOffset":10172,
			"target":34962
		},
		{
			"buffer":0,
			"byteLength":288,
			"byteOffset":10460,
			"target":34962
		},
		{
			"buffer":0,
			"byteLength":192,
			"byteOffset":10748,
			"target":34962
		},
		{
			"buffer":0,
			"byteLength":2304,
			"byteOffset":10940,
			"target":34962
		},
		{
			"buffer":0,
			"byteLength":2304,
			"byteOffset":13244,
			"target":34962
		},
		{
			"buffer":0,
			"byteLength":1536,
			"byteOffset":15548,
			"target":34962
		},
		{
			"buffer":0,
			"byteLength":744,
			"byteOffset":17084,
			"target":34963
		},
		{
			"buffer":0,
			"byteLength":1536,
			"byteOffset":17828,
			"target":34962
		},
		{
			"buffer":0,
			"byteLength":1536,
			"byteOffset":19364,
			"target":34962
		},
		{
			"buffer":0,
			"byteLength":1024,
			"byteOffset":20900,
			"target":34962
		},
		{
			"buffer":0,
			"byteLength":1536,
			"byteOffset":21924,
			"target":34962
		},
		{
			"buffer":0,
			"byteLength":1536,
			"byteOffset":23460,
			"target":34962
		},
		{
			"buffer":0,
			"byteLength":1024,
			"byteOffset":24996,
			"target":34962
		},
		{
			"buffer":0,
			"byteLength":288,
			"byteOffset":26020,
			"target":34962
		},
		{
			"buffer":0,
			"byteLength":288,
			"byteOffset":26308,
			"target":34962
		},
		{
			"buffer":0,
			"byteLength":192,
			"byteOffset":26596,
			"target":34962
		},
		{
			"buffer":0,
			"byteLength":8,
			"byteOffset":26788
		},
		{
			"buffer":0,
			"byteLength":24,
			"byteOffset":26796
		},
		{
			"buffer":0,
			"byteLength":32,
			"byteOffset":26820
		},
		{
			"buffer":0,
			"byteLength":24,
			"byteOffset":26852
		},
		{
			"buffer":0,
			"byteLength":24,
			"byteOffset":26876
		},
		{
			"buffer":0,
			"byteLength":24,
			"byteOffset":26900
		},
		{
			"buffer":0,
			"byteLength":32,
			"byteOffset":26924
		},
		{
			"buffer":0,
			"byteLength":24,
			"byteOffset":26956
		},
		{
			"buffer":0,
			"byteLength":24,
			"byteOffset":26980
		},
		{
			"buffer":0,
			"byteLength":32,
			"byteOffset":27004
		},
		{
			"buffer":0,
			"byteLength":24,
			"byteOffset":27036
		},
		{
			"buffer":0,
			"byteLength":24,
			"byteOffset":27060
		},
		{
			"buffer":0,
			"byteLength":32,
			"byteOffset":27084
		},
		{
			"buffer":0,
			"byteLength":24,
			"byteOffset":27116
		},
		{
			"buffer":0,
			"byteLength":8,
			"byteOffset":27140
		},
		{
			"buffer":0,
			"byteLength":100,
			"byteOffset":27148
		},
		{
			"buffer":0,
			"byteLength":300,
			"byteOffset":27248
		},
		{
			"buffer":0,
			"byteLength":8,
			"byteOffset":27548
		},
		{
			"buffer":0,
			"byteLength":24,
			"byteOffset":27556
		},
		{
			"buffer":0,
			"byteLength":24,
			"byteOffset":27580
		},
		{
			"buffer":0,
			"byteLength":24,
			"byteOffset":27604
		},
		{
			"buffer":0,
			"byteLength":24,
			"byteOffset":27628
		},
		{
			"buffer":0,
			"byteLength":8,
			"byteOffset":27652
		},
		{
			"buffer":0,
			"byteLength":64,
			"byteOffset":27660
		},
		{
			"buffer":0,
			"byteLength":192,
			"byteOffset":27724
		},
		{
			"buffer":0,
			"byteLength":120,
			"byteOffset":27916
		},
		{
			"buffer":0,
			"byteLength":360,
			"byteOffset":28036
		},
		{
			"buffer":0,
			"byteLength":360,
			"byteOffset":28396
		},
		{
			"buffer":0,
			"byteLength":448,
			"byteOffset":28756
		}
	],
	"buffers":[
		{
			"byteLength":29204,
			"uri":"enemy_knight.bin"
		}
	]
}
