{
	"asset":{
		"generator":"Khronos glTF Blender I/O v5.2.40",
		"version":"2.0"
	},
	"extensionsUsed":[
		"KHR_materials_emissive_strength"
	],
	"scene":0,
	"scenes":[
		{
			"name":"Scene",
			"nodes":[
				13
			]
		}
	],
	"nodes":[
		{
			"name":"Arm_L",
			"rotation":[
				-0.87164705991745,
				-0.33448243141174316,
				-0.33448243141174316,
				0.12835294008255005
			],
			"scale":[
				0.9999999403953552,
				0.9999998211860657,
				1
			],
			"translation":[
				0.3499999940395355,
				0.3999999761581421,
				0
			]
		},
		{
			"mesh":0,
			"name":"Cube.001",
			"rotation":[
				0.7071067690849304,
				3.978425411332864e-08,
				-1.593224752127753e-08,
				0.7071067690849304
			],
			"scale":[
				0.20000000298023224,
				5,
				0.05000000074505806
			],
			"translation":[
				-0.75,
				0.37268152832984924,
				1.2500001192092896
			]
		},
		{
			"children":[
				1
			],
			"name":"Arm_R",
			"rotation":[
				-0.87164705991745,
				0.33448243141174316,
				0.33448243141174316,
				0.12835294008255005
			],
			"scale":[
				0.9999999403953552,
				0.9999998211860657,
				1
			],
			"translation":[
				-0.3499999940395355,
				0.3999999761581421,
				0
			]
		},
		{
			"mesh":1,
			"name":"Cone.001",
			"rotation":[
				0.5919603109359741,
				-0.05789809674024582,
				0.04269494488835335,
				0.802750289440155
			],
			"scale":[
				0.9999999403953552,
				0.9999999403953552,
				1
			],
			"translation":[
				-0.18000000715255737,
				0.45000016689300537,
				2.3499999046325684
			]
		},
		{
			"mesh":2,
			"name":"Cone.002",
			"rotation":[
				0.5919603109359741,
				0.05789809674024582,
				-0.04269494488835335,
				0.802750289440155
			],
			"scale":[
				0.9999999403953552,
				0.9999999403953552,
				1
			],
			"translation":[
				0.18000000715255737,
				0.45000016689300537,
				2.3499999046325684
			]
		},
		{
			"mesh":3,
			"name":"Sphere",
			"rotation":[
				0.7071067690849304,
				0,
				0,
				0.7071067690849304
			],
			"translation":[
				0,
				0.5000001192092896,
				2.0999999046325684
			]
		},
		{
			"children":[
				3,
				4,
				5
			],
			"name":"Head",
			"translation":[
				0,
				0.5,
				0
			]
		},
		{
			"mesh":4,
			"name":"Cube",
			"rotation":[
				0.7071067690849304,
				0,
				0,
				0.7071067690849304
			],
			"scale":[
				0.699999988079071,
				0.8999999761581421,
				0.44999998807907104
			],
			"translation":[
				0,
				0.5,
				1.5
			]
		},
		{
			"children":[
				0,
				2,
				6,
				7
			],
			"name":"Chest",
			"translation":[
				0,
				0.3999999761581421,
				0
			]
		},
		{
			"name":"Leg_L",
			"rotation":[
				1,
				0,
				-4.371138828673793e-08,
				0
			],
			"translation":[
				0.25,
				0,
				0
			]
		},
		{
			"name":"Leg_R",
			"rotation":[
				1,
				0,
				-4.371138828673793e-08,
				0
			],
			"translation":[
				-0.25,
				0,
				0
			]
		},
		{
			"mesh":5,
			"name":"Cone",
			"rotation":[
				0.7071067690849304,
				0,
				0,
				0.7071067690849304
			],
			"translation":[
				0,
				0.3999999761581421,
				0.8500000238418579
			]
		},
		{
			"children":[
				8,
				9,
				10,
				11
			],
			"name":"Hips",
			"translation":[
				0,
				1,
				0
			]
		},
		{
			"children":[
				12
			],
			"name":"CultistRig"
		}
	],
	"animations":[
		{
			"channels":[
				{
					"sampler":0,
					"target":{
						"node":12,
						"path":"translation"
					}
				},
				{
					"sampler":1,
					"target":{
						"node":12,
						"path":"rotation"
					}
				},
				{
					"sampler":2,
					"target":{
						"node":12,
						"path":"scale"
					}
				},
				{
					"sampler":3,
					"target":{
						"node":8,
						"path":"translation"
					}
				},
				{
					"sampler":4,
					"target":{
						"node":8,
						"path":"rotation"
					}
				},
				{
					"sampler":5,
					"target":{
						"node":8,
						"path":"scale"
					}
				},
				{
					"sampler":6,
					"target":{
						"node":0,
						"path":"translation"
					}
				},
				{
					"sampler":7,
					"target":{
						"node":0,
						"path":"rotation"
					}
				},
				{
					"sampler":8,
					"target":{
						"node":0,
						"path":"scale"
					}
				},
				{
					"sampler":9,
					"target":{
						"node":2,
						"path":"translation"
					}
				},
				{
					"sampler":10,
					"target":{
						"node":2,
						"path":"rotation"
					}
				},
				{
					"sampler":11,
					"target":{
						"node":2,
						"path":"scale"
					}
				},
				{
					"sampler":12,
					"target":{
						"node":6,
						"path":"translation"
					}
				},
				{
					"sampler":13,
					"target":{
						"node":6,
						"path":"rotation"
					}
				},
				{
					"sampler":14,
					"target":{
						"node":6,
						"path":"scale"
					}
				},
				{
					"sampler":15,
					"target":{
						"node":9,
						"path":"translation"
					}
				},
				{
					"sampler":16,
					"target":{
						"node":9,
						"path":"rotation"
					}
				},
				{
					"sampler":17,
					"target":{
						"node":9,
						"path":"scale"
					}
				},
				{
					"sampler":18,
					"target":{
						"node":10,
						"path":"translation"
					}
				},
				{
					"sampler":19,
					"target":{
						"node":10,
						"path":"rotation"
					}
				},
				{
					"sampler":20,
					"target":{
						"node":10,
						"path":"scale"
					}
				}
			],
			"name":"attack",
			"samplers":[
				{
					"input":21,
					"interpolation":"STEP",
					"output":22
				},
				{
					"input":21,
					"interpolation":"STEP",
					"output":23
				},
				{
					"input":21,
					"interpolation":"STEP",
					"output":24
				},
				{
					"input":21,
					"interpolation":"STEP",
					"output":25
				},
				{
					"input":21,
					"interpolation":"STEP",
					"output":23
				},
				{
					"input":21,
					"interpolation":"STEP",
					"output":24
				},
				{
					"input":21,
					"interpolation":"STEP",
					"output":26
				},
				{
					"input":21,
					"interpolation":"STEP",
					"output":27
				},
				{
					"input":21,
					"interpolation":"STEP",
					"output":28
				},
				{
					"input":21,
					"interpolation":"STEP",
					"output":29
				},
				{
					"input":21,
					"interpolation":"STEP",
					"output":30
				},
				{
					"input":21,
					"interpolation":"STEP",
					"output":28
				},
				{
					"input":21,
					"interpolation":"STEP",
					"output":31
				},
				{
					"input":21,
					"interpolation":"STEP",
					"output":23
				},
				{
					"input":21,
					"interpolation":"STEP",
					"output":24
				},
				{
					"input":21,
					"interpolation":"STEP",
					"output":32
				},
				{
					"input":21,
					"interpolation":"STEP",
					"output":33
				},
				{
					"input":21,
					"interpolation":"STEP",
					"output":24
				},
				{
					"input":21,
					"interpolation":"STEP",
					"output":34
				},
				{
					"input":21,
					"interpolation":"STEP",
					"output":33
				},
				{
					"input":21,
					"interpolation":"STEP",
					"output":24
				}
			]
		},
		{
			"channels":[
				{
					"sampler":0,
					"target":{
						"node":12,
						"path":"translation"
					}
				},
				{
					"sampler":1,
					"target":{
						"node":12,
						"path":"rotation"
					}
				},
				{
					"sampler":2,
					"target":{
						"node":12,
						"path":"scale"
					}
				},
				{
					"sampler":3,
					"target":{
						"node":8,
						"path":"translation"
					}
				},
				{
					"sampler":4,
					"target":{
						"node":8,
						"path":"rotation"
					}
				},
				{
					"sampler":5,
					"target":{
						"node":8,
						"path":"scale"
					}
				},
				{
					"sampler":6,
					"target":{
						"node":0,
						"path":"translation"
					}
				},
				{
					"sampler":7,
					"target":{
						"node":0,
						"path":"rotation"
					}
				},
				{
					"sampler":8,
					"target":{
						"node":0,
						"path":"scale"
					}
				},
				{
					"sampler":9,
					"target":{
						"node":2,
						"path":"translation"
					}
				},
				{
					"sampler":10,
					"target":{
						"node":2,
						"path":"rotation"
					}
				},
				{
					"sampler":11,
					"target":{
						"node":2,
						"path":"scale"
					}
				},
				{
					"sampler":12,
					"target":{
						"node":6,
						"path":"translation"
					}
				},
				{
					"sampler":13,
					"target":{
						"node":6,
						"path":"rotation"
					}
				},
				{
					"sampler":14,
					"target":{
						"node":6,
						"path":"scale"
					}
				},
				{
					"sampler":15,
					"target":{
						"node":9,
						"path":"translation"
					}
				},
				{
					"sampler":16,
					"target":{
						"node":9,
						"path":"rotation"
					}
				},
				{
					"sampler":17,
					"target":{
						"node":9,
						"path":"scale"
					}
				},
				{
					"sampler":18,
					"target":{
						"node":10,
						"path":"translation"
					}
				},
				{
					"sampler":19,
					"target":{
						"node":10,
						"path":"rotation"
					}
				},
				{
					"sampler":20,
					"target":{
						"node":10,
						"path":"scale"
					}
				}
			],
			"name":"block",
			"samplers":[
				{
					"input":35,
					"interpolation":"STEP",
					"output":22
				},
				{
					"input":35,
					"interpolation":"STEP",
					"output":23
				},
				{
					"input":35,
					"interpolation":"STEP",
					"output":24
				},
				{
					"input":35,
					"interpolation":"STEP",
					"output":25
				},
				{
					"input":35,
					"interpolation":"STEP",
					"output":23
				},
				{
					"input":35,
					"interpolation":"STEP",
					"output":24
				},
				{
					"input":35,
					"interpolation":"STEP",
					"output":26
				},
				{
					"input":35,
					"interpolation":"STEP",
					"output":27
				},
				{
					"input":35,
					"interpolation":"STEP",
					"output":28
				},
				{
					"input":35,
					"interpolation":"STEP",
					"output":29
				},
				{
					"input":35,
					"interpolation":"STEP",
					"output":30
				},
				{
					"input":35,
					"interpolation":"STEP",
					"output":28
				},
				{
					"input":35,
					"interpolation":"STEP",
					"output":31
				},
				{
					"input":35,
					"interpolation":"STEP",
					"output":23
				},
				{
					"input":35,
					"interpolation":"STEP",
					"output":24
				},
				{
					"input":35,
					"interpolation":"STEP",
					"output":32
				},
				{
					"input":35,
					"interpolation":"STEP",
					"output":33
				},
				{
					"input":35,
					"interpolation":"STEP",
					"output":24
				},
				{
					"input":35,
					"interpolation":"STEP",
					"output":34
				},
				{
					"input":35,
					"interpolation":"STEP",
					"output":33
				},
				{
					"input":35,
					"interpolation":"STEP",
					"output":24
				}
			]
		},
		{
			"channels":[
				{
					"sampler":0,
					"target":{
						"node":12,
						"path":"translation"
					}
				},
				{
					"sampler":1,
					"target":{
						"node":12,
						"path":"rotation"
					}
				},
				{
					"sampler":2,
					"target":{
						"node":12,
						"path":"scale"
					}
				},
				{
					"sampler":3,
					"target":{
						"node":8,
						"path":"translation"
					}
				},
				{
					"sampler":4,
					"target":{
						"node":8,
						"path":"rotation"
					}
				},
				{
					"sampler":5,
					"target":{
						"node":8,
						"path":"scale"
					}
				},
				{
					"sampler":6,
					"target":{
						"node":0,
						"path":"translation"
					}
				},
				{
					"sampler":7,
					"target":{
						"node":0,
						"path":"rotation"
					}
				},
				{
					"sampler":8,
					"target":{
						"node":0,
						"path":"scale"
					}
				},
				{
					"sampler":9,
					"target":{
						"node":2,
						"path":"translation"
					}
				},
				{
					"sampler":10,
					"target":{
						"node":2,
						"path":"rotation"
					}
				},
				{
					"sampler":11,
					"target":{
						"node":2,
						"path":"scale"
					}
				},
				{
					"sampler":12,
					"target":{
						"node":6,
						"path":"translation"
					}
				},
				{
					"sampler":13,
					"target":{
						"node":6,
						"path":"rotation"
					}
				},
				{
					"sampler":14,
					"target":{
						"node":6,
						"path":"scale"
					}
				},
				{
					"sampler":15,
					"target":{
						"node":9,
						"path":"translation"
					}
				},
				{
					"sampler":16,
					"target":{
						"node":9,
						"path":"rotation"
					}
				},
				{
					"sampler":17,
					"target":{
						"node":9,
						"path":"scale"
					}
				},
				{
					"sampler":18,
					"target":{
						"node":10,
						"path":"translation"
					}
				},
				{
					"sampler":19,
					"target":{
						"node":10,
						"path":"rotation"
					}
				},
				{
					"sampler":20,
					"target":{
						"node":10,
						"path":"scale"
					}
				}
			],
			"name":"death",
			"samplers":[
				{
					"input":36,
					"interpolation":"LINEAR",
					"output":37
				},
				{
					"input":38,
					"interpolation":"STEP",
					"output":23
				},
				{
					"input":38,
					"interpolation":"STEP",
					"output":24
				},
				{
					"input":38,
					"interpolation":"STEP",
					"output":25
				},
				{
					"input":38,
					"interpolation":"STEP",
					"output":23
				},
				{
					"input":38,
					"interpolation":"STEP",
					"output":24
				},
				{
					"input":38,
					"interpolation":"STEP",
					"output":39
				},
				{
					"input":38,
					"interpolation":"STEP",
					"output":27
				},
				{
					"input":38,
					"interpolation":"STEP",
					"output":28
				},
				{
					"input":38,
					"interpolation":"STEP",
					"output":40
				},
				{
					"input":38,
					"interpolation":"STEP",
					"output":30
				},
				{
					"input":38,
					"interpolation":"STEP",
					"output":28
				},
				{
					"input":38,
					"interpolation":"STEP",
					"output":31
				},
				{
					"input":38,
					"interpolation":"STEP",
					"output":23
				},
				{
					"input":38,
					"interpolation":"STEP",
					"output":24
				},
				{
					"input":38,
					"interpolation":"STEP",
					"output":41
				},
				{
					"input":38,
					"interpolation":"STEP",
					"output":33
				},
				{
					"input":38,
					"interpolation":"STEP",
					"output":24
				},
				{
					"input":38,
					"interpolation":"STEP",
					"output":42
				},
				{
					"input":38,
					"interpolation":"STEP",
					"output":33
				},
				{
					"input":38,
					"interpolation":"STEP",
					"output":24
				}
			]
		},
		{
			"channels":[
				{
					"sampler":0,
					"target":{
						"node":12,
						"path":"translation"
					}
				},
				{
					"sampler":1,
					"target":{
						"node":12,
						"path":"rotation"
					}
				},
				{
					"sampler":2,
					"target":{
						"node":12,
						"path":"scale"
					}
				},
				{
					"sampler":3,
					"target":{
						"node":8,
						"path":"translation"
					}
				},
				{
					"sampler":4,
					"target":{
						"node":8,
						"path":"rotation"
					}
				},
				{
					"sampler":5,
					"target":{
						"node":8,
						"path":"scale"
					}
				},
				{
					"sampler":6,
					"target":{
						"node":0,
						"path":"translation"
					}
				},
				{
					"sampler":7,
					"target":{
						"node":0,
						"path":"rotation"
					}
				},
				{
					"sampler":8,
					"target":{
						"node":0,
						"path":"scale"
					}
				},
				{
					"sampler":9,
					"target":{
						"node":2,
						"path":"translation"
					}
				},
				{
					"sampler":10,
					"target":{
						"node":2,
						"path":"rotation"
					}
				},
				{
					"sampler":11,
					"target":{
						"node":2,
						"path":"scale"
					}
				},
				{
					"sampler":12,
					"target":{
						"node":6,
						"path":"translation"
					}
				},
				{
					"sampler":13,
					"target":{
						"node":6,
						"path":"rotation"
					}
				},
				{
					"sampler":14,
					"target":{
						"node":6,
						"path":"scale"
					}
				},
				{
					"sampler":15,
					"target":{
						"node":9,
						"path":"translation"
					}
				},
				{
					"sampler":16,
					"target":{
						"node":9,
						"path":"rotation"
					}
				},
				{
					"sampler":17,
					"target":{
						"node":9,
						"path":"scale"
					}
				},
				{
					"sampler":18,
					"target":{
						"node":10,
						"path":"translation"
					}
				},
				{
					"sampler":19,
					"target":{
						"node":10,
						"path":"rotation"
					}
				},
				{
					"sampler":20,
					"target":{
						"node":10,
						"path":"scale"
					}
				}
			],
			"name":"hurt",
			"samplers":[
				{
					"input":43,
					"interpolation":"STEP",
					"output":22
				},
				{
					"input":43,
					"interpolation":"STEP",
					"output":23
				},
				{
					"input":43,
					"interpolation":"STEP",
					"output":24
				},
				{
					"input":44,
					"interpolation":"LINEAR",
					"output":45
				},
				{
					"input":43,
					"interpolation":"STEP",
					"output":23
				},
				{
					"input":43,
					"interpolation":"STEP",
					"output":24
				},
				{
					"input":43,
					"interpolation":"STEP",
					"output":26
				},
				{
					"input":43,
					"interpolation":"STEP",
					"output":27
				},
				{
					"input":43,
					"interpolation":"STEP",
					"output":28
				},
				{
					"input":43,
					"interpolation":"STEP",
					"output":29
				},
				{
					"input":43,
					"interpolation":"STEP",
					"output":30
				},
				{
					"input":43,
					"interpolation":"STEP",
					"output":28
				},
				{
					"input":43,
					"interpolation":"STEP",
					"output":31
				},
				{
					"input":43,
					"interpolation":"STEP",
					"output":23
				},
				{
					"input":43,
					"interpolation":"STEP",
					"output":24
				},
				{
					"input":43,
					"interpolation":"STEP",
					"output":32
				},
				{
					"input":43,
					"interpolation":"STEP",
					"output":33
				},
				{
					"input":43,
					"interpolation":"STEP",
					"output":24
				},
				{
					"input":43,
					"interpolation":"STEP",
					"output":34
				},
				{
					"input":43,
					"interpolation":"STEP",
					"output":33
				},
				{
					"input":43,
					"interpolation":"STEP",
					"output":24
				}
			]
		},
		{
			"channels":[
				{
					"sampler":0,
					"target":{
						"node":12,
						"path":"translation"
					}
				},
				{
					"sampler":1,
					"target":{
						"node":12,
						"path":"rotation"
					}
				},
				{
					"sampler":2,
					"target":{
						"node":12,
						"path":"scale"
					}
				},
				{
					"sampler":3,
					"target":{
						"node":8,
						"path":"translation"
					}
				},
				{
					"sampler":4,
					"target":{
						"node":8,
						"path":"rotation"
					}
				},
				{
					"sampler":5,
					"target":{
						"node":8,
						"path":"scale"
					}
				},
				{
					"sampler":6,
					"target":{
						"node":0,
						"path":"translation"
					}
				},
				{
					"sampler":7,
					"target":{
						"node":0,
						"path":"rotation"
					}
				},
				{
					"sampler":8,
					"target":{
						"node":0,
						"path":"scale"
					}
				},
				{
					"sampler":9,
					"target":{
						"node":2,
						"path":"translation"
					}
				},
				{
					"sampler":10,
					"target":{
						"node":2,
						"path":"rotation"
					}
				},
				{
					"sampler":11,
					"target":{
						"node":2,
						"path":"scale"
					}
				},
				{
					"sampler":12,
					"target":{
						"node":6,
						"path":"translation"
					}
				},
				{
					"sampler":13,
					"target":{
						"node":6,
						"path":"rotation"
					}
				},
				{
					"sampler":14,
					"target":{
						"node":6,
						"path":"scale"
					}
				},
				{
					"sampler":15,
					"target":{
						"node":9,
						"path":"translation"
					}
				},
				{
					"sampler":16,
					"target":{
						"node":9,
						"path":"rotation"
					}
				},
				{
					"sampler":17,
					"target":{
						"node":9,
						"path":"scale"
					}
				},
				{
					"sampler":18,
					"target":{
						"node":10,
						"path":"translation"
					}
				},
				{
					"sampler":19,
					"target":{
						"node":10,
						"path":"rotation"
					}
				},
				{
					"sampler":20,
					"target":{
						"node":10,
						"path":"scale"
					}
				}
			],
			"name":"idle",
			"samplers":[
				{
					"input":46,
					"interpolation":"LINEAR",
					"output":47
				},
				{
					"input":35,
					"interpolation":"STEP",
					"output":23
				},
				{
					"input":35,
					"interpolation":"STEP",
					"output":24
				},
				{
					"input":46,
					"interpolation":"LINEAR",
					"output":48
				},
				{
					"input":35,
					"interpolation":"STEP",
					"output":23
				},
				{
					"input":35,
					"interpolation":"STEP",
					"output":24
				},
				{
					"input":35,
					"interpolation":"STEP",
					"output":26
				},
				{
					"input":35,
					"interpolation":"STEP",
					"output":27
				},
				{
					"input":35,
					"interpolation":"STEP",
					"output":28
				},
				{
					"input":35,
					"interpolation":"STEP",
					"output":29
				},
				{
					"input":35,
					"interpolation":"STEP",
					"output":30
				},
				{
					"input":35,
					"interpolation":"STEP",
					"output":28
				},
				{
					"input":35,
					"interpolation":"STEP",
					"output":31
				},
				{
					"input":35,
					"interpolation":"STEP",
					"output":23
				},
				{
					"input":35,
					"interpolation":"STEP",
					"output":24
				},
				{
					"input":35,
					"interpolation":"STEP",
					"output":32
				},
				{
					"input":35,
					"interpolation":"STEP",
					"output":33
				},
				{
					"input":35,
					"interpolation":"STEP",
					"output":24
				},
				{
					"input":35,
					"interpolation":"STEP",
					"output":34
				},
				{
					"input":35,
					"interpolation":"STEP",
					"output":33
				},
				{
					"input":35,
					"interpolation":"STEP",
					"output":24
				}
			]
		},
		{
			"channels":[
				{
					"sampler":0,
					"target":{
						"node":12,
						"path":"translation"
					}
				},
				{
					"sampler":1,
					"target":{
						"node":12,
						"path":"rotation"
					}
				},
				{
					"sampler":2,
					"target":{
						"node":12,
						"path":"scale"
					}
				},
				{
					"sampler":3,
					"target":{
						"node":8,
						"path":"translation"
					}
				},
				{
					"sampler":4,
					"target":{
						"node":8,
						"path":"rotation"
					}
				},
				{
					"sampler":5,
					"target":{
						"node":8,
						"path":"scale"
					}
				},
				{
					"sampler":6,
					"target":{
						"node":0,
						"path":"translation"
					}
				},
				{
					"sampler":7,
					"target":{
						"node":0,
						"path":"rotation"
					}
				},
				{
					"sampler":8,
					"target":{
						"node":0,
						"path":"scale"
					}
				},
				{
					"sampler":9,
					"target":{
						"node":2,
						"path":"translation"
					}
				},
				{
					"sampler":10,
					"target":{
						"node":2,
						"path":"rotation"
					}
				},
				{
					"sampler":11,
					"target":{
						"node":2,
						"path":"scale"
					}
				},
				{
					"sampler":12,
					"target":{
						"node":6,
						"path":"translation"
					}
				},
				{
					"sampler":13,
					"target":{
						"node":6,
						"path":"rotation"
					}
				},
				{
					"sampler":14,
					"target":{
						"node":6,
						"path":"scale"
					}
				},
				{
					"sampler":15,
					"target":{
						"node":9,
						"path":"translation"
					}
				},
				{
					"sampler":16,
					"target":{
						"node":9,
						"path":"rotation"
					}
				},
				{
					"sampler":17,
					"target":{
						"node":9,
						"path":"scale"
					}
				},
				{
					"sampler":18,
					"target":{
						"node":10,
						"path":"translation"
					}
				},
				{
					"sampler":19,
					"target":{
						"node":10,
						"path":"rotation"
					}
				},
				{
					"sampler":20,
					"target":{
						"node":10,
						"path":"scale"
					}
				}
			],
			"name":"walk",
			"samplers":[
				{
					"input":35,
					"interpolation":"STEP",
					"output":22
				},
				{
					"input":35,
					"interpolation":"STEP",
					"output":23
				},
				{
					"input":35,
					"interpolation":"STEP",
					"output":24
				},
				{
					"input":35,
					"interpolation":"STEP",
					"output":25
				},
				{
					"input":35,
					"interpolation":"STEP",
					"output":23
				},
				{
					"input":35,
					"interpolation":"STEP",
					"output":24
				},
				{
					"input":35,
					"interpolation":"STEP",
					"output":26
				},
				{
					"input":35,
					"interpolation":"STEP",
					"output":27
				},
				{
					"input":35,
					"interpolation":"STEP",
					"output":28
				},
				{
					"input":35,
					"interpolation":"STEP",
					"output":29
				},
				{
					"input":35,
					"interpolation":"STEP",
					"output":30
				},
				{
					"input":35,
					"interpolation":"STEP",
					"output":28
				},
				{
					"input":35,
					"interpolation":"STEP",
					"output":31
				},
				{
					"input":35,
					"interpolation":"STEP",
					"output":23
				},
				{
					"input":35,
					"interpolation":"STEP",
					"output":24
				},
				{
					"input":35,
					"interpolation":"STEP",
					"output":32
				},
				{
					"input":35,
					"interpolation":"STEP",
					"output":33
				},
				{
					"input":35,
					"interpolation":"STEP",
					"output":24
				},
				{
					"input":35,
					"interpolation":"STEP",
					"output":34
				},
				{
					"input":35,
					"interpolation":"STEP",
					"output":33
				},
				{
					"input":35,
					"interpolation":"STEP",
					"output":24
				}
			]
		}
	],
	"materials":[
		{
			"doubleSided":true,
			"emissiveFactor":[
				1,
				0.14285714741872288,
				0.14285714741872288
			],
			"extensions":{
				"KHR_materials_emissive_strength":{
					"emissiveStrength":1.399999976158142
				}
			},
			"name":"RitualSteel",
			"pbrMetallicRoughness":{
				"baseColorFactor":[
					0.4000000059604645,
					0.4000000059604645,
					0.44999998807907104,
					1
				],
				"metallicFactor":0.800000011920929,
				"roughnessFactor":0.4000000059604645
			}
		},
		{
			"doubleSided":true,
			"name":"HornedMask",
			"pbrMetallicRoughness":{
				"baseColorFactor":[
					0.800000011920929,
					0.7799999713897705,
					0.699999988079071,
					1
				],
				"metallicFactor":0.10000000149011612,
				"roughnessFactor":0.800000011920929
			}
		},
		{
			"doubleSided":true,
			"name":"CultRobe",
			"pbrMetallicRoughness":{
				"baseColorFactor":[
					0.11999999731779099,
					0.10999999940395355,
					0.14000000059604645,
					1
				],
				"metallicFactor":0.10000000149011612,
				"roughnessFactor":0.8999999761581421
			}
		}
	],
	"meshes":[
		{
			"name":"Cube.001",
			"primitives":[
				{
					"attributes":{
						"POSITION":0,
						"NORMAL":1,
						"TEXCOORD_0":2
					},
					"indices":3,
					"material":0
				}
			]
		},
		{
			"name":"Cone.001",
			"primitives":[
				{
					"attributes":{
						"POSITION":4,
						"NORMAL":5,
						"TEXCOORD_0":6
					},
					"indices":7,
					"material":1
				}
			]
		},
		{
			"name":"Cone.002",
			"primitives":[
				{
					"attributes":{
						"POSITION":8,
						"NORMAL":9,
						"TEXCOORD_0":10
					},
					"indices":7,
					"material":1
				}
			]
		},
		{
			"name":"Sphere",
			"primitives":[
				{
					"attributes":{
						"POSITION":11,
						"NORMAL":12,
						"TEXCOORD_0":13
					},
					"indices":14,
					"material":1
				}
			]
		},
		{
			"name":"Cube",
			"primitives":[
				{
					"attributes":{
						"POSITION":15,
						"NORMAL":16,
						"TEXCOORD_0":17
					},
					"indices":3,
					"material":2
				}
			]
		},
		{
			"name":"Cone",
			"primitives":[
				{
					"attributes":{
						"POSITION":18,
						"NORMAL":19,
						"TEXCOORD_0":20
					},
					"indices":7,
					"material":2
				}
			]
		}
	],
	"skins":[
		{
			"inverseBindMatrices":49,
			"joints":[
				12,
				8,
				0,
				2,
				6,
				9,
				10
			],
			"name":"CultistRig"
		}
	],
	"accessors":[
		{
			"bufferView":0,
			"componentType":5126,
			"count":24,
			"max":[
				0.03999999910593033,
				0.03999999910593033,
				0.03999999910593033
			],
			"min":[
				-0.03999999910593033,
				-0.03999999910593033,
				-0.03999999910593033
			],
			"type":"VEC3"
		},
		{
			"bufferView":1,
			"componentType":5126,
			"count":24,
			"type":"VEC3"
		},
		{
			"bufferView":2,
			"componentType":5126,
			"count":24,
			"type":"VEC2"
		},
		{
			"bufferView":3,
			"componentType":5123,
			"count":36,
			"type":"SCALAR"
		},
		{
			"bufferView":4,
			"componentType":5126,
			"count":128,
			"max":[
				0.05999999865889549,
				0.20000000298023224,
				0.05999999865889549
			],
			"min":[
				-0.05999999865889549,
				-0.20000000298023224,
				-0.05999999865889549
			],
			"type":"VEC3"
		},
		{
			"bufferView":5,
			"componentType":5126,
			"count":128,
			"type":"VEC3"
		},
		{
			"bufferView":6,
			"componentType":5126,
			"count":128,
			"type":"VEC2"
		},
		{
			"bufferView":7,
			"componentType":5123,
			"count":186,
			"type":"SCALAR"
		},
		{
			"bufferView":8,
			"componentType":5126,
			"count":128,
			"max":[
				0.05999999865889549,
				0.20000000298023224,
				0.05999999865889549
			],
			"min":[
				-0.05999999865889549,
				-0.20000000298023224,
				-0.05999999865889549
			],
			"type":"VEC3"
		},
		{
			"bufferView":9,
			"componentType":5126,
			"count":128,
			"type":"VEC3"
		},
		{
			"bufferView":10,
			"componentType":5126,
			"count":128,
			"type":"VEC2"
		},
		{
			"bufferView":11,
			"componentType":5126,
			"count":1984,
			"max":[
				0.239999920129776,
				0.23999999463558197,
				0.23999986052513123
			],
			"min":[
				-0.23999980092048645,
				-0.23999999463558197,
				-0.23999999463558197
			],
			"type":"VEC3"
		},
		{
			"bufferView":12,
			"componentType":5126,
			"count":1984,
			"type":"VEC3"
		},
		{
			"bufferView":13,
			"componentType":5126,
			"count":1984,
			"type":"VEC2"
		},
		{
			"bufferView":14,
			"componentType":5123,
			"count":2880,
			"type":"SCALAR"
		},
		{
			"bufferView":15,
			"componentType":5126,
			"count":24,
			"max":[
				0.22499999403953552,
				0.22499999403953552,
				0.22499999403953552
			],
			"min":[
				-0.22499999403953552,
				-0.22499999403953552,
				-0.22499999403953552
			],
			"type":"VEC3"
		},
		{
			"bufferView":16,
			"componentType":5126,
			"count":24,
			"type":"VEC3"
		},
		{
			"bufferView":17,
			"componentType":5126,
			"count":24,
			"type":"VEC2"
		},
		{
			"bufferView":18,
			"componentType":5126,
			"count":128,
			"max":[
				0.4000000059604645,
				0.6499999761581421,
				0.4000000059604645
			],
			"min":[
				-0.4000000059604645,
				-0.6499999761581421,
				-0.4000000059604645
			],
			"type":"VEC3"
		},
		{
			"bufferView":19,
			"componentType":5126,
			"count":128,
			"type":"VEC3"
		},
		{
			"bufferView":20,
			"componentType":5126,
			"count":128,
			"type":"VEC2"
		},
		{
			"bufferView":21,
			"componentType":5126,
			"count":2,
			"max":[
				1
			],
			"min":[
				0.041666666666666664
			],
			"type":"SCALAR"
		},
		{
			"bufferView":22,
			"componentType":5126,
			"count":2,
			"type":"VEC3"
		},
		{
			"bufferView":23,
			"componentType":5126,
			"count":2,
			"type":"VEC4"
		},
		{
			"bufferView":24,
			"componentType":5126,
			"count":2,
			"type":"VEC3"
		},
		{
			"bufferView":25,
			"componentType":5126,
			"count":2,
			"type":"VEC3"
		},
		{
			"bufferView":26,
			"componentType":5126,
			"count":2,
			"type":"VEC3"
		},
		{
			"bufferView":27,
			"componentType":5126,
			"count":2,
			"type":"VEC4"
		},
		{
			"bufferView":28,
			"componentType":5126,
			"count":2,
			"type":"VEC3"
		},
		{
			"bufferView":29,
			"componentType":5126,
			"count":2,
			"type":"VEC3"
		},
		{
			"bufferView":30,
			"componentType":5126,
			"count":2,
			"type":"VEC4"
		},
		{
			"bufferView":31,
			"componentType":5126,
			"count":2,
			"type":"VEC3"
		},
		{
			"bufferView":32,
			"componentType":5126,
			"count":2,
			"type":"VEC3"
		},
		{
			"bufferView":33,
			"componentType":5126,
			"count":2,
			"type":"VEC4"
		},
		{
			"bufferView":34,
			"componentType":5126,
			"count":2,
			"type":"VEC3"
		},
		{
			"bufferView":35,
			"componentType":5126,
			"count":2,
			"max":[
				1.25
			],
			"min":[
				0.041666666666666664
			],
			"type":"SCALAR"
		},
		{
			"bufferView":36,
			"componentType":5126,
			"count":25,
			"max":[
				1.0416666666666667
			],
			"min":[
				0.041666666666666664
			],
			"type":"SCALAR"
		},
		{
			"bufferView":37,
			"componentType":5126,
			"count":25,
			"type":"VEC3"
		},
		{
			"bufferView":38,
			"componentType":5126,
			"count":2,
			"max":[
				1.0416666666666667
			],
			"min":[
				0.041666666666666664
			],
			"type":"SCALAR"
		},
		{
			"bufferView":39,
			"componentType":5126,
			"count":2,
			"type":"VEC3"
		},
		{
			"bufferView":40,
			"componentType":5126,
			"count":2,
			"type":"VEC3"
		},
		{
			"bufferView":41,
			"componentType":5126,
			"count":2,
			"type":"VEC3"
		},
		{
			"bufferView":42,
			"componentType":5126,
			"count":2,
			"type":"VEC3"
		},
		{
			"bufferView":43,
			"componentType":5126,
			"count":2,
			"max":[
				0.6666666666666666
			],
			"min":[
				0.041666666666666664
			],
			"type":"SCALAR"
		},
		{
			"bufferView":44,
			"componentType":5126,
			"count":16,
			"max":[
				0.6666666666666666
			],
			"min":[
				0.041666666666666664
			],
			"type":"SCALAR"
		},
		{
			"bufferView":45,
			"componentType":5126,
			"count":16,
			"type":"VEC3"
		},
		{
			"bufferView":46,
			"componentType":5126,
			"count":30,
			"max":[
				1.25
			],
			"min":[
				0.041666666666666664
			],
			"type":"SCALAR"
		},
		{
			"bufferView":47,
			"componentType":5126,
			"count":30,
			"type":"VEC3"
		},
		{
			"bufferView":48,
			"componentType":5126,
			"count":30,
			"type":"VEC3"
		},
		{
			"bufferView":49,
			"componentType":5126,
			"count":7,
			"type":"MAT4"
		}
	],
	"bufferViews":[
		{
			"buffer":0,
			"byteLength":288,
			"byteOffset":0,
			"target":34962
		},
		{
			"buffer":0,
			"byteLength":288,
			"byteOffset":288,
			"target":34962
		},
		{
			"buffer":0,
			"byteLength":192,
			"byteOffset":576,
			"target":34962
		},
		{
			"buffer":0,
			"byteLength":72,
			"byteOffset":768,
			"target":34963
		},
		{
			"buffer":0,
			"byteLength":1536,
			"byteOffset":840,
			"target":34962
		},
		{
			"buffer":0,
			"byteLength":1536,
			"byteOffset":2376,
			"target":34962
		},
		{
			"buffer":0,
			"byteLength":1024,
			"byteOffset":3912,
			"target":34962
		},
		{
			"buffer":0,
			"byteLength":372,
			"byteOffset":4936,
			"target":34963
		},
		{
			"buffer":0,
			"byteLength":1536,
			"byteOffset":5308,
			"target":34962
		},
		{
			"buffer":0,
			"byteLength":1536,
			"byteOffset":6844,
			"target":34962
		},
		{
			"buffer":0,
			"byteLength":1024,
			"byteOffset":8380,
			"target":34962
		},
		{
			"buffer":0,
			"byteLength":23808,
			"byteOffset":9404,
			"target":34962
		},
		{
			"buffer":0,
			"byteLength":23808,
			"byteOffset":33212,
			"target":34962
		},
		{
			"buffer":0,
			"byteLength":15872,
			"byteOffset":57020,
			"target":34962
		},
		{
			"buffer":0,
			"byteLength":5760,
			"byteOffset":72892,
			"target":34963
		},
		{
			"buffer":0,
			"byteLength":288,
			"byteOffset":78652,
			"target":34962
		},
		{
			"buffer":0,
			"byteLength":288,
			"byteOffset":78940,
			"target":34962
		},
		{
			"buffer":0,
			"byteLength":192,
			"byteOffset":79228,
			"target":34962
		},
		{
			"buffer":0,
			"byteLength":1536,
			"byteOffset":79420,
			"target":34962
		},
		{
			"buffer":0,
			"byteLength":1536,
			"byteOffset":80956,
			"target":34962
		},
		{
			"buffer":0,
			"byteLength":1024,
			"byteOffset":82492,
			"target":34962
		},
		{
			"buffer":0,
			"byteLength":8,
			"byteOffset":83516
		},
		{
			"buffer":0,
			"byteLength":24,
			"byteOffset":83524
		},
		{
			"buffer":0,
			"byteLength":32,
			"byteOffset":83548
		},
		{
			"buffer":0,
			"byteLength":24,
			"byteOffset":83580
		},
		{
			"buffer":0,
			"byteLength":24,
			"byteOffset":83604
		},
		{
			"buffer":0,
			"byteLength":24,
			"byteOffset":83628
		},
		{
			"buffer":0,
			"byteLength":32,
			"byteOffset":83652
		},
		{
			"buffer":0,
			"byteLength":24,
			"byteOffset":83684
		},
		{
			"buffer":0,
			"byteLength":24,
			"byteOffset":83708
		},
		{
			"buffer":0,
			"byteLength":32,
			"byteOffset":83732
		},
		{
			"buffer":0,
			"byteLength":24,
			"byteOffset":83764
		},
		{
			"buffer":0,
			"byteLength":24,
			"byteOffset":83788
		},
		{
			"buffer":0,
			"byteLength":32,
			"byteOffset":83812
		},
		{
			"buffer":0,
			"byteLength":24,
			"byteOffset":83844
		},
		{
			"buffer":0,
			"byteLength":8,
			"byteOffset":83868
		},
		{
			"buffer":0,
			"byteLength":100,
			"byteOffset":83876
		},
		{
			"buffer":0,
			"byteLength":300,
			"byteOffset":83976
		},
		{
			"buffer":0,
			"byteLength":8,
			"byteOffset":84276
		},
		{
			"buffer":0,
			"byteLength":24,
			"byteOffset":84284
		},
		{
			"buffer":0,
			"byteLength":24,
			"byteOffset":84308
		},
		{
			"buffer":0,
			"byteLength":24,
			"byteOffset":84332
		},
		{
			"buffer":0,
			"byteLength":24,
			"byteOffset":84356
		},
		{
			"buffer":0,
			"byteLength":8,
			"byteOffset":84380
		},
		{
			"buffer":0,
			"byteLength":64,
			"byteOffset":84388
		},
		{
			"buffer":0,
			"byteLength":192,
			"byteOffset":84452
		},
		{
			"buffer":0,
			"byteLength":120,
			"byteOffset":84644
		},
		{
			"buffer":0,
			"byteLength":360,
			"byteOffset":84764
		},
		{
			"buffer":0,
			"byteLength":360,
			"byteOffset":85124
		},
		{
			"buffer":0,
			"byteLength":448,
			"byteOffset":85484
		}
	],
	"buffers":[
		{
			"byteLength":85932,
			"uri":"enemy_cultist.bin"
		}
	]
}
