{
	"asset":{
		"generator":"Khronos glTF Blender I/O v5.2.40",
		"version":"2.0"
	},
	"extensionsUsed":[
		"KHR_materials_emissive_strength"
	],
	"scene":0,
	"scenes":[
		{
			"name":"Scene",
			"nodes":[
				23
			]
		}
	],
	"nodes":[
		{
			"mesh":0,
			"name":"Cylinder.001",
			"rotation":[
				0.7071067690849304,
				-1.8812704283277526e-08,
				-1.9365737458088006e-08,
				0.7071067690849304
			],
			"translation":[
				0.6000001430511475,
				0.6726812720298767,
				1.399999976158142
			]
		},
		{
			"children":[
				0
			],
			"name":"Arm_L",
			"rotation":[
				-0.87164705991745,
				-0.33448243141174316,
				-0.33448243141174316,
				0.12835294008255005
			],
			"scale":[
				0.9999999403953552,
				0.9999998211860657,
				1
			],
			"translation":[
				0.3499999940395355,
				0.3999999761581421,
				0
			]
		},
		{
			"mesh":1,
			"name":"Cube.002",
			"rotation":[
				0.7071067690849304,
				1.723243947537867e-08,
				3.3414686129162874e-08,
				0.7071067690849304
			],
			"scale":[
				0.15000000596046448,
				8,
				0.03999999910593033
			],
			"translation":[
				-0.75,
				0.4226812422275543,
				1.3000000715255737
			]
		},
		{
			"mesh":2,
			"name":"Cube.003",
			"rotation":[
				0.7071067690849304,
				5.2712579190483666e-08,
				-6.093677740182102e-08,
				0.7071067690849304
			],
			"scale":[
				2.200000286102295,
				0.6000000238418579,
				0.6000000238418579
			],
			"translation":[
				-0.7499998211860657,
				0.42268145084381104,
				0.9999998211860657
			]
		},
		{
			"mesh":3,
			"name":"Cylinder.003",
			"rotation":[
				0.7071067690849304,
				1.8812704283277526e-08,
				1.9365737458088006e-08,
				0.7071067690849304
			],
			"translation":[
				-0.6000001430511475,
				0.6726812720298767,
				1.399999976158142
			]
		},
		{
			"children":[
				2,
				3,
				4
			],
			"name":"Arm_R",
			"rotation":[
				-0.87164705991745,
				0.33448243141174316,
				0.33448243141174316,
				0.12835294008255005
			],
			"scale":[
				0.9999999403953552,
				0.9999998211860657,
				1
			],
			"translation":[
				-0.3499999940395355,
				0.3999999761581421,
				0
			]
		},
		{
			"mesh":4,
			"name":"Cube.001",
			"rotation":[
				0.7071067690849304,
				0,
				0,
				0.7071067690849304
			],
			"scale":[
				0.800000011920929,
				0.5,
				1.2000000476837158
			],
			"translation":[
				0,
				0.42000019550323486,
				1.9500000476837158
			]
		},
		{
			"mesh":5,
			"name":"Sphere",
			"rotation":[
				0.7071067690849304,
				0,
				0,
				0.7071067690849304
			],
			"translation":[
				0,
				0.5000001192092896,
				2.0999999046325684
			]
		},
		{
			"mesh":6,
			"name":"Sphere.001",
			"rotation":[
				0.7071067690849304,
				0,
				0,
				0.7071067690849304
			],
			"translation":[
				-0.07000000029802322,
				0.3200000524520874,
				2.119999885559082
			]
		},
		{
			"mesh":7,
			"name":"Sphere.002",
			"rotation":[
				0.7071067690849304,
				0,
				0,
				0.7071067690849304
			],
			"translation":[
				0.07000000029802322,
				0.3200000524520874,
				2.119999885559082
			]
		},
		{
			"children":[
				6,
				7,
				8,
				9
			],
			"name":"Head",
			"translation":[
				0,
				0.5,
				0
			]
		},
		{
			"mesh":8,
			"name":"Cylinder",
			"rotation":[
				0.7071067690849304,
				0,
				0,
				0.7071067690849304
			],
			"translation":[
				0,
				0.48000001907348633,
				1.4500000476837158
			]
		},
		{
			"mesh":9,
			"name":"Torus",
			"rotation":[
				0.7071067690849304,
				0,
				0,
				0.7071067690849304
			],
			"scale":[
				1,
				0.6000000238418579,
				0.699999988079071
			],
			"translation":[
				0,
				0.5,
				1.25
			]
		},
		{
			"mesh":10,
			"name":"Torus.001",
			"rotation":[
				0.7071067690849304,
				0,
				0,
				0.7071067690849304
			],
			"scale":[
				1,
				0.6000000238418579,
				0.699999988079071
			],
			"translation":[
				0,
				0.5,
				1.3700000047683716
			]
		},
		{
			"mesh":11,
			"name":"Torus.002",
			"rotation":[
				0.7071067690849304,
				0,
				0,
				0.7071067690849304
			],
			"scale":[
				1,
				0.6000000238418579,
				0.699999988079071
			],
			"translation":[
				0,
				0.5,
				1.4900000095367432
			]
		},
		{
			"mesh":12,
			"name":"Torus.003",
			"rotation":[
				0.7071067690849304,
				0,
				0,
				0.7071067690849304
			],
			"scale":[
				1,
				0.6000000238418579,
				0.699999988079071
			],
			"translation":[
				0,
				0.5,
				1.6100000143051147
			]
		},
		{
			"children":[
				1,
				5,
				10,
				11,
				12,
				13,
				14,
				15
			],
			"name":"Chest",
			"translation":[
				0,
				0.3999999761581421,
				0
			]
		},
		{
			"mesh":13,
			"name":"Cylinder.002",
			"rotation":[
				0.7071067690849304,
				0,
				0,
				0.7071067690849304
			],
			"translation":[
				0.2200000137090683,
				1,
				0.44999998807907104
			]
		},
		{
			"children":[
				17
			],
			"name":"Leg_L",
			"rotation":[
				1,
				0,
				-4.371138828673793e-08,
				0
			],
			"translation":[
				0.25,
				0,
				0
			]
		},
		{
			"mesh":14,
			"name":"Cylinder.004",
			"rotation":[
				0.7071067690849304,
				0,
				0,
				0.7071067690849304
			],
			"translation":[
				-0.2199999839067459,
				1,
				0.44999998807907104
			]
		},
		{
			"children":[
				19
			],
			"name":"Leg_R",
			"rotation":[
				1,
				0,
				-4.371138828673793e-08,
				0
			],
			"translation":[
				-0.25,
				0,
				0
			]
		},
		{
			"mesh":15,
			"name":"Cube",
			"rotation":[
				0.7071067690849304,
				0,
				0,
				0.7071067690849304
			],
			"scale":[
				0.699999988079071,
				0.4000000059604645,
				0.4000000059604645
			],
			"translation":[
				0,
				0.3999999761581421,
				0.949999988079071
			]
		},
		{
			"children":[
				16,
				18,
				20,
				21
			],
			"name":"Hips",
			"translation":[
				0,
				1,
				0
			]
		},
		{
			"children":[
				22
			],
			"name":"SkeletonRig"
		}
	],
	"animations":[
		{
			"channels":[
				{
					"sampler":0,
					"target":{
						"node":22,
						"path":"translation"
					}
				},
				{
					"sampler":1,
					"target":{
						"node":22,
						"path":"rotation"
					}
				},
				{
					"sampler":2,
					"target":{
						"node":22,
						"path":"scale"
					}
				},
				{
					"sampler":3,
					"target":{
						"node":16,
						"path":"translation"
					}
				},
				{
					"sampler":4,
					"target":{
						"node":16,
						"path":"rotation"
					}
				},
				{
					"sampler":5,
					"target":{
						"node":16,
						"path":"scale"
					}
				},
				{
					"sampler":6,
					"target":{
						"node":1,
						"path":"translation"
					}
				},
				{
					"sampler":7,
					"target":{
						"node":1,
						"path":"rotation"
					}
				},
				{
					"sampler":8,
					"target":{
						"node":1,
						"path":"scale"
					}
				},
				{
					"sampler":9,
					"target":{
						"node":5,
						"path":"translation"
					}
				},
				{
					"sampler":10,
					"target":{
						"node":5,
						"path":"rotation"
					}
				},
				{
					"sampler":11,
					"target":{
						"node":5,
						"path":"scale"
					}
				},
				{
					"sampler":12,
					"target":{
						"node":10,
						"path":"translation"
					}
				},
				{
					"sampler":13,
					"target":{
						"node":10,
						"path":"rotation"
					}
				},
				{
					"sampler":14,
					"target":{
						"node":10,
						"path":"scale"
					}
				},
				{
					"sampler":15,
					"target":{
						"node":18,
						"path":"translation"
					}
				},
				{
					"sampler":16,
					"target":{
						"node":18,
						"path":"rotation"
					}
				},
				{
					"sampler":17,
					"target":{
						"node":18,
						"path":"scale"
					}
				},
				{
					"sampler":18,
					"target":{
						"node":20,
						"path":"translation"
					}
				},
				{
					"sampler":19,
					"target":{
						"node":20,
						"path":"rotation"
					}
				},
				{
					"sampler":20,
					"target":{
						"node":20,
						"path":"scale"
					}
				}
			],
			"name":"attack",
			"samplers":[
				{
					"input":54,
					"interpolation":"STEP",
					"output":55
				},
				{
					"input":54,
					"interpolation":"STEP",
					"output":56
				},
				{
					"input":54,
					"interpolation":"STEP",
					"output":57
				},
				{
					"input":54,
					"interpolation":"STEP",
					"output":58
				},
				{
					"input":54,
					"interpolation":"STEP",
					"output":56
				},
				{
					"input":54,
					"interpolation":"STEP",
					"output":57
				},
				{
					"input":54,
					"interpolation":"STEP",
					"output":59
				},
				{
					"input":54,
					"interpolation":"STEP",
					"output":60
				},
				{
					"input":54,
					"interpolation":"STEP",
					"output":61
				},
				{
					"input":54,
					"interpolation":"STEP",
					"output":62
				},
				{
					"input":54,
					"interpolation":"STEP",
					"output":63
				},
				{
					"input":54,
					"interpolation":"STEP",
					"output":61
				},
				{
					"input":54,
					"interpolation":"STEP",
					"output":64
				},
				{
					"input":54,
					"interpolation":"STEP",
					"output":56
				},
				{
					"input":54,
					"interpolation":"STEP",
					"output":57
				},
				{
					"input":54,
					"interpolation":"STEP",
					"output":65
				},
				{
					"input":54,
					"interpolation":"STEP",
					"output":66
				},
				{
					"input":54,
					"interpolation":"STEP",
					"output":57
				},
				{
					"input":54,
					"interpolation":"STEP",
					"output":67
				},
				{
					"input":54,
					"interpolation":"STEP",
					"output":66
				},
				{
					"input":54,
					"interpolation":"STEP",
					"output":57
				}
			]
		},
		{
			"channels":[
				{
					"sampler":0,
					"target":{
						"node":22,
						"path":"translation"
					}
				},
				{
					"sampler":1,
					"target":{
						"node":22,
						"path":"rotation"
					}
				},
				{
					"sampler":2,
					"target":{
						"node":22,
						"path":"scale"
					}
				},
				{
					"sampler":3,
					"target":{
						"node":16,
						"path":"translation"
					}
				},
				{
					"sampler":4,
					"target":{
						"node":16,
						"path":"rotation"
					}
				},
				{
					"sampler":5,
					"target":{
						"node":16,
						"path":"scale"
					}
				},
				{
					"sampler":6,
					"target":{
						"node":1,
						"path":"translation"
					}
				},
				{
					"sampler":7,
					"target":{
						"node":1,
						"path":"rotation"
					}
				},
				{
					"sampler":8,
					"target":{
						"node":1,
						"path":"scale"
					}
				},
				{
					"sampler":9,
					"target":{
						"node":5,
						"path":"translation"
					}
				},
				{
					"sampler":10,
					"target":{
						"node":5,
						"path":"rotation"
					}
				},
				{
					"sampler":11,
					"target":{
						"node":5,
						"path":"scale"
					}
				},
				{
					"sampler":12,
					"target":{
						"node":10,
						"path":"translation"
					}
				},
				{
					"sampler":13,
					"target":{
						"node":10,
						"path":"rotation"
					}
				},
				{
					"sampler":14,
					"target":{
						"node":10,
						"path":"scale"
					}
				},
				{
					"sampler":15,
					"target":{
						"node":18,
						"path":"translation"
					}
				},
				{
					"sampler":16,
					"target":{
						"node":18,
						"path":"rotation"
					}
				},
				{
					"sampler":17,
					"target":{
						"node":18,
						"path":"scale"
					}
				},
				{
					"sampler":18,
					"target":{
						"node":20,
						"path":"translation"
					}
				},
				{
					"sampler":19,
					"target":{
						"node":20,
						"path":"rotation"
					}
				},
				{
					"sampler":20,
					"target":{
						"node":20,
						"path":"scale"
					}
				}
			],
			"name":"block",
			"samplers":[
				{
					"input":68,
					"interpolation":"STEP",
					"output":55
				},
				{
					"input":68,
					"interpolation":"STEP",
					"output":56
				},
				{
					"input":68,
					"interpolation":"STEP",
					"output":57
				},
				{
					"input":68,
					"interpolation":"STEP",
					"output":58
				},
				{
					"input":68,
					"interpolation":"STEP",
					"output":56
				},
				{
					"input":68,
					"interpolation":"STEP",
					"output":57
				},
				{
					"input":68,
					"interpolation":"STEP",
					"output":59
				},
				{
					"input":68,
					"interpolation":"STEP",
					"output":60
				},
				{
					"input":68,
					"interpolation":"STEP",
					"output":61
				},
				{
					"input":68,
					"interpolation":"STEP",
					"output":62
				},
				{
					"input":68,
					"interpolation":"STEP",
					"output":63
				},
				{
					"input":68,
					"interpolation":"STEP",
					"output":61
				},
				{
					"input":68,
					"interpolation":"STEP",
					"output":64
				},
				{
					"input":68,
					"interpolation":"STEP",
					"output":56
				},
				{
					"input":68,
					"interpolation":"STEP",
					"output":57
				},
				{
					"input":68,
					"interpolation":"STEP",
					"output":65
				},
				{
					"input":68,
					"interpolation":"STEP",
					"output":66
				},
				{
					"input":68,
					"interpolation":"STEP",
					"output":57
				},
				{
					"input":68,
					"interpolation":"STEP",
					"output":67
				},
				{
					"input":68,
					"interpolation":"STEP",
					"output":66
				},
				{
					"input":68,
					"interpolation":"STEP",
					"output":57
				}
			]
		},
		{
			"channels":[
				{
					"sampler":0,
					"target":{
						"node":22,
						"path":"translation"
					}
				},
				{
					"sampler":1,
					"target":{
						"node":22,
						"path":"rotation"
					}
				},
				{
					"sampler":2,
					"target":{
						"node":22,
						"path":"scale"
					}
				},
				{
					"sampler":3,
					"target":{
						"node":16,
						"path":"translation"
					}
				},
				{
					"sampler":4,
					"target":{
						"node":16,
						"path":"rotation"
					}
				},
				{
					"sampler":5,
					"target":{
						"node":16,
						"path":"scale"
					}
				},
				{
					"sampler":6,
					"target":{
						"node":1,
						"path":"translation"
					}
				},
				{
					"sampler":7,
					"target":{
						"node":1,
						"path":"rotation"
					}
				},
				{
					"sampler":8,
					"target":{
						"node":1,
						"path":"scale"
					}
				},
				{
					"sampler":9,
					"target":{
						"node":5,
						"path":"translation"
					}
				},
				{
					"sampler":10,
					"target":{
						"node":5,
						"path":"rotation"
					}
				},
				{
					"sampler":11,
					"target":{
						"node":5,
						"path":"scale"
					}
				},
				{
					"sampler":12,
					"target":{
						"node":10,
						"path":"translation"
					}
				},
				{
					"sampler":13,
					"target":{
						"node":10,
						"path":"rotation"
					}
				},
				{
					"sampler":14,
					"target":{
						"node":10,
						"path":"scale"
					}
				},
				{
					"sampler":15,
					"target":{
						"node":18,
						"path":"translation"
					}
				},
				{
					"sampler":16,
					"target":{
						"node":18,
						"path":"rotation"
					}
				},
				{
					"sampler":17,
					"target":{
						"node":18,
						"path":"scale"
					}
				},
				{
					"sampler":18,
					"target":{
						"node":20,
						"path":"translation"
					}
				},
				{
					"sampler":19,
					"target":{
						"node":20,
						"path":"rotation"
					}
				},
				{
					"sampler":20,
					"target":{
						"node":20,
						"path":"scale"
					}
				}
			],
			"name":"death",
			"samplers":[
				{
					"input":69,
					"interpolation":"LINEAR",
					"output":70
				},
				{
					"input":71,
					"interpolation":"STEP",
					"output":56
				},
				{
					"input":71,
					"interpolation":"STEP",
					"output":57
				},
				{
					"input":71,
					"interpolation":"STEP",
					"output":58
				},
				{
					"input":71,
					"interpolation":"STEP",
					"output":56
				},
				{
					"input":71,
					"interpolation":"STEP",
					"output":57
				},
				{
					"input":71,
					"interpolation":"STEP",
					"output":72
				},
				{
					"input":71,
					"interpolation":"STEP",
					"output":60
				},
				{
					"input":71,
					"interpolation":"STEP",
					"output":61
				},
				{
					"input":71,
					"interpolation":"STEP",
					"output":73
				},
				{
					"input":71,
					"interpolation":"STEP",
					"output":63
				},
				{
					"input":71,
					"interpolation":"STEP",
					"output":61
				},
				{
					"input":71,
					"interpolation":"STEP",
					"output":64
				},
				{
					"input":71,
					"interpolation":"STEP",
					"output":56
				},
				{
					"input":71,
					"interpolation":"STEP",
					"output":57
				},
				{
					"input":71,
					"interpolation":"STEP",
					"output":74
				},
				{
					"input":71,
					"interpolation":"STEP",
					"output":66
				},
				{
					"input":71,
					"interpolation":"STEP",
					"output":57
				},
				{
					"input":71,
					"interpolation":"STEP",
					"output":75
				},
				{
					"input":71,
					"interpolation":"STEP",
					"output":66
				},
				{
					"input":71,
					"interpolation":"STEP",
					"output":57
				}
			]
		},
		{
			"channels":[
				{
					"sampler":0,
					"target":{
						"node":22,
						"path":"translation"
					}
				},
				{
					"sampler":1,
					"target":{
						"node":22,
						"path":"rotation"
					}
				},
				{
					"sampler":2,
					"target":{
						"node":22,
						"path":"scale"
					}
				},
				{
					"sampler":3,
					"target":{
						"node":16,
						"path":"translation"
					}
				},
				{
					"sampler":4,
					"target":{
						"node":16,
						"path":"rotation"
					}
				},
				{
					"sampler":5,
					"target":{
						"node":16,
						"path":"scale"
					}
				},
				{
					"sampler":6,
					"target":{
						"node":1,
						"path":"translation"
					}
				},
				{
					"sampler":7,
					"target":{
						"node":1,
						"path":"rotation"
					}
				},
				{
					"sampler":8,
					"target":{
						"node":1,
						"path":"scale"
					}
				},
				{
					"sampler":9,
					"target":{
						"node":5,
						"path":"translation"
					}
				},
				{
					"sampler":10,
					"target":{
						"node":5,
						"path":"rotation"
					}
				},
				{
					"sampler":11,
					"target":{
						"node":5,
						"path":"scale"
					}
				},
				{
					"sampler":12,
					"target":{
						"node":10,
						"path":"translation"
					}
				},
				{
					"sampler":13,
					"target":{
						"node":10,
						"path":"rotation"
					}
				},
				{
					"sampler":14,
					"target":{
						"node":10,
						"path":"scale"
					}
				},
				{
					"sampler":15,
					"target":{
						"node":18,
						"path":"translation"
					}
				},
				{
					"sampler":16,
					"target":{
						"node":18,
						"path":"rotation"
					}
				},
				{
					"sampler":17,
					"target":{
						"node":18,
						"path":"scale"
					}
				},
				{
					"sampler":18,
					"target":{
						"node":20,
						"path":"translation"
					}
				},
				{
					"sampler":19,
					"target":{
						"node":20,
						"path":"rotation"
					}
				},
				{
					"sampler":20,
					"target":{
						"node":20,
						"path":"scale"
					}
				}
			],
			"name":"hurt",
			"samplers":[
				{
					"input":76,
					"interpolation":"STEP",
					"output":55
				},
				{
					"input":76,
					"interpolation":"STEP",
					"output":56
				},
				{
					"input":76,
					"interpolation":"STEP",
					"output":57
				},
				{
					"input":77,
					"interpolation":"LINEAR",
					"output":78
				},
				{
					"input":76,
					"interpolation":"STEP",
					"output":56
				},
				{
					"input":76,
					"interpolation":"STEP",
					"output":57
				},
				{
					"input":76,
					"interpolation":"STEP",
					"output":59
				},
				{
					"input":76,
					"interpolation":"STEP",
					"output":60
				},
				{
					"input":76,
					"interpolation":"STEP",
					"output":61
				},
				{
					"input":76,
					"interpolation":"STEP",
					"output":62
				},
				{
					"input":76,
					"interpolation":"STEP",
					"output":63
				},
				{
					"input":76,
					"interpolation":"STEP",
					"output":61
				},
				{
					"input":76,
					"interpolation":"STEP",
					"output":64
				},
				{
					"input":76,
					"interpolation":"STEP",
					"output":56
				},
				{
					"input":76,
					"interpolation":"STEP",
					"output":57
				},
				{
					"input":76,
					"interpolation":"STEP",
					"output":65
				},
				{
					"input":76,
					"interpolation":"STEP",
					"output":66
				},
				{
					"input":76,
					"interpolation":"STEP",
					"output":57
				},
				{
					"input":76,
					"interpolation":"STEP",
					"output":67
				},
				{
					"input":76,
					"interpolation":"STEP",
					"output":66
				},
				{
					"input":76,
					"interpolation":"STEP",
					"output":57
				}
			]
		},
		{
			"channels":[
				{
					"sampler":0,
					"target":{
						"node":22,
						"path":"translation"
					}
				},
				{
					"sampler":1,
					"target":{
						"node":22,
						"path":"rotation"
					}
				},
				{
					"sampler":2,
					"target":{
						"node":22,
						"path":"scale"
					}
				},
				{
					"sampler":3,
					"target":{
						"node":16,
						"path":"translation"
					}
				},
				{
					"sampler":4,
					"target":{
						"node":16,
						"path":"rotation"
					}
				},
				{
					"sampler":5,
					"target":{
						"node":16,
						"path":"scale"
					}
				},
				{
					"sampler":6,
					"target":{
						"node":1,
						"path":"translation"
					}
				},
				{
					"sampler":7,
					"target":{
						"node":1,
						"path":"rotation"
					}
				},
				{
					"sampler":8,
					"target":{
						"node":1,
						"path":"scale"
					}
				},
				{
					"sampler":9,
					"target":{
						"node":5,
						"path":"translation"
					}
				},
				{
					"sampler":10,
					"target":{
						"node":5,
						"path":"rotation"
					}
				},
				{
					"sampler":11,
					"target":{
						"node":5,
						"path":"scale"
					}
				},
				{
					"sampler":12,
					"target":{
						"node":10,
						"path":"translation"
					}
				},
				{
					"sampler":13,
					"target":{
						"node":10,
						"path":"rotation"
					}
				},
				{
					"sampler":14,
					"target":{
						"node":10,
						"path":"scale"
					}
				},
				{
					"sampler":15,
					"target":{
						"node":18,
						"path":"translation"
					}
				},
				{
					"sampler":16,
					"target":{
						"node":18,
						"path":"rotation"
					}
				},
				{
					"sampler":17,
					"target":{
						"node":18,
						"path":"scale"
					}
				},
				{
					"sampler":18,
					"target":{
						"node":20,
						"path":"translation"
					}
				},
				{
					"sampler":19,
					"target":{
						"node":20,
						"path":"rotation"
					}
				},
				{
					"sampler":20,
					"target":{
						"node":20,
						"path":"scale"
					}
				}
			],
			"name":"idle",
			"samplers":[
				{
					"input":79,
					"interpolation":"LINEAR",
					"output":80
				},
				{
					"input":68,
					"interpolation":"STEP",
					"output":56
				},
				{
					"input":68,
					"interpolation":"STEP",
					"output":57
				},
				{
					"input":79,
					"interpolation":"LINEAR",
					"output":81
				},
				{
					"input":68,
					"interpolation":"STEP",
					"output":56
				},
				{
					"input":68,
					"interpolation":"STEP",
					"output":57
				},
				{
					"input":68,
					"interpolation":"STEP",
					"output":59
				},
				{
					"input":68,
					"interpolation":"STEP",
					"output":60
				},
				{
					"input":68,
					"interpolation":"STEP",
					"output":61
				},
				{
					"input":68,
					"interpolation":"STEP",
					"output":62
				},
				{
					"input":68,
					"interpolation":"STEP",
					"output":63
				},
				{
					"input":68,
					"interpolation":"STEP",
					"output":61
				},
				{
					"input":68,
					"interpolation":"STEP",
					"output":64
				},
				{
					"input":68,
					"interpolation":"STEP",
					"output":56
				},
				{
					"input":68,
					"interpolation":"STEP",
					"output":57
				},
				{
					"input":68,
					"interpolation":"STEP",
					"output":65
				},
				{
					"input":68,
					"interpolation":"STEP",
					"output":66
				},
				{
					"input":68,
					"interpolation":"STEP",
					"output":57
				},
				{
					"input":68,
					"interpolation":"STEP",
					"output":67
				},
				{
					"input":68,
					"interpolation":"STEP",
					"output":66
				},
				{
					"input":68,
					"interpolation":"STEP",
					"output":57
				}
			]
		},
		{
			"channels":[
				{
					"sampler":0,
					"target":{
						"node":22,
						"path":"translation"
					}
				},
				{
					"sampler":1,
					"target":{
						"node":22,
						"path":"rotation"
					}
				},
				{
					"sampler":2,
					"target":{
						"node":22,
						"path":"scale"
					}
				},
				{
					"sampler":3,
					"target":{
						"node":16,
						"path":"translation"
					}
				},
				{
					"sampler":4,
					"target":{
						"node":16,
						"path":"rotation"
					}
				},
				{
					"sampler":5,
					"target":{
						"node":16,
						"path":"scale"
					}
				},
				{
					"sampler":6,
					"target":{
						"node":1,
						"path":"translation"
					}
				},
				{
					"sampler":7,
					"target":{
						"node":1,
						"path":"rotation"
					}
				},
				{
					"sampler":8,
					"target":{
						"node":1,
						"path":"scale"
					}
				},
				{
					"sampler":9,
					"target":{
						"node":5,
						"path":"translation"
					}
				},
				{
					"sampler":10,
					"target":{
						"node":5,
						"path":"rotation"
					}
				},
				{
					"sampler":11,
					"target":{
						"node":5,
						"path":"scale"
					}
				},
				{
					"sampler":12,
					"target":{
						"node":10,
						"path":"translation"
					}
				},
				{
					"sampler":13,
					"target":{
						"node":10,
						"path":"rotation"
					}
				},
				{
					"sampler":14,
					"target":{
						"node":10,
						"path":"scale"
					}
				},
				{
					"sampler":15,
					"target":{
						"node":18,
						"path":"translation"
					}
				},
				{
					"sampler":16,
					"target":{
						"node":18,
						"path":"rotation"
					}
				},
				{
					"sampler":17,
					"target":{
						"node":18,
						"path":"scale"
					}
				},
				{
					"sampler":18,
					"target":{
						"node":20,
						"path":"translation"
					}
				},
				{
					"sampler":19,
					"target":{
						"node":20,
						"path":"rotation"
					}
				},
				{
					"sampler":20,
					"target":{
						"node":20,
						"path":"scale"
					}
				}
			],
			"name":"walk",
			"samplers":[
				{
					"input":68,
					"interpolation":"STEP",
					"output":55
				},
				{
					"input":68,
					"interpolation":"STEP",
					"output":56
				},
				{
					"input":68,
					"interpolation":"STEP",
					"output":57
				},
				{
					"input":68,
					"interpolation":"STEP",
					"output":58
				},
				{
					"input":68,
					"interpolation":"STEP",
					"output":56
				},
				{
					"input":68,
					"interpolation":"STEP",
					"output":57
				},
				{
					"input":68,
					"interpolation":"STEP",
					"output":59
				},
				{
					"input":68,
					"interpolation":"STEP",
					"output":60
				},
				{
					"input":68,
					"interpolation":"STEP",
					"output":61
				},
				{
					"input":68,
					"interpolation":"STEP",
					"output":62
				},
				{
					"input":68,
					"interpolation":"STEP",
					"output":63
				},
				{
					"input":68,
					"interpolation":"STEP",
					"output":61
				},
				{
					"input":68,
					"interpolation":"STEP",
					"output":64
				},
				{
					"input":68,
					"interpolation":"STEP",
					"output":56
				},
				{
					"input":68,
					"interpolation":"STEP",
					"output":57
				},
				{
					"input":68,
					"interpolation":"STEP",
					"output":65
				},
				{
					"input":68,
					"interpolation":"STEP",
					"output":66
				},
				{
					"input":68,
					"interpolation":"STEP",
					"output":57
				},
				{
					"input":68,
					"interpolation":"STEP",
					"output":67
				},
				{
					"input":68,
					"interpolation":"STEP",
					"output":66
				},
				{
					"input":68,
					"interpolation":"STEP",
					"output":57
				}
			]
		}
	],
	"materials":[
		{
			"doubleSided":true,
			"name":"AncientBone",
			"pbrMetallicRoughness":{
				"baseColorFactor":[
					0.8199999928474426,
					0.7900000214576721,
					0.7200000286102295,
					1
				],
				"metallicFactor":0.10000000149011612,
				"roughnessFactor":0.8500000238418579
			}
		},
		{
			"doubleSided":true,
			"name":"RustyIron",
			"pbrMetallicRoughness":{
				"baseColorFactor":[
					0.3499999940395355,
					0.2800000011920929,
					0.23999999463558197,
					1
				],
				"metallicFactor":0.699999988079071,
				"roughnessFactor":0.699999988079071
			}
		},
		{
			"doubleSided":true,
			"emissiveFactor":[
				0.30000001192092896,
				0.800000011920929,
				1
			],
			"extensions":{
				"KHR_materials_emissive_strength":{
					"emissiveStrength":4
				}
			},
			"name":"GhostEyeGlow",
			"pbrMetallicRoughness":{
				"baseColorFactor":[
					0.4000000059604645,
					0.8999999761581421,
					1,
					1
				],
				"metallicFactor":0.10000000149011612,
				"roughnessFactor":0.30000001192092896
			}
		},
		{
			"doubleSided":true,
			"name":"DarkBone",
			"pbrMetallicRoughness":{
				"baseColorFactor":[
					0.550000011920929,
					0.5199999809265137,
					0.47999998927116394,
					1
				],
				"metallicFactor":0.10000000149011612,
				"roughnessFactor":0.8999999761581421
			}
		}
	],
	"meshes":[
		{
			"name":"Cylinder.001",
			"primitives":[
				{
					"attributes":{
						"POSITION":0,
						"NORMAL":1,
						"TEXCOORD_0":2
					},
					"indices":3,
					"material":0
				}
			]
		},
		{
			"name":"Cube.002",
			"primitives":[
				{
					"attributes":{
						"POSITION":4,
						"NORMAL":5,
						"TEXCOORD_0":6
					},
					"indices":7,
					"material":1
				}
			]
		},
		{
			"name":"Cube.003",
			"primitives":[
				{
					"attributes":{
						"POSITION":8,
						"NORMAL":9,
						"TEXCOORD_0":10
					},
					"indices":7,
					"material":1
				}
			]
		},
		{
			"name":"Cylinder.003",
			"primitives":[
				{
					"attributes":{
						"POSITION":11,
						"NORMAL":12,
						"TEXCOORD_0":13
					},
					"indices":3,
					"material":0
				}
			]
		},
		{
			"name":"Cube.001",
			"primitives":[
				{
					"attributes":{
						"POSITION":14,
						"NORMAL":15,
						"TEXCOORD_0":16
					},
					"indices":7,
					"material":0
				}
			]
		},
		{
			"name":"Sphere",
			"primitives":[
				{
					"attributes":{
						"POSITION":17,
						"NORMAL":18,
						"TEXCOORD_0":19
					},
					"indices":20,
					"material":0
				}
			]
		},
		{
			"name":"Sphere.001",
			"primitives":[
				{
					"attributes":{
						"POSITION":21,
						"NORMAL":22,
						"TEXCOORD_0":23
					},
					"indices":24,
					"material":2
				}
			]
		},
		{
			"name":"Sphere.002",
			"primitives":[
				{
					"attributes":{
						"POSITION":25,
						"NORMAL":26,
						"TEXCOORD_0":27
					},
					"indices":28,
					"material":2
				}
			]
		},
		{
			"name":"Cylinder",
			"primitives":[
				{
					"attributes":{
						"POSITION":29,
						"NORMAL":30,
						"TEXCOORD_0":31
					},
					"indices":3,
					"material":3
				}
			]
		},
		{
			"name":"Torus",
			"primitives":[
				{
					"attributes":{
						"POSITION":32,
						"NORMAL":33,
						"TEXCOORD_0":34
					},
					"indices":35,
					"material":0
				}
			]
		},
		{
			"name":"Torus.001",
			"primitives":[
				{
					"attributes":{
						"POSITION":36,
						"NORMAL":37,
						"TEXCOORD_0":38
					},
					"indices":35,
					"material":0
				}
			]
		},
		{
			"name":"Torus.002",
			"primitives":[
				{
					"attributes":{
						"POSITION":39,
						"NORMAL":40,
						"TEXCOORD_0":41
					},
					"indices":35,
					"material":0
				}
			]
		},
		{
			"name":"Torus.003",
			"primitives":[
				{
					"attributes":{
						"POSITION":42,
						"NORMAL":43,
						"TEXCOORD_0":44
					},
					"indices":35,
					"material":0
				}
			]
		},
		{
			"name":"Cylinder.002",
			"primitives":[
				{
					"attributes":{
						"POSITION":45,
						"NORMAL":46,
						"TEXCOORD_0":47
					},
					"indices":3,
					"material":0
				}
			]
		},
		{
			"name":"Cylinder.004",
			"primitives":[
				{
					"attributes":{
						"POSITION":48,
						"NORMAL":49,
						"TEXCOORD_0":50
					},
					"indices":3,
					"material":0
				}
			]
		},
		{
			"name":"Cube",
			"primitives":[
				{
					"attributes":{
						"POSITION":51,
						"NORMAL":52,
						"TEXCOORD_0":53
					},
					"indices":7,
					"material":3
				}
			]
		}
	],
	"skins":[
		{
			"inverseBindMatrices":82,
			"joints":[
				22,
				16,
				1,
				5,
				10,
				18,
				20
			],
			"name":"SkeletonRig"
		}
	],
	"accessors":[
		{
			"bufferView":0,
			"componentType":5126,
			"count":192,
			"max":[
				0.03500000014901161,
				0.30000001192092896,
				0.03500000014901161
			],
			"min":[
				-0.03500000014901161,
				-0.30000001192092896,
				-0.03500000014901161
			],
			"type":"VEC3"
		},
		{
			"bufferView":1,
			"componentType":5126,
			"count":192,
			"type":"VEC3"
		},
		{
			"bufferView":2,
			"componentType":5126,
			"count":192,
			"type":"VEC2"
		},
		{
			"bufferView":3,
			"componentType":5123,
			"count":372,
			"type":"SCALAR"
		},
		{
			"bufferView":4,
			"componentType":5126,
			"count":24,
			"max":[
				0.03999999910593033,
				0.03999999910593033,
				0.03999999910593033
			],
			"min":[
				-0.03999999910593033,
				-0.03999999910593033,
				-0.03999999910593033
			],
			"type":"VEC3"
		},
		{
			"bufferView":5,
			"componentType":5126,
			"count":24,
			"type":"VEC3"
		},
		{
			"bufferView":6,
			"componentType":5126,
			"count":24,
			"type":"VEC2"
		},
		{
			"bufferView":7,
			"componentType":5123,
			"count":36,
			"type":"SCALAR"
		},
		{
			"bufferView":8,
			"componentType":5126,
			"count":24,
			"max":[
				0.029999999329447746,
				0.029999999329447746,
				0.029999999329447746
			],
			"min":[
				-0.029999999329447746,
				-0.029999999329447746,
				-0.029999999329447746
			],
			"type":"VEC3"
		},
		{
			"bufferView":9,
			"componentType":5126,
			"count":24,
			"type":"VEC3"
		},
		{
			"bufferView":10,
			"componentType":5126,
			"count":24,
			"type":"VEC2"
		},
		{
			"bufferView":11,
			"componentType":5126,
			"count":192,
			"max":[
				0.03500000014901161,
				0.30000001192092896,
				0.03500000014901161
			],
			"min":[
				-0.03500000014901161,
				-0.30000001192092896,
				-0.03500000014901161
			],
			"type":"VEC3"
		},
		{
			"bufferView":12,
			"componentType":5126,
			"count":192,
			"type":"VEC3"
		},
		{
			"bufferView":13,
			"componentType":5126,
			"count":192,
			"type":"VEC2"
		},
		{
			"bufferView":14,
			"componentType":5126,
			"count":24,
			"max":[
				0.05999999865889549,
				0.05999999865889549,
				0.05999999865889549
			],
			"min":[
				-0.05999999865889549,
				-0.05999999865889549,
				-0.05999999865889549
			],
			"type":"VEC3"
		},
		{
			"bufferView":15,
			"componentType":5126,
			"count":24,
			"type":"VEC3"
		},
		{
			"bufferView":16,
			"componentType":5126,
			"count":24,
			"type":"VEC2"
		},
		{
			"bufferView":17,
			"componentType":5126,
			"count":1984,
			"max":[
				0.21999993920326233,
				0.2199999988079071,
				0.21999987959861755
			],
			"min":[
				-0.21999986469745636,
				-0.2199999988079071,
				-0.2199999988079071
			],
			"type":"VEC3"
		},
		{
			"bufferView":18,
			"componentType":5126,
			"count":1984,
			"type":"VEC3"
		},
		{
			"bufferView":19,
			"componentType":5126,
			"count":1984,
			"type":"VEC2"
		},
		{
			"bufferView":20,
			"componentType":5123,
			"count":2880,
			"type":"SCALAR"
		},
		{
			"bufferView":21,
			"componentType":5126,
			"count":1984,
			"max":[
				0.03999999165534973,
				0.03999999910593033,
				0.039999984204769135
			],
			"min":[
				-0.03999997675418854,
				-0.03999999910593033,
				-0.03999999910593033
			],
			"type":"VEC3"
		},
		{
			"bufferView":22,
			"componentType":5126,
			"count":1984,
			"type":"VEC3"
		},
		{
			"bufferView":23,
			"componentType":5126,
			"count":1984,
			"type":"VEC2"
		},
		{
			"bufferView":24,
			"componentType":5123,
			"count":2880,
			"type":"SCALAR"
		},
		{
			"bufferView":25,
			"componentType":5126,
			"count":1984,
			"max":[
				0.03999999165534973,
				0.03999999910593033,
				0.039999984204769135
			],
			"min":[
				-0.03999997675418854,
				-0.03999999910593033,
				-0.03999999910593033
			],
			"type":"VEC3"
		},
		{
			"bufferView":26,
			"componentType":5126,
			"count":1984,
			"type":"VEC3"
		},
		{
			"bufferView":27,
			"componentType":5126,
			"count":1984,
			"type":"VEC2"
		},
		{
			"bufferView":28,
			"componentType":5123,
			"count":2880,
			"type":"SCALAR"
		},
		{
			"bufferView":29,
			"componentType":5126,
			"count":192,
			"max":[
				0.03999999910593033,
				0.30000001192092896,
				0.03999999910593033
			],
			"min":[
				-0.03999999910593033,
				-0.30000001192092896,
				-0.03999999910593033
			],
			"type":"VEC3"
		},
		{
			"bufferView":30,
			"componentType":5126,
			"count":192,
			"type":"VEC3"
		},
		{
			"bufferView":31,
			"componentType":5126,
			"count":192,
			"type":"VEC2"
		},
		{
			"bufferView":32,
			"componentType":5126,
			"count":2304,
			"max":[
				0.21000000834465027,
				0.029999999329447746,
				0.21000000834465027
			],
			"min":[
				-0.21000000834465027,
				-0.029999999329447746,
				-0.21000000834465027
			],
			"type":"VEC3"
		},
		{
			"bufferView":33,
			"componentType":5126,
			"count":2304,
			"type":"VEC3"
		},
		{
			"bufferView":34,
			"componentType":5126,
			"count":2304,
			"type":"VEC2"
		},
		{
			"bufferView":35,
			"componentType":5123,
			"count":3456,
			"type":"SCALAR"
		},
		{
			"bufferView":36,
			"componentType":5126,
			"count":2304,
			"max":[
				0.19500000774860382,
				0.029999999329447746,
				0.19500000774860382
			],
			"min":[
				-0.19500000774860382,
				-0.029999999329447746,
				-0.19500000774860382
			],
			"type":"VEC3"
		},
		{
			"bufferView":37,
			"componentType":5126,
			"count":2304,
			"type":"VEC3"
		},
		{
			"bufferView":38,
			"componentType":5126,
			"count":2304,
			"type":"VEC2"
		},
		{
			"bufferView":39,
			"componentType":5126,
			"count":2304,
			"max":[
				0.18000000715255737,
				0.029999999329447746,
				0.18000000715255737
			],
			"min":[
				-0.18000000715255737,
				-0.029999999329447746,
				-0.18000000715255737
			],
			"type":"VEC3"
		},
		{
			"bufferView":40,
			"componentType":5126,
			"count":2304,
			"type":"VEC3"
		},
		{
			"bufferView":41,
			"componentType":5126,
			"count":2304,
			"type":"VEC2"
		},
		{
			"bufferView":42,
			"componentType":5126,
			"count":2304,
			"max":[
				0.16500000655651093,
				0.029999999329447746,
				0.16500000655651093
			],
			"min":[
				-0.16500000655651093,
				-0.029999999329447746,
				-0.16500000655651093
			],
			"type":"VEC3"
		},
		{
			"bufferView":43,
			"componentType":5126,
			"count":2304,
			"type":"VEC3"
		},
		{
			"bufferView":44,
			"componentType":5126,
			"count":2304,
			"type":"VEC2"
		},
		{
			"bufferView":45,
			"componentType":5126,
			"count":192,
			"max":[
				0.03999999910593033,
				0.3499999940395355,
				0.03999999910593033
			],
			"min":[
				-0.03999999910593033,
				-0.3499999940395355,
				-0.03999999910593033
			],
			"type":"VEC3"
		},
		{
			"bufferView":46,
			"componentType":5126,
			"count":192,
			"type":"VEC3"
		},
		{
			"bufferView":47,
			"componentType":5126,
			"count":192,
			"type":"VEC2"
		},
		{
			"bufferView":48,
			"componentType":5126,
			"count":192,
			"max":[
				0.03999999910593033,
				0.3499999940395355,
				0.03999999910593033
			],
			"min":[
				-0.03999999910593033,
				-0.3499999940395355,
				-0.03999999910593033
			],
			"type":"VEC3"
		},
		{
			"bufferView":49,
			"componentType":5126,
			"count":192,
			"type":"VEC3"
		},
		{
			"bufferView":50,
			"componentType":5126,
			"count":192,
			"type":"VEC2"
		},
		{
			"bufferView":51,
			"componentType":5126,
			"count":24,
			"max":[
				0.15000000596046448,
				0.15000000596046448,
				0.15000000596046448
			],
			"min":[
				-0.15000000596046448,
				-0.15000000596046448,
				-0.15000000596046448
			],
			"type":"VEC3"
		},
		{
			"bufferView":52,
			"componentType":5126,
			"count":24,
			"type":"VEC3"
		},
		{
			"bufferView":53,
			"componentType":5126,
			"count":24,
			"type":"VEC2"
		},
		{
			"bufferView":54,
			"componentType":5126,
			"count":2,
			"max":[
				1
			],
			"min":[
				0.041666666666666664
			],
			"type":"SCALAR"
		},
		{
			"bufferView":55,
			"componentType":5126,
			"count":2,
			"type":"VEC3"
		},
		{
			"bufferView":56,
			"componentType":5126,
			"count":2,
			"type":"VEC4"
		},
		{
			"bufferView":57,
			"componentType":5126,
			"count":2,
			"type":"VEC3"
		},
		{
			"bufferView":58,
			"componentType":5126,
			"count":2,
			"type":"VEC3"
		},
		{
			"bufferView":59,
			"componentType":5126,
			"count":2,
			"type":"VEC3"
		},
		{
			"bufferView":60,
			"componentType":5126,
			"count":2,
			"type":"VEC4"
		},
		{
			"bufferView":61,
			"componentType":5126,
			"count":2,
			"type":"VEC3"
		},
		{
			"bufferView":62,
			"componentType":5126,
			"count":2,
			"type":"VEC3"
		},
		{
			"bufferView":63,
			"componentType":5126,
			"count":2,
			"type":"VEC4"
		},
		{
			"bufferView":64,
			"componentType":5126,
			"count":2,
			"type":"VEC3"
		},
		{
			"bufferView":65,
			"componentType":5126,
			"count":2,
			"type":"VEC3"
		},
		{
			"bufferView":66,
			"componentType":5126,
			"count":2,
			"type":"VEC4"
		},
		{
			"bufferView":67,
			"componentType":5126,
			"count":2,
			"type":"VEC3"
		},
		{
			"bufferView":68,
			"componentType":5126,
			"count":2,
			"max":[
				1.25
			],
			"min":[
				0.041666666666666664
			],
			"type":"SCALAR"
		},
		{
			"bufferView":69,
			"componentType":5126,
			"count":25,
			"max":[
				1.0416666666666667
			],
			"min":[
				0.041666666666666664
			],
			"type":"SCALAR"
		},
		{
			"bufferView":70,
			"componentType":5126,
			"count":25,
			"type":"VEC3"
		},
		{
			"bufferView":71,
			"componentType":5126,
			"count":2,
			"max":[
				1.0416666666666667
			],
			"min":[
				0.041666666666666664
			],
			"type":"SCALAR"
		},
		{
			"bufferView":72,
			"componentType":5126,
			"count":2,
			"type":"VEC3"
		},
		{
			"bufferView":73,
			"componentType":5126,
			"count":2,
			"type":"VEC3"
		},
		{
			"bufferView":74,
			"componentType":5126,
			"count":2,
			"type":"VEC3"
		},
		{
			"bufferView":75,
			"componentType":5126,
			"count":2,
			"type":"VEC3"
		},
		{
			"bufferView":76,
			"componentType":5126,
			"count":2,
			"max":[
				0.6666666666666666
			],
			"min":[
				0.041666666666666664
			],
			"type":"SCALAR"
		},
		{
			"bufferView":77,
			"componentType":5126,
			"count":16,
			"max":[
				0.6666666666666666
			],
			"min":[
				0.041666666666666664
			],
			"type":"SCALAR"
		},
		{
			"bufferView":78,
			"componentType":5126,
			"count":16,
			"type":"VEC3"
		},
		{
			"bufferView":79,
			"componentType":5126,
			"count":30,
			"max":[
				1.25
			],
			"min":[
				0.041666666666666664
			],
			"type":"SCALAR"
		},
		{
			"bufferView":80,
			"componentType":5126,
			"count":30,
			"type":"VEC3"
		},
		{
			"bufferView":81,
			"componentType":5126,
			"count":30,
			"type":"VEC3"
		},
		{
			"bufferView":82,
			"componentType":5126,
			"count":7,
			"type":"MAT4"
		}
	],
	"bufferViews":[
		{
			"buffer":0,
			"byteLength":2304,
			"byteOffset":0,
			"target":34962
		},
		{
			"buffer":0,
			"byteLength":2304,
			"byteOffset":2304,
			"target":34962
		},
		{
			"buffer":0,
			"byteLength":1536,
			"byteOffset":4608,
			"target":34962
		},
		{
			"buffer":0,
			"byteLength":744,
			"byteOffset":6144,
			"target":34963
		},
		{
			"buffer":0,
			"byteLength":288,
			"byteOffset":6888,
			"target":34962
		},
		{
			"buffer":0,
			"byteLength":288,
			"byteOffset":7176,
			"target":34962
		},
		{
			"buffer":0,
			"byteLength":192,
			"byteOffset":7464,
			"target":34962
		},
		{
			"buffer":0,
			"byteLength":72,
			"byteOffset":7656,
			"target":34963
		},
		{
			"buffer":0,
			"byteLength":288,
			"byteOffset":7728,
			"target":34962
		},
		{
			"buffer":0,
			"byteLength":288,
			"byteOffset":8016,
			"target":34962
		},
		{
			"buffer":0,
			"byteLength":192,
			"byteOffset":8304,
			"target":34962
		},
		{
			"buffer":0,
			"byteLength":2304,
			"byteOffset":8496,
			"target":34962
		},
		{
			"buffer":0,
			"byteLength":2304,
			"byteOffset":10800,
			"target":34962
		},
		{
			"buffer":0,
			"byteLength":1536,
			"byteOffset":13104,
			"target":34962
		},
		{
			"buffer":0,
			"byteLength":288,
			"byteOffset":14640,
			"target":34962
		},
		{
			"buffer":0,
			"byteLength":288,
			"byteOffset":14928,
			"target":34962
		},
		{
			"buffer":0,
			"byteLength":192,
			"byteOffset":15216,
			"target":34962
		},
		{
			"buffer":0,
			"byteLength":23808,
			"byteOffset":15408,
			"target":34962
		},
		{
			"buffer":0,
			"byteLength":23808,
			"byteOffset":39216,
			"target":34962
		},
		{
			"buffer":0,
			"byteLength":15872,
			"byteOffset":63024,
			"target":34962
		},
		{
			"buffer":0,
			"byteLength":5760,
			"byteOffset":78896,
			"target":34963
		},
		{
			"buffer":0,
			"byteLength":23808,
			"byteOffset":84656,
			"target":34962
		},
		{
			"buffer":0,
			"byteLength":23808,
			"byteOffset":108464,
			"target":34962
		},
		{
			"buffer":0,
			"byteLength":15872,
			"byteOffset":132272,
			"target":34962
		},
		{
			"buffer":0,
			"byteLength":5760,
			"byteOffset":148144,
			"target":34963
		},
		{
			"buffer":0,
			"byteLength":23808,
			"byteOffset":153904,
			"target":34962
		},
		{
			"buffer":0,
			"byteLength":23808,
			"byteOffset":177712,
			"target":34962
		},
		{
			"buffer":0,
			"byteLength":15872,
			"byteOffset":201520,
			"target":34962
		},
		{
			"buffer":0,
			"byteLength":5760,
			"byteOffset":217392,
			"target":34963
		},
		{
			"buffer":0,
			"byteLength":2304,
			"byteOffset":223152,
			"target":34962
		},
		{
			"buffer":0,
			"byteLength":2304,
			"byteOffset":225456,
			"target":34962
		},
		{
			"buffer":0,
			"byteLength":1536,
			"byteOffset":227760,
			"target":34962
		},
		{
			"buffer":0,
			"byteLength":27648,
			"byteOffset":229296,
			"target":34962
		},
		{
			"buffer":0,
			"byteLength":27648,
			"byteOffset":256944,
			"target":34962
		},
		{
			"buffer":0,
			"byteLength":18432,
			"byteOffset":284592,
			"target":34962
		},
		{
			"buffer":0,
			"byteLength":6912,
			"byteOffset":303024,
			"target":34963
		},
		{
			"buffer":0,
			"byteLength":27648,
			"byteOffset":309936,
			"target":34962
		},
		{
			"buffer":0,
			"byteLength":27648,
			"byteOffset":337584,
			"target":34962
		},
		{
			"buffer":0,
			"byteLength":18432,
			"byteOffset":365232,
			"target":34962
		},
		{
			"buffer":0,
			"byteLength":27648,
			"byteOffset":383664,
			"target":34962
		},
		{
			"buffer":0,
			"byteLength":27648,
			"byteOffset":411312,
			"target":34962
		},
		{
			"buffer":0,
			"byteLength":18432,
			"byteOffset":438960,
			"target":34962
		},
		{
			"buffer":0,
			"byteLength":27648,
			"byteOffset":457392,
			"target":34962
		},
		{
			"buffer":0,
			"byteLength":27648,
			"byteOffset":485040,
			"target":34962
		},
		{
			"buffer":0,
			"byteLength":18432,
			"byteOffset":512688,
			"target":34962
		},
		{
			"buffer":0,
			"byteLength":2304,
			"byteOffset":531120,
			"target":34962
		},
		{
			"buffer":0,
			"byteLength":2304,
			"byteOffset":533424,
			"target":34962
		},
		{
			"buffer":0,
			"byteLength":1536,
			"byteOffset":535728,
			"target":34962
		},
		{
			"buffer":0,
			"byteLength":2304,
			"byteOffset":537264,
			"target":34962
		},
		{
			"buffer":0,
			"byteLength":2304,
			"byteOffset":539568,
			"target":34962
		},
		{
			"buffer":0,
			"byteLength":1536,
			"byteOffset":541872,
			"target":34962
		},
		{
			"buffer":0,
			"byteLength":288,
			"byteOffset":543408,
			"target":34962
		},
		{
			"buffer":0,
			"byteLength":288,
			"byteOffset":543696,
			"target":34962
		},
		{
			"buffer":0,
			"byteLength":192,
			"byteOffset":543984,
			"target":34962
		},
		{
			"buffer":0,
			"byteLength":8,
			"byteOffset":544176
		},
		{
			"buffer":0,
			"byteLength":24,
			"byteOffset":544184
		},
		{
			"buffer":0,
			"byteLength":32,
			"byteOffset":544208
		},
		{
			"buffer":0,
			"byteLength":24,
			"byteOffset":544240
		},
		{
			"buffer":0,
			"byteLength":24,
			"byteOffset":544264
		},
		{
			"buffer":0,
			"byteLength":24,
			"byteOffset":544288
		},
		{
			"buffer":0,
			"byteLength":32,
			"byteOffset":544312
		},
		{
			"buffer":0,
			"byteLength":24,
			"byteOffset":544344
		},
		{
			"buffer":0,
			"byteLength":24,
			"byteOffset":544368
		},
		{
			"buffer":0,
			"byteLength":32,
			"byteOffset":544392
		},
		{
			"buffer":0,
			"byteLength":24,
			"byteOffset":544424
		},
		{
			"buffer":0,
			"byteLength":24,
			"byteOffset":544448
		},
		{
			"buffer":0,
			"byteLength":32,
			"byteOffset":544472
		},
		{
			"buffer":0,
			"byteLength":24,
			"byteOffset":544504
		},
		{
			"buffer":0,
			"byteLength":8,
			"byteOffset":544528
		},
		{
			"buffer":0,
			"byteLength":100,
			"byteOffset":544536
		},
		{
			"buffer":0,
			"byteLength":300,
			"byteOffset":544636
		},
		{
			"buffer":0,
			"byteLength":8,
			"byteOffset":544936
		},
		{
			"buffer":0,
			"byteLength":24,
			"byteOffset":544944
		},
		{
			"buffer":0,
			"byteLength":24,
			"byteOffset":544968
		},
		{
			"buffer":0,
			"byteLength":24,
			"byteOffset":544992
		},
		{
			"buffer":0,
			"byteLength":24,
			"byteOffset":545016
		},
		{
			"buffer":0,
			"byteLength":8,
			"byteOffset":545040
		},
		{
			"buffer":0,
			"byteLength":64,
			"byteOffset":545048
		},
		{
			"buffer":0,
			"byteLength":192,
			"byteOffset":545112
		},
		{
			"buffer":0,
			"byteLength":120,
			"byteOffset":545304
		},
		{
			"buffer":0,
			"byteLength":360,
			"byteOffset":545424
		},
		{
			"buffer":0,
			"byteLength":360,
			"byteOffset":545784
		},
		{
			"buffer":0,
			"byteLength":448,
			"byteOffset":546144
		}
	],
	"buffers":[
		{
			"byteLength":546592,
			"uri":"enemy_skeleton.bin"
		}
	]
}
