{
	"asset":{
		"generator":"Khronos glTF Blender I/O v5.2.40",
		"version":"2.0"
	},
	"extensionsUsed":[
		"KHR_materials_emissive_strength"
	],
	"scene":0,
	"scenes":[
		{
			"name":"Scene",
			"nodes":[
				16
			]
		}
	],
	"nodes":[
		{
			"name":"Arm_L",
			"rotation":[
				-0.87164705991745,
				-0.33448243141174316,
				-0.33448243141174316,
				0.12835294008255005
			],
			"scale":[
				0.9999999403953552,
				0.9999998211860657,
				1
			],
			"translation":[
				0.3499999940395355,
				0.3999999761581421,
				0
			]
		},
		{
			"mesh":0,
			"name":"Cube.001",
			"rotation":[
				0.7071067690849304,
				1.723243947537867e-08,
				-1.2829770135169838e-08,
				0.7071067690849304
			],
			"scale":[
				0.15000000596046448,
				4.5,
				0.03999999910593033
			],
			"translation":[
				-0.75,
				0.4226814806461334,
				1.149999976158142
			]
		},
		{
			"children":[
				1
			],
			"name":"Arm_R",
			"rotation":[
				-0.87164705991745,
				0.33448243141174316,
				0.33448243141174316,
				0.12835294008255005
			],
			"scale":[
				0.9999999403953552,
				0.9999998211860657,
				1
			],
			"translation":[
				-0.3499999940395355,
				0.3999999761581421,
				0
			]
		},
		{
			"mesh":1,
			"name":"Cone.002",
			"rotation":[
				0.5520440340042114,
				-0.03499637916684151,
				0.02319949120283127,
				0.8327571153640747
			],
			"translation":[
				-0.14000000059604645,
				0.4600001573562622,
				2.049999952316284
			]
		},
		{
			"mesh":2,
			"name":"Cone.003",
			"rotation":[
				0.5520440340042114,
				0.03499637916684151,
				-0.02319949120283127,
				0.8327571153640747
			],
			"translation":[
				0.14000000059604645,
				0.4600001573562622,
				2.049999952316284
			]
		},
		{
			"mesh":3,
			"name":"Sphere",
			"rotation":[
				0.7071067690849304,
				0,
				0,
				0.7071067690849304
			],
			"translation":[
				0,
				0.5000001192092896,
				1.850000023841858
			]
		},
		{
			"mesh":4,
			"name":"Sphere.001",
			"rotation":[
				0.7071067690849304,
				0,
				0,
				0.7071067690849304
			],
			"translation":[
				-0.07000000029802322,
				0.3400000333786011,
				1.8799999952316284
			]
		},
		{
			"mesh":5,
			"name":"Sphere.002",
			"rotation":[
				0.7071067690849304,
				0,
				0,
				0.7071067690849304
			],
			"translation":[
				0.07000000029802322,
				0.3400000333786011,
				1.8799999952316284
			]
		},
		{
			"children":[
				3,
				4,
				5,
				6,
				7
			],
			"name":"Head",
			"translation":[
				0,
				0.5,
				0
			]
		},
		{
			"mesh":6,
			"name":"Cone",
			"rotation":[
				0.749416708946228,
				-0.3617975413799286,
				-0.157037615776062,
				0.5318048000335693
			],
			"scale":[
				0.800000011920929,
				1.1999999284744263,
				0.10000000149011612
			],
			"translation":[
				-0.25,
				0.6999999284744263,
				1.4500000476837158
			]
		},
		{
			"mesh":7,
			"name":"Cone.001",
			"rotation":[
				0.749416708946228,
				0.3617975413799286,
				0.157037615776062,
				0.5318048000335693
			],
			"scale":[
				0.800000011920929,
				1.1999999284744263,
				0.10000000149011612
			],
			"translation":[
				0.25,
				0.6999999284744263,
				1.4500000476837158
			]
		},
		{
			"mesh":8,
			"name":"Cube",
			"rotation":[
				0.7071067690849304,
				0,
				0,
				0.7071067690849304
			],
			"scale":[
				0.75,
				0.800000011920929,
				0.5
			],
			"translation":[
				0,
				0.5,
				1.350000023841858
			]
		},
		{
			"children":[
				0,
				2,
				8,
				9,
				10,
				11
			],
			"name":"Chest",
			"translation":[
				0,
				0.3999999761581421,
				0
			]
		},
		{
			"name":"Leg_L",
			"rotation":[
				1,
				0,
				-4.371138828673793e-08,
				0
			],
			"translation":[
				0.25,
				0,
				0
			]
		},
		{
			"name":"Leg_R",
			"rotation":[
				1,
				0,
				-4.371138828673793e-08,
				0
			],
			"translation":[
				-0.25,
				0,
				0
			]
		},
		{
			"children":[
				12,
				13,
				14
			],
			"name":"Hips",
			"translation":[
				0,
				1,
				0
			]
		},
		{
			"children":[
				15
			],
			"name":"ImpRig"
		}
	],
	"animations":[
		{
			"channels":[
				{
					"sampler":0,
					"target":{
						"node":15,
						"path":"translation"
					}
				},
				{
					"sampler":1,
					"target":{
						"node":15,
						"path":"rotation"
					}
				},
				{
					"sampler":2,
					"target":{
						"node":15,
						"path":"scale"
					}
				},
				{
					"sampler":3,
					"target":{
						"node":12,
						"path":"translation"
					}
				},
				{
					"sampler":4,
					"target":{
						"node":12,
						"path":"rotation"
					}
				},
				{
					"sampler":5,
					"target":{
						"node":12,
						"path":"scale"
					}
				},
				{
					"sampler":6,
					"target":{
						"node":0,
						"path":"translation"
					}
				},
				{
					"sampler":7,
					"target":{
						"node":0,
						"path":"rotation"
					}
				},
				{
					"sampler":8,
					"target":{
						"node":0,
						"path":"scale"
					}
				},
				{
					"sampler":9,
					"target":{
						"node":2,
						"path":"translation"
					}
				},
				{
					"sampler":10,
					"target":{
						"node":2,
						"path":"rotation"
					}
				},
				{
					"sampler":11,
					"target":{
						"node":2,
						"path":"scale"
					}
				},
				{
					"sampler":12,
					"target":{
						"node":8,
						"path":"translation"
					}
				},
				{
					"sampler":13,
					"target":{
						"node":8,
						"path":"rotation"
					}
				},
				{
					"sampler":14,
					"target":{
						"node":8,
						"path":"scale"
					}
				},
				{
					"sampler":15,
					"target":{
						"node":13,
						"path":"translation"
					}
				},
				{
					"sampler":16,
					"target":{
						"node":13,
						"path":"rotation"
					}
				},
				{
					"sampler":17,
					"target":{
						"node":13,
						"path":"scale"
					}
				},
				{
					"sampler":18,
					"target":{
						"node":14,
						"path":"translation"
					}
				},
				{
					"sampler":19,
					"target":{
						"node":14,
						"path":"rotation"
					}
				},
				{
					"sampler":20,
					"target":{
						"node":14,
						"path":"scale"
					}
				}
			],
			"name":"attack",
			"samplers":[
				{
					"input":32,
					"interpolation":"STEP",
					"output":33
				},
				{
					"input":32,
					"interpolation":"STEP",
					"output":34
				},
				{
					"input":32,
					"interpolation":"STEP",
					"output":35
				},
				{
					"input":32,
					"interpolation":"STEP",
					"output":36
				},
				{
					"input":32,
					"interpolation":"STEP",
					"output":34
				},
				{
					"input":32,
					"interpolation":"STEP",
					"output":35
				},
				{
					"input":32,
					"interpolation":"STEP",
					"output":37
				},
				{
					"input":32,
					"interpolation":"STEP",
					"output":38
				},
				{
					"input":32,
					"interpolation":"STEP",
					"output":39
				},
				{
					"input":32,
					"interpolation":"STEP",
					"output":40
				},
				{
					"input":32,
					"interpolation":"STEP",
					"output":41
				},
				{
					"input":32,
					"interpolation":"STEP",
					"output":39
				},
				{
					"input":32,
					"interpolation":"STEP",
					"output":42
				},
				{
					"input":32,
					"interpolation":"STEP",
					"output":34
				},
				{
					"input":32,
					"interpolation":"STEP",
					"output":35
				},
				{
					"input":32,
					"interpolation":"STEP",
					"output":43
				},
				{
					"input":32,
					"interpolation":"STEP",
					"output":44
				},
				{
					"input":32,
					"interpolation":"STEP",
					"output":35
				},
				{
					"input":32,
					"interpolation":"STEP",
					"output":45
				},
				{
					"input":32,
					"interpolation":"STEP",
					"output":44
				},
				{
					"input":32,
					"interpolation":"STEP",
					"output":35
				}
			]
		},
		{
			"channels":[
				{
					"sampler":0,
					"target":{
						"node":15,
						"path":"translation"
					}
				},
				{
					"sampler":1,
					"target":{
						"node":15,
						"path":"rotation"
					}
				},
				{
					"sampler":2,
					"target":{
						"node":15,
						"path":"scale"
					}
				},
				{
					"sampler":3,
					"target":{
						"node":12,
						"path":"translation"
					}
				},
				{
					"sampler":4,
					"target":{
						"node":12,
						"path":"rotation"
					}
				},
				{
					"sampler":5,
					"target":{
						"node":12,
						"path":"scale"
					}
				},
				{
					"sampler":6,
					"target":{
						"node":0,
						"path":"translation"
					}
				},
				{
					"sampler":7,
					"target":{
						"node":0,
						"path":"rotation"
					}
				},
				{
					"sampler":8,
					"target":{
						"node":0,
						"path":"scale"
					}
				},
				{
					"sampler":9,
					"target":{
						"node":2,
						"path":"translation"
					}
				},
				{
					"sampler":10,
					"target":{
						"node":2,
						"path":"rotation"
					}
				},
				{
					"sampler":11,
					"target":{
						"node":2,
						"path":"scale"
					}
				},
				{
					"sampler":12,
					"target":{
						"node":8,
						"path":"translation"
					}
				},
				{
					"sampler":13,
					"target":{
						"node":8,
						"path":"rotation"
					}
				},
				{
					"sampler":14,
					"target":{
						"node":8,
						"path":"scale"
					}
				},
				{
					"sampler":15,
					"target":{
						"node":13,
						"path":"translation"
					}
				},
				{
					"sampler":16,
					"target":{
						"node":13,
						"path":"rotation"
					}
				},
				{
					"sampler":17,
					"target":{
						"node":13,
						"path":"scale"
					}
				},
				{
					"sampler":18,
					"target":{
						"node":14,
						"path":"translation"
					}
				},
				{
					"sampler":19,
					"target":{
						"node":14,
						"path":"rotation"
					}
				},
				{
					"sampler":20,
					"target":{
						"node":14,
						"path":"scale"
					}
				}
			],
			"name":"block",
			"samplers":[
				{
					"input":46,
					"interpolation":"STEP",
					"output":33
				},
				{
					"input":46,
					"interpolation":"STEP",
					"output":34
				},
				{
					"input":46,
					"interpolation":"STEP",
					"output":35
				},
				{
					"input":46,
					"interpolation":"STEP",
					"output":36
				},
				{
					"input":46,
					"interpolation":"STEP",
					"output":34
				},
				{
					"input":46,
					"interpolation":"STEP",
					"output":35
				},
				{
					"input":46,
					"interpolation":"STEP",
					"output":37
				},
				{
					"input":46,
					"interpolation":"STEP",
					"output":38
				},
				{
					"input":46,
					"interpolation":"STEP",
					"output":39
				},
				{
					"input":46,
					"interpolation":"STEP",
					"output":40
				},
				{
					"input":46,
					"interpolation":"STEP",
					"output":41
				},
				{
					"input":46,
					"interpolation":"STEP",
					"output":39
				},
				{
					"input":46,
					"interpolation":"STEP",
					"output":42
				},
				{
					"input":46,
					"interpolation":"STEP",
					"output":34
				},
				{
					"input":46,
					"interpolation":"STEP",
					"output":35
				},
				{
					"input":46,
					"interpolation":"STEP",
					"output":43
				},
				{
					"input":46,
					"interpolation":"STEP",
					"output":44
				},
				{
					"input":46,
					"interpolation":"STEP",
					"output":35
				},
				{
					"input":46,
					"interpolation":"STEP",
					"output":45
				},
				{
					"input":46,
					"interpolation":"STEP",
					"output":44
				},
				{
					"input":46,
					"interpolation":"STEP",
					"output":35
				}
			]
		},
		{
			"channels":[
				{
					"sampler":0,
					"target":{
						"node":15,
						"path":"translation"
					}
				},
				{
					"sampler":1,
					"target":{
						"node":15,
						"path":"rotation"
					}
				},
				{
					"sampler":2,
					"target":{
						"node":15,
						"path":"scale"
					}
				},
				{
					"sampler":3,
					"target":{
						"node":12,
						"path":"translation"
					}
				},
				{
					"sampler":4,
					"target":{
						"node":12,
						"path":"rotation"
					}
				},
				{
					"sampler":5,
					"target":{
						"node":12,
						"path":"scale"
					}
				},
				{
					"sampler":6,
					"target":{
						"node":0,
						"path":"translation"
					}
				},
				{
					"sampler":7,
					"target":{
						"node":0,
						"path":"rotation"
					}
				},
				{
					"sampler":8,
					"target":{
						"node":0,
						"path":"scale"
					}
				},
				{
					"sampler":9,
					"target":{
						"node":2,
						"path":"translation"
					}
				},
				{
					"sampler":10,
					"target":{
						"node":2,
						"path":"rotation"
					}
				},
				{
					"sampler":11,
					"target":{
						"node":2,
						"path":"scale"
					}
				},
				{
					"sampler":12,
					"target":{
						"node":8,
						"path":"translation"
					}
				},
				{
					"sampler":13,
					"target":{
						"node":8,
						"path":"rotation"
					}
				},
				{
					"sampler":14,
					"target":{
						"node":8,
						"path":"scale"
					}
				},
				{
					"sampler":15,
					"target":{
						"node":13,
						"path":"translation"
					}
				},
				{
					"sampler":16,
					"target":{
						"node":13,
						"path":"rotation"
					}
				},
				{
					"sampler":17,
					"target":{
						"node":13,
						"path":"scale"
					}
				},
				{
					"sampler":18,
					"target":{
						"node":14,
						"path":"translation"
					}
				},
				{
					"sampler":19,
					"target":{
						"node":14,
						"path":"rotation"
					}
				},
				{
					"sampler":20,
					"target":{
						"node":14,
						"path":"scale"
					}
				}
			],
			"name":"death",
			"samplers":[
				{
					"input":47,
					"interpolation":"LINEAR",
					"output":48
				},
				{
					"input":49,
					"interpolation":"STEP",
					"output":34
				},
				{
					"input":49,
					"interpolation":"STEP",
					"output":35
				},
				{
					"input":49,
					"interpolation":"STEP",
					"output":36
				},
				{
					"input":49,
					"interpolation":"STEP",
					"output":34
				},
				{
					"input":49,
					"interpolation":"STEP",
					"output":35
				},
				{
					"input":49,
					"interpolation":"STEP",
					"output":50
				},
				{
					"input":49,
					"interpolation":"STEP",
					"output":38
				},
				{
					"input":49,
					"interpolation":"STEP",
					"output":39
				},
				{
					"input":49,
					"interpolation":"STEP",
					"output":51
				},
				{
					"input":49,
					"interpolation":"STEP",
					"output":41
				},
				{
					"input":49,
					"interpolation":"STEP",
					"output":39
				},
				{
					"input":49,
					"interpolation":"STEP",
					"output":42
				},
				{
					"input":49,
					"interpolation":"STEP",
					"output":34
				},
				{
					"input":49,
					"interpolation":"STEP",
					"output":35
				},
				{
					"input":49,
					"interpolation":"STEP",
					"output":52
				},
				{
					"input":49,
					"interpolation":"STEP",
					"output":44
				},
				{
					"input":49,
					"interpolation":"STEP",
					"output":35
				},
				{
					"input":49,
					"interpolation":"STEP",
					"output":53
				},
				{
					"input":49,
					"interpolation":"STEP",
					"output":44
				},
				{
					"input":49,
					"interpolation":"STEP",
					"output":35
				}
			]
		},
		{
			"channels":[
				{
					"sampler":0,
					"target":{
						"node":15,
						"path":"translation"
					}
				},
				{
					"sampler":1,
					"target":{
						"node":15,
						"path":"rotation"
					}
				},
				{
					"sampler":2,
					"target":{
						"node":15,
						"path":"scale"
					}
				},
				{
					"sampler":3,
					"target":{
						"node":12,
						"path":"translation"
					}
				},
				{
					"sampler":4,
					"target":{
						"node":12,
						"path":"rotation"
					}
				},
				{
					"sampler":5,
					"target":{
						"node":12,
						"path":"scale"
					}
				},
				{
					"sampler":6,
					"target":{
						"node":0,
						"path":"translation"
					}
				},
				{
					"sampler":7,
					"target":{
						"node":0,
						"path":"rotation"
					}
				},
				{
					"sampler":8,
					"target":{
						"node":0,
						"path":"scale"
					}
				},
				{
					"sampler":9,
					"target":{
						"node":2,
						"path":"translation"
					}
				},
				{
					"sampler":10,
					"target":{
						"node":2,
						"path":"rotation"
					}
				},
				{
					"sampler":11,
					"target":{
						"node":2,
						"path":"scale"
					}
				},
				{
					"sampler":12,
					"target":{
						"node":8,
						"path":"translation"
					}
				},
				{
					"sampler":13,
					"target":{
						"node":8,
						"path":"rotation"
					}
				},
				{
					"sampler":14,
					"target":{
						"node":8,
						"path":"scale"
					}
				},
				{
					"sampler":15,
					"target":{
						"node":13,
						"path":"translation"
					}
				},
				{
					"sampler":16,
					"target":{
						"node":13,
						"path":"rotation"
					}
				},
				{
					"sampler":17,
					"target":{
						"node":13,
						"path":"scale"
					}
				},
				{
					"sampler":18,
					"target":{
						"node":14,
						"path":"translation"
					}
				},
				{
					"sampler":19,
					"target":{
						"node":14,
						"path":"rotation"
					}
				},
				{
					"sampler":20,
					"target":{
						"node":14,
						"path":"scale"
					}
				}
			],
			"name":"hurt",
			"samplers":[
				{
					"input":54,
					"interpolation":"STEP",
					"output":33
				},
				{
					"input":54,
					"interpolation":"STEP",
					"output":34
				},
				{
					"input":54,
					"interpolation":"STEP",
					"output":35
				},
				{
					"input":55,
					"interpolation":"LINEAR",
					"output":56
				},
				{
					"input":54,
					"interpolation":"STEP",
					"output":34
				},
				{
					"input":54,
					"interpolation":"STEP",
					"output":35
				},
				{
					"input":54,
					"interpolation":"STEP",
					"output":37
				},
				{
					"input":54,
					"interpolation":"STEP",
					"output":38
				},
				{
					"input":54,
					"interpolation":"STEP",
					"output":39
				},
				{
					"input":54,
					"interpolation":"STEP",
					"output":40
				},
				{
					"input":54,
					"interpolation":"STEP",
					"output":41
				},
				{
					"input":54,
					"interpolation":"STEP",
					"output":39
				},
				{
					"input":54,
					"interpolation":"STEP",
					"output":42
				},
				{
					"input":54,
					"interpolation":"STEP",
					"output":34
				},
				{
					"input":54,
					"interpolation":"STEP",
					"output":35
				},
				{
					"input":54,
					"interpolation":"STEP",
					"output":43
				},
				{
					"input":54,
					"interpolation":"STEP",
					"output":44
				},
				{
					"input":54,
					"interpolation":"STEP",
					"output":35
				},
				{
					"input":54,
					"interpolation":"STEP",
					"output":45
				},
				{
					"input":54,
					"interpolation":"STEP",
					"output":44
				},
				{
					"input":54,
					"interpolation":"STEP",
					"output":35
				}
			]
		},
		{
			"channels":[
				{
					"sampler":0,
					"target":{
						"node":15,
						"path":"translation"
					}
				},
				{
					"sampler":1,
					"target":{
						"node":15,
						"path":"rotation"
					}
				},
				{
					"sampler":2,
					"target":{
						"node":15,
						"path":"scale"
					}
				},
				{
					"sampler":3,
					"target":{
						"node":12,
						"path":"translation"
					}
				},
				{
					"sampler":4,
					"target":{
						"node":12,
						"path":"rotation"
					}
				},
				{
					"sampler":5,
					"target":{
						"node":12,
						"path":"scale"
					}
				},
				{
					"sampler":6,
					"target":{
						"node":0,
						"path":"translation"
					}
				},
				{
					"sampler":7,
					"target":{
						"node":0,
						"path":"rotation"
					}
				},
				{
					"sampler":8,
					"target":{
						"node":0,
						"path":"scale"
					}
				},
				{
					"sampler":9,
					"target":{
						"node":2,
						"path":"translation"
					}
				},
				{
					"sampler":10,
					"target":{
						"node":2,
						"path":"rotation"
					}
				},
				{
					"sampler":11,
					"target":{
						"node":2,
						"path":"scale"
					}
				},
				{
					"sampler":12,
					"target":{
						"node":8,
						"path":"translation"
					}
				},
				{
					"sampler":13,
					"target":{
						"node":8,
						"path":"rotation"
					}
				},
				{
					"sampler":14,
					"target":{
						"node":8,
						"path":"scale"
					}
				},
				{
					"sampler":15,
					"target":{
						"node":13,
						"path":"translation"
					}
				},
				{
					"sampler":16,
					"target":{
						"node":13,
						"path":"rotation"
					}
				},
				{
					"sampler":17,
					"target":{
						"node":13,
						"path":"scale"
					}
				},
				{
					"sampler":18,
					"target":{
						"node":14,
						"path":"translation"
					}
				},
				{
					"sampler":19,
					"target":{
						"node":14,
						"path":"rotation"
					}
				},
				{
					"sampler":20,
					"target":{
						"node":14,
						"path":"scale"
					}
				}
			],
			"name":"idle",
			"samplers":[
				{
					"input":57,
					"interpolation":"LINEAR",
					"output":58
				},
				{
					"input":46,
					"interpolation":"STEP",
					"output":34
				},
				{
					"input":46,
					"interpolation":"STEP",
					"output":35
				},
				{
					"input":57,
					"interpolation":"LINEAR",
					"output":59
				},
				{
					"input":46,
					"interpolation":"STEP",
					"output":34
				},
				{
					"input":46,
					"interpolation":"STEP",
					"output":35
				},
				{
					"input":46,
					"interpolation":"STEP",
					"output":37
				},
				{
					"input":46,
					"interpolation":"STEP",
					"output":38
				},
				{
					"input":46,
					"interpolation":"STEP",
					"output":39
				},
				{
					"input":46,
					"interpolation":"STEP",
					"output":40
				},
				{
					"input":46,
					"interpolation":"STEP",
					"output":41
				},
				{
					"input":46,
					"interpolation":"STEP",
					"output":39
				},
				{
					"input":46,
					"interpolation":"STEP",
					"output":42
				},
				{
					"input":46,
					"interpolation":"STEP",
					"output":34
				},
				{
					"input":46,
					"interpolation":"STEP",
					"output":35
				},
				{
					"input":46,
					"interpolation":"STEP",
					"output":43
				},
				{
					"input":46,
					"interpolation":"STEP",
					"output":44
				},
				{
					"input":46,
					"interpolation":"STEP",
					"output":35
				},
				{
					"input":46,
					"interpolation":"STEP",
					"output":45
				},
				{
					"input":46,
					"interpolation":"STEP",
					"output":44
				},
				{
					"input":46,
					"interpolation":"STEP",
					"output":35
				}
			]
		},
		{
			"channels":[
				{
					"sampler":0,
					"target":{
						"node":15,
						"path":"translation"
					}
				},
				{
					"sampler":1,
					"target":{
						"node":15,
						"path":"rotation"
					}
				},
				{
					"sampler":2,
					"target":{
						"node":15,
						"path":"scale"
					}
				},
				{
					"sampler":3,
					"target":{
						"node":12,
						"path":"translation"
					}
				},
				{
					"sampler":4,
					"target":{
						"node":12,
						"path":"rotation"
					}
				},
				{
					"sampler":5,
					"target":{
						"node":12,
						"path":"scale"
					}
				},
				{
					"sampler":6,
					"target":{
						"node":0,
						"path":"translation"
					}
				},
				{
					"sampler":7,
					"target":{
						"node":0,
						"path":"rotation"
					}
				},
				{
					"sampler":8,
					"target":{
						"node":0,
						"path":"scale"
					}
				},
				{
					"sampler":9,
					"target":{
						"node":2,
						"path":"translation"
					}
				},
				{
					"sampler":10,
					"target":{
						"node":2,
						"path":"rotation"
					}
				},
				{
					"sampler":11,
					"target":{
						"node":2,
						"path":"scale"
					}
				},
				{
					"sampler":12,
					"target":{
						"node":8,
						"path":"translation"
					}
				},
				{
					"sampler":13,
					"target":{
						"node":8,
						"path":"rotation"
					}
				},
				{
					"sampler":14,
					"target":{
						"node":8,
						"path":"scale"
					}
				},
				{
					"sampler":15,
					"target":{
						"node":13,
						"path":"translation"
					}
				},
				{
					"sampler":16,
					"target":{
						"node":13,
						"path":"rotation"
					}
				},
				{
					"sampler":17,
					"target":{
						"node":13,
						"path":"scale"
					}
				},
				{
					"sampler":18,
					"target":{
						"node":14,
						"path":"translation"
					}
				},
				{
					"sampler":19,
					"target":{
						"node":14,
						"path":"rotation"
					}
				},
				{
					"sampler":20,
					"target":{
						"node":14,
						"path":"scale"
					}
				}
			],
			"name":"walk",
			"samplers":[
				{
					"input":46,
					"interpolation":"STEP",
					"output":33
				},
				{
					"input":46,
					"interpolation":"STEP",
					"output":34
				},
				{
					"input":46,
					"interpolation":"STEP",
					"output":35
				},
				{
					"input":46,
					"interpolation":"STEP",
					"output":36
				},
				{
					"input":46,
					"interpolation":"STEP",
					"output":34
				},
				{
					"input":46,
					"interpolation":"STEP",
					"output":35
				},
				{
					"input":46,
					"interpolation":"STEP",
					"output":37
				},
				{
					"input":46,
					"interpolation":"STEP",
					"output":38
				},
				{
					"input":46,
					"interpolation":"STEP",
					"output":39
				},
				{
					"input":46,
					"interpolation":"STEP",
					"output":40
				},
				{
					"input":46,
					"interpolation":"STEP",
					"output":41
				},
				{
					"input":46,
					"interpolation":"STEP",
					"output":39
				},
				{
					"input":46,
					"interpolation":"STEP",
					"output":42
				},
				{
					"input":46,
					"interpolation":"STEP",
					"output":34
				},
				{
					"input":46,
					"interpolation":"STEP",
					"output":35
				},
				{
					"input":46,
					"interpolation":"STEP",
					"output":43
				},
				{
					"input":46,
					"interpolation":"STEP",
					"output":44
				},
				{
					"input":46,
					"interpolation":"STEP",
					"output":35
				},
				{
					"input":46,
					"interpolation":"STEP",
					"output":45
				},
				{
					"input":46,
					"interpolation":"STEP",
					"output":44
				},
				{
					"input":46,
					"interpolation":"STEP",
					"output":35
				}
			]
		}
	],
	"materials":[
		{
			"doubleSided":true,
			"emissiveFactor":[
				1,
				0.22222223142047012,
				0.11111111571023506
			],
			"extensions":{
				"KHR_materials_emissive_strength":{
					"emissiveStrength":2.2499999403953552
				}
			},
			"name":"ImpObsidian",
			"pbrMetallicRoughness":{
				"baseColorFactor":[
					0.10000000149011612,
					0.10000000149011612,
					0.11999999731779099,
					1
				],
				"metallicFactor":0.6000000238418579,
				"roughnessFactor":0.30000001192092896
			}
		},
		{
			"doubleSided":true,
			"name":"ImpDarkHorn",
			"pbrMetallicRoughness":{
				"baseColorFactor":[
					0.15000000596046448,
					0.10000000149011612,
					0.11999999731779099,
					1
				],
				"metallicFactor":0.10000000149011612,
				"roughnessFactor":0.6000000238418579
			}
		},
		{
			"doubleSided":true,
			"name":"ImpFlesh",
			"pbrMetallicRoughness":{
				"baseColorFactor":[
					0.550000011920929,
					0.15000000596046448,
					0.11999999731779099,
					1
				],
				"metallicFactor":0.10000000149011612,
				"roughnessFactor":0.75
			}
		}
	],
	"meshes":[
		{
			"name":"Cube.001",
			"primitives":[
				{
					"attributes":{
						"POSITION":0,
						"NORMAL":1,
						"TEXCOORD_0":2
					},
					"indices":3,
					"material":0
				}
			]
		},
		{
			"name":"Cone.002",
			"primitives":[
				{
					"attributes":{
						"POSITION":4,
						"NORMAL":5,
						"TEXCOORD_0":6
					},
					"indices":7,
					"material":1
				}
			]
		},
		{
			"name":"Cone.003",
			"primitives":[
				{
					"attributes":{
						"POSITION":8,
						"NORMAL":9,
						"TEXCOORD_0":10
					},
					"indices":7,
					"material":1
				}
			]
		},
		{
			"name":"Sphere",
			"primitives":[
				{
					"attributes":{
						"POSITION":11,
						"NORMAL":12,
						"TEXCOORD_0":13
					},
					"indices":14,
					"material":2
				}
			]
		},
		{
			"name":"Sphere.001",
			"primitives":[
				{
					"attributes":{
						"POSITION":15,
						"NORMAL":16,
						"TEXCOORD_0":17
					},
					"indices":18,
					"material":0
				}
			]
		},
		{
			"name":"Sphere.002",
			"primitives":[
				{
					"attributes":{
						"POSITION":19,
						"NORMAL":20,
						"TEXCOORD_0":21
					},
					"indices":22,
					"material":0
				}
			]
		},
		{
			"name":"Cone",
			"primitives":[
				{
					"attributes":{
						"POSITION":23,
						"NORMAL":24,
						"TEXCOORD_0":25
					},
					"indices":7,
					"material":1
				}
			]
		},
		{
			"name":"Cone.001",
			"primitives":[
				{
					"attributes":{
						"POSITION":26,
						"NORMAL":27,
						"TEXCOORD_0":28
					},
					"indices":7,
					"material":1
				}
			]
		},
		{
			"name":"Cube",
			"primitives":[
				{
					"attributes":{
						"POSITION":29,
						"NORMAL":30,
						"TEXCOORD_0":31
					},
					"indices":3,
					"material":2
				}
			]
		}
	],
	"skins":[
		{
			"inverseBindMatrices":60,
			"joints":[
				15,
				12,
				0,
				2,
				8,
				13,
				14
			],
			"name":"ImpRig"
		}
	],
	"accessors":[
		{
			"bufferView":0,
			"componentType":5126,
			"count":24,
			"max":[
				0.03500000014901161,
				0.03500000014901161,
				0.03500000014901161
			],
			"min":[
				-0.03500000014901161,
				-0.03500000014901161,
				-0.03500000014901161
			],
			"type":"VEC3"
		},
		{
			"bufferView":1,
			"componentType":5126,
			"count":24,
			"type":"VEC3"
		},
		{
			"bufferView":2,
			"componentType":5126,
			"count":24,
			"type":"VEC2"
		},
		{
			"bufferView":3,
			"componentType":5123,
			"count":36,
			"type":"SCALAR"
		},
		{
			"bufferView":4,
			"componentType":5126,
			"count":128,
			"max":[
				0.05000000074505806,
				0.17499999701976776,
				0.05000000074505806
			],
			"min":[
				-0.05000000074505806,
				-0.17499999701976776,
				-0.05000000074505806
			],
			"type":"VEC3"
		},
		{
			"bufferView":5,
			"componentType":5126,
			"count":128,
			"type":"VEC3"
		},
		{
			"bufferView":6,
			"componentType":5126,
			"count":128,
			"type":"VEC2"
		},
		{
			"bufferView":7,
			"componentType":5123,
			"count":186,
			"type":"SCALAR"
		},
		{
			"bufferView":8,
			"componentType":5126,
			"count":128,
			"max":[
				0.05000000074505806,
				0.17499999701976776,
				0.05000000074505806
			],
			"min":[
				-0.05000000074505806,
				-0.17499999701976776,
				-0.05000000074505806
			],
			"type":"VEC3"
		},
		{
			"bufferView":9,
			"componentType":5126,
			"count":128,
			"type":"VEC3"
		},
		{
			"bufferView":10,
			"componentType":5126,
			"count":128,
			"type":"VEC2"
		},
		{
			"bufferView":11,
			"componentType":5126,
			"count":1984,
			"max":[
				0.19999991357326508,
				0.20000000298023224,
				0.1999998539686203
			],
			"min":[
				-0.19999980926513672,
				-0.20000000298023224,
				-0.20000000298023224
			],
			"type":"VEC3"
		},
		{
			"bufferView":12,
			"componentType":5126,
			"count":1984,
			"type":"VEC3"
		},
		{
			"bufferView":13,
			"componentType":5126,
			"count":1984,
			"type":"VEC2"
		},
		{
			"bufferView":14,
			"componentType":5123,
			"count":2880,
			"type":"SCALAR"
		},
		{
			"bufferView":15,
			"componentType":5126,
			"count":1984,
			"max":[
				0.034999996423721313,
				0.03500000014901161,
				0.034999996423721313
			],
			"min":[
				-0.034999992698431015,
				-0.03500000014901161,
				-0.03500000014901161
			],
			"type":"VEC3"
		},
		{
			"bufferView":16,
			"componentType":5126,
			"count":1984,
			"type":"VEC3"
		},
		{
			"bufferView":17,
			"componentType":5126,
			"count":1984,
			"type":"VEC2"
		},
		{
			"bufferView":18,
			"componentType":5123,
			"count":2880,
			"type":"SCALAR"
		},
		{
			"bufferView":19,
			"componentType":5126,
			"count":1984,
			"max":[
				0.034999996423721313,
				0.03500000014901161,
				0.034999996423721313
			],
			"min":[
				-0.034999992698431015,
				-0.03500000014901161,
				-0.03500000014901161
			],
			"type":"VEC3"
		},
		{
			"bufferView":20,
			"componentType":5126,
			"count":1984,
			"type":"VEC3"
		},
		{
			"bufferView":21,
			"componentType":5126,
			"count":1984,
			"type":"VEC2"
		},
		{
			"bufferView":22,
			"componentType":5123,
			"count":2880,
			"type":"SCALAR"
		},
		{
			"bufferView":23,
			"componentType":5126,
			"count":128,
			"max":[
				0.25,
				0.30000001192092896,
				0.25
			],
			"min":[
				-0.25,
				-0.30000001192092896,
				-0.25
			],
			"type":"VEC3"
		},
		{
			"bufferView":24,
			"componentType":5126,
			"count":128,
			"type":"VEC3"
		},
		{
			"bufferView":25,
			"componentType":5126,
			"count":128,
			"type":"VEC2"
		},
		{
			"bufferView":26,
			"componentType":5126,
			"count":128,
			"max":[
				0.25,
				0.30000001192092896,
				0.25
			],
			"min":[
				-0.25,
				-0.30000001192092896,
				-0.25
			],
			"type":"VEC3"
		},
		{
			"bufferView":27,
			"componentType":5126,
			"count":128,
			"type":"VEC3"
		},
		{
			"bufferView":28,
			"componentType":5126,
			"count":128,
			"type":"VEC2"
		},
		{
			"bufferView":29,
			"componentType":5126,
			"count":24,
			"max":[
				0.17499999701976776,
				0.17499999701976776,
				0.17499999701976776
			],
			"min":[
				-0.17499999701976776,
				-0.17499999701976776,
				-0.17499999701976776
			],
			"type":"VEC3"
		},
		{
			"bufferView":30,
			"componentType":5126,
			"count":24,
			"type":"VEC3"
		},
		{
			"bufferView":31,
			"componentType":5126,
			"count":24,
			"type":"VEC2"
		},
		{
			"bufferView":32,
			"componentType":5126,
			"count":2,
			"max":[
				1
			],
			"min":[
				0.041666666666666664
			],
			"type":"SCALAR"
		},
		{
			"bufferView":33,
			"componentType":5126,
			"count":2,
			"type":"VEC3"
		},
		{
			"bufferView":34,
			"componentType":5126,
			"count":2,
			"type":"VEC4"
		},
		{
			"bufferView":35,
			"componentType":5126,
			"count":2,
			"type":"VEC3"
		},
		{
			"bufferView":36,
			"componentType":5126,
			"count":2,
			"type":"VEC3"
		},
		{
			"bufferView":37,
			"componentType":5126,
			"count":2,
			"type":"VEC3"
		},
		{
			"bufferView":38,
			"componentType":5126,
			"count":2,
			"type":"VEC4"
		},
		{
			"bufferView":39,
			"componentType":5126,
			"count":2,
			"type":"VEC3"
		},
		{
			"bufferView":40,
			"componentType":5126,
			"count":2,
			"type":"VEC3"
		},
		{
			"bufferView":41,
			"componentType":5126,
			"count":2,
			"type":"VEC4"
		},
		{
			"bufferView":42,
			"componentType":5126,
			"count":2,
			"type":"VEC3"
		},
		{
			"bufferView":43,
			"componentType":5126,
			"count":2,
			"type":"VEC3"
		},
		{
			"bufferView":44,
			"componentType":5126,
			"count":2,
			"type":"VEC4"
		},
		{
			"bufferView":45,
			"componentType":5126,
			"count":2,
			"type":"VEC3"
		},
		{
			"bufferView":46,
			"componentType":5126,
			"count":2,
			"max":[
				1.25
			],
			"min":[
				0.041666666666666664
			],
			"type":"SCALAR"
		},
		{
			"bufferView":47,
			"componentType":5126,
			"count":25,
			"max":[
				1.0416666666666667
			],
			"min":[
				0.041666666666666664
			],
			"type":"SCALAR"
		},
		{
			"bufferView":48,
			"componentType":5126,
			"count":25,
			"type":"VEC3"
		},
		{
			"bufferView":49,
			"componentType":5126,
			"count":2,
			"max":[
				1.0416666666666667
			],
			"min":[
				0.041666666666666664
			],
			"type":"SCALAR"
		},
		{
			"bufferView":50,
			"componentType":5126,
			"count":2,
			"type":"VEC3"
		},
		{
			"bufferView":51,
			"componentType":5126,
			"count":2,
			"type":"VEC3"
		},
		{
			"bufferView":52,
			"componentType":5126,
			"count":2,
			"type":"VEC3"
		},
		{
			"bufferView":53,
			"componentType":5126,
			"count":2,
			"type":"VEC3"
		},
		{
			"bufferView":54,
			"componentType":5126,
			"count":2,
			"max":[
				0.6666666666666666
			],
			"min":[
				0.041666666666666664
			],
			"type":"SCALAR"
		},
		{
			"bufferView":55,
			"componentType":5126,
			"count":16,
			"max":[
				0.6666666666666666
			],
			"min":[
				0.041666666666666664
			],
			"type":"SCALAR"
		},
		{
			"bufferView":56,
			"componentType":5126,
			"count":16,
			"type":"VEC3"
		},
		{
			"bufferView":57,
			"componentType":5126,
			"count":30,
			"max":[
				1.25
			],
			"min":[
				0.041666666666666664
			],
			"type":"SCALAR"
		},
		{
			"bufferView":58,
			"componentType":5126,
			"count":30,
			"type":"VEC3"
		},
		{
			"bufferView":59,
			"componentType":5126,
			"count":30,
			"type":"VEC3"
		},
		{
			"bufferView":60,
			"componentType":5126,
			"count":7,
			"type":"MAT4"
		}
	],
	"bufferViews":[
		{
			"buffer":0,
			"byteLength":288,
			"byteOffset":0,
			"target":34962
		},
		{
			"buffer":0,
			"byteLength":288,
			"byteOffset":288,
			"target":34962
		},
		{
			"buffer":0,
			"byteLength":192,
			"byteOffset":576,
			"target":34962
		},
		{
			"buffer":0,
			"byteLength":72,
			"byteOffset":768,
			"target":34963
		},
		{
			"buffer":0,
			"byteLength":1536,
			"byteOffset":840,
			"target":34962
		},
		{
			"buffer":0,
			"byteLength":1536,
			"byteOffset":2376,
			"target":34962
		},
		{
			"buffer":0,
			"byteLength":1024,
			"byteOffset":3912,
			"target":34962
		},
		{
			"buffer":0,
			"byteLength":372,
			"byteOffset":4936,
			"target":34963
		},
		{
			"buffer":0,
			"byteLength":1536,
			"byteOffset":5308,
			"target":34962
		},
		{
			"buffer":0,
			"byteLength":1536,
			"byteOffset":6844,
			"target":34962
		},
		{
			"buffer":0,
			"byteLength":1024,
			"byteOffset":8380,
			"target":34962
		},
		{
			"buffer":0,
			"byteLength":23808,
			"byteOffset":9404,
			"target":34962
		},
		{
			"buffer":0,
			"byteLength":23808,
			"byteOffset":33212,
			"target":34962
		},
		{
			"buffer":0,
			"byteLength":15872,
			"byteOffset":57020,
			"target":34962
		},
		{
			"buffer":0,
			"byteLength":5760,
			"byteOffset":72892,
			"target":34963
		},
		{
			"buffer":0,
			"byteLength":23808,
			"byteOffset":78652,
			"target":34962
		},
		{
			"buffer":0,
			"byteLength":23808,
			"byteOffset":102460,
			"target":34962
		},
		{
			"buffer":0,
			"byteLength":15872,
			"byteOffset":126268,
			"target":34962
		},
		{
			"buffer":0,
			"byteLength":5760,
			"byteOffset":142140,
			"target":34963
		},
		{
			"buffer":0,
			"byteLength":23808,
			"byteOffset":147900,
			"target":34962
		},
		{
			"buffer":0,
			"byteLength":23808,
			"byteOffset":171708,
			"target":34962
		},
		{
			"buffer":0,
			"byteLength":15872,
			"byteOffset":195516,
			"target":34962
		},
		{
			"buffer":0,
			"byteLength":5760,
			"byteOffset":211388,
			"target":34963
		},
		{
			"buffer":0,
			"byteLength":1536,
			"byteOffset":217148,
			"target":34962
		},
		{
			"buffer":0,
			"byteLength":1536,
			"byteOffset":218684,
			"target":34962
		},
		{
			"buffer":0,
			"byteLength":1024,
			"byteOffset":220220,
			"target":34962
		},
		{
			"buffer":0,
			"byteLength":1536,
			"byteOffset":221244,
			"target":34962
		},
		{
			"buffer":0,
			"byteLength":1536,
			"byteOffset":222780,
			"target":34962
		},
		{
			"buffer":0,
			"byteLength":1024,
			"byteOffset":224316,
			"target":34962
		},
		{
			"buffer":0,
			"byteLength":288,
			"byteOffset":225340,
			"target":34962
		},
		{
			"buffer":0,
			"byteLength":288,
			"byteOffset":225628,
			"target":34962
		},
		{
			"buffer":0,
			"byteLength":192,
			"byteOffset":225916,
			"target":34962
		},
		{
			"buffer":0,
			"byteLength":8,
			"byteOffset":226108
		},
		{
			"buffer":0,
			"byteLength":24,
			"byteOffset":226116
		},
		{
			"buffer":0,
			"byteLength":32,
			"byteOffset":226140
		},
		{
			"buffer":0,
			"byteLength":24,
			"byteOffset":226172
		},
		{
			"buffer":0,
			"byteLength":24,
			"byteOffset":226196
		},
		{
			"buffer":0,
			"byteLength":24,
			"byteOffset":226220
		},
		{
			"buffer":0,
			"byteLength":32,
			"byteOffset":226244
		},
		{
			"buffer":0,
			"byteLength":24,
			"byteOffset":226276
		},
		{
			"buffer":0,
			"byteLength":24,
			"byteOffset":226300
		},
		{
			"buffer":0,
			"byteLength":32,
			"byteOffset":226324
		},
		{
			"buffer":0,
			"byteLength":24,
			"byteOffset":226356
		},
		{
			"buffer":0,
			"byteLength":24,
			"byteOffset":226380
		},
		{
			"buffer":0,
			"byteLength":32,
			"byteOffset":226404
		},
		{
			"buffer":0,
			"byteLength":24,
			"byteOffset":226436
		},
		{
			"buffer":0,
			"byteLength":8,
			"byteOffset":226460
		},
		{
			"buffer":0,
			"byteLength":100,
			"byteOffset":226468
		},
		{
			"buffer":0,
			"byteLength":300,
			"byteOffset":226568
		},
		{
			"buffer":0,
			"byteLength":8,
			"byteOffset":226868
		},
		{
			"buffer":0,
			"byteLength":24,
			"byteOffset":226876
		},
		{
			"buffer":0,
			"byteLength":24,
			"byteOffset":226900
		},
		{
			"buffer":0,
			"byteLength":24,
			"byteOffset":226924
		},
		{
			"buffer":0,
			"byteLength":24,
			"byteOffset":226948
		},
		{
			"buffer":0,
			"byteLength":8,
			"byteOffset":226972
		},
		{
			"buffer":0,
			"byteLength":64,
			"byteOffset":226980
		},
		{
			"buffer":0,
			"byteLength":192,
			"byteOffset":227044
		},
		{
			"buffer":0,
			"byteLength":120,
			"byteOffset":227236
		},
		{
			"buffer":0,
			"byteLength":360,
			"byteOffset":227356
		},
		{
			"buffer":0,
			"byteLength":360,
			"byteOffset":227716
		},
		{
			"buffer":0,
			"byteLength":448,
			"byteOffset":228076
		}
	],
	"buffers":[
		{
			"byteLength":228524,
			"uri":"enemy_imp.bin"
		}
	]
}
