{
	"asset":{
		"generator":"Khronos glTF Blender I/O v5.2.40",
		"version":"2.0"
	},
	"extensionsUsed":[
		"KHR_materials_emissive_strength"
	],
	"scene":0,
	"scenes":[
		{
			"name":"Scene",
			"nodes":[
				17
			]
		}
	],
	"nodes":[
		{
			"mesh":0,
			"name":"Cone",
			"rotation":[
				0.6930116415023804,
				0.1404803842306137,
				-0.14048045873641968,
				0.6930117607116699
			],
			"scale":[
				0.9999998807907104,
				1.0000001192092896,
				1
			],
			"translation":[
				0.4000001549720764,
				0.6726812720298767,
				1.8500001430511475
			]
		},
		{
			"children":[
				0
			],
			"name":"Arm_L",
			"rotation":[
				-0.87164705991745,
				-0.33448243141174316,
				-0.33448243141174316,
				0.12835294008255005
			],
			"scale":[
				0.9999999403953552,
				0.9999998211860657,
				1
			],
			"translation":[
				0.3499999940395355,
				0.3999999761581421,
				0
			]
		},
		{
			"mesh":1,
			"name":"Cone.001",
			"rotation":[
				0.6930116415023804,
				-0.1404803842306137,
				0.14048045873641968,
				0.6930117607116699
			],
			"scale":[
				0.9999998807907104,
				1.0000001192092896,
				1
			],
			"translation":[
				-0.4000001549720764,
				0.6726812720298767,
				1.8500001430511475
			]
		},
		{
			"mesh":2,
			"name":"Cube.002",
			"rotation":[
				0.7731994986534119,
				0.031635891646146774,
				-0.038692183792591095,
				0.6321903467178345
			],
			"scale":[
				0.2200000137090683,
				10.999999046325684,
				0.04000000283122063
			],
			"translation":[
				-0.8000001907348633,
				0.2726813852787018,
				1.5
			]
		},
		{
			"mesh":3,
			"name":"Cube.003",
			"rotation":[
				0.7071067690849304,
				5.2712579190483666e-08,
				-5.029363236985773e-08,
				0.7071067690849304
			],
			"scale":[
				1.8000000715255737,
				0.30000001192092896,
				0.30000001192092896
			],
			"translation":[
				-0.7999998927116394,
				0.27268171310424805,
				0.9499997496604919
			]
		},
		{
			"children":[
				2,
				3,
				4
			],
			"name":"Arm_R",
			"rotation":[
				-0.87164705991745,
				0.33448243141174316,
				0.33448243141174316,
				0.12835294008255005
			],
			"scale":[
				0.9999999403953552,
				0.9999998211860657,
				1
			],
			"translation":[
				-0.3499999940395355,
				0.3999999761581421,
				0
			]
		},
		{
			"mesh":4,
			"name":"Cube.001",
			"rotation":[
				0.7071067690849304,
				0,
				0,
				0.7071067690849304
			],
			"scale":[
				1.5,
				0.30000001192092896,
				0.20000000298023224
			],
			"translation":[
				0,
				0.28000009059906006,
				2.1500000953674316
			]
		},
		{
			"mesh":5,
			"name":"Sphere",
			"rotation":[
				0.7071067690849304,
				0,
				0,
				0.7071067690849304
			],
			"translation":[
				0,
				0.5000001192092896,
				2.1500000953674316
			]
		},
		{
			"children":[
				6,
				7
			],
			"name":"Head",
			"translation":[
				0,
				0.5,
				0
			]
		},
		{
			"mesh":6,
			"name":"Cube",
			"rotation":[
				0.7071067690849304,
				0,
				0,
				0.7071067690849304
			],
			"scale":[
				0.699999988079071,
				1,
				0.44999998807907104
			],
			"translation":[
				0,
				0.5,
				1.600000023841858
			]
		},
		{
			"mesh":7,
			"name":"Plane",
			"rotation":[
				0.7741671204566956,
				0,
				0,
				0.6329812407493591
			],
			"scale":[
				0.6499999761581421,
				1,
				1.2999999523162842
			],
			"translation":[
				0,
				0.7500001192092896,
				1.399999976158142
			]
		},
		{
			"children":[
				1,
				5,
				8,
				9,
				10
			],
			"name":"Chest",
			"translation":[
				0,
				0.3999999761581421,
				0
			]
		},
		{
			"mesh":8,
			"name":"Cylinder",
			"rotation":[
				0.7071067690849304,
				0,
				0,
				0.7071067690849304
			],
			"translation":[
				0.2499999850988388,
				1,
				0.4999999701976776
			]
		},
		{
			"children":[
				12
			],
			"name":"Leg_L",
			"rotation":[
				1,
				0,
				-4.371138828673793e-08,
				0
			],
			"translation":[
				0.25,
				0,
				0
			]
		},
		{
			"mesh":9,
			"name":"Cylinder.001",
			"rotation":[
				0.7071067690849304,
				0,
				0,
				0.7071067690849304
			],
			"translation":[
				-0.24999995529651642,
				1,
				0.5
			]
		},
		{
			"children":[
				14
			],
			"name":"Leg_R",
			"rotation":[
				1,
				0,
				-4.371138828673793e-08,
				0
			],
			"translation":[
				-0.25,
				0,
				0
			]
		},
		{
			"children":[
				11,
				13,
				15
			],
			"name":"Hips",
			"translation":[
				0,
				1,
				0
			]
		},
		{
			"children":[
				16
			],
			"name":"HeroRig"
		}
	],
	"animations":[
		{
			"channels":[
				{
					"sampler":0,
					"target":{
						"node":16,
						"path":"translation"
					}
				},
				{
					"sampler":1,
					"target":{
						"node":16,
						"path":"rotation"
					}
				},
				{
					"sampler":2,
					"target":{
						"node":16,
						"path":"scale"
					}
				},
				{
					"sampler":3,
					"target":{
						"node":11,
						"path":"translation"
					}
				},
				{
					"sampler":4,
					"target":{
						"node":11,
						"path":"rotation"
					}
				},
				{
					"sampler":5,
					"target":{
						"node":11,
						"path":"scale"
					}
				},
				{
					"sampler":6,
					"target":{
						"node":1,
						"path":"translation"
					}
				},
				{
					"sampler":7,
					"target":{
						"node":1,
						"path":"rotation"
					}
				},
				{
					"sampler":8,
					"target":{
						"node":1,
						"path":"scale"
					}
				},
				{
					"sampler":9,
					"target":{
						"node":5,
						"path":"translation"
					}
				},
				{
					"sampler":10,
					"target":{
						"node":5,
						"path":"rotation"
					}
				},
				{
					"sampler":11,
					"target":{
						"node":5,
						"path":"scale"
					}
				},
				{
					"sampler":12,
					"target":{
						"node":8,
						"path":"translation"
					}
				},
				{
					"sampler":13,
					"target":{
						"node":8,
						"path":"rotation"
					}
				},
				{
					"sampler":14,
					"target":{
						"node":8,
						"path":"scale"
					}
				},
				{
					"sampler":15,
					"target":{
						"node":13,
						"path":"translation"
					}
				},
				{
					"sampler":16,
					"target":{
						"node":13,
						"path":"rotation"
					}
				},
				{
					"sampler":17,
					"target":{
						"node":13,
						"path":"scale"
					}
				},
				{
					"sampler":18,
					"target":{
						"node":15,
						"path":"translation"
					}
				},
				{
					"sampler":19,
					"target":{
						"node":15,
						"path":"rotation"
					}
				},
				{
					"sampler":20,
					"target":{
						"node":15,
						"path":"scale"
					}
				}
			],
			"name":"attack",
			"samplers":[
				{
					"input":35,
					"interpolation":"STEP",
					"output":36
				},
				{
					"input":35,
					"interpolation":"STEP",
					"output":37
				},
				{
					"input":35,
					"interpolation":"STEP",
					"output":38
				},
				{
					"input":35,
					"interpolation":"STEP",
					"output":39
				},
				{
					"input":35,
					"interpolation":"STEP",
					"output":37
				},
				{
					"input":35,
					"interpolation":"STEP",
					"output":38
				},
				{
					"input":35,
					"interpolation":"STEP",
					"output":40
				},
				{
					"input":35,
					"interpolation":"STEP",
					"output":41
				},
				{
					"input":35,
					"interpolation":"STEP",
					"output":42
				},
				{
					"input":35,
					"interpolation":"STEP",
					"output":43
				},
				{
					"input":35,
					"interpolation":"STEP",
					"output":44
				},
				{
					"input":35,
					"interpolation":"STEP",
					"output":42
				},
				{
					"input":35,
					"interpolation":"STEP",
					"output":45
				},
				{
					"input":35,
					"interpolation":"STEP",
					"output":37
				},
				{
					"input":35,
					"interpolation":"STEP",
					"output":38
				},
				{
					"input":35,
					"interpolation":"STEP",
					"output":46
				},
				{
					"input":35,
					"interpolation":"STEP",
					"output":47
				},
				{
					"input":35,
					"interpolation":"STEP",
					"output":38
				},
				{
					"input":35,
					"interpolation":"STEP",
					"output":48
				},
				{
					"input":35,
					"interpolation":"STEP",
					"output":47
				},
				{
					"input":35,
					"interpolation":"STEP",
					"output":38
				}
			]
		},
		{
			"channels":[
				{
					"sampler":0,
					"target":{
						"node":16,
						"path":"translation"
					}
				},
				{
					"sampler":1,
					"target":{
						"node":16,
						"path":"rotation"
					}
				},
				{
					"sampler":2,
					"target":{
						"node":16,
						"path":"scale"
					}
				},
				{
					"sampler":3,
					"target":{
						"node":11,
						"path":"translation"
					}
				},
				{
					"sampler":4,
					"target":{
						"node":11,
						"path":"rotation"
					}
				},
				{
					"sampler":5,
					"target":{
						"node":11,
						"path":"scale"
					}
				},
				{
					"sampler":6,
					"target":{
						"node":1,
						"path":"translation"
					}
				},
				{
					"sampler":7,
					"target":{
						"node":1,
						"path":"rotation"
					}
				},
				{
					"sampler":8,
					"target":{
						"node":1,
						"path":"scale"
					}
				},
				{
					"sampler":9,
					"target":{
						"node":5,
						"path":"translation"
					}
				},
				{
					"sampler":10,
					"target":{
						"node":5,
						"path":"rotation"
					}
				},
				{
					"sampler":11,
					"target":{
						"node":5,
						"path":"scale"
					}
				},
				{
					"sampler":12,
					"target":{
						"node":8,
						"path":"translation"
					}
				},
				{
					"sampler":13,
					"target":{
						"node":8,
						"path":"rotation"
					}
				},
				{
					"sampler":14,
					"target":{
						"node":8,
						"path":"scale"
					}
				},
				{
					"sampler":15,
					"target":{
						"node":13,
						"path":"translation"
					}
				},
				{
					"sampler":16,
					"target":{
						"node":13,
						"path":"rotation"
					}
				},
				{
					"sampler":17,
					"target":{
						"node":13,
						"path":"scale"
					}
				},
				{
					"sampler":18,
					"target":{
						"node":15,
						"path":"translation"
					}
				},
				{
					"sampler":19,
					"target":{
						"node":15,
						"path":"rotation"
					}
				},
				{
					"sampler":20,
					"target":{
						"node":15,
						"path":"scale"
					}
				}
			],
			"name":"block",
			"samplers":[
				{
					"input":49,
					"interpolation":"STEP",
					"output":36
				},
				{
					"input":49,
					"interpolation":"STEP",
					"output":37
				},
				{
					"input":49,
					"interpolation":"STEP",
					"output":38
				},
				{
					"input":49,
					"interpolation":"STEP",
					"output":39
				},
				{
					"input":49,
					"interpolation":"STEP",
					"output":37
				},
				{
					"input":49,
					"interpolation":"STEP",
					"output":38
				},
				{
					"input":49,
					"interpolation":"STEP",
					"output":40
				},
				{
					"input":49,
					"interpolation":"STEP",
					"output":41
				},
				{
					"input":49,
					"interpolation":"STEP",
					"output":42
				},
				{
					"input":49,
					"interpolation":"STEP",
					"output":43
				},
				{
					"input":49,
					"interpolation":"STEP",
					"output":44
				},
				{
					"input":49,
					"interpolation":"STEP",
					"output":42
				},
				{
					"input":49,
					"interpolation":"STEP",
					"output":45
				},
				{
					"input":49,
					"interpolation":"STEP",
					"output":37
				},
				{
					"input":49,
					"interpolation":"STEP",
					"output":38
				},
				{
					"input":49,
					"interpolation":"STEP",
					"output":46
				},
				{
					"input":49,
					"interpolation":"STEP",
					"output":47
				},
				{
					"input":49,
					"interpolation":"STEP",
					"output":38
				},
				{
					"input":49,
					"interpolation":"STEP",
					"output":48
				},
				{
					"input":49,
					"interpolation":"STEP",
					"output":47
				},
				{
					"input":49,
					"interpolation":"STEP",
					"output":38
				}
			]
		},
		{
			"channels":[
				{
					"sampler":0,
					"target":{
						"node":16,
						"path":"translation"
					}
				},
				{
					"sampler":1,
					"target":{
						"node":16,
						"path":"rotation"
					}
				},
				{
					"sampler":2,
					"target":{
						"node":16,
						"path":"scale"
					}
				},
				{
					"sampler":3,
					"target":{
						"node":11,
						"path":"translation"
					}
				},
				{
					"sampler":4,
					"target":{
						"node":11,
						"path":"rotation"
					}
				},
				{
					"sampler":5,
					"target":{
						"node":11,
						"path":"scale"
					}
				},
				{
					"sampler":6,
					"target":{
						"node":1,
						"path":"translation"
					}
				},
				{
					"sampler":7,
					"target":{
						"node":1,
						"path":"rotation"
					}
				},
				{
					"sampler":8,
					"target":{
						"node":1,
						"path":"scale"
					}
				},
				{
					"sampler":9,
					"target":{
						"node":5,
						"path":"translation"
					}
				},
				{
					"sampler":10,
					"target":{
						"node":5,
						"path":"rotation"
					}
				},
				{
					"sampler":11,
					"target":{
						"node":5,
						"path":"scale"
					}
				},
				{
					"sampler":12,
					"target":{
						"node":8,
						"path":"translation"
					}
				},
				{
					"sampler":13,
					"target":{
						"node":8,
						"path":"rotation"
					}
				},
				{
					"sampler":14,
					"target":{
						"node":8,
						"path":"scale"
					}
				},
				{
					"sampler":15,
					"target":{
						"node":13,
						"path":"translation"
					}
				},
				{
					"sampler":16,
					"target":{
						"node":13,
						"path":"rotation"
					}
				},
				{
					"sampler":17,
					"target":{
						"node":13,
						"path":"scale"
					}
				},
				{
					"sampler":18,
					"target":{
						"node":15,
						"path":"translation"
					}
				},
				{
					"sampler":19,
					"target":{
						"node":15,
						"path":"rotation"
					}
				},
				{
					"sampler":20,
					"target":{
						"node":15,
						"path":"scale"
					}
				}
			],
			"name":"death",
			"samplers":[
				{
					"input":50,
					"interpolation":"LINEAR",
					"output":51
				},
				{
					"input":52,
					"interpolation":"STEP",
					"output":37
				},
				{
					"input":52,
					"interpolation":"STEP",
					"output":38
				},
				{
					"input":52,
					"interpolation":"STEP",
					"output":39
				},
				{
					"input":52,
					"interpolation":"STEP",
					"output":37
				},
				{
					"input":52,
					"interpolation":"STEP",
					"output":38
				},
				{
					"input":52,
					"interpolation":"STEP",
					"output":53
				},
				{
					"input":52,
					"interpolation":"STEP",
					"output":41
				},
				{
					"input":52,
					"interpolation":"STEP",
					"output":42
				},
				{
					"input":52,
					"interpolation":"STEP",
					"output":54
				},
				{
					"input":52,
					"interpolation":"STEP",
					"output":44
				},
				{
					"input":52,
					"interpolation":"STEP",
					"output":42
				},
				{
					"input":52,
					"interpolation":"STEP",
					"output":45
				},
				{
					"input":52,
					"interpolation":"STEP",
					"output":37
				},
				{
					"input":52,
					"interpolation":"STEP",
					"output":38
				},
				{
					"input":52,
					"interpolation":"STEP",
					"output":55
				},
				{
					"input":52,
					"interpolation":"STEP",
					"output":47
				},
				{
					"input":52,
					"interpolation":"STEP",
					"output":38
				},
				{
					"input":52,
					"interpolation":"STEP",
					"output":56
				},
				{
					"input":52,
					"interpolation":"STEP",
					"output":47
				},
				{
					"input":52,
					"interpolation":"STEP",
					"output":38
				}
			]
		},
		{
			"channels":[
				{
					"sampler":0,
					"target":{
						"node":16,
						"path":"translation"
					}
				},
				{
					"sampler":1,
					"target":{
						"node":16,
						"path":"rotation"
					}
				},
				{
					"sampler":2,
					"target":{
						"node":16,
						"path":"scale"
					}
				},
				{
					"sampler":3,
					"target":{
						"node":11,
						"path":"translation"
					}
				},
				{
					"sampler":4,
					"target":{
						"node":11,
						"path":"rotation"
					}
				},
				{
					"sampler":5,
					"target":{
						"node":11,
						"path":"scale"
					}
				},
				{
					"sampler":6,
					"target":{
						"node":1,
						"path":"translation"
					}
				},
				{
					"sampler":7,
					"target":{
						"node":1,
						"path":"rotation"
					}
				},
				{
					"sampler":8,
					"target":{
						"node":1,
						"path":"scale"
					}
				},
				{
					"sampler":9,
					"target":{
						"node":5,
						"path":"translation"
					}
				},
				{
					"sampler":10,
					"target":{
						"node":5,
						"path":"rotation"
					}
				},
				{
					"sampler":11,
					"target":{
						"node":5,
						"path":"scale"
					}
				},
				{
					"sampler":12,
					"target":{
						"node":8,
						"path":"translation"
					}
				},
				{
					"sampler":13,
					"target":{
						"node":8,
						"path":"rotation"
					}
				},
				{
					"sampler":14,
					"target":{
						"node":8,
						"path":"scale"
					}
				},
				{
					"sampler":15,
					"target":{
						"node":13,
						"path":"translation"
					}
				},
				{
					"sampler":16,
					"target":{
						"node":13,
						"path":"rotation"
					}
				},
				{
					"sampler":17,
					"target":{
						"node":13,
						"path":"scale"
					}
				},
				{
					"sampler":18,
					"target":{
						"node":15,
						"path":"translation"
					}
				},
				{
					"sampler":19,
					"target":{
						"node":15,
						"path":"rotation"
					}
				},
				{
					"sampler":20,
					"target":{
						"node":15,
						"path":"scale"
					}
				}
			],
			"name":"hurt",
			"samplers":[
				{
					"input":57,
					"interpolation":"STEP",
					"output":36
				},
				{
					"input":57,
					"interpolation":"STEP",
					"output":37
				},
				{
					"input":57,
					"interpolation":"STEP",
					"output":38
				},
				{
					"input":58,
					"interpolation":"LINEAR",
					"output":59
				},
				{
					"input":57,
					"interpolation":"STEP",
					"output":37
				},
				{
					"input":57,
					"interpolation":"STEP",
					"output":38
				},
				{
					"input":57,
					"interpolation":"STEP",
					"output":40
				},
				{
					"input":57,
					"interpolation":"STEP",
					"output":41
				},
				{
					"input":57,
					"interpolation":"STEP",
					"output":42
				},
				{
					"input":57,
					"interpolation":"STEP",
					"output":43
				},
				{
					"input":57,
					"interpolation":"STEP",
					"output":44
				},
				{
					"input":57,
					"interpolation":"STEP",
					"output":42
				},
				{
					"input":57,
					"interpolation":"STEP",
					"output":45
				},
				{
					"input":57,
					"interpolation":"STEP",
					"output":37
				},
				{
					"input":57,
					"interpolation":"STEP",
					"output":38
				},
				{
					"input":57,
					"interpolation":"STEP",
					"output":46
				},
				{
					"input":57,
					"interpolation":"STEP",
					"output":47
				},
				{
					"input":57,
					"interpolation":"STEP",
					"output":38
				},
				{
					"input":57,
					"interpolation":"STEP",
					"output":48
				},
				{
					"input":57,
					"interpolation":"STEP",
					"output":47
				},
				{
					"input":57,
					"interpolation":"STEP",
					"output":38
				}
			]
		},
		{
			"channels":[
				{
					"sampler":0,
					"target":{
						"node":16,
						"path":"translation"
					}
				},
				{
					"sampler":1,
					"target":{
						"node":16,
						"path":"rotation"
					}
				},
				{
					"sampler":2,
					"target":{
						"node":16,
						"path":"scale"
					}
				},
				{
					"sampler":3,
					"target":{
						"node":11,
						"path":"translation"
					}
				},
				{
					"sampler":4,
					"target":{
						"node":11,
						"path":"rotation"
					}
				},
				{
					"sampler":5,
					"target":{
						"node":11,
						"path":"scale"
					}
				},
				{
					"sampler":6,
					"target":{
						"node":1,
						"path":"translation"
					}
				},
				{
					"sampler":7,
					"target":{
						"node":1,
						"path":"rotation"
					}
				},
				{
					"sampler":8,
					"target":{
						"node":1,
						"path":"scale"
					}
				},
				{
					"sampler":9,
					"target":{
						"node":5,
						"path":"translation"
					}
				},
				{
					"sampler":10,
					"target":{
						"node":5,
						"path":"rotation"
					}
				},
				{
					"sampler":11,
					"target":{
						"node":5,
						"path":"scale"
					}
				},
				{
					"sampler":12,
					"target":{
						"node":8,
						"path":"translation"
					}
				},
				{
					"sampler":13,
					"target":{
						"node":8,
						"path":"rotation"
					}
				},
				{
					"sampler":14,
					"target":{
						"node":8,
						"path":"scale"
					}
				},
				{
					"sampler":15,
					"target":{
						"node":13,
						"path":"translation"
					}
				},
				{
					"sampler":16,
					"target":{
						"node":13,
						"path":"rotation"
					}
				},
				{
					"sampler":17,
					"target":{
						"node":13,
						"path":"scale"
					}
				},
				{
					"sampler":18,
					"target":{
						"node":15,
						"path":"translation"
					}
				},
				{
					"sampler":19,
					"target":{
						"node":15,
						"path":"rotation"
					}
				},
				{
					"sampler":20,
					"target":{
						"node":15,
						"path":"scale"
					}
				}
			],
			"name":"idle",
			"samplers":[
				{
					"input":60,
					"interpolation":"LINEAR",
					"output":61
				},
				{
					"input":49,
					"interpolation":"STEP",
					"output":37
				},
				{
					"input":49,
					"interpolation":"STEP",
					"output":38
				},
				{
					"input":60,
					"interpolation":"LINEAR",
					"output":62
				},
				{
					"input":49,
					"interpolation":"STEP",
					"output":37
				},
				{
					"input":49,
					"interpolation":"STEP",
					"output":38
				},
				{
					"input":49,
					"interpolation":"STEP",
					"output":40
				},
				{
					"input":49,
					"interpolation":"STEP",
					"output":41
				},
				{
					"input":49,
					"interpolation":"STEP",
					"output":42
				},
				{
					"input":49,
					"interpolation":"STEP",
					"output":43
				},
				{
					"input":49,
					"interpolation":"STEP",
					"output":44
				},
				{
					"input":49,
					"interpolation":"STEP",
					"output":42
				},
				{
					"input":49,
					"interpolation":"STEP",
					"output":45
				},
				{
					"input":49,
					"interpolation":"STEP",
					"output":37
				},
				{
					"input":49,
					"interpolation":"STEP",
					"output":38
				},
				{
					"input":49,
					"interpolation":"STEP",
					"output":46
				},
				{
					"input":49,
					"interpolation":"STEP",
					"output":47
				},
				{
					"input":49,
					"interpolation":"STEP",
					"output":38
				},
				{
					"input":49,
					"interpolation":"STEP",
					"output":48
				},
				{
					"input":49,
					"interpolation":"STEP",
					"output":47
				},
				{
					"input":49,
					"interpolation":"STEP",
					"output":38
				}
			]
		},
		{
			"channels":[
				{
					"sampler":0,
					"target":{
						"node":16,
						"path":"translation"
					}
				},
				{
					"sampler":1,
					"target":{
						"node":16,
						"path":"rotation"
					}
				},
				{
					"sampler":2,
					"target":{
						"node":16,
						"path":"scale"
					}
				},
				{
					"sampler":3,
					"target":{
						"node":11,
						"path":"translation"
					}
				},
				{
					"sampler":4,
					"target":{
						"node":11,
						"path":"rotation"
					}
				},
				{
					"sampler":5,
					"target":{
						"node":11,
						"path":"scale"
					}
				},
				{
					"sampler":6,
					"target":{
						"node":1,
						"path":"translation"
					}
				},
				{
					"sampler":7,
					"target":{
						"node":1,
						"path":"rotation"
					}
				},
				{
					"sampler":8,
					"target":{
						"node":1,
						"path":"scale"
					}
				},
				{
					"sampler":9,
					"target":{
						"node":5,
						"path":"translation"
					}
				},
				{
					"sampler":10,
					"target":{
						"node":5,
						"path":"rotation"
					}
				},
				{
					"sampler":11,
					"target":{
						"node":5,
						"path":"scale"
					}
				},
				{
					"sampler":12,
					"target":{
						"node":8,
						"path":"translation"
					}
				},
				{
					"sampler":13,
					"target":{
						"node":8,
						"path":"rotation"
					}
				},
				{
					"sampler":14,
					"target":{
						"node":8,
						"path":"scale"
					}
				},
				{
					"sampler":15,
					"target":{
						"node":13,
						"path":"translation"
					}
				},
				{
					"sampler":16,
					"target":{
						"node":13,
						"path":"rotation"
					}
				},
				{
					"sampler":17,
					"target":{
						"node":13,
						"path":"scale"
					}
				},
				{
					"sampler":18,
					"target":{
						"node":15,
						"path":"translation"
					}
				},
				{
					"sampler":19,
					"target":{
						"node":15,
						"path":"rotation"
					}
				},
				{
					"sampler":20,
					"target":{
						"node":15,
						"path":"scale"
					}
				}
			],
			"name":"walk",
			"samplers":[
				{
					"input":49,
					"interpolation":"STEP",
					"output":36
				},
				{
					"input":49,
					"interpolation":"STEP",
					"output":37
				},
				{
					"input":49,
					"interpolation":"STEP",
					"output":38
				},
				{
					"input":49,
					"interpolation":"STEP",
					"output":39
				},
				{
					"input":49,
					"interpolation":"STEP",
					"output":37
				},
				{
					"input":49,
					"interpolation":"STEP",
					"output":38
				},
				{
					"input":49,
					"interpolation":"STEP",
					"output":40
				},
				{
					"input":49,
					"interpolation":"STEP",
					"output":41
				},
				{
					"input":49,
					"interpolation":"STEP",
					"output":42
				},
				{
					"input":49,
					"interpolation":"STEP",
					"output":43
				},
				{
					"input":49,
					"interpolation":"STEP",
					"output":44
				},
				{
					"input":49,
					"interpolation":"STEP",
					"output":42
				},
				{
					"input":49,
					"interpolation":"STEP",
					"output":45
				},
				{
					"input":49,
					"interpolation":"STEP",
					"output":37
				},
				{
					"input":49,
					"interpolation":"STEP",
					"output":38
				},
				{
					"input":49,
					"interpolation":"STEP",
					"output":46
				},
				{
					"input":49,
					"interpolation":"STEP",
					"output":47
				},
				{
					"input":49,
					"interpolation":"STEP",
					"output":38
				},
				{
					"input":49,
					"interpolation":"STEP",
					"output":48
				},
				{
					"input":49,
					"interpolation":"STEP",
					"output":47
				},
				{
					"input":49,
					"interpolation":"STEP",
					"output":38
				}
			]
		}
	],
	"materials":[
		{
			"doubleSided":true,
			"name":"WandererArmor",
			"pbrMetallicRoughness":{
				"baseColorFactor":[
					0.15000000596046448,
					0.1599999964237213,
					0.20000000298023224,
					1
				],
				"metallicFactor":0.699999988079071,
				"roughnessFactor":0.6000000238418579
			}
		},
		{
			"doubleSided":true,
			"emissiveFactor":[
				1,
				0.25,
				0.25
			],
			"extensions":{
				"KHR_materials_emissive_strength":{
					"emissiveStrength":1.2000000178813934
				}
			},
			"name":"CursedBlade",
			"pbrMetallicRoughness":{
				"baseColorFactor":[
					0.699999988079071,
					0.75,
					0.8199999928474426,
					1
				],
				"metallicFactor":0.8999999761581421,
				"roughnessFactor":0.30000001192092896
			}
		},
		{
			"doubleSided":true,
			"emissiveFactor":[
				0.20000000298023224,
				0.8500000238418579,
				1
			],
			"extensions":{
				"KHR_materials_emissive_strength":{
					"emissiveStrength":5
				}
			},
			"name":"SoulGlow",
			"pbrMetallicRoughness":{
				"baseColorFactor":[
					0.20000000298023224,
					0.8500000238418579,
					1,
					1
				],
				"metallicFactor":0.10000000149011612,
				"roughnessFactor":0.699999988079071
			}
		},
		{
			"doubleSided":true,
			"name":"TatteredCloak",
			"pbrMetallicRoughness":{
				"baseColorFactor":[
					0.07999999821186066,
					0.07000000029802322,
					0.10000000149011612,
					1
				],
				"metallicFactor":0.10000000149011612,
				"roughnessFactor":0.8999999761581421
			}
		}
	],
	"meshes":[
		{
			"name":"Cone",
			"primitives":[
				{
					"attributes":{
						"POSITION":0,
						"NORMAL":1,
						"TEXCOORD_0":2
					},
					"indices":3,
					"material":0
				}
			]
		},
		{
			"name":"Cone.001",
			"primitives":[
				{
					"attributes":{
						"POSITION":4,
						"NORMAL":5,
						"TEXCOORD_0":6
					},
					"indices":3,
					"material":0
				}
			]
		},
		{
			"name":"Cube.002",
			"primitives":[
				{
					"attributes":{
						"POSITION":7,
						"NORMAL":8,
						"TEXCOORD_0":9
					},
					"indices":10,
					"material":1
				}
			]
		},
		{
			"name":"Cube.003",
			"primitives":[
				{
					"attributes":{
						"POSITION":11,
						"NORMAL":12,
						"TEXCOORD_0":13
					},
					"indices":10,
					"material":0
				}
			]
		},
		{
			"name":"Cube.001",
			"primitives":[
				{
					"attributes":{
						"POSITION":14,
						"NORMAL":15,
						"TEXCOORD_0":16
					},
					"indices":10,
					"material":2
				}
			]
		},
		{
			"name":"Sphere",
			"primitives":[
				{
					"attributes":{
						"POSITION":17,
						"NORMAL":18,
						"TEXCOORD_0":19
					},
					"indices":20,
					"material":0
				}
			]
		},
		{
			"name":"Cube",
			"primitives":[
				{
					"attributes":{
						"POSITION":21,
						"NORMAL":22,
						"TEXCOORD_0":23
					},
					"indices":10,
					"material":0
				}
			]
		},
		{
			"name":"Plane",
			"primitives":[
				{
					"attributes":{
						"POSITION":24,
						"NORMAL":25,
						"TEXCOORD_0":26
					},
					"indices":27,
					"material":3
				}
			]
		},
		{
			"name":"Cylinder",
			"primitives":[
				{
					"attributes":{
						"POSITION":28,
						"NORMAL":29,
						"TEXCOORD_0":30
					},
					"indices":31,
					"material":0
				}
			]
		},
		{
			"name":"Cylinder.001",
			"primitives":[
				{
					"attributes":{
						"POSITION":32,
						"NORMAL":33,
						"TEXCOORD_0":34
					},
					"indices":31,
					"material":0
				}
			]
		}
	],
	"skins":[
		{
			"inverseBindMatrices":63,
			"joints":[
				16,
				11,
				1,
				5,
				8,
				13,
				15
			],
			"name":"HeroRig"
		}
	],
	"accessors":[
		{
			"bufferView":0,
			"componentType":5126,
			"count":128,
			"max":[
				0.20000000298023224,
				0.17499999701976776,
				0.20000000298023224
			],
			"min":[
				-0.20000000298023224,
				-0.17499999701976776,
				-0.20000000298023224
			],
			"type":"VEC3"
		},
		{
			"bufferView":1,
			"componentType":5126,
			"count":128,
			"type":"VEC3"
		},
		{
			"bufferView":2,
			"componentType":5126,
			"count":128,
			"type":"VEC2"
		},
		{
			"bufferView":3,
			"componentType":5123,
			"count":186,
			"type":"SCALAR"
		},
		{
			"bufferView":4,
			"componentType":5126,
			"count":128,
			"max":[
				0.20000000298023224,
				0.17499999701976776,
				0.20000000298023224
			],
			"min":[
				-0.20000000298023224,
				-0.17499999701976776,
				-0.20000000298023224
			],
			"type":"VEC3"
		},
		{
			"bufferView":5,
			"componentType":5126,
			"count":128,
			"type":"VEC3"
		},
		{
			"bufferView":6,
			"componentType":5126,
			"count":128,
			"type":"VEC2"
		},
		{
			"bufferView":7,
			"componentType":5126,
			"count":24,
			"max":[
				0.05000000074505806,
				0.05000000074505806,
				0.05000000074505806
			],
			"min":[
				-0.05000000074505806,
				-0.05000000074505806,
				-0.05000000074505806
			],
			"type":"VEC3"
		},
		{
			"bufferView":8,
			"componentType":5126,
			"count":24,
			"type":"VEC3"
		},
		{
			"bufferView":9,
			"componentType":5126,
			"count":24,
			"type":"VEC2"
		},
		{
			"bufferView":10,
			"componentType":5123,
			"count":36,
			"type":"SCALAR"
		},
		{
			"bufferView":11,
			"componentType":5126,
			"count":24,
			"max":[
				0.05000000074505806,
				0.05000000074505806,
				0.05000000074505806
			],
			"min":[
				-0.05000000074505806,
				-0.05000000074505806,
				-0.05000000074505806
			],
			"type":"VEC3"
		},
		{
			"bufferView":12,
			"componentType":5126,
			"count":24,
			"type":"VEC3"
		},
		{
			"bufferView":13,
			"componentType":5126,
			"count":24,
			"type":"VEC2"
		},
		{
			"bufferView":14,
			"componentType":5126,
			"count":24,
			"max":[
				0.05000000074505806,
				0.05000000074505806,
				0.05000000074505806
			],
			"min":[
				-0.05000000074505806,
				-0.05000000074505806,
				-0.05000000074505806
			],
			"type":"VEC3"
		},
		{
			"bufferView":15,
			"componentType":5126,
			"count":24,
			"type":"VEC3"
		},
		{
			"bufferView":16,
			"componentType":5126,
			"count":24,
			"type":"VEC2"
		},
		{
			"bufferView":17,
			"componentType":5126,
			"count":1984,
			"max":[
				0.24999992549419403,
				0.25,
				0.24999983608722687
			],
			"min":[
				-0.2499997615814209,
				-0.25,
				-0.25
			],
			"type":"VEC3"
		},
		{
			"bufferView":18,
			"componentType":5126,
			"count":1984,
			"type":"VEC3"
		},
		{
			"bufferView":19,
			"componentType":5126,
			"count":1984,
			"type":"VEC2"
		},
		{
			"bufferView":20,
			"componentType":5123,
			"count":2880,
			"type":"SCALAR"
		},
		{
			"bufferView":21,
			"componentType":5126,
			"count":24,
			"max":[
				0.25,
				0.25,
				0.25
			],
			"min":[
				-0.25,
				-0.25,
				-0.25
			],
			"type":"VEC3"
		},
		{
			"bufferView":22,
			"componentType":5126,
			"count":24,
			"type":"VEC3"
		},
		{
			"bufferView":23,
			"componentType":5126,
			"count":24,
			"type":"VEC2"
		},
		{
			"bufferView":24,
			"componentType":5126,
			"count":4,
			"max":[
				0.4000000059604645,
				0,
				0.4000000059604645
			],
			"min":[
				-0.4000000059604645,
				0,
				-0.4000000059604645
			],
			"type":"VEC3"
		},
		{
			"bufferView":25,
			"componentType":5126,
			"count":4,
			"type":"VEC3"
		},
		{
			"bufferView":26,
			"componentType":5126,
			"count":4,
			"type":"VEC2"
		},
		{
			"bufferView":27,
			"componentType":5123,
			"count":6,
			"type":"SCALAR"
		},
		{
			"bufferView":28,
			"componentType":5126,
			"count":192,
			"max":[
				0.11999999731779099,
				0.4000000059604645,
				0.11999999731779099
			],
			"min":[
				-0.11999999731779099,
				-0.4000000059604645,
				-0.11999999731779099
			],
			"type":"VEC3"
		},
		{
			"bufferView":29,
			"componentType":5126,
			"count":192,
			"type":"VEC3"
		},
		{
			"bufferView":30,
			"componentType":5126,
			"count":192,
			"type":"VEC2"
		},
		{
			"bufferView":31,
			"componentType":5123,
			"count":372,
			"type":"SCALAR"
		},
		{
			"bufferView":32,
			"componentType":5126,
			"count":192,
			"max":[
				0.11999999731779099,
				0.4000000059604645,
				0.11999999731779099
			],
			"min":[
				-0.11999999731779099,
				-0.4000000059604645,
				-0.11999999731779099
			],
			"type":"VEC3"
		},
		{
			"bufferView":33,
			"componentType":5126,
			"count":192,
			"type":"VEC3"
		},
		{
			"bufferView":34,
			"componentType":5126,
			"count":192,
			"type":"VEC2"
		},
		{
			"bufferView":35,
			"componentType":5126,
			"count":2,
			"max":[
				1
			],
			"min":[
				0.041666666666666664
			],
			"type":"SCALAR"
		},
		{
			"bufferView":36,
			"componentType":5126,
			"count":2,
			"type":"VEC3"
		},
		{
			"bufferView":37,
			"componentType":5126,
			"count":2,
			"type":"VEC4"
		},
		{
			"bufferView":38,
			"componentType":5126,
			"count":2,
			"type":"VEC3"
		},
		{
			"bufferView":39,
			"componentType":5126,
			"count":2,
			"type":"VEC3"
		},
		{
			"bufferView":40,
			"componentType":5126,
			"count":2,
			"type":"VEC3"
		},
		{
			"bufferView":41,
			"componentType":5126,
			"count":2,
			"type":"VEC4"
		},
		{
			"bufferView":42,
			"componentType":5126,
			"count":2,
			"type":"VEC3"
		},
		{
			"bufferView":43,
			"componentType":5126,
			"count":2,
			"type":"VEC3"
		},
		{
			"bufferView":44,
			"componentType":5126,
			"count":2,
			"type":"VEC4"
		},
		{
			"bufferView":45,
			"componentType":5126,
			"count":2,
			"type":"VEC3"
		},
		{
			"bufferView":46,
			"componentType":5126,
			"count":2,
			"type":"VEC3"
		},
		{
			"bufferView":47,
			"componentType":5126,
			"count":2,
			"type":"VEC4"
		},
		{
			"bufferView":48,
			"componentType":5126,
			"count":2,
			"type":"VEC3"
		},
		{
			"bufferView":49,
			"componentType":5126,
			"count":2,
			"max":[
				1.25
			],
			"min":[
				0.041666666666666664
			],
			"type":"SCALAR"
		},
		{
			"bufferView":50,
			"componentType":5126,
			"count":25,
			"max":[
				1.0416666666666667
			],
			"min":[
				0.041666666666666664
			],
			"type":"SCALAR"
		},
		{
			"bufferView":51,
			"componentType":5126,
			"count":25,
			"type":"VEC3"
		},
		{
			"bufferView":52,
			"componentType":5126,
			"count":2,
			"max":[
				1.0416666666666667
			],
			"min":[
				0.041666666666666664
			],
			"type":"SCALAR"
		},
		{
			"bufferView":53,
			"componentType":5126,
			"count":2,
			"type":"VEC3"
		},
		{
			"bufferView":54,
			"componentType":5126,
			"count":2,
			"type":"VEC3"
		},
		{
			"bufferView":55,
			"componentType":5126,
			"count":2,
			"type":"VEC3"
		},
		{
			"bufferView":56,
			"componentType":5126,
			"count":2,
			"type":"VEC3"
		},
		{
			"bufferView":57,
			"componentType":5126,
			"count":2,
			"max":[
				0.6666666666666666
			],
			"min":[
				0.041666666666666664
			],
			"type":"SCALAR"
		},
		{
			"bufferView":58,
			"componentType":5126,
			"count":16,
			"max":[
				0.6666666666666666
			],
			"min":[
				0.041666666666666664
			],
			"type":"SCALAR"
		},
		{
			"bufferView":59,
			"componentType":5126,
			"count":16,
			"type":"VEC3"
		},
		{
			"bufferView":60,
			"componentType":5126,
			"count":30,
			"max":[
				1.25
			],
			"min":[
				0.041666666666666664
			],
			"type":"SCALAR"
		},
		{
			"bufferView":61,
			"componentType":5126,
			"count":30,
			"type":"VEC3"
		},
		{
			"bufferView":62,
			"componentType":5126,
			"count":30,
			"type":"VEC3"
		},
		{
			"bufferView":63,
			"componentType":5126,
			"count":7,
			"type":"MAT4"
		}
	],
	"bufferViews":[
		{
			"buffer":0,
			"byteLength":1536,
			"byteOffset":0,
			"target":34962
		},
		{
			"buffer":0,
			"byteLength":1536,
			"byteOffset":1536,
			"target":34962
		},
		{
			"buffer":0,
			"byteLength":1024,
			"byteOffset":3072,
			"target":34962
		},
		{
			"buffer":0,
			"byteLength":372,
			"byteOffset":4096,
			"target":34963
		},
		{
			"buffer":0,
			"byteLength":1536,
			"byteOffset":4468,
			"target":34962
		},
		{
			"buffer":0,
			"byteLength":1536,
			"byteOffset":6004,
			"target":34962
		},
		{
			"buffer":0,
			"byteLength":1024,
			"byteOffset":7540,
			"target":34962
		},
		{
			"buffer":0,
			"byteLength":288,
			"byteOffset":8564,
			"target":34962
		},
		{
			"buffer":0,
			"byteLength":288,
			"byteOffset":8852,
			"target":34962
		},
		{
			"buffer":0,
			"byteLength":192,
			"byteOffset":9140,
			"target":34962
		},
		{
			"buffer":0,
			"byteLength":72,
			"byteOffset":9332,
			"target":34963
		},
		{
			"buffer":0,
			"byteLength":288,
			"byteOffset":9404,
			"target":34962
		},
		{
			"buffer":0,
			"byteLength":288,
			"byteOffset":9692,
			"target":34962
		},
		{
			"buffer":0,
			"byteLength":192,
			"byteOffset":9980,
			"target":34962
		},
		{
			"buffer":0,
			"byteLength":288,
			"byteOffset":10172,
			"target":34962
		},
		{
			"buffer":0,
			"byteLength":288,
			"byteOffset":10460,
			"target":34962
		},
		{
			"buffer":0,
			"byteLength":192,
			"byteOffset":10748,
			"target":34962
		},
		{
			"buffer":0,
			"byteLength":23808,
			"byteOffset":10940,
			"target":34962
		},
		{
			"buffer":0,
			"byteLength":23808,
			"byteOffset":34748,
			"target":34962
		},
		{
			"buffer":0,
			"byteLength":15872,
			"byteOffset":58556,
			"target":34962
		},
		{
			"buffer":0,
			"byteLength":5760,
			"byteOffset":74428,
			"target":34963
		},
		{
			"buffer":0,
			"byteLength":288,
			"byteOffset":80188,
			"target":34962
		},
		{
			"buffer":0,
			"byteLength":288,
			"byteOffset":80476,
			"target":34962
		},
		{
			"buffer":0,
			"byteLength":192,
			"byteOffset":80764,
			"target":34962
		},
		{
			"buffer":0,
			"byteLength":48,
			"byteOffset":80956,
			"target":34962
		},
		{
			"buffer":0,
			"byteLength":48,
			"byteOffset":81004,
			"target":34962
		},
		{
			"buffer":0,
			"byteLength":32,
			"byteOffset":81052,
			"target":34962
		},
		{
			"buffer":0,
			"byteLength":12,
			"byteOffset":81084,
			"target":34963
		},
		{
			"buffer":0,
			"byteLength":2304,
			"byteOffset":81096,
			"target":34962
		},
		{
			"buffer":0,
			"byteLength":2304,
			"byteOffset":83400,
			"target":34962
		},
		{
			"buffer":0,
			"byteLength":1536,
			"byteOffset":85704,
			"target":34962
		},
		{
			"buffer":0,
			"byteLength":744,
			"byteOffset":87240,
			"target":34963
		},
		{
			"buffer":0,
			"byteLength":2304,
			"byteOffset":87984,
			"target":34962
		},
		{
			"buffer":0,
			"byteLength":2304,
			"byteOffset":90288,
			"target":34962
		},
		{
			"buffer":0,
			"byteLength":1536,
			"byteOffset":92592,
			"target":34962
		},
		{
			"buffer":0,
			"byteLength":8,
			"byteOffset":94128
		},
		{
			"buffer":0,
			"byteLength":24,
			"byteOffset":94136
		},
		{
			"buffer":0,
			"byteLength":32,
			"byteOffset":94160
		},
		{
			"buffer":0,
			"byteLength":24,
			"byteOffset":94192
		},
		{
			"buffer":0,
			"byteLength":24,
			"byteOffset":94216
		},
		{
			"buffer":0,
			"byteLength":24,
			"byteOffset":94240
		},
		{
			"buffer":0,
			"byteLength":32,
			"byteOffset":94264
		},
		{
			"buffer":0,
			"byteLength":24,
			"byteOffset":94296
		},
		{
			"buffer":0,
			"byteLength":24,
			"byteOffset":94320
		},
		{
			"buffer":0,
			"byteLength":32,
			"byteOffset":94344
		},
		{
			"buffer":0,
			"byteLength":24,
			"byteOffset":94376
		},
		{
			"buffer":0,
			"byteLength":24,
			"byteOffset":94400
		},
		{
			"buffer":0,
			"byteLength":32,
			"byteOffset":94424
		},
		{
			"buffer":0,
			"byteLength":24,
			"byteOffset":94456
		},
		{
			"buffer":0,
			"byteLength":8,
			"byteOffset":94480
		},
		{
			"buffer":0,
			"byteLength":100,
			"byteOffset":94488
		},
		{
			"buffer":0,
			"byteLength":300,
			"byteOffset":94588
		},
		{
			"buffer":0,
			"byteLength":8,
			"byteOffset":94888
		},
		{
			"buffer":0,
			"byteLength":24,
			"byteOffset":94896
		},
		{
			"buffer":0,
			"byteLength":24,
			"byteOffset":94920
		},
		{
			"buffer":0,
			"byteLength":24,
			"byteOffset":94944
		},
		{
			"buffer":0,
			"byteLength":24,
			"byteOffset":94968
		},
		{
			"buffer":0,
			"byteLength":8,
			"byteOffset":94992
		},
		{
			"buffer":0,
			"byteLength":64,
			"byteOffset":95000
		},
		{
			"buffer":0,
			"byteLength":192,
			"byteOffset":95064
		},
		{
			"buffer":0,
			"byteLength":120,
			"byteOffset":95256
		},
		{
			"buffer":0,
			"byteLength":360,
			"byteOffset":95376
		},
		{
			"buffer":0,
			"byteLength":360,
			"byteOffset":95736
		},
		{
			"buffer":0,
			"byteLength":448,
			"byteOffset":96096
		}
	],
	"buffers":[
		{
			"byteLength":96544,
			"uri":"hero_wanderer.bin"
		}
	]
}
