{
	"asset":{
		"generator":"Khronos glTF Blender I/O v5.2.40",
		"version":"2.0"
	},
	"extensionsUsed":[
		"KHR_materials_emissive_strength"
	],
	"scene":0,
	"scenes":[
		{
			"name":"Scene",
			"nodes":[
				0,
				1,
				2,
				3,
				4,
				5,
				6,
				7,
				8,
				9,
				10,
				11,
				12,
				13
			]
		}
	],
	"nodes":[
		{
			"mesh":0,
			"name":"Cylinder",
			"translation":[
				0,
				0.07999999821186066,
				0
			]
		},
		{
			"mesh":1,
			"name":"Cylinder.001",
			"rotation":[
				0.08729347586631775,
				0.14087708294391632,
				-0.08859517425298691,
				0.9821834564208984
			],
			"translation":[
				0,
				0.20000000298023224,
				0
			]
		},
		{
			"mesh":2,
			"name":"Cylinder.002",
			"rotation":[
				0.0341324508190155,
				0.5945151448249817,
				-0.119600310921669,
				0.7944070100784302
			],
			"translation":[
				0,
				0.20000000298023224,
				0
			]
		},
		{
			"mesh":3,
			"name":"Cylinder.003",
			"rotation":[
				-0.0334148108959198,
				0.9220651388168335,
				-0.1198028028011322,
				0.36650601029396057
			],
			"translation":[
				0,
				0.20000000298023224,
				0
			]
		},
		{
			"mesh":4,
			"name":"Sphere",
			"translation":[
				0.75,
				0.10000000149011612,
				0
			]
		},
		{
			"mesh":5,
			"name":"Sphere.001",
			"translation":[
				0.6067627668380737,
				0.10000000149011612,
				-0.44083893299102783
			]
		},
		{
			"mesh":6,
			"name":"Sphere.002",
			"translation":[
				0.23176275193691254,
				0.10000000149011612,
				-0.7132923603057861
			]
		},
		{
			"mesh":7,
			"name":"Sphere.003",
			"translation":[
				-0.23176275193691254,
				0.10000000149011612,
				-0.7132923603057861
			]
		},
		{
			"mesh":8,
			"name":"Sphere.004",
			"translation":[
				-0.6067627668380737,
				0.10000000149011612,
				-0.44083893299102783
			]
		},
		{
			"mesh":9,
			"name":"Sphere.005",
			"translation":[
				-0.75,
				0.10000000149011612,
				0
			]
		},
		{
			"mesh":10,
			"name":"Sphere.006",
			"translation":[
				-0.6067627668380737,
				0.10000000149011612,
				0.44083893299102783
			]
		},
		{
			"mesh":11,
			"name":"Sphere.007",
			"translation":[
				-0.23176275193691254,
				0.10000000149011612,
				0.7132923603057861
			]
		},
		{
			"mesh":12,
			"name":"Sphere.008",
			"translation":[
				0.23176275193691254,
				0.10000000149011612,
				0.7132923603057861
			]
		},
		{
			"mesh":13,
			"name":"Sphere.009",
			"translation":[
				0.6067627668380737,
				0.10000000149011612,
				0.44083893299102783
			]
		}
	],
	"materials":[
		{
			"doubleSided":true,
			"emissiveFactor":[
				1,
				0.4000000059604645,
				0.05000000074505806
			],
			"extensions":{
				"KHR_materials_emissive_strength":{
					"emissiveStrength":7
				}
			},
			"name":"GlowingEmbers",
			"pbrMetallicRoughness":{
				"baseColorFactor":[
					1,
					0.4000000059604645,
					0.05000000074505806,
					1
				],
				"metallicFactor":0.10000000149011612,
				"roughnessFactor":0.699999988079071
			}
		},
		{
			"doubleSided":true,
			"name":"CharredWood",
			"pbrMetallicRoughness":{
				"baseColorFactor":[
					0.11999999731779099,
					0.07999999821186066,
					0.05000000074505806,
					1
				],
				"metallicFactor":0.10000000149011612,
				"roughnessFactor":0.949999988079071
			}
		},
		{
			"doubleSided":true,
			"name":"CampStone",
			"pbrMetallicRoughness":{
				"baseColorFactor":[
					0.30000001192092896,
					0.2800000011920929,
					0.2800000011920929,
					1
				],
				"metallicFactor":0.10000000149011612,
				"roughnessFactor":0.8999999761581421
			}
		}
	],
	"meshes":[
		{
			"name":"Cylinder",
			"primitives":[
				{
					"attributes":{
						"POSITION":0,
						"NORMAL":1,
						"TEXCOORD_0":2
					},
					"indices":3,
					"material":0
				}
			]
		},
		{
			"name":"Cylinder.001",
			"primitives":[
				{
					"attributes":{
						"POSITION":4,
						"NORMAL":5,
						"TEXCOORD_0":6
					},
					"indices":3,
					"material":1
				}
			]
		},
		{
			"name":"Cylinder.002",
			"primitives":[
				{
					"attributes":{
						"POSITION":7,
						"NORMAL":8,
						"TEXCOORD_0":9
					},
					"indices":3,
					"material":1
				}
			]
		},
		{
			"name":"Cylinder.003",
			"primitives":[
				{
					"attributes":{
						"POSITION":10,
						"NORMAL":11,
						"TEXCOORD_0":12
					},
					"indices":3,
					"material":1
				}
			]
		},
		{
			"name":"Sphere",
			"primitives":[
				{
					"attributes":{
						"POSITION":13,
						"NORMAL":14,
						"TEXCOORD_0":15
					},
					"indices":16,
					"material":2
				}
			]
		},
		{
			"name":"Sphere.001",
			"primitives":[
				{
					"attributes":{
						"POSITION":17,
						"NORMAL":18,
						"TEXCOORD_0":19
					},
					"indices":20,
					"material":2
				}
			]
		},
		{
			"name":"Sphere.002",
			"primitives":[
				{
					"attributes":{
						"POSITION":21,
						"NORMAL":22,
						"TEXCOORD_0":23
					},
					"indices":24,
					"material":2
				}
			]
		},
		{
			"name":"Sphere.003",
			"primitives":[
				{
					"attributes":{
						"POSITION":25,
						"NORMAL":26,
						"TEXCOORD_0":27
					},
					"indices":28,
					"material":2
				}
			]
		},
		{
			"name":"Sphere.004",
			"primitives":[
				{
					"attributes":{
						"POSITION":29,
						"NORMAL":30,
						"TEXCOORD_0":31
					},
					"indices":32,
					"material":2
				}
			]
		},
		{
			"name":"Sphere.005",
			"primitives":[
				{
					"attributes":{
						"POSITION":33,
						"NORMAL":34,
						"TEXCOORD_0":35
					},
					"indices":36,
					"material":2
				}
			]
		},
		{
			"name":"Sphere.006",
			"primitives":[
				{
					"attributes":{
						"POSITION":37,
						"NORMAL":38,
						"TEXCOORD_0":39
					},
					"indices":40,
					"material":2
				}
			]
		},
		{
			"name":"Sphere.007",
			"primitives":[
				{
					"attributes":{
						"POSITION":41,
						"NORMAL":42,
						"TEXCOORD_0":43
					},
					"indices":44,
					"material":2
				}
			]
		},
		{
			"name":"Sphere.008",
			"primitives":[
				{
					"attributes":{
						"POSITION":45,
						"NORMAL":46,
						"TEXCOORD_0":47
					},
					"indices":48,
					"material":2
				}
			]
		},
		{
			"name":"Sphere.009",
			"primitives":[
				{
					"attributes":{
						"POSITION":49,
						"NORMAL":50,
						"TEXCOORD_0":51
					},
					"indices":52,
					"material":2
				}
			]
		}
	],
	"accessors":[
		{
			"bufferView":0,
			"componentType":5126,
			"count":192,
			"max":[
				0.6000000238418579,
				0.05000000074505806,
				0.6000000238418579
			],
			"min":[
				-0.6000000238418579,
				-0.05000000074505806,
				-0.6000000238418579
			],
			"type":"VEC3"
		},
		{
			"bufferView":1,
			"componentType":5126,
			"count":192,
			"type":"VEC3"
		},
		{
			"bufferView":2,
			"componentType":5126,
			"count":192,
			"type":"VEC2"
		},
		{
			"bufferView":3,
			"componentType":5123,
			"count":372,
			"type":"SCALAR"
		},
		{
			"bufferView":4,
			"componentType":5126,
			"count":192,
			"max":[
				0.09000000357627869,
				0.550000011920929,
				0.09000000357627869
			],
			"min":[
				-0.09000000357627869,
				-0.550000011920929,
				-0.09000000357627869
			],
			"type":"VEC3"
		},
		{
			"bufferView":5,
			"componentType":5126,
			"count":192,
			"type":"VEC3"
		},
		{
			"bufferView":6,
			"componentType":5126,
			"count":192,
			"type":"VEC2"
		},
		{
			"bufferView":7,
			"componentType":5126,
			"count":192,
			"max":[
				0.09000000357627869,
				0.550000011920929,
				0.09000000357627869
			],
			"min":[
				-0.09000000357627869,
				-0.550000011920929,
				-0.09000000357627869
			],
			"type":"VEC3"
		},
		{
			"bufferView":8,
			"componentType":5126,
			"count":192,
			"type":"VEC3"
		},
		{
			"bufferView":9,
			"componentType":5126,
			"count":192,
			"type":"VEC2"
		},
		{
			"bufferView":10,
			"componentType":5126,
			"count":192,
			"max":[
				0.09000000357627869,
				0.550000011920929,
				0.09000000357627869
			],
			"min":[
				-0.09000000357627869,
				-0.550000011920929,
				-0.09000000357627869
			],
			"type":"VEC3"
		},
		{
			"bufferView":11,
			"componentType":5126,
			"count":192,
			"type":"VEC3"
		},
		{
			"bufferView":12,
			"componentType":5126,
			"count":192,
			"type":"VEC2"
		},
		{
			"bufferView":13,
			"componentType":5126,
			"count":1984,
			"max":[
				0.17999997735023499,
				0.18000000715255737,
				0.1799999624490738
			],
			"min":[
				-0.1799999624490738,
				-0.18000000715255737,
				-0.18000000715255737
			],
			"type":"VEC3"
		},
		{
			"bufferView":14,
			"componentType":5126,
			"count":1984,
			"type":"VEC3"
		},
		{
			"bufferView":15,
			"componentType":5126,
			"count":1984,
			"type":"VEC2"
		},
		{
			"bufferView":16,
			"componentType":5123,
			"count":2880,
			"type":"SCALAR"
		},
		{
			"bufferView":17,
			"componentType":5126,
			"count":1984,
			"max":[
				0.17999997735023499,
				0.18000000715255737,
				0.1799999624490738
			],
			"min":[
				-0.1799999624490738,
				-0.18000000715255737,
				-0.18000000715255737
			],
			"type":"VEC3"
		},
		{
			"bufferView":18,
			"componentType":5126,
			"count":1984,
			"type":"VEC3"
		},
		{
			"bufferView":19,
			"componentType":5126,
			"count":1984,
			"type":"VEC2"
		},
		{
			"bufferView":20,
			"componentType":5123,
			"count":2880,
			"type":"SCALAR"
		},
		{
			"bufferView":21,
			"componentType":5126,
			"count":1984,
			"max":[
				0.17999997735023499,
				0.18000000715255737,
				0.1799999624490738
			],
			"min":[
				-0.1799999624490738,
				-0.18000000715255737,
				-0.18000000715255737
			],
			"type":"VEC3"
		},
		{
			"bufferView":22,
			"componentType":5126,
			"count":1984,
			"type":"VEC3"
		},
		{
			"bufferView":23,
			"componentType":5126,
			"count":1984,
			"type":"VEC2"
		},
		{
			"bufferView":24,
			"componentType":5123,
			"count":2880,
			"type":"SCALAR"
		},
		{
			"bufferView":25,
			"componentType":5126,
			"count":1984,
			"max":[
				0.17999997735023499,
				0.18000000715255737,
				0.1799999624490738
			],
			"min":[
				-0.1799999624490738,
				-0.18000000715255737,
				-0.18000000715255737
			],
			"type":"VEC3"
		},
		{
			"bufferView":26,
			"componentType":5126,
			"count":1984,
			"type":"VEC3"
		},
		{
			"bufferView":27,
			"componentType":5126,
			"count":1984,
			"type":"VEC2"
		},
		{
			"bufferView":28,
			"componentType":5123,
			"count":2880,
			"type":"SCALAR"
		},
		{
			"bufferView":29,
			"componentType":5126,
			"count":1984,
			"max":[
				0.17999997735023499,
				0.18000000715255737,
				0.1799999624490738
			],
			"min":[
				-0.1799999624490738,
				-0.18000000715255737,
				-0.18000000715255737
			],
			"type":"VEC3"
		},
		{
			"bufferView":30,
			"componentType":5126,
			"count":1984,
			"type":"VEC3"
		},
		{
			"bufferView":31,
			"componentType":5126,
			"count":1984,
			"type":"VEC2"
		},
		{
			"bufferView":32,
			"componentType":5123,
			"count":2880,
			"type":"SCALAR"
		},
		{
			"bufferView":33,
			"componentType":5126,
			"count":1984,
			"max":[
				0.17999997735023499,
				0.18000000715255737,
				0.1799999624490738
			],
			"min":[
				-0.1799999624490738,
				-0.18000000715255737,
				-0.18000000715255737
			],
			"type":"VEC3"
		},
		{
			"bufferView":34,
			"componentType":5126,
			"count":1984,
			"type":"VEC3"
		},
		{
			"bufferView":35,
			"componentType":5126,
			"count":1984,
			"type":"VEC2"
		},
		{
			"bufferView":36,
			"componentType":5123,
			"count":2880,
			"type":"SCALAR"
		},
		{
			"bufferView":37,
			"componentType":5126,
			"count":1984,
			"max":[
				0.17999997735023499,
				0.18000000715255737,
				0.1799999624490738
			],
			"min":[
				-0.1799999624490738,
				-0.18000000715255737,
				-0.18000000715255737
			],
			"type":"VEC3"
		},
		{
			"bufferView":38,
			"componentType":5126,
			"count":1984,
			"type":"VEC3"
		},
		{
			"bufferView":39,
			"componentType":5126,
			"count":1984,
			"type":"VEC2"
		},
		{
			"bufferView":40,
			"componentType":5123,
			"count":2880,
			"type":"SCALAR"
		},
		{
			"bufferView":41,
			"componentType":5126,
			"count":1984,
			"max":[
				0.17999997735023499,
				0.18000000715255737,
				0.1799999624490738
			],
			"min":[
				-0.1799999624490738,
				-0.18000000715255737,
				-0.18000000715255737
			],
			"type":"VEC3"
		},
		{
			"bufferView":42,
			"componentType":5126,
			"count":1984,
			"type":"VEC3"
		},
		{
			"bufferView":43,
			"componentType":5126,
			"count":1984,
			"type":"VEC2"
		},
		{
			"bufferView":44,
			"componentType":5123,
			"count":2880,
			"type":"SCALAR"
		},
		{
			"bufferView":45,
			"componentType":5126,
			"count":1984,
			"max":[
				0.17999997735023499,
				0.18000000715255737,
				0.1799999624490738
			],
			"min":[
				-0.1799999624490738,
				-0.18000000715255737,
				-0.18000000715255737
			],
			"type":"VEC3"
		},
		{
			"bufferView":46,
			"componentType":5126,
			"count":1984,
			"type":"VEC3"
		},
		{
			"bufferView":47,
			"componentType":5126,
			"count":1984,
			"type":"VEC2"
		},
		{
			"bufferView":48,
			"componentType":5123,
			"count":2880,
			"type":"SCALAR"
		},
		{
			"bufferView":49,
			"componentType":5126,
			"count":1984,
			"max":[
				0.17999997735023499,
				0.18000000715255737,
				0.1799999624490738
			],
			"min":[
				-0.1799999624490738,
				-0.18000000715255737,
				-0.18000000715255737
			],
			"type":"VEC3"
		},
		{
			"bufferView":50,
			"componentType":5126,
			"count":1984,
			"type":"VEC3"
		},
		{
			"bufferView":51,
			"componentType":5126,
			"count":1984,
			"type":"VEC2"
		},
		{
			"bufferView":52,
			"componentType":5123,
			"count":2880,
			"type":"SCALAR"
		}
	],
	"bufferViews":[
		{
			"buffer":0,
			"byteLength":2304,
			"byteOffset":0,
			"target":34962
		},
		{
			"buffer":0,
			"byteLength":2304,
			"byteOffset":2304,
			"target":34962
		},
		{
			"buffer":0,
			"byteLength":1536,
			"byteOffset":4608,
			"target":34962
		},
		{
			"buffer":0,
			"byteLength":744,
			"byteOffset":6144,
			"target":34963
		},
		{
			"buffer":0,
			"byteLength":2304,
			"byteOffset":6888,
			"target":34962
		},
		{
			"buffer":0,
			"byteLength":2304,
			"byteOffset":9192,
			"target":34962
		},
		{
			"buffer":0,
			"byteLength":1536,
			"byteOffset":11496,
			"target":34962
		},
		{
			"buffer":0,
			"byteLength":2304,
			"byteOffset":13032,
			"target":34962
		},
		{
			"buffer":0,
			"byteLength":2304,
			"byteOffset":15336,
			"target":34962
		},
		{
			"buffer":0,
			"byteLength":1536,
			"byteOffset":17640,
			"target":34962
		},
		{
			"buffer":0,
			"byteLength":2304,
			"byteOffset":19176,
			"target":34962
		},
		{
			"buffer":0,
			"byteLength":2304,
			"byteOffset":21480,
			"target":34962
		},
		{
			"buffer":0,
			"byteLength":1536,
			"byteOffset":23784,
			"target":34962
		},
		{
			"buffer":0,
			"byteLength":23808,
			"byteOffset":25320,
			"target":34962
		},
		{
			"buffer":0,
			"byteLength":23808,
			"byteOffset":49128,
			"target":34962
		},
		{
			"buffer":0,
			"byteLength":15872,
			"byteOffset":72936,
			"target":34962
		},
		{
			"buffer":0,
			"byteLength":5760,
			"byteOffset":88808,
			"target":34963
		},
		{
			"buffer":0,
			"byteLength":23808,
			"byteOffset":94568,
			"target":34962
		},
		{
			"buffer":0,
			"byteLength":23808,
			"byteOffset":118376,
			"target":34962
		},
		{
			"buffer":0,
			"byteLength":15872,
			"byteOffset":142184,
			"target":34962
		},
		{
			"buffer":0,
			"byteLength":5760,
			"byteOffset":158056,
			"target":34963
		},
		{
			"buffer":0,
			"byteLength":23808,
			"byteOffset":163816,
			"target":34962
		},
		{
			"buffer":0,
			"byteLength":23808,
			"byteOffset":187624,
			"target":34962
		},
		{
			"buffer":0,
			"byteLength":15872,
			"byteOffset":211432,
			"target":34962
		},
		{
			"buffer":0,
			"byteLength":5760,
			"byteOffset":227304,
			"target":34963
		},
		{
			"buffer":0,
			"byteLength":23808,
			"byteOffset":233064,
			"target":34962
		},
		{
			"buffer":0,
			"byteLength":23808,
			"byteOffset":256872,
			"target":34962
		},
		{
			"buffer":0,
			"byteLength":15872,
			"byteOffset":280680,
			"target":34962
		},
		{
			"buffer":0,
			"byteLength":5760,
			"byteOffset":296552,
			"target":34963
		},
		{
			"buffer":0,
			"byteLength":23808,
			"byteOffset":302312,
			"target":34962
		},
		{
			"buffer":0,
			"byteLength":23808,
			"byteOffset":326120,
			"target":34962
		},
		{
			"buffer":0,
			"byteLength":15872,
			"byteOffset":349928,
			"target":34962
		},
		{
			"buffer":0,
			"byteLength":5760,
			"byteOffset":365800,
			"target":34963
		},
		{
			"buffer":0,
			"byteLength":23808,
			"byteOffset":371560,
			"target":34962
		},
		{
			"buffer":0,
			"byteLength":23808,
			"byteOffset":395368,
			"target":34962
		},
		{
			"buffer":0,
			"byteLength":15872,
			"byteOffset":419176,
			"target":34962
		},
		{
			"buffer":0,
			"byteLength":5760,
			"byteOffset":435048,
			"target":34963
		},
		{
			"buffer":0,
			"byteLength":23808,
			"byteOffset":440808,
			"target":34962
		},
		{
			"buffer":0,
			"byteLength":23808,
			"byteOffset":464616,
			"target":34962
		},
		{
			"buffer":0,
			"byteLength":15872,
			"byteOffset":488424,
			"target":34962
		},
		{
			"buffer":0,
			"byteLength":5760,
			"byteOffset":504296,
			"target":34963
		},
		{
			"buffer":0,
			"byteLength":23808,
			"byteOffset":510056,
			"target":34962
		},
		{
			"buffer":0,
			"byteLength":23808,
			"byteOffset":533864,
			"target":34962
		},
		{
			"buffer":0,
			"byteLength":15872,
			"byteOffset":557672,
			"target":34962
		},
		{
			"buffer":0,
			"byteLength":5760,
			"byteOffset":573544,
			"target":34963
		},
		{
			"buffer":0,
			"byteLength":23808,
			"byteOffset":579304,
			"target":34962
		},
		{
			"buffer":0,
			"byteLength":23808,
			"byteOffset":603112,
			"target":34962
		},
		{
			"buffer":0,
			"byteLength":15872,
			"byteOffset":626920,
			"target":34962
		},
		{
			"buffer":0,
			"byteLength":5760,
			"byteOffset":642792,
			"target":34963
		},
		{
			"buffer":0,
			"byteLength":23808,
			"byteOffset":648552,
			"target":34962
		},
		{
			"buffer":0,
			"byteLength":23808,
			"byteOffset":672360,
			"target":34962
		},
		{
			"buffer":0,
			"byteLength":15872,
			"byteOffset":696168,
			"target":34962
		},
		{
			"buffer":0,
			"byteLength":5760,
			"byteOffset":712040,
			"target":34963
		}
	],
	"buffers":[
		{
			"byteLength":717800,
			"uri":"spire_campfire.bin"
		}
	]
}
