{
	"asset":{
		"generator":"Khronos glTF Blender I/O v5.2.40",
		"version":"2.0"
	},
	"scene":0,
	"scenes":[
		{
			"name":"Scene",
			"nodes":[
				0,
				1,
				2,
				30
			]
		}
	],
	"nodes":[
		{
			"mesh":0,
			"name":"Cube",
			"scale":[
				1,
				6,
				1
			],
			"translation":[
				-1.7999999523162842,
				1.7999999523162842,
				0
			]
		},
		{
			"mesh":1,
			"name":"Cube.001",
			"scale":[
				1,
				6,
				1
			],
			"translation":[
				1.7999999523162842,
				1.7999999523162842,
				0
			]
		},
		{
			"mesh":2,
			"name":"Cube.002",
			"scale":[
				6.5,
				0.8999999761581421,
				1
			],
			"translation":[
				0,
				3.799999952316284,
				0
			]
		},
		{
			"mesh":3,
			"name":"Cone",
			"rotation":[
				0.7071067690849304,
				0,
				0,
				0.7071067690849304
			],
			"translation":[
				-1.399999976158142,
				2.5,
				0.10000000149011612
			]
		},
		{
			"mesh":4,
			"name":"Cone.001",
			"rotation":[
				0.7071067690849304,
				0,
				0,
				0.7071067690849304
			],
			"translation":[
				-1.1200000047683716,
				2.5,
				0.10000000149011612
			]
		},
		{
			"mesh":5,
			"name":"Cone.002",
			"rotation":[
				0.7071067690849304,
				0,
				0,
				0.7071067690849304
			],
			"translation":[
				-0.8399999737739563,
				2.5,
				0.10000000149011612
			]
		},
		{
			"mesh":6,
			"name":"Cone.003",
			"rotation":[
				0.7071067690849304,
				0,
				0,
				0.7071067690849304
			],
			"translation":[
				-0.5600000023841858,
				2.5,
				0.10000000149011612
			]
		},
		{
			"mesh":7,
			"name":"Cone.004",
			"rotation":[
				0.7071067690849304,
				0,
				0,
				0.7071067690849304
			],
			"translation":[
				-0.2800000011920929,
				2.5,
				0.10000000149011612
			]
		},
		{
			"mesh":8,
			"name":"Cone.005",
			"rotation":[
				0.7071067690849304,
				0,
				0,
				0.7071067690849304
			],
			"translation":[
				0,
				2.5,
				0.10000000149011612
			]
		},
		{
			"mesh":9,
			"name":"Cone.006",
			"rotation":[
				0.7071067690849304,
				0,
				0,
				0.7071067690849304
			],
			"translation":[
				0.2800000011920929,
				2.5,
				0.10000000149011612
			]
		},
		{
			"mesh":10,
			"name":"Cone.007",
			"rotation":[
				0.7071067690849304,
				0,
				0,
				0.7071067690849304
			],
			"translation":[
				0.5600000023841858,
				2.5,
				0.10000000149011612
			]
		},
		{
			"mesh":11,
			"name":"Cone.008",
			"rotation":[
				0.7071067690849304,
				0,
				0,
				0.7071067690849304
			],
			"translation":[
				0.8399999737739563,
				2.5,
				0.10000000149011612
			]
		},
		{
			"mesh":12,
			"name":"Cone.009",
			"rotation":[
				0.7071067690849304,
				0,
				0,
				0.7071067690849304
			],
			"translation":[
				1.1200000047683716,
				2.5,
				0.10000000149011612
			]
		},
		{
			"mesh":13,
			"name":"Cone.010",
			"rotation":[
				0.7071067690849304,
				0,
				0,
				0.7071067690849304
			],
			"translation":[
				1.399999976158142,
				2.5,
				0.10000000149011612
			]
		},
		{
			"mesh":14,
			"name":"Cube.003",
			"rotation":[
				0.7071067690849304,
				0,
				0,
				0.7071067690849304
			],
			"scale":[
				38,
				1,
				1
			],
			"translation":[
				0,
				2.5,
				0.800000011920929
			]
		},
		{
			"mesh":15,
			"name":"Cube.004",
			"rotation":[
				0.7071067690849304,
				0,
				0,
				0.7071067690849304
			],
			"scale":[
				38,
				1,
				1
			],
			"translation":[
				0,
				2.5,
				1.7999999523162842
			]
		},
		{
			"mesh":16,
			"name":"Cube.005",
			"rotation":[
				0.7071067690849304,
				0,
				0,
				0.7071067690849304
			],
			"scale":[
				38,
				1,
				1
			],
			"translation":[
				0,
				2.5,
				2.799999952316284
			]
		},
		{
			"mesh":17,
			"name":"Cylinder",
			"rotation":[
				0.7071067690849304,
				0,
				0,
				0.7071067690849304
			],
			"translation":[
				-1.399999976158142,
				2.5,
				1.7999999523162842
			]
		},
		{
			"mesh":18,
			"name":"Cylinder.001",
			"rotation":[
				0.7071067690849304,
				0,
				0,
				0.7071067690849304
			],
			"translation":[
				-1.1200000047683716,
				2.5,
				1.7999999523162842
			]
		},
		{
			"mesh":19,
			"name":"Cylinder.002",
			"rotation":[
				0.7071067690849304,
				0,
				0,
				0.7071067690849304
			],
			"translation":[
				-0.8399999737739563,
				2.5,
				1.7999999523162842
			]
		},
		{
			"mesh":20,
			"name":"Cylinder.003",
			"rotation":[
				0.7071067690849304,
				0,
				0,
				0.7071067690849304
			],
			"translation":[
				-0.5600000023841858,
				2.5,
				1.7999999523162842
			]
		},
		{
			"mesh":21,
			"name":"Cylinder.004",
			"rotation":[
				0.7071067690849304,
				0,
				0,
				0.7071067690849304
			],
			"translation":[
				-0.2800000011920929,
				2.5,
				1.7999999523162842
			]
		},
		{
			"mesh":22,
			"name":"Cylinder.005",
			"rotation":[
				0.7071067690849304,
				0,
				0,
				0.7071067690849304
			],
			"translation":[
				0,
				2.5,
				1.7999999523162842
			]
		},
		{
			"mesh":23,
			"name":"Cylinder.006",
			"rotation":[
				0.7071067690849304,
				0,
				0,
				0.7071067690849304
			],
			"translation":[
				0.2800000011920929,
				2.5,
				1.7999999523162842
			]
		},
		{
			"mesh":24,
			"name":"Cylinder.007",
			"rotation":[
				0.7071067690849304,
				0,
				0,
				0.7071067690849304
			],
			"translation":[
				0.5600000023841858,
				2.5,
				1.7999999523162842
			]
		},
		{
			"mesh":25,
			"name":"Cylinder.008",
			"rotation":[
				0.7071067690849304,
				0,
				0,
				0.7071067690849304
			],
			"translation":[
				0.8399999737739563,
				2.5,
				1.7999999523162842
			]
		},
		{
			"mesh":26,
			"name":"Cylinder.009",
			"rotation":[
				0.7071067690849304,
				0,
				0,
				0.7071067690849304
			],
			"translation":[
				1.1200000047683716,
				2.5,
				1.7999999523162842
			]
		},
		{
			"mesh":27,
			"name":"Cylinder.010",
			"rotation":[
				0.7071067690849304,
				0,
				0,
				0.7071067690849304
			],
			"translation":[
				1.399999976158142,
				2.5,
				1.7999999523162842
			]
		},
		{
			"children":[
				3,
				4,
				5,
				6,
				7,
				8,
				9,
				10,
				11,
				12,
				13,
				14,
				15,
				16,
				17,
				18,
				19,
				20,
				21,
				22,
				23,
				24,
				25,
				26,
				27
			],
			"name":"Portcullis",
			"translation":[
				0,
				0.5,
				0
			]
		},
		{
			"children":[
				28
			],
			"name":"Root"
		},
		{
			"children":[
				29
			],
			"name":"GateRig"
		}
	],
	"animations":[
		{
			"channels":[
				{
					"sampler":0,
					"target":{
						"node":29,
						"path":"translation"
					}
				},
				{
					"sampler":1,
					"target":{
						"node":29,
						"path":"rotation"
					}
				},
				{
					"sampler":2,
					"target":{
						"node":29,
						"path":"scale"
					}
				},
				{
					"sampler":3,
					"target":{
						"node":28,
						"path":"translation"
					}
				},
				{
					"sampler":4,
					"target":{
						"node":28,
						"path":"rotation"
					}
				},
				{
					"sampler":5,
					"target":{
						"node":28,
						"path":"scale"
					}
				}
			],
			"name":"idle",
			"samplers":[
				{
					"input":87,
					"interpolation":"STEP",
					"output":88
				},
				{
					"input":87,
					"interpolation":"STEP",
					"output":89
				},
				{
					"input":87,
					"interpolation":"STEP",
					"output":90
				},
				{
					"input":87,
					"interpolation":"LINEAR",
					"output":91
				},
				{
					"input":87,
					"interpolation":"STEP",
					"output":89
				},
				{
					"input":87,
					"interpolation":"STEP",
					"output":90
				}
			]
		},
		{
			"channels":[
				{
					"sampler":0,
					"target":{
						"node":29,
						"path":"translation"
					}
				},
				{
					"sampler":1,
					"target":{
						"node":29,
						"path":"rotation"
					}
				},
				{
					"sampler":2,
					"target":{
						"node":29,
						"path":"scale"
					}
				},
				{
					"sampler":3,
					"target":{
						"node":28,
						"path":"translation"
					}
				},
				{
					"sampler":4,
					"target":{
						"node":28,
						"path":"rotation"
					}
				},
				{
					"sampler":5,
					"target":{
						"node":28,
						"path":"scale"
					}
				}
			],
			"name":"open",
			"samplers":[
				{
					"input":92,
					"interpolation":"STEP",
					"output":93
				},
				{
					"input":92,
					"interpolation":"STEP",
					"output":94
				},
				{
					"input":92,
					"interpolation":"STEP",
					"output":95
				},
				{
					"input":96,
					"interpolation":"LINEAR",
					"output":97
				},
				{
					"input":92,
					"interpolation":"STEP",
					"output":94
				},
				{
					"input":92,
					"interpolation":"STEP",
					"output":95
				}
			]
		}
	],
	"materials":[
		{
			"doubleSided":true,
			"name":"GothicStone",
			"pbrMetallicRoughness":{
				"baseColorFactor":[
					0.2199999988079071,
					0.20000000298023224,
					0.23999999463558197,
					1
				],
				"metallicFactor":0.10000000149011612,
				"roughnessFactor":0.8500000238418579
			}
		},
		{
			"doubleSided":true,
			"name":"PortcullisIron",
			"pbrMetallicRoughness":{
				"baseColorFactor":[
					0.15000000596046448,
					0.15000000596046448,
					0.18000000715255737,
					1
				],
				"metallicFactor":0.8500000238418579,
				"roughnessFactor":0.6000000238418579
			}
		}
	],
	"meshes":[
		{
			"name":"Cube",
			"primitives":[
				{
					"attributes":{
						"POSITION":0,
						"NORMAL":1,
						"TEXCOORD_0":2
					},
					"indices":3,
					"material":0
				}
			]
		},
		{
			"name":"Cube.001",
			"primitives":[
				{
					"attributes":{
						"POSITION":4,
						"NORMAL":5,
						"TEXCOORD_0":6
					},
					"indices":3,
					"material":0
				}
			]
		},
		{
			"name":"Cube.002",
			"primitives":[
				{
					"attributes":{
						"POSITION":7,
						"NORMAL":8,
						"TEXCOORD_0":9
					},
					"indices":3,
					"material":0
				}
			]
		},
		{
			"name":"Cone",
			"primitives":[
				{
					"attributes":{
						"POSITION":10,
						"NORMAL":11,
						"TEXCOORD_0":12
					},
					"indices":13,
					"material":1
				}
			]
		},
		{
			"name":"Cone.001",
			"primitives":[
				{
					"attributes":{
						"POSITION":14,
						"NORMAL":15,
						"TEXCOORD_0":16
					},
					"indices":13,
					"material":1
				}
			]
		},
		{
			"name":"Cone.002",
			"primitives":[
				{
					"attributes":{
						"POSITION":17,
						"NORMAL":18,
						"TEXCOORD_0":19
					},
					"indices":13,
					"material":1
				}
			]
		},
		{
			"name":"Cone.003",
			"primitives":[
				{
					"attributes":{
						"POSITION":20,
						"NORMAL":21,
						"TEXCOORD_0":22
					},
					"indices":13,
					"material":1
				}
			]
		},
		{
			"name":"Cone.004",
			"primitives":[
				{
					"attributes":{
						"POSITION":23,
						"NORMAL":24,
						"TEXCOORD_0":25
					},
					"indices":13,
					"material":1
				}
			]
		},
		{
			"name":"Cone.005",
			"primitives":[
				{
					"attributes":{
						"POSITION":26,
						"NORMAL":27,
						"TEXCOORD_0":28
					},
					"indices":13,
					"material":1
				}
			]
		},
		{
			"name":"Cone.006",
			"primitives":[
				{
					"attributes":{
						"POSITION":29,
						"NORMAL":30,
						"TEXCOORD_0":31
					},
					"indices":13,
					"material":1
				}
			]
		},
		{
			"name":"Cone.007",
			"primitives":[
				{
					"attributes":{
						"POSITION":32,
						"NORMAL":33,
						"TEXCOORD_0":34
					},
					"indices":13,
					"material":1
				}
			]
		},
		{
			"name":"Cone.008",
			"primitives":[
				{
					"attributes":{
						"POSITION":35,
						"NORMAL":36,
						"TEXCOORD_0":37
					},
					"indices":13,
					"material":1
				}
			]
		},
		{
			"name":"Cone.009",
			"primitives":[
				{
					"attributes":{
						"POSITION":38,
						"NORMAL":39,
						"TEXCOORD_0":40
					},
					"indices":13,
					"material":1
				}
			]
		},
		{
			"name":"Cone.010",
			"primitives":[
				{
					"attributes":{
						"POSITION":41,
						"NORMAL":42,
						"TEXCOORD_0":43
					},
					"indices":13,
					"material":1
				}
			]
		},
		{
			"name":"Cube.003",
			"primitives":[
				{
					"attributes":{
						"POSITION":44,
						"NORMAL":45,
						"TEXCOORD_0":46
					},
					"indices":3,
					"material":1
				}
			]
		},
		{
			"name":"Cube.004",
			"primitives":[
				{
					"attributes":{
						"POSITION":47,
						"NORMAL":48,
						"TEXCOORD_0":49
					},
					"indices":3,
					"material":1
				}
			]
		},
		{
			"name":"Cube.005",
			"primitives":[
				{
					"attributes":{
						"POSITION":50,
						"NORMAL":51,
						"TEXCOORD_0":52
					},
					"indices":3,
					"material":1
				}
			]
		},
		{
			"name":"Cylinder",
			"primitives":[
				{
					"attributes":{
						"POSITION":53,
						"NORMAL":54,
						"TEXCOORD_0":55
					},
					"indices":56,
					"material":1
				}
			]
		},
		{
			"name":"Cylinder.001",
			"primitives":[
				{
					"attributes":{
						"POSITION":57,
						"NORMAL":58,
						"TEXCOORD_0":59
					},
					"indices":56,
					"material":1
				}
			]
		},
		{
			"name":"Cylinder.002",
			"primitives":[
				{
					"attributes":{
						"POSITION":60,
						"NORMAL":61,
						"TEXCOORD_0":62
					},
					"indices":56,
					"material":1
				}
			]
		},
		{
			"name":"Cylinder.003",
			"primitives":[
				{
					"attributes":{
						"POSITION":63,
						"NORMAL":64,
						"TEXCOORD_0":65
					},
					"indices":56,
					"material":1
				}
			]
		},
		{
			"name":"Cylinder.004",
			"primitives":[
				{
					"attributes":{
						"POSITION":66,
						"NORMAL":67,
						"TEXCOORD_0":68
					},
					"indices":56,
					"material":1
				}
			]
		},
		{
			"name":"Cylinder.005",
			"primitives":[
				{
					"attributes":{
						"POSITION":69,
						"NORMAL":70,
						"TEXCOORD_0":71
					},
					"indices":56,
					"material":1
				}
			]
		},
		{
			"name":"Cylinder.006",
			"primitives":[
				{
					"attributes":{
						"POSITION":72,
						"NORMAL":73,
						"TEXCOORD_0":74
					},
					"indices":56,
					"material":1
				}
			]
		},
		{
			"name":"Cylinder.007",
			"primitives":[
				{
					"attributes":{
						"POSITION":75,
						"NORMAL":76,
						"TEXCOORD_0":77
					},
					"indices":56,
					"material":1
				}
			]
		},
		{
			"name":"Cylinder.008",
			"primitives":[
				{
					"attributes":{
						"POSITION":78,
						"NORMAL":79,
						"TEXCOORD_0":80
					},
					"indices":56,
					"material":1
				}
			]
		},
		{
			"name":"Cylinder.009",
			"primitives":[
				{
					"attributes":{
						"POSITION":81,
						"NORMAL":82,
						"TEXCOORD_0":83
					},
					"indices":56,
					"material":1
				}
			]
		},
		{
			"name":"Cylinder.010",
			"primitives":[
				{
					"attributes":{
						"POSITION":84,
						"NORMAL":85,
						"TEXCOORD_0":86
					},
					"indices":56,
					"material":1
				}
			]
		}
	],
	"skins":[
		{
			"inverseBindMatrices":98,
			"joints":[
				29,
				28
			],
			"name":"GateRig"
		}
	],
	"accessors":[
		{
			"bufferView":0,
			"componentType":5126,
			"count":24,
			"max":[
				0.30000001192092896,
				0.30000001192092896,
				0.30000001192092896
			],
			"min":[
				-0.30000001192092896,
				-0.30000001192092896,
				-0.30000001192092896
			],
			"type":"VEC3"
		},
		{
			"bufferView":1,
			"componentType":5126,
			"count":24,
			"type":"VEC3"
		},
		{
			"bufferView":2,
			"componentType":5126,
			"count":24,
			"type":"VEC2"
		},
		{
			"bufferView":3,
			"componentType":5123,
			"count":36,
			"type":"SCALAR"
		},
		{
			"bufferView":4,
			"componentType":5126,
			"count":24,
			"max":[
				0.30000001192092896,
				0.30000001192092896,
				0.30000001192092896
			],
			"min":[
				-0.30000001192092896,
				-0.30000001192092896,
				-0.30000001192092896
			],
			"type":"VEC3"
		},
		{
			"bufferView":5,
			"componentType":5126,
			"count":24,
			"type":"VEC3"
		},
		{
			"bufferView":6,
			"componentType":5126,
			"count":24,
			"type":"VEC2"
		},
		{
			"bufferView":7,
			"componentType":5126,
			"count":24,
			"max":[
				0.30000001192092896,
				0.30000001192092896,
				0.30000001192092896
			],
			"min":[
				-0.30000001192092896,
				-0.30000001192092896,
				-0.30000001192092896
			],
			"type":"VEC3"
		},
		{
			"bufferView":8,
			"componentType":5126,
			"count":24,
			"type":"VEC3"
		},
		{
			"bufferView":9,
			"componentType":5126,
			"count":24,
			"type":"VEC2"
		},
		{
			"bufferView":10,
			"componentType":5126,
			"count":128,
			"max":[
				0.05999999865889549,
				0.15000000596046448,
				0.05999999865889549
			],
			"min":[
				-0.05999999865889549,
				-0.15000000596046448,
				-0.05999999865889549
			],
			"type":"VEC3"
		},
		{
			"bufferView":11,
			"componentType":5126,
			"count":128,
			"type":"VEC3"
		},
		{
			"bufferView":12,
			"componentType":5126,
			"count":128,
			"type":"VEC2"
		},
		{
			"bufferView":13,
			"componentType":5123,
			"count":186,
			"type":"SCALAR"
		},
		{
			"bufferView":14,
			"componentType":5126,
			"count":128,
			"max":[
				0.05999999865889549,
				0.15000000596046448,
				0.05999999865889549
			],
			"min":[
				-0.05999999865889549,
				-0.15000000596046448,
				-0.05999999865889549
			],
			"type":"VEC3"
		},
		{
			"bufferView":15,
			"componentType":5126,
			"count":128,
			"type":"VEC3"
		},
		{
			"bufferView":16,
			"componentType":5126,
			"count":128,
			"type":"VEC2"
		},
		{
			"bufferView":17,
			"componentType":5126,
			"count":128,
			"max":[
				0.05999999865889549,
				0.15000000596046448,
				0.05999999865889549
			],
			"min":[
				-0.05999999865889549,
				-0.15000000596046448,
				-0.05999999865889549
			],
			"type":"VEC3"
		},
		{
			"bufferView":18,
			"componentType":5126,
			"count":128,
			"type":"VEC3"
		},
		{
			"bufferView":19,
			"componentType":5126,
			"count":128,
			"type":"VEC2"
		},
		{
			"bufferView":20,
			"componentType":5126,
			"count":128,
			"max":[
				0.05999999865889549,
				0.15000000596046448,
				0.05999999865889549
			],
			"min":[
				-0.05999999865889549,
				-0.15000000596046448,
				-0.05999999865889549
			],
			"type":"VEC3"
		},
		{
			"bufferView":21,
			"componentType":5126,
			"count":128,
			"type":"VEC3"
		},
		{
			"bufferView":22,
			"componentType":5126,
			"count":128,
			"type":"VEC2"
		},
		{
			"bufferView":23,
			"componentType":5126,
			"count":128,
			"max":[
				0.05999999865889549,
				0.15000000596046448,
				0.05999999865889549
			],
			"min":[
				-0.05999999865889549,
				-0.15000000596046448,
				-0.05999999865889549
			],
			"type":"VEC3"
		},
		{
			"bufferView":24,
			"componentType":5126,
			"count":128,
			"type":"VEC3"
		},
		{
			"bufferView":25,
			"componentType":5126,
			"count":128,
			"type":"VEC2"
		},
		{
			"bufferView":26,
			"componentType":5126,
			"count":128,
			"max":[
				0.05999999865889549,
				0.15000000596046448,
				0.05999999865889549
			],
			"min":[
				-0.05999999865889549,
				-0.15000000596046448,
				-0.05999999865889549
			],
			"type":"VEC3"
		},
		{
			"bufferView":27,
			"componentType":5126,
			"count":128,
			"type":"VEC3"
		},
		{
			"bufferView":28,
			"componentType":5126,
			"count":128,
			"type":"VEC2"
		},
		{
			"bufferView":29,
			"componentType":5126,
			"count":128,
			"max":[
				0.05999999865889549,
				0.15000000596046448,
				0.05999999865889549
			],
			"min":[
				-0.05999999865889549,
				-0.15000000596046448,
				-0.05999999865889549
			],
			"type":"VEC3"
		},
		{
			"bufferView":30,
			"componentType":5126,
			"count":128,
			"type":"VEC3"
		},
		{
			"bufferView":31,
			"componentType":5126,
			"count":128,
			"type":"VEC2"
		},
		{
			"bufferView":32,
			"componentType":5126,
			"count":128,
			"max":[
				0.05999999865889549,
				0.15000000596046448,
				0.05999999865889549
			],
			"min":[
				-0.05999999865889549,
				-0.15000000596046448,
				-0.05999999865889549
			],
			"type":"VEC3"
		},
		{
			"bufferView":33,
			"componentType":5126,
			"count":128,
			"type":"VEC3"
		},
		{
			"bufferView":34,
			"componentType":5126,
			"count":128,
			"type":"VEC2"
		},
		{
			"bufferView":35,
			"componentType":5126,
			"count":128,
			"max":[
				0.05999999865889549,
				0.15000000596046448,
				0.05999999865889549
			],
			"min":[
				-0.05999999865889549,
				-0.15000000596046448,
				-0.05999999865889549
			],
			"type":"VEC3"
		},
		{
			"bufferView":36,
			"componentType":5126,
			"count":128,
			"type":"VEC3"
		},
		{
			"bufferView":37,
			"componentType":5126,
			"count":128,
			"type":"VEC2"
		},
		{
			"bufferView":38,
			"componentType":5126,
			"count":128,
			"max":[
				0.05999999865889549,
				0.15000000596046448,
				0.05999999865889549
			],
			"min":[
				-0.05999999865889549,
				-0.15000000596046448,
				-0.05999999865889549
			],
			"type":"VEC3"
		},
		{
			"bufferView":39,
			"componentType":5126,
			"count":128,
			"type":"VEC3"
		},
		{
			"bufferView":40,
			"componentType":5126,
			"count":128,
			"type":"VEC2"
		},
		{
			"bufferView":41,
			"componentType":5126,
			"count":128,
			"max":[
				0.05999999865889549,
				0.15000000596046448,
				0.05999999865889549
			],
			"min":[
				-0.05999999865889549,
				-0.15000000596046448,
				-0.05999999865889549
			],
			"type":"VEC3"
		},
		{
			"bufferView":42,
			"componentType":5126,
			"count":128,
			"type":"VEC3"
		},
		{
			"bufferView":43,
			"componentType":5126,
			"count":128,
			"type":"VEC2"
		},
		{
			"bufferView":44,
			"componentType":5126,
			"count":24,
			"max":[
				0.03999999910593033,
				0.03999999910593033,
				0.03999999910593033
			],
			"min":[
				-0.03999999910593033,
				-0.03999999910593033,
				-0.03999999910593033
			],
			"type":"VEC3"
		},
		{
			"bufferView":45,
			"componentType":5126,
			"count":24,
			"type":"VEC3"
		},
		{
			"bufferView":46,
			"componentType":5126,
			"count":24,
			"type":"VEC2"
		},
		{
			"bufferView":47,
			"componentType":5126,
			"count":24,
			"max":[
				0.03999999910593033,
				0.03999999910593033,
				0.03999999910593033
			],
			"min":[
				-0.03999999910593033,
				-0.03999999910593033,
				-0.03999999910593033
			],
			"type":"VEC3"
		},
		{
			"bufferView":48,
			"componentType":5126,
			"count":24,
			"type":"VEC3"
		},
		{
			"bufferView":49,
			"componentType":5126,
			"count":24,
			"type":"VEC2"
		},
		{
			"bufferView":50,
			"componentType":5126,
			"count":24,
			"max":[
				0.03999999910593033,
				0.03999999910593033,
				0.03999999910593033
			],
			"min":[
				-0.03999999910593033,
				-0.03999999910593033,
				-0.03999999910593033
			],
			"type":"VEC3"
		},
		{
			"bufferView":51,
			"componentType":5126,
			"count":24,
			"type":"VEC3"
		},
		{
			"bufferView":52,
			"componentType":5126,
			"count":24,
			"type":"VEC2"
		},
		{
			"bufferView":53,
			"componentType":5126,
			"count":192,
			"max":[
				0.04500000178813934,
				1.600000023841858,
				0.04500000178813934
			],
			"min":[
				-0.04500000178813934,
				-1.600000023841858,
				-0.04500000178813934
			],
			"type":"VEC3"
		},
		{
			"bufferView":54,
			"componentType":5126,
			"count":192,
			"type":"VEC3"
		},
		{
			"bufferView":55,
			"componentType":5126,
			"count":192,
			"type":"VEC2"
		},
		{
			"bufferView":56,
			"componentType":5123,
			"count":372,
			"type":"SCALAR"
		},
		{
			"bufferView":57,
			"componentType":5126,
			"count":192,
			"max":[
				0.04500000178813934,
				1.600000023841858,
				0.04500000178813934
			],
			"min":[
				-0.04500000178813934,
				-1.600000023841858,
				-0.04500000178813934
			],
			"type":"VEC3"
		},
		{
			"bufferView":58,
			"componentType":5126,
			"count":192,
			"type":"VEC3"
		},
		{
			"bufferView":59,
			"componentType":5126,
			"count":192,
			"type":"VEC2"
		},
		{
			"bufferView":60,
			"componentType":5126,
			"count":192,
			"max":[
				0.04500000178813934,
				1.600000023841858,
				0.04500000178813934
			],
			"min":[
				-0.04500000178813934,
				-1.600000023841858,
				-0.04500000178813934
			],
			"type":"VEC3"
		},
		{
			"bufferView":61,
			"componentType":5126,
			"count":192,
			"type":"VEC3"
		},
		{
			"bufferView":62,
			"componentType":5126,
			"count":192,
			"type":"VEC2"
		},
		{
			"bufferView":63,
			"componentType":5126,
			"count":192,
			"max":[
				0.04500000178813934,
				1.600000023841858,
				0.04500000178813934
			],
			"min":[
				-0.04500000178813934,
				-1.600000023841858,
				-0.04500000178813934
			],
			"type":"VEC3"
		},
		{
			"bufferView":64,
			"componentType":5126,
			"count":192,
			"type":"VEC3"
		},
		{
			"bufferView":65,
			"componentType":5126,
			"count":192,
			"type":"VEC2"
		},
		{
			"bufferView":66,
			"componentType":5126,
			"count":192,
			"max":[
				0.04500000178813934,
				1.600000023841858,
				0.04500000178813934
			],
			"min":[
				-0.04500000178813934,
				-1.600000023841858,
				-0.04500000178813934
			],
			"type":"VEC3"
		},
		{
			"bufferView":67,
			"componentType":5126,
			"count":192,
			"type":"VEC3"
		},
		{
			"bufferView":68,
			"componentType":5126,
			"count":192,
			"type":"VEC2"
		},
		{
			"bufferView":69,
			"componentType":5126,
			"count":192,
			"max":[
				0.04500000178813934,
				1.600000023841858,
				0.04500000178813934
			],
			"min":[
				-0.04500000178813934,
				-1.600000023841858,
				-0.04500000178813934
			],
			"type":"VEC3"
		},
		{
			"bufferView":70,
			"componentType":5126,
			"count":192,
			"type":"VEC3"
		},
		{
			"bufferView":71,
			"componentType":5126,
			"count":192,
			"type":"VEC2"
		},
		{
			"bufferView":72,
			"componentType":5126,
			"count":192,
			"max":[
				0.04500000178813934,
				1.600000023841858,
				0.04500000178813934
			],
			"min":[
				-0.04500000178813934,
				-1.600000023841858,
				-0.04500000178813934
			],
			"type":"VEC3"
		},
		{
			"bufferView":73,
			"componentType":5126,
			"count":192,
			"type":"VEC3"
		},
		{
			"bufferView":74,
			"componentType":5126,
			"count":192,
			"type":"VEC2"
		},
		{
			"bufferView":75,
			"componentType":5126,
			"count":192,
			"max":[
				0.04500000178813934,
				1.600000023841858,
				0.04500000178813934
			],
			"min":[
				-0.04500000178813934,
				-1.600000023841858,
				-0.04500000178813934
			],
			"type":"VEC3"
		},
		{
			"bufferView":76,
			"componentType":5126,
			"count":192,
			"type":"VEC3"
		},
		{
			"bufferView":77,
			"componentType":5126,
			"count":192,
			"type":"VEC2"
		},
		{
			"bufferView":78,
			"componentType":5126,
			"count":192,
			"max":[
				0.04500000178813934,
				1.600000023841858,
				0.04500000178813934
			],
			"min":[
				-0.04500000178813934,
				-1.600000023841858,
				-0.04500000178813934
			],
			"type":"VEC3"
		},
		{
			"bufferView":79,
			"componentType":5126,
			"count":192,
			"type":"VEC3"
		},
		{
			"bufferView":80,
			"componentType":5126,
			"count":192,
			"type":"VEC2"
		},
		{
			"bufferView":81,
			"componentType":5126,
			"count":192,
			"max":[
				0.04500000178813934,
				1.600000023841858,
				0.04500000178813934
			],
			"min":[
				-0.04500000178813934,
				-1.600000023841858,
				-0.04500000178813934
			],
			"type":"VEC3"
		},
		{
			"bufferView":82,
			"componentType":5126,
			"count":192,
			"type":"VEC3"
		},
		{
			"bufferView":83,
			"componentType":5126,
			"count":192,
			"type":"VEC2"
		},
		{
			"bufferView":84,
			"componentType":5126,
			"count":192,
			"max":[
				0.04500000178813934,
				1.600000023841858,
				0.04500000178813934
			],
			"min":[
				-0.04500000178813934,
				-1.600000023841858,
				-0.04500000178813934
			],
			"type":"VEC3"
		},
		{
			"bufferView":85,
			"componentType":5126,
			"count":192,
			"type":"VEC3"
		},
		{
			"bufferView":86,
			"componentType":5126,
			"count":192,
			"type":"VEC2"
		},
		{
			"bufferView":87,
			"componentType":5126,
			"count":1,
			"max":[
				0.041666666666666664
			],
			"min":[
				0.041666666666666664
			],
			"type":"SCALAR"
		},
		{
			"bufferView":88,
			"componentType":5126,
			"count":1,
			"type":"VEC3"
		},
		{
			"bufferView":89,
			"componentType":5126,
			"count":1,
			"type":"VEC4"
		},
		{
			"bufferView":90,
			"componentType":5126,
			"count":1,
			"type":"VEC3"
		},
		{
			"bufferView":91,
			"componentType":5126,
			"count":1,
			"type":"VEC3"
		},
		{
			"bufferView":92,
			"componentType":5126,
			"count":2,
			"max":[
				1.0416666666666667
			],
			"min":[
				0.041666666666666664
			],
			"type":"SCALAR"
		},
		{
			"bufferView":93,
			"componentType":5126,
			"count":2,
			"type":"VEC3"
		},
		{
			"bufferView":94,
			"componentType":5126,
			"count":2,
			"type":"VEC4"
		},
		{
			"bufferView":95,
			"componentType":5126,
			"count":2,
			"type":"VEC3"
		},
		{
			"bufferView":96,
			"componentType":5126,
			"count":25,
			"max":[
				1.0416666666666667
			],
			"min":[
				0.041666666666666664
			],
			"type":"SCALAR"
		},
		{
			"bufferView":97,
			"componentType":5126,
			"count":25,
			"type":"VEC3"
		},
		{
			"bufferView":98,
			"componentType":5126,
			"count":2,
			"type":"MAT4"
		}
	],
	"bufferViews":[
		{
			"buffer":0,
			"byteLength":288,
			"byteOffset":0,
			"target":34962
		},
		{
			"buffer":0,
			"byteLength":288,
			"byteOffset":288,
			"target":34962
		},
		{
			"buffer":0,
			"byteLength":192,
			"byteOffset":576,
			"target":34962
		},
		{
			"buffer":0,
			"byteLength":72,
			"byteOffset":768,
			"target":34963
		},
		{
			"buffer":0,
			"byteLength":288,
			"byteOffset":840,
			"target":34962
		},
		{
			"buffer":0,
			"byteLength":288,
			"byteOffset":1128,
			"target":34962
		},
		{
			"buffer":0,
			"byteLength":192,
			"byteOffset":1416,
			"target":34962
		},
		{
			"buffer":0,
			"byteLength":288,
			"byteOffset":1608,
			"target":34962
		},
		{
			"buffer":0,
			"byteLength":288,
			"byteOffset":1896,
			"target":34962
		},
		{
			"buffer":0,
			"byteLength":192,
			"byteOffset":2184,
			"target":34962
		},
		{
			"buffer":0,
			"byteLength":1536,
			"byteOffset":2376,
			"target":34962
		},
		{
			"buffer":0,
			"byteLength":1536,
			"byteOffset":3912,
			"target":34962
		},
		{
			"buffer":0,
			"byteLength":1024,
			"byteOffset":5448,
			"target":34962
		},
		{
			"buffer":0,
			"byteLength":372,
			"byteOffset":6472,
			"target":34963
		},
		{
			"buffer":0,
			"byteLength":1536,
			"byteOffset":6844,
			"target":34962
		},
		{
			"buffer":0,
			"byteLength":1536,
			"byteOffset":8380,
			"target":34962
		},
		{
			"buffer":0,
			"byteLength":1024,
			"byteOffset":9916,
			"target":34962
		},
		{
			"buffer":0,
			"byteLength":1536,
			"byteOffset":10940,
			"target":34962
		},
		{
			"buffer":0,
			"byteLength":1536,
			"byteOffset":12476,
			"target":34962
		},
		{
			"buffer":0,
			"byteLength":1024,
			"byteOffset":14012,
			"target":34962
		},
		{
			"buffer":0,
			"byteLength":1536,
			"byteOffset":15036,
			"target":34962
		},
		{
			"buffer":0,
			"byteLength":1536,
			"byteOffset":16572,
			"target":34962
		},
		{
			"buffer":0,
			"byteLength":1024,
			"byteOffset":18108,
			"target":34962
		},
		{
			"buffer":0,
			"byteLength":1536,
			"byteOffset":19132,
			"target":34962
		},
		{
			"buffer":0,
			"byteLength":1536,
			"byteOffset":20668,
			"target":34962
		},
		{
			"buffer":0,
			"byteLength":1024,
			"byteOffset":22204,
			"target":34962
		},
		{
			"buffer":0,
			"byteLength":1536,
			"byteOffset":23228,
			"target":34962
		},
		{
			"buffer":0,
			"byteLength":1536,
			"byteOffset":24764,
			"target":34962
		},
		{
			"buffer":0,
			"byteLength":1024,
			"byteOffset":26300,
			"target":34962
		},
		{
			"buffer":0,
			"byteLength":1536,
			"byteOffset":27324,
			"target":34962
		},
		{
			"buffer":0,
			"byteLength":1536,
			"byteOffset":28860,
			"target":34962
		},
		{
			"buffer":0,
			"byteLength":1024,
			"byteOffset":30396,
			"target":34962
		},
		{
			"buffer":0,
			"byteLength":1536,
			"byteOffset":31420,
			"target":34962
		},
		{
			"buffer":0,
			"byteLength":1536,
			"byteOffset":32956,
			"target":34962
		},
		{
			"buffer":0,
			"byteLength":1024,
			"byteOffset":34492,
			"target":34962
		},
		{
			"buffer":0,
			"byteLength":1536,
			"byteOffset":35516,
			"target":34962
		},
		{
			"buffer":0,
			"byteLength":1536,
			"byteOffset":37052,
			"target":34962
		},
		{
			"buffer":0,
			"byteLength":1024,
			"byteOffset":38588,
			"target":34962
		},
		{
			"buffer":0,
			"byteLength":1536,
			"byteOffset":39612,
			"target":34962
		},
		{
			"buffer":0,
			"byteLength":1536,
			"byteOffset":41148,
			"target":34962
		},
		{
			"buffer":0,
			"byteLength":1024,
			"byteOffset":42684,
			"target":34962
		},
		{
			"buffer":0,
			"byteLength":1536,
			"byteOffset":43708,
			"target":34962
		},
		{
			"buffer":0,
			"byteLength":1536,
			"byteOffset":45244,
			"target":34962
		},
		{
			"buffer":0,
			"byteLength":1024,
			"byteOffset":46780,
			"target":34962
		},
		{
			"buffer":0,
			"byteLength":288,
			"byteOffset":47804,
			"target":34962
		},
		{
			"buffer":0,
			"byteLength":288,
			"byteOffset":48092,
			"target":34962
		},
		{
			"buffer":0,
			"byteLength":192,
			"byteOffset":48380,
			"target":34962
		},
		{
			"buffer":0,
			"byteLength":288,
			"byteOffset":48572,
			"target":34962
		},
		{
			"buffer":0,
			"byteLength":288,
			"byteOffset":48860,
			"target":34962
		},
		{
			"buffer":0,
			"byteLength":192,
			"byteOffset":49148,
			"target":34962
		},
		{
			"buffer":0,
			"byteLength":288,
			"byteOffset":49340,
			"target":34962
		},
		{
			"buffer":0,
			"byteLength":288,
			"byteOffset":49628,
			"target":34962
		},
		{
			"buffer":0,
			"byteLength":192,
			"byteOffset":49916,
			"target":34962
		},
		{
			"buffer":0,
			"byteLength":2304,
			"byteOffset":50108,
			"target":34962
		},
		{
			"buffer":0,
			"byteLength":2304,
			"byteOffset":52412,
			"target":34962
		},
		{
			"buffer":0,
			"byteLength":1536,
			"byteOffset":54716,
			"target":34962
		},
		{
			"buffer":0,
			"byteLength":744,
			"byteOffset":56252,
			"target":34963
		},
		{
			"buffer":0,
			"byteLength":2304,
			"byteOffset":56996,
			"target":34962
		},
		{
			"buffer":0,
			"byteLength":2304,
			"byteOffset":59300,
			"target":34962
		},
		{
			"buffer":0,
			"byteLength":1536,
			"byteOffset":61604,
			"target":34962
		},
		{
			"buffer":0,
			"byteLength":2304,
			"byteOffset":63140,
			"target":34962
		},
		{
			"buffer":0,
			"byteLength":2304,
			"byteOffset":65444,
			"target":34962
		},
		{
			"buffer":0,
			"byteLength":1536,
			"byteOffset":67748,
			"target":34962
		},
		{
			"buffer":0,
			"byteLength":2304,
			"byteOffset":69284,
			"target":34962
		},
		{
			"buffer":0,
			"byteLength":2304,
			"byteOffset":71588,
			"target":34962
		},
		{
			"buffer":0,
			"byteLength":1536,
			"byteOffset":73892,
			"target":34962
		},
		{
			"buffer":0,
			"byteLength":2304,
			"byteOffset":75428,
			"target":34962
		},
		{
			"buffer":0,
			"byteLength":2304,
			"byteOffset":77732,
			"target":34962
		},
		{
			"buffer":0,
			"byteLength":1536,
			"byteOffset":80036,
			"target":34962
		},
		{
			"buffer":0,
			"byteLength":2304,
			"byteOffset":81572,
			"target":34962
		},
		{
			"buffer":0,
			"byteLength":2304,
			"byteOffset":83876,
			"target":34962
		},
		{
			"buffer":0,
			"byteLength":1536,
			"byteOffset":86180,
			"target":34962
		},
		{
			"buffer":0,
			"byteLength":2304,
			"byteOffset":87716,
			"target":34962
		},
		{
			"buffer":0,
			"byteLength":2304,
			"byteOffset":90020,
			"target":34962
		},
		{
			"buffer":0,
			"byteLength":1536,
			"byteOffset":92324,
			"target":34962
		},
		{
			"buffer":0,
			"byteLength":2304,
			"byteOffset":93860,
			"target":34962
		},
		{
			"buffer":0,
			"byteLength":2304,
			"byteOffset":96164,
			"target":34962
		},
		{
			"buffer":0,
			"byteLength":1536,
			"byteOffset":98468,
			"target":34962
		},
		{
			"buffer":0,
			"byteLength":2304,
			"byteOffset":100004,
			"target":34962
		},
		{
			"buffer":0,
			"byteLength":2304,
			"byteOffset":102308,
			"target":34962
		},
		{
			"buffer":0,
			"byteLength":1536,
			"byteOffset":104612,
			"target":34962
		},
		{
			"buffer":0,
			"byteLength":2304,
			"byteOffset":106148,
			"target":34962
		},
		{
			"buffer":0,
			"byteLength":2304,
			"byteOffset":108452,
			"target":34962
		},
		{
			"buffer":0,
			"byteLength":1536,
			"byteOffset":110756,
			"target":34962
		},
		{
			"buffer":0,
			"byteLength":2304,
			"byteOffset":112292,
			"target":34962
		},
		{
			"buffer":0,
			"byteLength":2304,
			"byteOffset":114596,
			"target":34962
		},
		{
			"buffer":0,
			"byteLength":1536,
			"byteOffset":116900,
			"target":34962
		},
		{
			"buffer":0,
			"byteLength":4,
			"byteOffset":118436
		},
		{
			"buffer":0,
			"byteLength":12,
			"byteOffset":118440
		},
		{
			"buffer":0,
			"byteLength":16,
			"byteOffset":118452
		},
		{
			"buffer":0,
			"byteLength":12,
			"byteOffset":118468
		},
		{
			"buffer":0,
			"byteLength":12,
			"byteOffset":118480
		},
		{
			"buffer":0,
			"byteLength":8,
			"byteOffset":118492
		},
		{
			"buffer":0,
			"byteLength":24,
			"byteOffset":118500
		},
		{
			"buffer":0,
			"byteLength":32,
			"byteOffset":118524
		},
		{
			"buffer":0,
			"byteLength":24,
			"byteOffset":118556
		},
		{
			"buffer":0,
			"byteLength":100,
			"byteOffset":118580
		},
		{
			"buffer":0,
			"byteLength":300,
			"byteOffset":118680
		},
		{
			"buffer":0,
			"byteLength":128,
			"byteOffset":118980
		}
	],
	"buffers":[
		{
			"byteLength":119108,
			"uri":"spire_iron_gate.bin"
		}
	]
}
