{
	"asset":{
		"generator":"Khronos glTF Blender I/O v5.2.40",
		"version":"2.0"
	},
	"extensionsUsed":[
		"KHR_materials_emissive_strength"
	],
	"scene":0,
	"scenes":[
		{
			"name":"Scene",
			"nodes":[
				0,
				1,
				2
			]
		}
	],
	"nodes":[
		{
			"mesh":0,
			"name":"Cylinder",
			"translation":[
				0,
				0.15000000596046448,
				0
			]
		},
		{
			"mesh":1,
			"name":"Cylinder.001",
			"translation":[
				0,
				0.3199999928474426,
				0
			]
		},
		{
			"mesh":2,
			"name":"Torus",
			"translation":[
				0,
				0.3100000023841858,
				0
			]
		}
	],
	"materials":[
		{
			"doubleSided":true,
			"name":"ElevatorStone",
			"pbrMetallicRoughness":{
				"baseColorFactor":[
					0.23999999463558197,
					0.2199999988079071,
					0.25999999046325684,
					1
				],
				"metallicFactor":0.10000000149011612,
				"roughnessFactor":0.8500000238418579
			}
		},
		{
			"doubleSided":true,
			"emissiveFactor":[
				1,
				0.20000000298023224,
				0.10000000149011612
			],
			"extensions":{
				"KHR_materials_emissive_strength":{
					"emissiveStrength":5
				}
			},
			"name":"ElevatorRunes",
			"pbrMetallicRoughness":{
				"baseColorFactor":[
					0.8999999761581421,
					0.20000000298023224,
					0.10000000149011612,
					1
				],
				"metallicFactor":0.10000000149011612,
				"roughnessFactor":0.699999988079071
			}
		}
	],
	"meshes":[
		{
			"name":"Cylinder",
			"primitives":[
				{
					"attributes":{
						"POSITION":0,
						"NORMAL":1,
						"TEXCOORD_0":2
					},
					"indices":3,
					"material":0
				}
			]
		},
		{
			"name":"Cylinder.001",
			"primitives":[
				{
					"attributes":{
						"POSITION":4,
						"NORMAL":5,
						"TEXCOORD_0":6
					},
					"indices":7,
					"material":1
				}
			]
		},
		{
			"name":"Torus",
			"primitives":[
				{
					"attributes":{
						"POSITION":8,
						"NORMAL":9,
						"TEXCOORD_0":10
					},
					"indices":11,
					"material":1
				}
			]
		}
	],
	"accessors":[
		{
			"bufferView":0,
			"componentType":5126,
			"count":48,
			"max":[
				1.7999999523162842,
				0.15000000596046448,
				1.7999999523162842
			],
			"min":[
				-1.7999999523162842,
				-0.15000000596046448,
				-1.7999999523162842
			],
			"type":"VEC3"
		},
		{
			"bufferView":1,
			"componentType":5126,
			"count":48,
			"type":"VEC3"
		},
		{
			"bufferView":2,
			"componentType":5126,
			"count":48,
			"type":"VEC2"
		},
		{
			"bufferView":3,
			"componentType":5123,
			"count":84,
			"type":"SCALAR"
		},
		{
			"bufferView":4,
			"componentType":5126,
			"count":192,
			"max":[
				0.4000000059604645,
				0.02500000037252903,
				0.4000000059604645
			],
			"min":[
				-0.4000000059604645,
				-0.02500000037252903,
				-0.4000000059604645
			],
			"type":"VEC3"
		},
		{
			"bufferView":5,
			"componentType":5126,
			"count":192,
			"type":"VEC3"
		},
		{
			"bufferView":6,
			"componentType":5126,
			"count":192,
			"type":"VEC2"
		},
		{
			"bufferView":7,
			"componentType":5123,
			"count":372,
			"type":"SCALAR"
		},
		{
			"bufferView":8,
			"componentType":5126,
			"count":2304,
			"max":[
				1.3799999952316284,
				0.07999999821186066,
				1.3799999952316284
			],
			"min":[
				-1.3799999952316284,
				-0.07999999821186066,
				-1.3799999952316284
			],
			"type":"VEC3"
		},
		{
			"bufferView":9,
			"componentType":5126,
			"count":2304,
			"type":"VEC3"
		},
		{
			"bufferView":10,
			"componentType":5126,
			"count":2304,
			"type":"VEC2"
		},
		{
			"bufferView":11,
			"componentType":5123,
			"count":3456,
			"type":"SCALAR"
		}
	],
	"bufferViews":[
		{
			"buffer":0,
			"byteLength":576,
			"byteOffset":0,
			"target":34962
		},
		{
			"buffer":0,
			"byteLength":576,
			"byteOffset":576,
			"target":34962
		},
		{
			"buffer":0,
			"byteLength":384,
			"byteOffset":1152,
			"target":34962
		},
		{
			"buffer":0,
			"byteLength":168,
			"byteOffset":1536,
			"target":34963
		},
		{
			"buffer":0,
			"byteLength":2304,
			"byteOffset":1704,
			"target":34962
		},
		{
			"buffer":0,
			"byteLength":2304,
			"byteOffset":4008,
			"target":34962
		},
		{
			"buffer":0,
			"byteLength":1536,
			"byteOffset":6312,
			"target":34962
		},
		{
			"buffer":0,
			"byteLength":744,
			"byteOffset":7848,
			"target":34963
		},
		{
			"buffer":0,
			"byteLength":27648,
			"byteOffset":8592,
			"target":34962
		},
		{
			"buffer":0,
			"byteLength":27648,
			"byteOffset":36240,
			"target":34962
		},
		{
			"buffer":0,
			"byteLength":18432,
			"byteOffset":63888,
			"target":34962
		},
		{
			"buffer":0,
			"byteLength":6912,
			"byteOffset":82320,
			"target":34963
		}
	],
	"buffers":[
		{
			"byteLength":89232,
			"uri":"spire_elevator_platform.bin"
		}
	]
}
