{
	"asset":{
		"generator":"Khronos glTF Blender I/O v5.2.40",
		"version":"2.0"
	},
	"extensionsUsed":[
		"KHR_materials_emissive_strength"
	],
	"scene":0,
	"scenes":[
		{
			"name":"Scene",
			"nodes":[
				0,
				1,
				2,
				3,
				4
			]
		}
	],
	"nodes":[
		{
			"mesh":0,
			"name":"Cube",
			"scale":[
				1.2000000476837158,
				1,
				1.2000000476837158
			],
			"translation":[
				0,
				0.30000001192092896,
				0
			]
		},
		{
			"mesh":1,
			"name":"Cube.001",
			"scale":[
				1.2999999523162842,
				0.800000011920929,
				1.2999999523162842
			],
			"translation":[
				0,
				4.199999809265137,
				0
			]
		},
		{
			"mesh":2,
			"name":"Cylinder",
			"translation":[
				0,
				2.200000047683716,
				0
			]
		},
		{
			"mesh":3,
			"name":"Cylinder.001",
			"rotation":[
				0.19866931438446045,
				0,
				0,
				0.9800665974617004
			],
			"translation":[
				0,
				2.200000047683716,
				0.3499999940395355
			]
		},
		{
			"mesh":4,
			"name":"Icosphere",
			"translation":[
				0,
				2.4000000953674316,
				0.41999998688697815
			]
		}
	],
	"materials":[
		{
			"doubleSided":true,
			"name":"PillarStone",
			"pbrMetallicRoughness":{
				"baseColorFactor":[
					0.25999999046325684,
					0.23999999463558197,
					0.2800000011920929,
					1
				],
				"metallicFactor":0.10000000149011612,
				"roughnessFactor":0.800000011920929
			}
		},
		{
			"doubleSided":true,
			"emissiveFactor":[
				1,
				0.5,
				0.05000000074505806
			],
			"extensions":{
				"KHR_materials_emissive_strength":{
					"emissiveStrength":5
				}
			},
			"name":"TorchFlame",
			"pbrMetallicRoughness":{
				"baseColorFactor":[
					1,
					0.5,
					0.05000000074505806,
					1
				],
				"metallicFactor":0.10000000149011612,
				"roughnessFactor":0.699999988079071
			}
		}
	],
	"meshes":[
		{
			"name":"Cube",
			"primitives":[
				{
					"attributes":{
						"POSITION":0,
						"NORMAL":1,
						"TEXCOORD_0":2
					},
					"indices":3,
					"material":0
				}
			]
		},
		{
			"name":"Cube.001",
			"primitives":[
				{
					"attributes":{
						"POSITION":4,
						"NORMAL":5,
						"TEXCOORD_0":6
					},
					"indices":3,
					"material":0
				}
			]
		},
		{
			"name":"Cylinder",
			"primitives":[
				{
					"attributes":{
						"POSITION":7,
						"NORMAL":8,
						"TEXCOORD_0":9
					},
					"indices":10,
					"material":0
				}
			]
		},
		{
			"name":"Cylinder.001",
			"primitives":[
				{
					"attributes":{
						"POSITION":11,
						"NORMAL":12,
						"TEXCOORD_0":13
					},
					"indices":10,
					"material":0
				}
			]
		},
		{
			"name":"Icosphere",
			"primitives":[
				{
					"attributes":{
						"POSITION":14,
						"NORMAL":15,
						"TEXCOORD_0":16
					},
					"indices":17,
					"material":1
				}
			]
		}
	],
	"accessors":[
		{
			"bufferView":0,
			"componentType":5126,
			"count":24,
			"max":[
				0.30000001192092896,
				0.30000001192092896,
				0.30000001192092896
			],
			"min":[
				-0.30000001192092896,
				-0.30000001192092896,
				-0.30000001192092896
			],
			"type":"VEC3"
		},
		{
			"bufferView":1,
			"componentType":5126,
			"count":24,
			"type":"VEC3"
		},
		{
			"bufferView":2,
			"componentType":5126,
			"count":24,
			"type":"VEC2"
		},
		{
			"bufferView":3,
			"componentType":5123,
			"count":36,
			"type":"SCALAR"
		},
		{
			"bufferView":4,
			"componentType":5126,
			"count":24,
			"max":[
				0.30000001192092896,
				0.30000001192092896,
				0.30000001192092896
			],
			"min":[
				-0.30000001192092896,
				-0.30000001192092896,
				-0.30000001192092896
			],
			"type":"VEC3"
		},
		{
			"bufferView":5,
			"componentType":5126,
			"count":24,
			"type":"VEC3"
		},
		{
			"bufferView":6,
			"componentType":5126,
			"count":24,
			"type":"VEC2"
		},
		{
			"bufferView":7,
			"componentType":5126,
			"count":192,
			"max":[
				0.2800000011920929,
				1.899999976158142,
				0.2800000011920929
			],
			"min":[
				-0.2800000011920929,
				-1.899999976158142,
				-0.2800000011920929
			],
			"type":"VEC3"
		},
		{
			"bufferView":8,
			"componentType":5126,
			"count":192,
			"type":"VEC3"
		},
		{
			"bufferView":9,
			"componentType":5126,
			"count":192,
			"type":"VEC2"
		},
		{
			"bufferView":10,
			"componentType":5123,
			"count":372,
			"type":"SCALAR"
		},
		{
			"bufferView":11,
			"componentType":5126,
			"count":192,
			"max":[
				0.05999999865889549,
				0.17499999701976776,
				0.05999999865889549
			],
			"min":[
				-0.05999999865889549,
				-0.17499999701976776,
				-0.05999999865889549
			],
			"type":"VEC3"
		},
		{
			"bufferView":12,
			"componentType":5126,
			"count":192,
			"type":"VEC3"
		},
		{
			"bufferView":13,
			"componentType":5126,
			"count":192,
			"type":"VEC2"
		},
		{
			"bufferView":14,
			"componentType":5126,
			"count":240,
			"max":[
				0.11412695050239563,
				0.11999999731779099,
				0.11999998986721039
			],
			"min":[
				-0.11412695050239563,
				-0.11999999731779099,
				-0.11999998986721039
			],
			"type":"VEC3"
		},
		{
			"bufferView":15,
			"componentType":5126,
			"count":240,
			"type":"VEC3"
		},
		{
			"bufferView":16,
			"componentType":5126,
			"count":240,
			"type":"VEC2"
		},
		{
			"bufferView":17,
			"componentType":5123,
			"count":240,
			"type":"SCALAR"
		}
	],
	"bufferViews":[
		{
			"buffer":0,
			"byteLength":288,
			"byteOffset":0,
			"target":34962
		},
		{
			"buffer":0,
			"byteLength":288,
			"byteOffset":288,
			"target":34962
		},
		{
			"buffer":0,
			"byteLength":192,
			"byteOffset":576,
			"target":34962
		},
		{
			"buffer":0,
			"byteLength":72,
			"byteOffset":768,
			"target":34963
		},
		{
			"buffer":0,
			"byteLength":288,
			"byteOffset":840,
			"target":34962
		},
		{
			"buffer":0,
			"byteLength":288,
			"byteOffset":1128,
			"target":34962
		},
		{
			"buffer":0,
			"byteLength":192,
			"byteOffset":1416,
			"target":34962
		},
		{
			"buffer":0,
			"byteLength":2304,
			"byteOffset":1608,
			"target":34962
		},
		{
			"buffer":0,
			"byteLength":2304,
			"byteOffset":3912,
			"target":34962
		},
		{
			"buffer":0,
			"byteLength":1536,
			"byteOffset":6216,
			"target":34962
		},
		{
			"buffer":0,
			"byteLength":744,
			"byteOffset":7752,
			"target":34963
		},
		{
			"buffer":0,
			"byteLength":2304,
			"byteOffset":8496,
			"target":34962
		},
		{
			"buffer":0,
			"byteLength":2304,
			"byteOffset":10800,
			"target":34962
		},
		{
			"buffer":0,
			"byteLength":1536,
			"byteOffset":13104,
			"target":34962
		},
		{
			"buffer":0,
			"byteLength":2880,
			"byteOffset":14640,
			"target":34962
		},
		{
			"buffer":0,
			"byteLength":2880,
			"byteOffset":17520,
			"target":34962
		},
		{
			"buffer":0,
			"byteLength":1920,
			"byteOffset":20400,
			"target":34962
		},
		{
			"buffer":0,
			"byteLength":480,
			"byteOffset":22320,
			"target":34963
		}
	],
	"buffers":[
		{
			"byteLength":22800,
			"uri":"spire_corridor_pillar.bin"
		}
	]
}
