{
	"asset":{
		"generator":"Khronos glTF Blender I/O v5.2.40",
		"version":"2.0"
	},
	"extensionsUsed":[
		"KHR_materials_emissive_strength"
	],
	"scene":0,
	"scenes":[
		{
			"name":"Scene",
			"nodes":[
				4,
				5,
				6,
				7,
				8,
				9
			]
		}
	],
	"nodes":[
		{
			"mesh":0,
			"name":"Cube.005",
			"rotation":[
				0.7071067690849304,
				0,
				0,
				0.7071067690849304
			],
			"translation":[
				0,
				0.48000001907348633,
				0.550000011920929
			]
		},
		{
			"mesh":1,
			"name":"Cylinder",
			"rotation":[
				0.5,
				0.5,
				-0.5,
				0.5
			],
			"scale":[
				1,
				0.44999998807907104,
				1
			],
			"translation":[
				0,
				1,
				0.550000011920929
			]
		},
		{
			"children":[
				0,
				1
			],
			"name":"Lid",
			"rotation":[
				3.0908619663705394e-08,
				0.7071067690849304,
				0.7071067690849304,
				3.0908619663705394e-08
			],
			"translation":[
				0,
				0.550000011920929,
				-0.5
			]
		},
		{
			"children":[
				2
			],
			"name":"Root"
		},
		{
			"children":[
				3
			],
			"name":"ChestRig"
		},
		{
			"mesh":2,
			"name":"Cube",
			"scale":[
				1.600000023841858,
				0.800000011920929,
				1
			],
			"translation":[
				0,
				0.25,
				0
			]
		},
		{
			"mesh":3,
			"name":"Cube.001",
			"scale":[
				1.2000000476837158,
				5,
				1.2000000476837158
			],
			"translation":[
				-0.800000011920929,
				0.25,
				0.5
			]
		},
		{
			"mesh":4,
			"name":"Cube.002",
			"scale":[
				1.2000000476837158,
				5,
				1.2000000476837158
			],
			"translation":[
				-0.800000011920929,
				0.25,
				-0.5
			]
		},
		{
			"mesh":5,
			"name":"Cube.003",
			"scale":[
				1.2000000476837158,
				5,
				1.2000000476837158
			],
			"translation":[
				0.800000011920929,
				0.25,
				0.5
			]
		},
		{
			"mesh":6,
			"name":"Cube.004",
			"scale":[
				1.2000000476837158,
				5,
				1.2000000476837158
			],
			"translation":[
				0.800000011920929,
				0.25,
				-0.5
			]
		}
	],
	"animations":[
		{
			"channels":[
				{
					"sampler":0,
					"target":{
						"node":3,
						"path":"translation"
					}
				},
				{
					"sampler":1,
					"target":{
						"node":3,
						"path":"rotation"
					}
				},
				{
					"sampler":2,
					"target":{
						"node":3,
						"path":"scale"
					}
				},
				{
					"sampler":3,
					"target":{
						"node":2,
						"path":"translation"
					}
				},
				{
					"sampler":4,
					"target":{
						"node":2,
						"path":"rotation"
					}
				},
				{
					"sampler":5,
					"target":{
						"node":2,
						"path":"scale"
					}
				}
			],
			"name":"idle",
			"samplers":[
				{
					"input":23,
					"interpolation":"STEP",
					"output":24
				},
				{
					"input":23,
					"interpolation":"STEP",
					"output":25
				},
				{
					"input":23,
					"interpolation":"STEP",
					"output":26
				},
				{
					"input":23,
					"interpolation":"STEP",
					"output":27
				},
				{
					"input":23,
					"interpolation":"STEP",
					"output":28
				},
				{
					"input":23,
					"interpolation":"STEP",
					"output":26
				}
			]
		},
		{
			"channels":[
				{
					"sampler":0,
					"target":{
						"node":3,
						"path":"translation"
					}
				},
				{
					"sampler":1,
					"target":{
						"node":3,
						"path":"rotation"
					}
				},
				{
					"sampler":2,
					"target":{
						"node":3,
						"path":"scale"
					}
				},
				{
					"sampler":3,
					"target":{
						"node":2,
						"path":"translation"
					}
				},
				{
					"sampler":4,
					"target":{
						"node":2,
						"path":"rotation"
					}
				},
				{
					"sampler":5,
					"target":{
						"node":2,
						"path":"scale"
					}
				}
			],
			"name":"open",
			"samplers":[
				{
					"input":29,
					"interpolation":"STEP",
					"output":30
				},
				{
					"input":29,
					"interpolation":"STEP",
					"output":31
				},
				{
					"input":29,
					"interpolation":"STEP",
					"output":32
				},
				{
					"input":29,
					"interpolation":"STEP",
					"output":33
				},
				{
					"input":29,
					"interpolation":"STEP",
					"output":34
				},
				{
					"input":29,
					"interpolation":"STEP",
					"output":32
				}
			]
		}
	],
	"materials":[
		{
			"doubleSided":true,
			"emissiveFactor":[
				1,
				0.699999988079071,
				0.10000000149011612
			],
			"extensions":{
				"KHR_materials_emissive_strength":{
					"emissiveStrength":4
				}
			},
			"name":"RunicSeal",
			"pbrMetallicRoughness":{
				"baseColorFactor":[
					0.8999999761581421,
					0.699999988079071,
					0.10000000149011612,
					1
				],
				"metallicFactor":0.10000000149011612,
				"roughnessFactor":0.699999988079071
			}
		},
		{
			"doubleSided":true,
			"name":"DarkOakPlanks",
			"pbrMetallicRoughness":{
				"baseColorFactor":[
					0.1599999964237213,
					0.10000000149011612,
					0.07000000029802322,
					1
				],
				"metallicFactor":0.10000000149011612,
				"roughnessFactor":0.8500000238418579
			}
		},
		{
			"doubleSided":true,
			"name":"ForgedIronBands",
			"pbrMetallicRoughness":{
				"baseColorFactor":[
					0.20000000298023224,
					0.20000000298023224,
					0.2199999988079071,
					1
				],
				"metallicFactor":0.800000011920929,
				"roughnessFactor":0.6000000238418579
			}
		}
	],
	"meshes":[
		{
			"name":"Cube.005",
			"primitives":[
				{
					"attributes":{
						"POSITION":0,
						"NORMAL":1,
						"TEXCOORD_0":2
					},
					"indices":3,
					"material":0
				}
			]
		},
		{
			"name":"Cylinder",
			"primitives":[
				{
					"attributes":{
						"POSITION":4,
						"NORMAL":5,
						"TEXCOORD_0":6
					},
					"indices":7,
					"material":1
				}
			]
		},
		{
			"name":"Cube",
			"primitives":[
				{
					"attributes":{
						"POSITION":8,
						"NORMAL":9,
						"TEXCOORD_0":10
					},
					"indices":3,
					"material":1
				}
			]
		},
		{
			"name":"Cube.001",
			"primitives":[
				{
					"attributes":{
						"POSITION":11,
						"NORMAL":12,
						"TEXCOORD_0":13
					},
					"indices":3,
					"material":2
				}
			]
		},
		{
			"name":"Cube.002",
			"primitives":[
				{
					"attributes":{
						"POSITION":14,
						"NORMAL":15,
						"TEXCOORD_0":16
					},
					"indices":3,
					"material":2
				}
			]
		},
		{
			"name":"Cube.003",
			"primitives":[
				{
					"attributes":{
						"POSITION":17,
						"NORMAL":18,
						"TEXCOORD_0":19
					},
					"indices":3,
					"material":2
				}
			]
		},
		{
			"name":"Cube.004",
			"primitives":[
				{
					"attributes":{
						"POSITION":20,
						"NORMAL":21,
						"TEXCOORD_0":22
					},
					"indices":3,
					"material":2
				}
			]
		}
	],
	"skins":[
		{
			"inverseBindMatrices":35,
			"joints":[
				3,
				2
			],
			"name":"ChestRig"
		}
	],
	"accessors":[
		{
			"bufferView":0,
			"componentType":5126,
			"count":24,
			"max":[
				0.05999999865889549,
				0.05999999865889549,
				0.05999999865889549
			],
			"min":[
				-0.05999999865889549,
				-0.05999999865889549,
				-0.05999999865889549
			],
			"type":"VEC3"
		},
		{
			"bufferView":1,
			"componentType":5126,
			"count":24,
			"type":"VEC3"
		},
		{
			"bufferView":2,
			"componentType":5126,
			"count":24,
			"type":"VEC2"
		},
		{
			"bufferView":3,
			"componentType":5123,
			"count":36,
			"type":"SCALAR"
		},
		{
			"bufferView":4,
			"componentType":5126,
			"count":192,
			"max":[
				0.5,
				0.800000011920929,
				0.5
			],
			"min":[
				-0.5,
				-0.800000011920929,
				-0.5
			],
			"type":"VEC3"
		},
		{
			"bufferView":5,
			"componentType":5126,
			"count":192,
			"type":"VEC3"
		},
		{
			"bufferView":6,
			"componentType":5126,
			"count":192,
			"type":"VEC2"
		},
		{
			"bufferView":7,
			"componentType":5123,
			"count":372,
			"type":"SCALAR"
		},
		{
			"bufferView":8,
			"componentType":5126,
			"count":24,
			"max":[
				0.25,
				0.25,
				0.25
			],
			"min":[
				-0.25,
				-0.25,
				-0.25
			],
			"type":"VEC3"
		},
		{
			"bufferView":9,
			"componentType":5126,
			"count":24,
			"type":"VEC3"
		},
		{
			"bufferView":10,
			"componentType":5126,
			"count":24,
			"type":"VEC2"
		},
		{
			"bufferView":11,
			"componentType":5126,
			"count":24,
			"max":[
				0.03999999910593033,
				0.03999999910593033,
				0.03999999910593033
			],
			"min":[
				-0.03999999910593033,
				-0.03999999910593033,
				-0.03999999910593033
			],
			"type":"VEC3"
		},
		{
			"bufferView":12,
			"componentType":5126,
			"count":24,
			"type":"VEC3"
		},
		{
			"bufferView":13,
			"componentType":5126,
			"count":24,
			"type":"VEC2"
		},
		{
			"bufferView":14,
			"componentType":5126,
			"count":24,
			"max":[
				0.03999999910593033,
				0.03999999910593033,
				0.03999999910593033
			],
			"min":[
				-0.03999999910593033,
				-0.03999999910593033,
				-0.03999999910593033
			],
			"type":"VEC3"
		},
		{
			"bufferView":15,
			"componentType":5126,
			"count":24,
			"type":"VEC3"
		},
		{
			"bufferView":16,
			"componentType":5126,
			"count":24,
			"type":"VEC2"
		},
		{
			"bufferView":17,
			"componentType":5126,
			"count":24,
			"max":[
				0.03999999910593033,
				0.03999999910593033,
				0.03999999910593033
			],
			"min":[
				-0.03999999910593033,
				-0.03999999910593033,
				-0.03999999910593033
			],
			"type":"VEC3"
		},
		{
			"bufferView":18,
			"componentType":5126,
			"count":24,
			"type":"VEC3"
		},
		{
			"bufferView":19,
			"componentType":5126,
			"count":24,
			"type":"VEC2"
		},
		{
			"bufferView":20,
			"componentType":5126,
			"count":24,
			"max":[
				0.03999999910593033,
				0.03999999910593033,
				0.03999999910593033
			],
			"min":[
				-0.03999999910593033,
				-0.03999999910593033,
				-0.03999999910593033
			],
			"type":"VEC3"
		},
		{
			"bufferView":21,
			"componentType":5126,
			"count":24,
			"type":"VEC3"
		},
		{
			"bufferView":22,
			"componentType":5126,
			"count":24,
			"type":"VEC2"
		},
		{
			"bufferView":23,
			"componentType":5126,
			"count":1,
			"max":[
				0.041666666666666664
			],
			"min":[
				0.041666666666666664
			],
			"type":"SCALAR"
		},
		{
			"bufferView":24,
			"componentType":5126,
			"count":1,
			"type":"VEC3"
		},
		{
			"bufferView":25,
			"componentType":5126,
			"count":1,
			"type":"VEC4"
		},
		{
			"bufferView":26,
			"componentType":5126,
			"count":1,
			"type":"VEC3"
		},
		{
			"bufferView":27,
			"componentType":5126,
			"count":1,
			"type":"VEC3"
		},
		{
			"bufferView":28,
			"componentType":5126,
			"count":1,
			"type":"VEC4"
		},
		{
			"bufferView":29,
			"componentType":5126,
			"count":2,
			"max":[
				0.8333333333333334
			],
			"min":[
				0.041666666666666664
			],
			"type":"SCALAR"
		},
		{
			"bufferView":30,
			"componentType":5126,
			"count":2,
			"type":"VEC3"
		},
		{
			"bufferView":31,
			"componentType":5126,
			"count":2,
			"type":"VEC4"
		},
		{
			"bufferView":32,
			"componentType":5126,
			"count":2,
			"type":"VEC3"
		},
		{
			"bufferView":33,
			"componentType":5126,
			"count":2,
			"type":"VEC3"
		},
		{
			"bufferView":34,
			"componentType":5126,
			"count":2,
			"type":"VEC4"
		},
		{
			"bufferView":35,
			"componentType":5126,
			"count":2,
			"type":"MAT4"
		}
	],
	"bufferViews":[
		{
			"buffer":0,
			"byteLength":288,
			"byteOffset":0,
			"target":34962
		},
		{
			"buffer":0,
			"byteLength":288,
			"byteOffset":288,
			"target":34962
		},
		{
			"buffer":0,
			"byteLength":192,
			"byteOffset":576,
			"target":34962
		},
		{
			"buffer":0,
			"byteLength":72,
			"byteOffset":768,
			"target":34963
		},
		{
			"buffer":0,
			"byteLength":2304,
			"byteOffset":840,
			"target":34962
		},
		{
			"buffer":0,
			"byteLength":2304,
			"byteOffset":3144,
			"target":34962
		},
		{
			"buffer":0,
			"byteLength":1536,
			"byteOffset":5448,
			"target":34962
		},
		{
			"buffer":0,
			"byteLength":744,
			"byteOffset":6984,
			"target":34963
		},
		{
			"buffer":0,
			"byteLength":288,
			"byteOffset":7728,
			"target":34962
		},
		{
			"buffer":0,
			"byteLength":288,
			"byteOffset":8016,
			"target":34962
		},
		{
			"buffer":0,
			"byteLength":192,
			"byteOffset":8304,
			"target":34962
		},
		{
			"buffer":0,
			"byteLength":288,
			"byteOffset":8496,
			"target":34962
		},
		{
			"buffer":0,
			"byteLength":288,
			"byteOffset":8784,
			"target":34962
		},
		{
			"buffer":0,
			"byteLength":192,
			"byteOffset":9072,
			"target":34962
		},
		{
			"buffer":0,
			"byteLength":288,
			"byteOffset":9264,
			"target":34962
		},
		{
			"buffer":0,
			"byteLength":288,
			"byteOffset":9552,
			"target":34962
		},
		{
			"buffer":0,
			"byteLength":192,
			"byteOffset":9840,
			"target":34962
		},
		{
			"buffer":0,
			"byteLength":288,
			"byteOffset":10032,
			"target":34962
		},
		{
			"buffer":0,
			"byteLength":288,
			"byteOffset":10320,
			"target":34962
		},
		{
			"buffer":0,
			"byteLength":192,
			"byteOffset":10608,
			"target":34962
		},
		{
			"buffer":0,
			"byteLength":288,
			"byteOffset":10800,
			"target":34962
		},
		{
			"buffer":0,
			"byteLength":288,
			"byteOffset":11088,
			"target":34962
		},
		{
			"buffer":0,
			"byteLength":192,
			"byteOffset":11376,
			"target":34962
		},
		{
			"buffer":0,
			"byteLength":4,
			"byteOffset":11568
		},
		{
			"buffer":0,
			"byteLength":12,
			"byteOffset":11572
		},
		{
			"buffer":0,
			"byteLength":16,
			"byteOffset":11584
		},
		{
			"buffer":0,
			"byteLength":12,
			"byteOffset":11600
		},
		{
			"buffer":0,
			"byteLength":12,
			"byteOffset":11612
		},
		{
			"buffer":0,
			"byteLength":16,
			"byteOffset":11624
		},
		{
			"buffer":0,
			"byteLength":8,
			"byteOffset":11640
		},
		{
			"buffer":0,
			"byteLength":24,
			"byteOffset":11648
		},
		{
			"buffer":0,
			"byteLength":32,
			"byteOffset":11672
		},
		{
			"buffer":0,
			"byteLength":24,
			"byteOffset":11704
		},
		{
			"buffer":0,
			"byteLength":24,
			"byteOffset":11728
		},
		{
			"buffer":0,
			"byteLength":32,
			"byteOffset":11752
		},
		{
			"buffer":0,
			"byteLength":128,
			"byteOffset":11784
		}
	],
	"buffers":[
		{
			"byteLength":11912,
			"uri":"spire_chest.bin"
		}
	]
}
