{
	"asset":{
		"generator":"Khronos glTF Blender I/O v5.2.40",
		"version":"2.0"
	},
	"scene":0,
	"scenes":[
		{
			"name":"Scene",
			"nodes":[
				17
			]
		}
	],
	"nodes":[
		{
			"mesh":0,
			"name":"Cube.001",
			"rotation":[
				0.7394790053367615,
				-0.05026897042989731,
				0.055565156042575836,
				0.6689965128898621
			],
			"scale":[
				4.500000953674316,
				11.000000953674316,
				0.5
			],
			"translation":[
				0.699999988079071,
				0.37268152832984924,
				1.399999976158142
			]
		},
		{
			"mesh":1,
			"name":"Cube.002",
			"rotation":[
				0.7071067690849304,
				-3.1003661860040665e-08,
				-5.975646644174049e-08,
				0.7071067690849304
			],
			"scale":[
				4.800000190734863,
				1.5,
				0.20000000298023224
			],
			"translation":[
				0.7000000476837158,
				0.3126813471317291,
				1.3999998569488525
			]
		},
		{
			"children":[
				0,
				1
			],
			"name":"Arm_L",
			"rotation":[
				-0.87164705991745,
				-0.33448243141174316,
				-0.33448243141174316,
				0.12835294008255005
			],
			"scale":[
				0.9999999403953552,
				0.9999998211860657,
				1
			],
			"translation":[
				0.3499999940395355,
				0.3999999761581421,
				0
			]
		},
		{
			"mesh":2,
			"name":"Cylinder.001",
			"rotation":[
				0.7071067690849304,
				1.8812704283277526e-08,
				1.9365737458088006e-08,
				0.7071067690849304
			],
			"translation":[
				-0.8000001907348633,
				0.47268131375312805,
				1.2999999523162842
			]
		},
		{
			"mesh":3,
			"name":"Icosphere",
			"rotation":[
				0.7071067690849304,
				1.8812704283277526e-08,
				1.9365737458088006e-08,
				0.7071067690849304
			],
			"translation":[
				-0.8000003099441528,
				0.47268134355545044,
				1.8500001430511475
			]
		},
		{
			"children":[
				3,
				4
			],
			"name":"Arm_R",
			"rotation":[
				-0.87164705991745,
				0.33448243141174316,
				0.33448243141174316,
				0.12835294008255005
			],
			"scale":[
				0.9999999403953552,
				0.9999998211860657,
				1
			],
			"translation":[
				-0.3499999940395355,
				0.3999999761581421,
				0
			]
		},
		{
			"mesh":4,
			"name":"Cone",
			"rotation":[
				0.6991667151451111,
				-0.10566870868206024,
				0.10566870868206024,
				0.6991667747497559
			],
			"translation":[
				-0.25,
				0.5000001192092896,
				2.450000047683716
			]
		},
		{
			"mesh":5,
			"name":"Cone.001",
			"rotation":[
				0.6991667151451111,
				0.10566870868206024,
				-0.10566870868206024,
				0.6991667747497559
			],
			"translation":[
				0.25,
				0.5000001192092896,
				2.450000047683716
			]
		},
		{
			"mesh":6,
			"name":"Cylinder",
			"rotation":[
				0.7071067690849304,
				0,
				0,
				0.7071067690849304
			],
			"translation":[
				0,
				0.5000001192092896,
				2.200000047683716
			]
		},
		{
			"children":[
				6,
				7,
				8
			],
			"name":"Head",
			"translation":[
				0,
				0.5,
				0
			]
		},
		{
			"mesh":7,
			"name":"Cube",
			"rotation":[
				0.7071067690849304,
				0,
				0,
				0.7071067690849304
			],
			"scale":[
				0.949999988079071,
				0.949999988079071,
				0.6499999761581421
			],
			"translation":[
				0,
				0.5,
				1.600000023841858
			]
		},
		{
			"children":[
				2,
				5,
				9,
				10
			],
			"name":"Chest",
			"translation":[
				0,
				0.3999999761581421,
				0
			]
		},
		{
			"mesh":8,
			"name":"Cube.003",
			"rotation":[
				0.7071067690849304,
				0,
				0,
				0.7071067690849304
			],
			"scale":[
				0.8999999761581421,
				2.5,
				0.8999999761581421
			],
			"translation":[
				0.2800000011920929,
				1,
				0.4999999701976776
			]
		},
		{
			"children":[
				12
			],
			"name":"Leg_L",
			"rotation":[
				1,
				0,
				-4.371138828673793e-08,
				0
			],
			"translation":[
				0.25,
				0,
				0
			]
		},
		{
			"mesh":9,
			"name":"Cube.004",
			"rotation":[
				0.7071067690849304,
				0,
				0,
				0.7071067690849304
			],
			"scale":[
				0.8999999761581421,
				2.5,
				0.8999999761581421
			],
			"translation":[
				-0.2800000011920929,
				1,
				0.5
			]
		},
		{
			"children":[
				14
			],
			"name":"Leg_R",
			"rotation":[
				1,
				0,
				-4.371138828673793e-08,
				0
			],
			"translation":[
				-0.25,
				0,
				0
			]
		},
		{
			"children":[
				11,
				13,
				15
			],
			"name":"Hips",
			"translation":[
				0,
				1,
				0
			]
		},
		{
			"children":[
				16
			],
			"name":"TankRig"
		}
	],
	"animations":[
		{
			"channels":[
				{
					"sampler":0,
					"target":{
						"node":16,
						"path":"translation"
					}
				},
				{
					"sampler":1,
					"target":{
						"node":16,
						"path":"rotation"
					}
				},
				{
					"sampler":2,
					"target":{
						"node":16,
						"path":"scale"
					}
				},
				{
					"sampler":3,
					"target":{
						"node":11,
						"path":"translation"
					}
				},
				{
					"sampler":4,
					"target":{
						"node":11,
						"path":"rotation"
					}
				},
				{
					"sampler":5,
					"target":{
						"node":11,
						"path":"scale"
					}
				},
				{
					"sampler":6,
					"target":{
						"node":2,
						"path":"translation"
					}
				},
				{
					"sampler":7,
					"target":{
						"node":2,
						"path":"rotation"
					}
				},
				{
					"sampler":8,
					"target":{
						"node":2,
						"path":"scale"
					}
				},
				{
					"sampler":9,
					"target":{
						"node":5,
						"path":"translation"
					}
				},
				{
					"sampler":10,
					"target":{
						"node":5,
						"path":"rotation"
					}
				},
				{
					"sampler":11,
					"target":{
						"node":5,
						"path":"scale"
					}
				},
				{
					"sampler":12,
					"target":{
						"node":9,
						"path":"translation"
					}
				},
				{
					"sampler":13,
					"target":{
						"node":9,
						"path":"rotation"
					}
				},
				{
					"sampler":14,
					"target":{
						"node":9,
						"path":"scale"
					}
				},
				{
					"sampler":15,
					"target":{
						"node":13,
						"path":"translation"
					}
				},
				{
					"sampler":16,
					"target":{
						"node":13,
						"path":"rotation"
					}
				},
				{
					"sampler":17,
					"target":{
						"node":13,
						"path":"scale"
					}
				},
				{
					"sampler":18,
					"target":{
						"node":15,
						"path":"translation"
					}
				},
				{
					"sampler":19,
					"target":{
						"node":15,
						"path":"rotation"
					}
				},
				{
					"sampler":20,
					"target":{
						"node":15,
						"path":"scale"
					}
				}
			],
			"name":"attack",
			"samplers":[
				{
					"input":34,
					"interpolation":"STEP",
					"output":35
				},
				{
					"input":34,
					"interpolation":"STEP",
					"output":36
				},
				{
					"input":34,
					"interpolation":"STEP",
					"output":37
				},
				{
					"input":34,
					"interpolation":"STEP",
					"output":38
				},
				{
					"input":34,
					"interpolation":"STEP",
					"output":36
				},
				{
					"input":34,
					"interpolation":"STEP",
					"output":37
				},
				{
					"input":34,
					"interpolation":"STEP",
					"output":39
				},
				{
					"input":34,
					"interpolation":"STEP",
					"output":40
				},
				{
					"input":34,
					"interpolation":"STEP",
					"output":41
				},
				{
					"input":34,
					"interpolation":"STEP",
					"output":42
				},
				{
					"input":34,
					"interpolation":"STEP",
					"output":43
				},
				{
					"input":34,
					"interpolation":"STEP",
					"output":41
				},
				{
					"input":34,
					"interpolation":"STEP",
					"output":44
				},
				{
					"input":34,
					"interpolation":"STEP",
					"output":36
				},
				{
					"input":34,
					"interpolation":"STEP",
					"output":37
				},
				{
					"input":34,
					"interpolation":"STEP",
					"output":45
				},
				{
					"input":34,
					"interpolation":"STEP",
					"output":46
				},
				{
					"input":34,
					"interpolation":"STEP",
					"output":37
				},
				{
					"input":34,
					"interpolation":"STEP",
					"output":47
				},
				{
					"input":34,
					"interpolation":"STEP",
					"output":46
				},
				{
					"input":34,
					"interpolation":"STEP",
					"output":37
				}
			]
		},
		{
			"channels":[
				{
					"sampler":0,
					"target":{
						"node":16,
						"path":"translation"
					}
				},
				{
					"sampler":1,
					"target":{
						"node":16,
						"path":"rotation"
					}
				},
				{
					"sampler":2,
					"target":{
						"node":16,
						"path":"scale"
					}
				},
				{
					"sampler":3,
					"target":{
						"node":11,
						"path":"translation"
					}
				},
				{
					"sampler":4,
					"target":{
						"node":11,
						"path":"rotation"
					}
				},
				{
					"sampler":5,
					"target":{
						"node":11,
						"path":"scale"
					}
				},
				{
					"sampler":6,
					"target":{
						"node":2,
						"path":"translation"
					}
				},
				{
					"sampler":7,
					"target":{
						"node":2,
						"path":"rotation"
					}
				},
				{
					"sampler":8,
					"target":{
						"node":2,
						"path":"scale"
					}
				},
				{
					"sampler":9,
					"target":{
						"node":5,
						"path":"translation"
					}
				},
				{
					"sampler":10,
					"target":{
						"node":5,
						"path":"rotation"
					}
				},
				{
					"sampler":11,
					"target":{
						"node":5,
						"path":"scale"
					}
				},
				{
					"sampler":12,
					"target":{
						"node":9,
						"path":"translation"
					}
				},
				{
					"sampler":13,
					"target":{
						"node":9,
						"path":"rotation"
					}
				},
				{
					"sampler":14,
					"target":{
						"node":9,
						"path":"scale"
					}
				},
				{
					"sampler":15,
					"target":{
						"node":13,
						"path":"translation"
					}
				},
				{
					"sampler":16,
					"target":{
						"node":13,
						"path":"rotation"
					}
				},
				{
					"sampler":17,
					"target":{
						"node":13,
						"path":"scale"
					}
				},
				{
					"sampler":18,
					"target":{
						"node":15,
						"path":"translation"
					}
				},
				{
					"sampler":19,
					"target":{
						"node":15,
						"path":"rotation"
					}
				},
				{
					"sampler":20,
					"target":{
						"node":15,
						"path":"scale"
					}
				}
			],
			"name":"block",
			"samplers":[
				{
					"input":48,
					"interpolation":"STEP",
					"output":35
				},
				{
					"input":48,
					"interpolation":"STEP",
					"output":36
				},
				{
					"input":48,
					"interpolation":"STEP",
					"output":37
				},
				{
					"input":48,
					"interpolation":"STEP",
					"output":38
				},
				{
					"input":48,
					"interpolation":"STEP",
					"output":36
				},
				{
					"input":48,
					"interpolation":"STEP",
					"output":37
				},
				{
					"input":48,
					"interpolation":"STEP",
					"output":39
				},
				{
					"input":48,
					"interpolation":"STEP",
					"output":40
				},
				{
					"input":48,
					"interpolation":"STEP",
					"output":41
				},
				{
					"input":48,
					"interpolation":"STEP",
					"output":42
				},
				{
					"input":48,
					"interpolation":"STEP",
					"output":43
				},
				{
					"input":48,
					"interpolation":"STEP",
					"output":41
				},
				{
					"input":48,
					"interpolation":"STEP",
					"output":44
				},
				{
					"input":48,
					"interpolation":"STEP",
					"output":36
				},
				{
					"input":48,
					"interpolation":"STEP",
					"output":37
				},
				{
					"input":48,
					"interpolation":"STEP",
					"output":45
				},
				{
					"input":48,
					"interpolation":"STEP",
					"output":46
				},
				{
					"input":48,
					"interpolation":"STEP",
					"output":37
				},
				{
					"input":48,
					"interpolation":"STEP",
					"output":47
				},
				{
					"input":48,
					"interpolation":"STEP",
					"output":46
				},
				{
					"input":48,
					"interpolation":"STEP",
					"output":37
				}
			]
		},
		{
			"channels":[
				{
					"sampler":0,
					"target":{
						"node":16,
						"path":"translation"
					}
				},
				{
					"sampler":1,
					"target":{
						"node":16,
						"path":"rotation"
					}
				},
				{
					"sampler":2,
					"target":{
						"node":16,
						"path":"scale"
					}
				},
				{
					"sampler":3,
					"target":{
						"node":11,
						"path":"translation"
					}
				},
				{
					"sampler":4,
					"target":{
						"node":11,
						"path":"rotation"
					}
				},
				{
					"sampler":5,
					"target":{
						"node":11,
						"path":"scale"
					}
				},
				{
					"sampler":6,
					"target":{
						"node":2,
						"path":"translation"
					}
				},
				{
					"sampler":7,
					"target":{
						"node":2,
						"path":"rotation"
					}
				},
				{
					"sampler":8,
					"target":{
						"node":2,
						"path":"scale"
					}
				},
				{
					"sampler":9,
					"target":{
						"node":5,
						"path":"translation"
					}
				},
				{
					"sampler":10,
					"target":{
						"node":5,
						"path":"rotation"
					}
				},
				{
					"sampler":11,
					"target":{
						"node":5,
						"path":"scale"
					}
				},
				{
					"sampler":12,
					"target":{
						"node":9,
						"path":"translation"
					}
				},
				{
					"sampler":13,
					"target":{
						"node":9,
						"path":"rotation"
					}
				},
				{
					"sampler":14,
					"target":{
						"node":9,
						"path":"scale"
					}
				},
				{
					"sampler":15,
					"target":{
						"node":13,
						"path":"translation"
					}
				},
				{
					"sampler":16,
					"target":{
						"node":13,
						"path":"rotation"
					}
				},
				{
					"sampler":17,
					"target":{
						"node":13,
						"path":"scale"
					}
				},
				{
					"sampler":18,
					"target":{
						"node":15,
						"path":"translation"
					}
				},
				{
					"sampler":19,
					"target":{
						"node":15,
						"path":"rotation"
					}
				},
				{
					"sampler":20,
					"target":{
						"node":15,
						"path":"scale"
					}
				}
			],
			"name":"death",
			"samplers":[
				{
					"input":49,
					"interpolation":"LINEAR",
					"output":50
				},
				{
					"input":51,
					"interpolation":"STEP",
					"output":36
				},
				{
					"input":51,
					"interpolation":"STEP",
					"output":37
				},
				{
					"input":51,
					"interpolation":"STEP",
					"output":38
				},
				{
					"input":51,
					"interpolation":"STEP",
					"output":36
				},
				{
					"input":51,
					"interpolation":"STEP",
					"output":37
				},
				{
					"input":51,
					"interpolation":"STEP",
					"output":52
				},
				{
					"input":51,
					"interpolation":"STEP",
					"output":40
				},
				{
					"input":51,
					"interpolation":"STEP",
					"output":41
				},
				{
					"input":51,
					"interpolation":"STEP",
					"output":53
				},
				{
					"input":51,
					"interpolation":"STEP",
					"output":43
				},
				{
					"input":51,
					"interpolation":"STEP",
					"output":41
				},
				{
					"input":51,
					"interpolation":"STEP",
					"output":44
				},
				{
					"input":51,
					"interpolation":"STEP",
					"output":36
				},
				{
					"input":51,
					"interpolation":"STEP",
					"output":37
				},
				{
					"input":51,
					"interpolation":"STEP",
					"output":54
				},
				{
					"input":51,
					"interpolation":"STEP",
					"output":46
				},
				{
					"input":51,
					"interpolation":"STEP",
					"output":37
				},
				{
					"input":51,
					"interpolation":"STEP",
					"output":55
				},
				{
					"input":51,
					"interpolation":"STEP",
					"output":46
				},
				{
					"input":51,
					"interpolation":"STEP",
					"output":37
				}
			]
		},
		{
			"channels":[
				{
					"sampler":0,
					"target":{
						"node":16,
						"path":"translation"
					}
				},
				{
					"sampler":1,
					"target":{
						"node":16,
						"path":"rotation"
					}
				},
				{
					"sampler":2,
					"target":{
						"node":16,
						"path":"scale"
					}
				},
				{
					"sampler":3,
					"target":{
						"node":11,
						"path":"translation"
					}
				},
				{
					"sampler":4,
					"target":{
						"node":11,
						"path":"rotation"
					}
				},
				{
					"sampler":5,
					"target":{
						"node":11,
						"path":"scale"
					}
				},
				{
					"sampler":6,
					"target":{
						"node":2,
						"path":"translation"
					}
				},
				{
					"sampler":7,
					"target":{
						"node":2,
						"path":"rotation"
					}
				},
				{
					"sampler":8,
					"target":{
						"node":2,
						"path":"scale"
					}
				},
				{
					"sampler":9,
					"target":{
						"node":5,
						"path":"translation"
					}
				},
				{
					"sampler":10,
					"target":{
						"node":5,
						"path":"rotation"
					}
				},
				{
					"sampler":11,
					"target":{
						"node":5,
						"path":"scale"
					}
				},
				{
					"sampler":12,
					"target":{
						"node":9,
						"path":"translation"
					}
				},
				{
					"sampler":13,
					"target":{
						"node":9,
						"path":"rotation"
					}
				},
				{
					"sampler":14,
					"target":{
						"node":9,
						"path":"scale"
					}
				},
				{
					"sampler":15,
					"target":{
						"node":13,
						"path":"translation"
					}
				},
				{
					"sampler":16,
					"target":{
						"node":13,
						"path":"rotation"
					}
				},
				{
					"sampler":17,
					"target":{
						"node":13,
						"path":"scale"
					}
				},
				{
					"sampler":18,
					"target":{
						"node":15,
						"path":"translation"
					}
				},
				{
					"sampler":19,
					"target":{
						"node":15,
						"path":"rotation"
					}
				},
				{
					"sampler":20,
					"target":{
						"node":15,
						"path":"scale"
					}
				}
			],
			"name":"hurt",
			"samplers":[
				{
					"input":56,
					"interpolation":"STEP",
					"output":35
				},
				{
					"input":56,
					"interpolation":"STEP",
					"output":36
				},
				{
					"input":56,
					"interpolation":"STEP",
					"output":37
				},
				{
					"input":57,
					"interpolation":"LINEAR",
					"output":58
				},
				{
					"input":56,
					"interpolation":"STEP",
					"output":36
				},
				{
					"input":56,
					"interpolation":"STEP",
					"output":37
				},
				{
					"input":56,
					"interpolation":"STEP",
					"output":39
				},
				{
					"input":56,
					"interpolation":"STEP",
					"output":40
				},
				{
					"input":56,
					"interpolation":"STEP",
					"output":41
				},
				{
					"input":56,
					"interpolation":"STEP",
					"output":42
				},
				{
					"input":56,
					"interpolation":"STEP",
					"output":43
				},
				{
					"input":56,
					"interpolation":"STEP",
					"output":41
				},
				{
					"input":56,
					"interpolation":"STEP",
					"output":44
				},
				{
					"input":56,
					"interpolation":"STEP",
					"output":36
				},
				{
					"input":56,
					"interpolation":"STEP",
					"output":37
				},
				{
					"input":56,
					"interpolation":"STEP",
					"output":45
				},
				{
					"input":56,
					"interpolation":"STEP",
					"output":46
				},
				{
					"input":56,
					"interpolation":"STEP",
					"output":37
				},
				{
					"input":56,
					"interpolation":"STEP",
					"output":47
				},
				{
					"input":56,
					"interpolation":"STEP",
					"output":46
				},
				{
					"input":56,
					"interpolation":"STEP",
					"output":37
				}
			]
		},
		{
			"channels":[
				{
					"sampler":0,
					"target":{
						"node":16,
						"path":"translation"
					}
				},
				{
					"sampler":1,
					"target":{
						"node":16,
						"path":"rotation"
					}
				},
				{
					"sampler":2,
					"target":{
						"node":16,
						"path":"scale"
					}
				},
				{
					"sampler":3,
					"target":{
						"node":11,
						"path":"translation"
					}
				},
				{
					"sampler":4,
					"target":{
						"node":11,
						"path":"rotation"
					}
				},
				{
					"sampler":5,
					"target":{
						"node":11,
						"path":"scale"
					}
				},
				{
					"sampler":6,
					"target":{
						"node":2,
						"path":"translation"
					}
				},
				{
					"sampler":7,
					"target":{
						"node":2,
						"path":"rotation"
					}
				},
				{
					"sampler":8,
					"target":{
						"node":2,
						"path":"scale"
					}
				},
				{
					"sampler":9,
					"target":{
						"node":5,
						"path":"translation"
					}
				},
				{
					"sampler":10,
					"target":{
						"node":5,
						"path":"rotation"
					}
				},
				{
					"sampler":11,
					"target":{
						"node":5,
						"path":"scale"
					}
				},
				{
					"sampler":12,
					"target":{
						"node":9,
						"path":"translation"
					}
				},
				{
					"sampler":13,
					"target":{
						"node":9,
						"path":"rotation"
					}
				},
				{
					"sampler":14,
					"target":{
						"node":9,
						"path":"scale"
					}
				},
				{
					"sampler":15,
					"target":{
						"node":13,
						"path":"translation"
					}
				},
				{
					"sampler":16,
					"target":{
						"node":13,
						"path":"rotation"
					}
				},
				{
					"sampler":17,
					"target":{
						"node":13,
						"path":"scale"
					}
				},
				{
					"sampler":18,
					"target":{
						"node":15,
						"path":"translation"
					}
				},
				{
					"sampler":19,
					"target":{
						"node":15,
						"path":"rotation"
					}
				},
				{
					"sampler":20,
					"target":{
						"node":15,
						"path":"scale"
					}
				}
			],
			"name":"idle",
			"samplers":[
				{
					"input":59,
					"interpolation":"LINEAR",
					"output":60
				},
				{
					"input":48,
					"interpolation":"STEP",
					"output":36
				},
				{
					"input":48,
					"interpolation":"STEP",
					"output":37
				},
				{
					"input":59,
					"interpolation":"LINEAR",
					"output":61
				},
				{
					"input":48,
					"interpolation":"STEP",
					"output":36
				},
				{
					"input":48,
					"interpolation":"STEP",
					"output":37
				},
				{
					"input":48,
					"interpolation":"STEP",
					"output":39
				},
				{
					"input":48,
					"interpolation":"STEP",
					"output":40
				},
				{
					"input":48,
					"interpolation":"STEP",
					"output":41
				},
				{
					"input":48,
					"interpolation":"STEP",
					"output":42
				},
				{
					"input":48,
					"interpolation":"STEP",
					"output":43
				},
				{
					"input":48,
					"interpolation":"STEP",
					"output":41
				},
				{
					"input":48,
					"interpolation":"STEP",
					"output":44
				},
				{
					"input":48,
					"interpolation":"STEP",
					"output":36
				},
				{
					"input":48,
					"interpolation":"STEP",
					"output":37
				},
				{
					"input":48,
					"interpolation":"STEP",
					"output":45
				},
				{
					"input":48,
					"interpolation":"STEP",
					"output":46
				},
				{
					"input":48,
					"interpolation":"STEP",
					"output":37
				},
				{
					"input":48,
					"interpolation":"STEP",
					"output":47
				},
				{
					"input":48,
					"interpolation":"STEP",
					"output":46
				},
				{
					"input":48,
					"interpolation":"STEP",
					"output":37
				}
			]
		},
		{
			"channels":[
				{
					"sampler":0,
					"target":{
						"node":16,
						"path":"translation"
					}
				},
				{
					"sampler":1,
					"target":{
						"node":16,
						"path":"rotation"
					}
				},
				{
					"sampler":2,
					"target":{
						"node":16,
						"path":"scale"
					}
				},
				{
					"sampler":3,
					"target":{
						"node":11,
						"path":"translation"
					}
				},
				{
					"sampler":4,
					"target":{
						"node":11,
						"path":"rotation"
					}
				},
				{
					"sampler":5,
					"target":{
						"node":11,
						"path":"scale"
					}
				},
				{
					"sampler":6,
					"target":{
						"node":2,
						"path":"translation"
					}
				},
				{
					"sampler":7,
					"target":{
						"node":2,
						"path":"rotation"
					}
				},
				{
					"sampler":8,
					"target":{
						"node":2,
						"path":"scale"
					}
				},
				{
					"sampler":9,
					"target":{
						"node":5,
						"path":"translation"
					}
				},
				{
					"sampler":10,
					"target":{
						"node":5,
						"path":"rotation"
					}
				},
				{
					"sampler":11,
					"target":{
						"node":5,
						"path":"scale"
					}
				},
				{
					"sampler":12,
					"target":{
						"node":9,
						"path":"translation"
					}
				},
				{
					"sampler":13,
					"target":{
						"node":9,
						"path":"rotation"
					}
				},
				{
					"sampler":14,
					"target":{
						"node":9,
						"path":"scale"
					}
				},
				{
					"sampler":15,
					"target":{
						"node":13,
						"path":"translation"
					}
				},
				{
					"sampler":16,
					"target":{
						"node":13,
						"path":"rotation"
					}
				},
				{
					"sampler":17,
					"target":{
						"node":13,
						"path":"scale"
					}
				},
				{
					"sampler":18,
					"target":{
						"node":15,
						"path":"translation"
					}
				},
				{
					"sampler":19,
					"target":{
						"node":15,
						"path":"rotation"
					}
				},
				{
					"sampler":20,
					"target":{
						"node":15,
						"path":"scale"
					}
				}
			],
			"name":"walk",
			"samplers":[
				{
					"input":48,
					"interpolation":"STEP",
					"output":35
				},
				{
					"input":48,
					"interpolation":"STEP",
					"output":36
				},
				{
					"input":48,
					"interpolation":"STEP",
					"output":37
				},
				{
					"input":48,
					"interpolation":"STEP",
					"output":38
				},
				{
					"input":48,
					"interpolation":"STEP",
					"output":36
				},
				{
					"input":48,
					"interpolation":"STEP",
					"output":37
				},
				{
					"input":48,
					"interpolation":"STEP",
					"output":39
				},
				{
					"input":48,
					"interpolation":"STEP",
					"output":40
				},
				{
					"input":48,
					"interpolation":"STEP",
					"output":41
				},
				{
					"input":48,
					"interpolation":"STEP",
					"output":42
				},
				{
					"input":48,
					"interpolation":"STEP",
					"output":43
				},
				{
					"input":48,
					"interpolation":"STEP",
					"output":41
				},
				{
					"input":48,
					"interpolation":"STEP",
					"output":44
				},
				{
					"input":48,
					"interpolation":"STEP",
					"output":36
				},
				{
					"input":48,
					"interpolation":"STEP",
					"output":37
				},
				{
					"input":48,
					"interpolation":"STEP",
					"output":45
				},
				{
					"input":48,
					"interpolation":"STEP",
					"output":46
				},
				{
					"input":48,
					"interpolation":"STEP",
					"output":37
				},
				{
					"input":48,
					"interpolation":"STEP",
					"output":47
				},
				{
					"input":48,
					"interpolation":"STEP",
					"output":46
				},
				{
					"input":48,
					"interpolation":"STEP",
					"output":37
				}
			]
		}
	],
	"materials":[
		{
			"doubleSided":true,
			"name":"HeavyPlate",
			"pbrMetallicRoughness":{
				"baseColorFactor":[
					0.25,
					0.23999999463558197,
					0.25999999046325684,
					1
				],
				"metallicFactor":0.8500000238418579,
				"roughnessFactor":0.5
			}
		},
		{
			"doubleSided":true,
			"name":"BulwarkGold",
			"pbrMetallicRoughness":{
				"baseColorFactor":[
					0.75,
					0.6000000238418579,
					0.20000000298023224,
					1
				],
				"metallicFactor":0.8999999761581421,
				"roughnessFactor":0.4000000059604645
			}
		},
		{
			"doubleSided":true,
			"name":"DarkIron",
			"pbrMetallicRoughness":{
				"baseColorFactor":[
					0.15000000596046448,
					0.14000000059604645,
					0.1599999964237213,
					1
				],
				"metallicFactor":0.699999988079071,
				"roughnessFactor":0.6000000238418579
			}
		}
	],
	"meshes":[
		{
			"name":"Cube.001",
			"primitives":[
				{
					"attributes":{
						"POSITION":0,
						"NORMAL":1,
						"TEXCOORD_0":2
					},
					"indices":3,
					"material":0
				}
			]
		},
		{
			"name":"Cube.002",
			"primitives":[
				{
					"attributes":{
						"POSITION":4,
						"NORMAL":5,
						"TEXCOORD_0":6
					},
					"indices":3,
					"material":1
				}
			]
		},
		{
			"name":"Cylinder.001",
			"primitives":[
				{
					"attributes":{
						"POSITION":7,
						"NORMAL":8,
						"TEXCOORD_0":9
					},
					"indices":10,
					"material":2
				}
			]
		},
		{
			"name":"Icosphere",
			"primitives":[
				{
					"attributes":{
						"POSITION":11,
						"NORMAL":12,
						"TEXCOORD_0":13
					},
					"indices":14,
					"material":1
				}
			]
		},
		{
			"name":"Cone",
			"primitives":[
				{
					"attributes":{
						"POSITION":15,
						"NORMAL":16,
						"TEXCOORD_0":17
					},
					"indices":18,
					"material":1
				}
			]
		},
		{
			"name":"Cone.001",
			"primitives":[
				{
					"attributes":{
						"POSITION":19,
						"NORMAL":20,
						"TEXCOORD_0":21
					},
					"indices":18,
					"material":1
				}
			]
		},
		{
			"name":"Cylinder",
			"primitives":[
				{
					"attributes":{
						"POSITION":22,
						"NORMAL":23,
						"TEXCOORD_0":24
					},
					"indices":10,
					"material":0
				}
			]
		},
		{
			"name":"Cube",
			"primitives":[
				{
					"attributes":{
						"POSITION":25,
						"NORMAL":26,
						"TEXCOORD_0":27
					},
					"indices":3,
					"material":0
				}
			]
		},
		{
			"name":"Cube.003",
			"primitives":[
				{
					"attributes":{
						"POSITION":28,
						"NORMAL":29,
						"TEXCOORD_0":30
					},
					"indices":3,
					"material":0
				}
			]
		},
		{
			"name":"Cube.004",
			"primitives":[
				{
					"attributes":{
						"POSITION":31,
						"NORMAL":32,
						"TEXCOORD_0":33
					},
					"indices":3,
					"material":0
				}
			]
		}
	],
	"skins":[
		{
			"inverseBindMatrices":62,
			"joints":[
				16,
				11,
				2,
				5,
				9,
				13,
				15
			],
			"name":"TankRig"
		}
	],
	"accessors":[
		{
			"bufferView":0,
			"componentType":5126,
			"count":24,
			"max":[
				0.05000000074505806,
				0.05000000074505806,
				0.05000000074505806
			],
			"min":[
				-0.05000000074505806,
				-0.05000000074505806,
				-0.05000000074505806
			],
			"type":"VEC3"
		},
		{
			"bufferView":1,
			"componentType":5126,
			"count":24,
			"type":"VEC3"
		},
		{
			"bufferView":2,
			"componentType":5126,
			"count":24,
			"type":"VEC2"
		},
		{
			"bufferView":3,
			"componentType":5123,
			"count":36,
			"type":"SCALAR"
		},
		{
			"bufferView":4,
			"componentType":5126,
			"count":24,
			"max":[
				0.05000000074505806,
				0.05000000074505806,
				0.05000000074505806
			],
			"min":[
				-0.05000000074505806,
				-0.05000000074505806,
				-0.05000000074505806
			],
			"type":"VEC3"
		},
		{
			"bufferView":5,
			"componentType":5126,
			"count":24,
			"type":"VEC3"
		},
		{
			"bufferView":6,
			"componentType":5126,
			"count":24,
			"type":"VEC2"
		},
		{
			"bufferView":7,
			"componentType":5126,
			"count":192,
			"max":[
				0.03999999910593033,
				0.550000011920929,
				0.03999999910593033
			],
			"min":[
				-0.03999999910593033,
				-0.550000011920929,
				-0.03999999910593033
			],
			"type":"VEC3"
		},
		{
			"bufferView":8,
			"componentType":5126,
			"count":192,
			"type":"VEC3"
		},
		{
			"bufferView":9,
			"componentType":5126,
			"count":192,
			"type":"VEC2"
		},
		{
			"bufferView":10,
			"componentType":5123,
			"count":372,
			"type":"SCALAR"
		},
		{
			"bufferView":11,
			"componentType":5126,
			"count":240,
			"max":[
				0.17119042575359344,
				0.18000000715255737,
				0.18000000715255737
			],
			"min":[
				-0.17119042575359344,
				-0.18000000715255737,
				-0.18000000715255737
			],
			"type":"VEC3"
		},
		{
			"bufferView":12,
			"componentType":5126,
			"count":240,
			"type":"VEC3"
		},
		{
			"bufferView":13,
			"componentType":5126,
			"count":240,
			"type":"VEC2"
		},
		{
			"bufferView":14,
			"componentType":5123,
			"count":240,
			"type":"SCALAR"
		},
		{
			"bufferView":15,
			"componentType":5126,
			"count":128,
			"max":[
				0.07999999821186066,
				0.17499999701976776,
				0.07999999821186066
			],
			"min":[
				-0.07999999821186066,
				-0.17499999701976776,
				-0.07999999821186066
			],
			"type":"VEC3"
		},
		{
			"bufferView":16,
			"componentType":5126,
			"count":128,
			"type":"VEC3"
		},
		{
			"bufferView":17,
			"componentType":5126,
			"count":128,
			"type":"VEC2"
		},
		{
			"bufferView":18,
			"componentType":5123,
			"count":186,
			"type":"SCALAR"
		},
		{
			"bufferView":19,
			"componentType":5126,
			"count":128,
			"max":[
				0.07999999821186066,
				0.17499999701976776,
				0.07999999821186066
			],
			"min":[
				-0.07999999821186066,
				-0.17499999701976776,
				-0.07999999821186066
			],
			"type":"VEC3"
		},
		{
			"bufferView":20,
			"componentType":5126,
			"count":128,
			"type":"VEC3"
		},
		{
			"bufferView":21,
			"componentType":5126,
			"count":128,
			"type":"VEC2"
		},
		{
			"bufferView":22,
			"componentType":5126,
			"count":192,
			"max":[
				0.2800000011920929,
				0.25,
				0.2800000011920929
			],
			"min":[
				-0.2800000011920929,
				-0.25,
				-0.2800000011920929
			],
			"type":"VEC3"
		},
		{
			"bufferView":23,
			"componentType":5126,
			"count":192,
			"type":"VEC3"
		},
		{
			"bufferView":24,
			"componentType":5126,
			"count":192,
			"type":"VEC2"
		},
		{
			"bufferView":25,
			"componentType":5126,
			"count":24,
			"max":[
				0.32499998807907104,
				0.32499998807907104,
				0.32499998807907104
			],
			"min":[
				-0.32499998807907104,
				-0.32499998807907104,
				-0.32499998807907104
			],
			"type":"VEC3"
		},
		{
			"bufferView":26,
			"componentType":5126,
			"count":24,
			"type":"VEC3"
		},
		{
			"bufferView":27,
			"componentType":5126,
			"count":24,
			"type":"VEC2"
		},
		{
			"bufferView":28,
			"componentType":5126,
			"count":24,
			"max":[
				0.15000000596046448,
				0.15000000596046448,
				0.15000000596046448
			],
			"min":[
				-0.15000000596046448,
				-0.15000000596046448,
				-0.15000000596046448
			],
			"type":"VEC3"
		},
		{
			"bufferView":29,
			"componentType":5126,
			"count":24,
			"type":"VEC3"
		},
		{
			"bufferView":30,
			"componentType":5126,
			"count":24,
			"type":"VEC2"
		},
		{
			"bufferView":31,
			"componentType":5126,
			"count":24,
			"max":[
				0.15000000596046448,
				0.15000000596046448,
				0.15000000596046448
			],
			"min":[
				-0.15000000596046448,
				-0.15000000596046448,
				-0.15000000596046448
			],
			"type":"VEC3"
		},
		{
			"bufferView":32,
			"componentType":5126,
			"count":24,
			"type":"VEC3"
		},
		{
			"bufferView":33,
			"componentType":5126,
			"count":24,
			"type":"VEC2"
		},
		{
			"bufferView":34,
			"componentType":5126,
			"count":2,
			"max":[
				1
			],
			"min":[
				0.041666666666666664
			],
			"type":"SCALAR"
		},
		{
			"bufferView":35,
			"componentType":5126,
			"count":2,
			"type":"VEC3"
		},
		{
			"bufferView":36,
			"componentType":5126,
			"count":2,
			"type":"VEC4"
		},
		{
			"bufferView":37,
			"componentType":5126,
			"count":2,
			"type":"VEC3"
		},
		{
			"bufferView":38,
			"componentType":5126,
			"count":2,
			"type":"VEC3"
		},
		{
			"bufferView":39,
			"componentType":5126,
			"count":2,
			"type":"VEC3"
		},
		{
			"bufferView":40,
			"componentType":5126,
			"count":2,
			"type":"VEC4"
		},
		{
			"bufferView":41,
			"componentType":5126,
			"count":2,
			"type":"VEC3"
		},
		{
			"bufferView":42,
			"componentType":5126,
			"count":2,
			"type":"VEC3"
		},
		{
			"bufferView":43,
			"componentType":5126,
			"count":2,
			"type":"VEC4"
		},
		{
			"bufferView":44,
			"componentType":5126,
			"count":2,
			"type":"VEC3"
		},
		{
			"bufferView":45,
			"componentType":5126,
			"count":2,
			"type":"VEC3"
		},
		{
			"bufferView":46,
			"componentType":5126,
			"count":2,
			"type":"VEC4"
		},
		{
			"bufferView":47,
			"componentType":5126,
			"count":2,
			"type":"VEC3"
		},
		{
			"bufferView":48,
			"componentType":5126,
			"count":2,
			"max":[
				1.25
			],
			"min":[
				0.041666666666666664
			],
			"type":"SCALAR"
		},
		{
			"bufferView":49,
			"componentType":5126,
			"count":25,
			"max":[
				1.0416666666666667
			],
			"min":[
				0.041666666666666664
			],
			"type":"SCALAR"
		},
		{
			"bufferView":50,
			"componentType":5126,
			"count":25,
			"type":"VEC3"
		},
		{
			"bufferView":51,
			"componentType":5126,
			"count":2,
			"max":[
				1.0416666666666667
			],
			"min":[
				0.041666666666666664
			],
			"type":"SCALAR"
		},
		{
			"bufferView":52,
			"componentType":5126,
			"count":2,
			"type":"VEC3"
		},
		{
			"bufferView":53,
			"componentType":5126,
			"count":2,
			"type":"VEC3"
		},
		{
			"bufferView":54,
			"componentType":5126,
			"count":2,
			"type":"VEC3"
		},
		{
			"bufferView":55,
			"componentType":5126,
			"count":2,
			"type":"VEC3"
		},
		{
			"bufferView":56,
			"componentType":5126,
			"count":2,
			"max":[
				0.6666666666666666
			],
			"min":[
				0.041666666666666664
			],
			"type":"SCALAR"
		},
		{
			"bufferView":57,
			"componentType":5126,
			"count":16,
			"max":[
				0.6666666666666666
			],
			"min":[
				0.041666666666666664
			],
			"type":"SCALAR"
		},
		{
			"bufferView":58,
			"componentType":5126,
			"count":16,
			"type":"VEC3"
		},
		{
			"bufferView":59,
			"componentType":5126,
			"count":30,
			"max":[
				1.25
			],
			"min":[
				0.041666666666666664
			],
			"type":"SCALAR"
		},
		{
			"bufferView":60,
			"componentType":5126,
			"count":30,
			"type":"VEC3"
		},
		{
			"bufferView":61,
			"componentType":5126,
			"count":30,
			"type":"VEC3"
		},
		{
			"bufferView":62,
			"componentType":5126,
			"count":7,
			"type":"MAT4"
		}
	],
	"bufferViews":[
		{
			"buffer":0,
			"byteLength":288,
			"byteOffset":0,
			"target":34962
		},
		{
			"buffer":0,
			"byteLength":288,
			"byteOffset":288,
			"target":34962
		},
		{
			"buffer":0,
			"byteLength":192,
			"byteOffset":576,
			"target":34962
		},
		{
			"buffer":0,
			"byteLength":72,
			"byteOffset":768,
			"target":34963
		},
		{
			"buffer":0,
			"byteLength":288,
			"byteOffset":840,
			"target":34962
		},
		{
			"buffer":0,
			"byteLength":288,
			"byteOffset":1128,
			"target":34962
		},
		{
			"buffer":0,
			"byteLength":192,
			"byteOffset":1416,
			"target":34962
		},
		{
			"buffer":0,
			"byteLength":2304,
			"byteOffset":1608,
			"target":34962
		},
		{
			"buffer":0,
			"byteLength":2304,
			"byteOffset":3912,
			"target":34962
		},
		{
			"buffer":0,
			"byteLength":1536,
			"byteOffset":6216,
			"target":34962
		},
		{
			"buffer":0,
			"byteLength":744,
			"byteOffset":7752,
			"target":34963
		},
		{
			"buffer":0,
			"byteLength":2880,
			"byteOffset":8496,
			"target":34962
		},
		{
			"buffer":0,
			"byteLength":2880,
			"byteOffset":11376,
			"target":34962
		},
		{
			"buffer":0,
			"byteLength":1920,
			"byteOffset":14256,
			"target":34962
		},
		{
			"buffer":0,
			"byteLength":480,
			"byteOffset":16176,
			"target":34963
		},
		{
			"buffer":0,
			"byteLength":1536,
			"byteOffset":16656,
			"target":34962
		},
		{
			"buffer":0,
			"byteLength":1536,
			"byteOffset":18192,
			"target":34962
		},
		{
			"buffer":0,
			"byteLength":1024,
			"byteOffset":19728,
			"target":34962
		},
		{
			"buffer":0,
			"byteLength":372,
			"byteOffset":20752,
			"target":34963
		},
		{
			"buffer":0,
			"byteLength":1536,
			"byteOffset":21124,
			"target":34962
		},
		{
			"buffer":0,
			"byteLength":1536,
			"byteOffset":22660,
			"target":34962
		},
		{
			"buffer":0,
			"byteLength":1024,
			"byteOffset":24196,
			"target":34962
		},
		{
			"buffer":0,
			"byteLength":2304,
			"byteOffset":25220,
			"target":34962
		},
		{
			"buffer":0,
			"byteLength":2304,
			"byteOffset":27524,
			"target":34962
		},
		{
			"buffer":0,
			"byteLength":1536,
			"byteOffset":29828,
			"target":34962
		},
		{
			"buffer":0,
			"byteLength":288,
			"byteOffset":31364,
			"target":34962
		},
		{
			"buffer":0,
			"byteLength":288,
			"byteOffset":31652,
			"target":34962
		},
		{
			"buffer":0,
			"byteLength":192,
			"byteOffset":31940,
			"target":34962
		},
		{
			"buffer":0,
			"byteLength":288,
			"byteOffset":32132,
			"target":34962
		},
		{
			"buffer":0,
			"byteLength":288,
			"byteOffset":32420,
			"target":34962
		},
		{
			"buffer":0,
			"byteLength":192,
			"byteOffset":32708,
			"target":34962
		},
		{
			"buffer":0,
			"byteLength":288,
			"byteOffset":32900,
			"target":34962
		},
		{
			"buffer":0,
			"byteLength":288,
			"byteOffset":33188,
			"target":34962
		},
		{
			"buffer":0,
			"byteLength":192,
			"byteOffset":33476,
			"target":34962
		},
		{
			"buffer":0,
			"byteLength":8,
			"byteOffset":33668
		},
		{
			"buffer":0,
			"byteLength":24,
			"byteOffset":33676
		},
		{
			"buffer":0,
			"byteLength":32,
			"byteOffset":33700
		},
		{
			"buffer":0,
			"byteLength":24,
			"byteOffset":33732
		},
		{
			"buffer":0,
			"byteLength":24,
			"byteOffset":33756
		},
		{
			"buffer":0,
			"byteLength":24,
			"byteOffset":33780
		},
		{
			"buffer":0,
			"byteLength":32,
			"byteOffset":33804
		},
		{
			"buffer":0,
			"byteLength":24,
			"byteOffset":33836
		},
		{
			"buffer":0,
			"byteLength":24,
			"byteOffset":33860
		},
		{
			"buffer":0,
			"byteLength":32,
			"byteOffset":33884
		},
		{
			"buffer":0,
			"byteLength":24,
			"byteOffset":33916
		},
		{
			"buffer":0,
			"byteLength":24,
			"byteOffset":33940
		},
		{
			"buffer":0,
			"byteLength":32,
			"byteOffset":33964
		},
		{
			"buffer":0,
			"byteLength":24,
			"byteOffset":33996
		},
		{
			"buffer":0,
			"byteLength":8,
			"byteOffset":34020
		},
		{
			"buffer":0,
			"byteLength":100,
			"byteOffset":34028
		},
		{
			"buffer":0,
			"byteLength":300,
			"byteOffset":34128
		},
		{
			"buffer":0,
			"byteLength":8,
			"byteOffset":34428
		},
		{
			"buffer":0,
			"byteLength":24,
			"byteOffset":34436
		},
		{
			"buffer":0,
			"byteLength":24,
			"byteOffset":34460
		},
		{
			"buffer":0,
			"byteLength":24,
			"byteOffset":34484
		},
		{
			"buffer":0,
			"byteLength":24,
			"byteOffset":34508
		},
		{
			"buffer":0,
			"byteLength":8,
			"byteOffset":34532
		},
		{
			"buffer":0,
			"byteLength":64,
			"byteOffset":34540
		},
		{
			"buffer":0,
			"byteLength":192,
			"byteOffset":34604
		},
		{
			"buffer":0,
			"byteLength":120,
			"byteOffset":34796
		},
		{
			"buffer":0,
			"byteLength":360,
			"byteOffset":34916
		},
		{
			"buffer":0,
			"byteLength":360,
			"byteOffset":35276
		},
		{
			"buffer":0,
			"byteLength":448,
			"byteOffset":35636
		}
	],
	"buffers":[
		{
			"byteLength":36084,
			"uri":"tank_bulwark.bin"
		}
	]
}
