{
	"asset":{
		"generator":"Khronos glTF Blender I/O v5.2.40",
		"version":"2.0"
	},
	"extensionsUsed":[
		"KHR_materials_emissive_strength"
	],
	"scene":0,
	"scenes":[
		{
			"name":"Scene",
			"nodes":[
				16
			]
		}
	],
	"nodes":[
		{
			"mesh":0,
			"name":"Cube.001",
			"rotation":[
				0.5905328989028931,
				0.08034943044185638,
				-0.05925094336271286,
				0.8008146286010742
			],
			"scale":[
				0.20000001788139343,
				5.500000476837158,
				0.05000000819563866
			],
			"translation":[
				0.6999999284744263,
				0.3726811707019806,
				1.2000001668930054
			]
		},
		{
			"children":[
				0
			],
			"name":"Arm_L",
			"rotation":[
				-0.87164705991745,
				-0.33448243141174316,
				-0.33448243141174316,
				0.12835294008255005
			],
			"scale":[
				0.9999999403953552,
				0.9999998211860657,
				1
			],
			"translation":[
				0.3499999940395355,
				0.3999999761581421,
				0
			]
		},
		{
			"mesh":1,
			"name":"Cube.002",
			"rotation":[
				0.5905328989028931,
				-0.08034943044185638,
				0.05925094336271286,
				0.8008146286010742
			],
			"scale":[
				0.20000001788139343,
				5.500000476837158,
				0.05000000819563866
			],
			"translation":[
				-0.6999999284744263,
				0.3726811707019806,
				1.2000001668930054
			]
		},
		{
			"children":[
				2
			],
			"name":"Arm_R",
			"rotation":[
				-0.87164705991745,
				0.33448243141174316,
				0.33448243141174316,
				0.12835294008255005
			],
			"scale":[
				0.9999999403953552,
				0.9999998211860657,
				1
			],
			"translation":[
				-0.3499999940395355,
				0.3999999761581421,
				0
			]
		},
		{
			"mesh":2,
			"name":"Cone",
			"rotation":[
				0.7741671204566956,
				0,
				0,
				0.6329813003540039
			],
			"translation":[
				0,
				0.5000001192092896,
				2.1500000953674316
			]
		},
		{
			"mesh":3,
			"name":"Sphere",
			"rotation":[
				0.7071067690849304,
				0,
				0,
				0.7071067690849304
			],
			"translation":[
				-0.10000000149011612,
				0.28000009059906006,
				2.0999999046325684
			]
		},
		{
			"mesh":4,
			"name":"Sphere.001",
			"rotation":[
				0.7071067690849304,
				0,
				0,
				0.7071067690849304
			],
			"translation":[
				0.10000000149011612,
				0.28000009059906006,
				2.0999999046325684
			]
		},
		{
			"children":[
				4,
				5,
				6
			],
			"name":"Head",
			"translation":[
				0,
				0.5,
				0
			]
		},
		{
			"mesh":5,
			"name":"Cube",
			"rotation":[
				0.7071067690849304,
				0,
				0,
				0.7071067690849304
			],
			"scale":[
				0.6499999761581421,
				0.8999999761581421,
				0.4000000059604645
			],
			"translation":[
				0,
				0.5,
				1.5499999523162842
			]
		},
		{
			"children":[
				1,
				3,
				7,
				8
			],
			"name":"Chest",
			"translation":[
				0,
				0.3999999761581421,
				0
			]
		},
		{
			"mesh":6,
			"name":"Cylinder",
			"rotation":[
				0.7071067690849304,
				0,
				0,
				0.7071067690849304
			],
			"translation":[
				0.20000000298023224,
				1,
				0.44999998807907104
			]
		},
		{
			"children":[
				10
			],
			"name":"Leg_L",
			"rotation":[
				1,
				0,
				-4.371138828673793e-08,
				0
			],
			"translation":[
				0.25,
				0,
				0
			]
		},
		{
			"mesh":7,
			"name":"Cylinder.001",
			"rotation":[
				0.7071067690849304,
				0,
				0,
				0.7071067690849304
			],
			"translation":[
				-0.20000000298023224,
				1,
				0.44999998807907104
			]
		},
		{
			"children":[
				12
			],
			"name":"Leg_R",
			"rotation":[
				1,
				0,
				-4.371138828673793e-08,
				0
			],
			"translation":[
				-0.25,
				0,
				0
			]
		},
		{
			"mesh":8,
			"name":"Cube.003",
			"rotation":[
				0.7071067690849304,
				0,
				0,
				0.7071067690849304
			],
			"scale":[
				0.800000011920929,
				0.8999999761581421,
				0.4000000059604645
			],
			"translation":[
				0.2800000011920929,
				0.19999992847442627,
				1.0499999523162842
			]
		},
		{
			"children":[
				9,
				11,
				13,
				14
			],
			"name":"Hips",
			"translation":[
				0,
				1,
				0
			]
		},
		{
			"children":[
				15
			],
			"name":"ThiefRig"
		}
	],
	"animations":[
		{
			"channels":[
				{
					"sampler":0,
					"target":{
						"node":15,
						"path":"translation"
					}
				},
				{
					"sampler":1,
					"target":{
						"node":15,
						"path":"rotation"
					}
				},
				{
					"sampler":2,
					"target":{
						"node":15,
						"path":"scale"
					}
				},
				{
					"sampler":3,
					"target":{
						"node":9,
						"path":"translation"
					}
				},
				{
					"sampler":4,
					"target":{
						"node":9,
						"path":"rotation"
					}
				},
				{
					"sampler":5,
					"target":{
						"node":9,
						"path":"scale"
					}
				},
				{
					"sampler":6,
					"target":{
						"node":1,
						"path":"translation"
					}
				},
				{
					"sampler":7,
					"target":{
						"node":1,
						"path":"rotation"
					}
				},
				{
					"sampler":8,
					"target":{
						"node":1,
						"path":"scale"
					}
				},
				{
					"sampler":9,
					"target":{
						"node":3,
						"path":"translation"
					}
				},
				{
					"sampler":10,
					"target":{
						"node":3,
						"path":"rotation"
					}
				},
				{
					"sampler":11,
					"target":{
						"node":3,
						"path":"scale"
					}
				},
				{
					"sampler":12,
					"target":{
						"node":7,
						"path":"translation"
					}
				},
				{
					"sampler":13,
					"target":{
						"node":7,
						"path":"rotation"
					}
				},
				{
					"sampler":14,
					"target":{
						"node":7,
						"path":"scale"
					}
				},
				{
					"sampler":15,
					"target":{
						"node":11,
						"path":"translation"
					}
				},
				{
					"sampler":16,
					"target":{
						"node":11,
						"path":"rotation"
					}
				},
				{
					"sampler":17,
					"target":{
						"node":11,
						"path":"scale"
					}
				},
				{
					"sampler":18,
					"target":{
						"node":13,
						"path":"translation"
					}
				},
				{
					"sampler":19,
					"target":{
						"node":13,
						"path":"rotation"
					}
				},
				{
					"sampler":20,
					"target":{
						"node":13,
						"path":"scale"
					}
				}
			],
			"name":"attack",
			"samplers":[
				{
					"input":32,
					"interpolation":"STEP",
					"output":33
				},
				{
					"input":32,
					"interpolation":"STEP",
					"output":34
				},
				{
					"input":32,
					"interpolation":"STEP",
					"output":35
				},
				{
					"input":32,
					"interpolation":"STEP",
					"output":36
				},
				{
					"input":32,
					"interpolation":"STEP",
					"output":34
				},
				{
					"input":32,
					"interpolation":"STEP",
					"output":35
				},
				{
					"input":32,
					"interpolation":"STEP",
					"output":37
				},
				{
					"input":32,
					"interpolation":"STEP",
					"output":38
				},
				{
					"input":32,
					"interpolation":"STEP",
					"output":39
				},
				{
					"input":32,
					"interpolation":"STEP",
					"output":40
				},
				{
					"input":32,
					"interpolation":"STEP",
					"output":41
				},
				{
					"input":32,
					"interpolation":"STEP",
					"output":39
				},
				{
					"input":32,
					"interpolation":"STEP",
					"output":42
				},
				{
					"input":32,
					"interpolation":"STEP",
					"output":34
				},
				{
					"input":32,
					"interpolation":"STEP",
					"output":35
				},
				{
					"input":32,
					"interpolation":"STEP",
					"output":43
				},
				{
					"input":32,
					"interpolation":"STEP",
					"output":44
				},
				{
					"input":32,
					"interpolation":"STEP",
					"output":35
				},
				{
					"input":32,
					"interpolation":"STEP",
					"output":45
				},
				{
					"input":32,
					"interpolation":"STEP",
					"output":44
				},
				{
					"input":32,
					"interpolation":"STEP",
					"output":35
				}
			]
		},
		{
			"channels":[
				{
					"sampler":0,
					"target":{
						"node":15,
						"path":"translation"
					}
				},
				{
					"sampler":1,
					"target":{
						"node":15,
						"path":"rotation"
					}
				},
				{
					"sampler":2,
					"target":{
						"node":15,
						"path":"scale"
					}
				},
				{
					"sampler":3,
					"target":{
						"node":9,
						"path":"translation"
					}
				},
				{
					"sampler":4,
					"target":{
						"node":9,
						"path":"rotation"
					}
				},
				{
					"sampler":5,
					"target":{
						"node":9,
						"path":"scale"
					}
				},
				{
					"sampler":6,
					"target":{
						"node":1,
						"path":"translation"
					}
				},
				{
					"sampler":7,
					"target":{
						"node":1,
						"path":"rotation"
					}
				},
				{
					"sampler":8,
					"target":{
						"node":1,
						"path":"scale"
					}
				},
				{
					"sampler":9,
					"target":{
						"node":3,
						"path":"translation"
					}
				},
				{
					"sampler":10,
					"target":{
						"node":3,
						"path":"rotation"
					}
				},
				{
					"sampler":11,
					"target":{
						"node":3,
						"path":"scale"
					}
				},
				{
					"sampler":12,
					"target":{
						"node":7,
						"path":"translation"
					}
				},
				{
					"sampler":13,
					"target":{
						"node":7,
						"path":"rotation"
					}
				},
				{
					"sampler":14,
					"target":{
						"node":7,
						"path":"scale"
					}
				},
				{
					"sampler":15,
					"target":{
						"node":11,
						"path":"translation"
					}
				},
				{
					"sampler":16,
					"target":{
						"node":11,
						"path":"rotation"
					}
				},
				{
					"sampler":17,
					"target":{
						"node":11,
						"path":"scale"
					}
				},
				{
					"sampler":18,
					"target":{
						"node":13,
						"path":"translation"
					}
				},
				{
					"sampler":19,
					"target":{
						"node":13,
						"path":"rotation"
					}
				},
				{
					"sampler":20,
					"target":{
						"node":13,
						"path":"scale"
					}
				}
			],
			"name":"block",
			"samplers":[
				{
					"input":46,
					"interpolation":"STEP",
					"output":33
				},
				{
					"input":46,
					"interpolation":"STEP",
					"output":34
				},
				{
					"input":46,
					"interpolation":"STEP",
					"output":35
				},
				{
					"input":46,
					"interpolation":"STEP",
					"output":36
				},
				{
					"input":46,
					"interpolation":"STEP",
					"output":34
				},
				{
					"input":46,
					"interpolation":"STEP",
					"output":35
				},
				{
					"input":46,
					"interpolation":"STEP",
					"output":37
				},
				{
					"input":46,
					"interpolation":"STEP",
					"output":38
				},
				{
					"input":46,
					"interpolation":"STEP",
					"output":39
				},
				{
					"input":46,
					"interpolation":"STEP",
					"output":40
				},
				{
					"input":46,
					"interpolation":"STEP",
					"output":41
				},
				{
					"input":46,
					"interpolation":"STEP",
					"output":39
				},
				{
					"input":46,
					"interpolation":"STEP",
					"output":42
				},
				{
					"input":46,
					"interpolation":"STEP",
					"output":34
				},
				{
					"input":46,
					"interpolation":"STEP",
					"output":35
				},
				{
					"input":46,
					"interpolation":"STEP",
					"output":43
				},
				{
					"input":46,
					"interpolation":"STEP",
					"output":44
				},
				{
					"input":46,
					"interpolation":"STEP",
					"output":35
				},
				{
					"input":46,
					"interpolation":"STEP",
					"output":45
				},
				{
					"input":46,
					"interpolation":"STEP",
					"output":44
				},
				{
					"input":46,
					"interpolation":"STEP",
					"output":35
				}
			]
		},
		{
			"channels":[
				{
					"sampler":0,
					"target":{
						"node":15,
						"path":"translation"
					}
				},
				{
					"sampler":1,
					"target":{
						"node":15,
						"path":"rotation"
					}
				},
				{
					"sampler":2,
					"target":{
						"node":15,
						"path":"scale"
					}
				},
				{
					"sampler":3,
					"target":{
						"node":9,
						"path":"translation"
					}
				},
				{
					"sampler":4,
					"target":{
						"node":9,
						"path":"rotation"
					}
				},
				{
					"sampler":5,
					"target":{
						"node":9,
						"path":"scale"
					}
				},
				{
					"sampler":6,
					"target":{
						"node":1,
						"path":"translation"
					}
				},
				{
					"sampler":7,
					"target":{
						"node":1,
						"path":"rotation"
					}
				},
				{
					"sampler":8,
					"target":{
						"node":1,
						"path":"scale"
					}
				},
				{
					"sampler":9,
					"target":{
						"node":3,
						"path":"translation"
					}
				},
				{
					"sampler":10,
					"target":{
						"node":3,
						"path":"rotation"
					}
				},
				{
					"sampler":11,
					"target":{
						"node":3,
						"path":"scale"
					}
				},
				{
					"sampler":12,
					"target":{
						"node":7,
						"path":"translation"
					}
				},
				{
					"sampler":13,
					"target":{
						"node":7,
						"path":"rotation"
					}
				},
				{
					"sampler":14,
					"target":{
						"node":7,
						"path":"scale"
					}
				},
				{
					"sampler":15,
					"target":{
						"node":11,
						"path":"translation"
					}
				},
				{
					"sampler":16,
					"target":{
						"node":11,
						"path":"rotation"
					}
				},
				{
					"sampler":17,
					"target":{
						"node":11,
						"path":"scale"
					}
				},
				{
					"sampler":18,
					"target":{
						"node":13,
						"path":"translation"
					}
				},
				{
					"sampler":19,
					"target":{
						"node":13,
						"path":"rotation"
					}
				},
				{
					"sampler":20,
					"target":{
						"node":13,
						"path":"scale"
					}
				}
			],
			"name":"death",
			"samplers":[
				{
					"input":47,
					"interpolation":"LINEAR",
					"output":48
				},
				{
					"input":49,
					"interpolation":"STEP",
					"output":34
				},
				{
					"input":49,
					"interpolation":"STEP",
					"output":35
				},
				{
					"input":49,
					"interpolation":"STEP",
					"output":36
				},
				{
					"input":49,
					"interpolation":"STEP",
					"output":34
				},
				{
					"input":49,
					"interpolation":"STEP",
					"output":35
				},
				{
					"input":49,
					"interpolation":"STEP",
					"output":50
				},
				{
					"input":49,
					"interpolation":"STEP",
					"output":38
				},
				{
					"input":49,
					"interpolation":"STEP",
					"output":39
				},
				{
					"input":49,
					"interpolation":"STEP",
					"output":51
				},
				{
					"input":49,
					"interpolation":"STEP",
					"output":41
				},
				{
					"input":49,
					"interpolation":"STEP",
					"output":39
				},
				{
					"input":49,
					"interpolation":"STEP",
					"output":42
				},
				{
					"input":49,
					"interpolation":"STEP",
					"output":34
				},
				{
					"input":49,
					"interpolation":"STEP",
					"output":35
				},
				{
					"input":49,
					"interpolation":"STEP",
					"output":52
				},
				{
					"input":49,
					"interpolation":"STEP",
					"output":44
				},
				{
					"input":49,
					"interpolation":"STEP",
					"output":35
				},
				{
					"input":49,
					"interpolation":"STEP",
					"output":53
				},
				{
					"input":49,
					"interpolation":"STEP",
					"output":44
				},
				{
					"input":49,
					"interpolation":"STEP",
					"output":35
				}
			]
		},
		{
			"channels":[
				{
					"sampler":0,
					"target":{
						"node":15,
						"path":"translation"
					}
				},
				{
					"sampler":1,
					"target":{
						"node":15,
						"path":"rotation"
					}
				},
				{
					"sampler":2,
					"target":{
						"node":15,
						"path":"scale"
					}
				},
				{
					"sampler":3,
					"target":{
						"node":9,
						"path":"translation"
					}
				},
				{
					"sampler":4,
					"target":{
						"node":9,
						"path":"rotation"
					}
				},
				{
					"sampler":5,
					"target":{
						"node":9,
						"path":"scale"
					}
				},
				{
					"sampler":6,
					"target":{
						"node":1,
						"path":"translation"
					}
				},
				{
					"sampler":7,
					"target":{
						"node":1,
						"path":"rotation"
					}
				},
				{
					"sampler":8,
					"target":{
						"node":1,
						"path":"scale"
					}
				},
				{
					"sampler":9,
					"target":{
						"node":3,
						"path":"translation"
					}
				},
				{
					"sampler":10,
					"target":{
						"node":3,
						"path":"rotation"
					}
				},
				{
					"sampler":11,
					"target":{
						"node":3,
						"path":"scale"
					}
				},
				{
					"sampler":12,
					"target":{
						"node":7,
						"path":"translation"
					}
				},
				{
					"sampler":13,
					"target":{
						"node":7,
						"path":"rotation"
					}
				},
				{
					"sampler":14,
					"target":{
						"node":7,
						"path":"scale"
					}
				},
				{
					"sampler":15,
					"target":{
						"node":11,
						"path":"translation"
					}
				},
				{
					"sampler":16,
					"target":{
						"node":11,
						"path":"rotation"
					}
				},
				{
					"sampler":17,
					"target":{
						"node":11,
						"path":"scale"
					}
				},
				{
					"sampler":18,
					"target":{
						"node":13,
						"path":"translation"
					}
				},
				{
					"sampler":19,
					"target":{
						"node":13,
						"path":"rotation"
					}
				},
				{
					"sampler":20,
					"target":{
						"node":13,
						"path":"scale"
					}
				}
			],
			"name":"hurt",
			"samplers":[
				{
					"input":54,
					"interpolation":"STEP",
					"output":33
				},
				{
					"input":54,
					"interpolation":"STEP",
					"output":34
				},
				{
					"input":54,
					"interpolation":"STEP",
					"output":35
				},
				{
					"input":55,
					"interpolation":"LINEAR",
					"output":56
				},
				{
					"input":54,
					"interpolation":"STEP",
					"output":34
				},
				{
					"input":54,
					"interpolation":"STEP",
					"output":35
				},
				{
					"input":54,
					"interpolation":"STEP",
					"output":37
				},
				{
					"input":54,
					"interpolation":"STEP",
					"output":38
				},
				{
					"input":54,
					"interpolation":"STEP",
					"output":39
				},
				{
					"input":54,
					"interpolation":"STEP",
					"output":40
				},
				{
					"input":54,
					"interpolation":"STEP",
					"output":41
				},
				{
					"input":54,
					"interpolation":"STEP",
					"output":39
				},
				{
					"input":54,
					"interpolation":"STEP",
					"output":42
				},
				{
					"input":54,
					"interpolation":"STEP",
					"output":34
				},
				{
					"input":54,
					"interpolation":"STEP",
					"output":35
				},
				{
					"input":54,
					"interpolation":"STEP",
					"output":43
				},
				{
					"input":54,
					"interpolation":"STEP",
					"output":44
				},
				{
					"input":54,
					"interpolation":"STEP",
					"output":35
				},
				{
					"input":54,
					"interpolation":"STEP",
					"output":45
				},
				{
					"input":54,
					"interpolation":"STEP",
					"output":44
				},
				{
					"input":54,
					"interpolation":"STEP",
					"output":35
				}
			]
		},
		{
			"channels":[
				{
					"sampler":0,
					"target":{
						"node":15,
						"path":"translation"
					}
				},
				{
					"sampler":1,
					"target":{
						"node":15,
						"path":"rotation"
					}
				},
				{
					"sampler":2,
					"target":{
						"node":15,
						"path":"scale"
					}
				},
				{
					"sampler":3,
					"target":{
						"node":9,
						"path":"translation"
					}
				},
				{
					"sampler":4,
					"target":{
						"node":9,
						"path":"rotation"
					}
				},
				{
					"sampler":5,
					"target":{
						"node":9,
						"path":"scale"
					}
				},
				{
					"sampler":6,
					"target":{
						"node":1,
						"path":"translation"
					}
				},
				{
					"sampler":7,
					"target":{
						"node":1,
						"path":"rotation"
					}
				},
				{
					"sampler":8,
					"target":{
						"node":1,
						"path":"scale"
					}
				},
				{
					"sampler":9,
					"target":{
						"node":3,
						"path":"translation"
					}
				},
				{
					"sampler":10,
					"target":{
						"node":3,
						"path":"rotation"
					}
				},
				{
					"sampler":11,
					"target":{
						"node":3,
						"path":"scale"
					}
				},
				{
					"sampler":12,
					"target":{
						"node":7,
						"path":"translation"
					}
				},
				{
					"sampler":13,
					"target":{
						"node":7,
						"path":"rotation"
					}
				},
				{
					"sampler":14,
					"target":{
						"node":7,
						"path":"scale"
					}
				},
				{
					"sampler":15,
					"target":{
						"node":11,
						"path":"translation"
					}
				},
				{
					"sampler":16,
					"target":{
						"node":11,
						"path":"rotation"
					}
				},
				{
					"sampler":17,
					"target":{
						"node":11,
						"path":"scale"
					}
				},
				{
					"sampler":18,
					"target":{
						"node":13,
						"path":"translation"
					}
				},
				{
					"sampler":19,
					"target":{
						"node":13,
						"path":"rotation"
					}
				},
				{
					"sampler":20,
					"target":{
						"node":13,
						"path":"scale"
					}
				}
			],
			"name":"idle",
			"samplers":[
				{
					"input":57,
					"interpolation":"LINEAR",
					"output":58
				},
				{
					"input":46,
					"interpolation":"STEP",
					"output":34
				},
				{
					"input":46,
					"interpolation":"STEP",
					"output":35
				},
				{
					"input":57,
					"interpolation":"LINEAR",
					"output":59
				},
				{
					"input":46,
					"interpolation":"STEP",
					"output":34
				},
				{
					"input":46,
					"interpolation":"STEP",
					"output":35
				},
				{
					"input":46,
					"interpolation":"STEP",
					"output":37
				},
				{
					"input":46,
					"interpolation":"STEP",
					"output":38
				},
				{
					"input":46,
					"interpolation":"STEP",
					"output":39
				},
				{
					"input":46,
					"interpolation":"STEP",
					"output":40
				},
				{
					"input":46,
					"interpolation":"STEP",
					"output":41
				},
				{
					"input":46,
					"interpolation":"STEP",
					"output":39
				},
				{
					"input":46,
					"interpolation":"STEP",
					"output":42
				},
				{
					"input":46,
					"interpolation":"STEP",
					"output":34
				},
				{
					"input":46,
					"interpolation":"STEP",
					"output":35
				},
				{
					"input":46,
					"interpolation":"STEP",
					"output":43
				},
				{
					"input":46,
					"interpolation":"STEP",
					"output":44
				},
				{
					"input":46,
					"interpolation":"STEP",
					"output":35
				},
				{
					"input":46,
					"interpolation":"STEP",
					"output":45
				},
				{
					"input":46,
					"interpolation":"STEP",
					"output":44
				},
				{
					"input":46,
					"interpolation":"STEP",
					"output":35
				}
			]
		},
		{
			"channels":[
				{
					"sampler":0,
					"target":{
						"node":15,
						"path":"translation"
					}
				},
				{
					"sampler":1,
					"target":{
						"node":15,
						"path":"rotation"
					}
				},
				{
					"sampler":2,
					"target":{
						"node":15,
						"path":"scale"
					}
				},
				{
					"sampler":3,
					"target":{
						"node":9,
						"path":"translation"
					}
				},
				{
					"sampler":4,
					"target":{
						"node":9,
						"path":"rotation"
					}
				},
				{
					"sampler":5,
					"target":{
						"node":9,
						"path":"scale"
					}
				},
				{
					"sampler":6,
					"target":{
						"node":1,
						"path":"translation"
					}
				},
				{
					"sampler":7,
					"target":{
						"node":1,
						"path":"rotation"
					}
				},
				{
					"sampler":8,
					"target":{
						"node":1,
						"path":"scale"
					}
				},
				{
					"sampler":9,
					"target":{
						"node":3,
						"path":"translation"
					}
				},
				{
					"sampler":10,
					"target":{
						"node":3,
						"path":"rotation"
					}
				},
				{
					"sampler":11,
					"target":{
						"node":3,
						"path":"scale"
					}
				},
				{
					"sampler":12,
					"target":{
						"node":7,
						"path":"translation"
					}
				},
				{
					"sampler":13,
					"target":{
						"node":7,
						"path":"rotation"
					}
				},
				{
					"sampler":14,
					"target":{
						"node":7,
						"path":"scale"
					}
				},
				{
					"sampler":15,
					"target":{
						"node":11,
						"path":"translation"
					}
				},
				{
					"sampler":16,
					"target":{
						"node":11,
						"path":"rotation"
					}
				},
				{
					"sampler":17,
					"target":{
						"node":11,
						"path":"scale"
					}
				},
				{
					"sampler":18,
					"target":{
						"node":13,
						"path":"translation"
					}
				},
				{
					"sampler":19,
					"target":{
						"node":13,
						"path":"rotation"
					}
				},
				{
					"sampler":20,
					"target":{
						"node":13,
						"path":"scale"
					}
				}
			],
			"name":"walk",
			"samplers":[
				{
					"input":46,
					"interpolation":"STEP",
					"output":33
				},
				{
					"input":46,
					"interpolation":"STEP",
					"output":34
				},
				{
					"input":46,
					"interpolation":"STEP",
					"output":35
				},
				{
					"input":46,
					"interpolation":"STEP",
					"output":36
				},
				{
					"input":46,
					"interpolation":"STEP",
					"output":34
				},
				{
					"input":46,
					"interpolation":"STEP",
					"output":35
				},
				{
					"input":46,
					"interpolation":"STEP",
					"output":37
				},
				{
					"input":46,
					"interpolation":"STEP",
					"output":38
				},
				{
					"input":46,
					"interpolation":"STEP",
					"output":39
				},
				{
					"input":46,
					"interpolation":"STEP",
					"output":40
				},
				{
					"input":46,
					"interpolation":"STEP",
					"output":41
				},
				{
					"input":46,
					"interpolation":"STEP",
					"output":39
				},
				{
					"input":46,
					"interpolation":"STEP",
					"output":42
				},
				{
					"input":46,
					"interpolation":"STEP",
					"output":34
				},
				{
					"input":46,
					"interpolation":"STEP",
					"output":35
				},
				{
					"input":46,
					"interpolation":"STEP",
					"output":43
				},
				{
					"input":46,
					"interpolation":"STEP",
					"output":44
				},
				{
					"input":46,
					"interpolation":"STEP",
					"output":35
				},
				{
					"input":46,
					"interpolation":"STEP",
					"output":45
				},
				{
					"input":46,
					"interpolation":"STEP",
					"output":44
				},
				{
					"input":46,
					"interpolation":"STEP",
					"output":35
				}
			]
		}
	],
	"materials":[
		{
			"doubleSided":true,
			"emissiveFactor":[
				0.11111111571023506,
				1,
				0.3333333554091283
			],
			"extensions":{
				"KHR_materials_emissive_strength":{
					"emissiveStrength":3.5999999046325684
				}
			},
			"name":"VenomEdge",
			"pbrMetallicRoughness":{
				"baseColorFactor":[
					0.10000000149011612,
					0.8999999761581421,
					0.30000001192092896,
					1
				],
				"metallicFactor":0.10000000149011612,
				"roughnessFactor":0.699999988079071
			}
		},
		{
			"doubleSided":true,
			"name":"VenomCowl",
			"pbrMetallicRoughness":{
				"baseColorFactor":[
					0.05000000074505806,
					0.07999999821186066,
					0.07000000029802322,
					1
				],
				"metallicFactor":0.10000000149011612,
				"roughnessFactor":0.8999999761581421
			}
		},
		{
			"doubleSided":true,
			"name":"ShadowLeather",
			"pbrMetallicRoughness":{
				"baseColorFactor":[
					0.10000000149011612,
					0.09000000357627869,
					0.11999999731779099,
					1
				],
				"metallicFactor":0.20000000298023224,
				"roughnessFactor":0.75
			}
		}
	],
	"meshes":[
		{
			"name":"Cube.001",
			"primitives":[
				{
					"attributes":{
						"POSITION":0,
						"NORMAL":1,
						"TEXCOORD_0":2
					},
					"indices":3,
					"material":0
				}
			]
		},
		{
			"name":"Cube.002",
			"primitives":[
				{
					"attributes":{
						"POSITION":4,
						"NORMAL":5,
						"TEXCOORD_0":6
					},
					"indices":3,
					"material":0
				}
			]
		},
		{
			"name":"Cone",
			"primitives":[
				{
					"attributes":{
						"POSITION":7,
						"NORMAL":8,
						"TEXCOORD_0":9
					},
					"indices":10,
					"material":1
				}
			]
		},
		{
			"name":"Sphere",
			"primitives":[
				{
					"attributes":{
						"POSITION":11,
						"NORMAL":12,
						"TEXCOORD_0":13
					},
					"indices":14,
					"material":0
				}
			]
		},
		{
			"name":"Sphere.001",
			"primitives":[
				{
					"attributes":{
						"POSITION":15,
						"NORMAL":16,
						"TEXCOORD_0":17
					},
					"indices":18,
					"material":0
				}
			]
		},
		{
			"name":"Cube",
			"primitives":[
				{
					"attributes":{
						"POSITION":19,
						"NORMAL":20,
						"TEXCOORD_0":21
					},
					"indices":3,
					"material":2
				}
			]
		},
		{
			"name":"Cylinder",
			"primitives":[
				{
					"attributes":{
						"POSITION":22,
						"NORMAL":23,
						"TEXCOORD_0":24
					},
					"indices":25,
					"material":2
				}
			]
		},
		{
			"name":"Cylinder.001",
			"primitives":[
				{
					"attributes":{
						"POSITION":26,
						"NORMAL":27,
						"TEXCOORD_0":28
					},
					"indices":25,
					"material":2
				}
			]
		},
		{
			"name":"Cube.003",
			"primitives":[
				{
					"attributes":{
						"POSITION":29,
						"NORMAL":30,
						"TEXCOORD_0":31
					},
					"indices":3,
					"material":2
				}
			]
		}
	],
	"skins":[
		{
			"inverseBindMatrices":60,
			"joints":[
				15,
				9,
				1,
				3,
				7,
				11,
				13
			],
			"name":"ThiefRig"
		}
	],
	"accessors":[
		{
			"bufferView":0,
			"componentType":5126,
			"count":24,
			"max":[
				0.02500000037252903,
				0.02500000037252903,
				0.02500000037252903
			],
			"min":[
				-0.02500000037252903,
				-0.02500000037252903,
				-0.02500000037252903
			],
			"type":"VEC3"
		},
		{
			"bufferView":1,
			"componentType":5126,
			"count":24,
			"type":"VEC3"
		},
		{
			"bufferView":2,
			"componentType":5126,
			"count":24,
			"type":"VEC2"
		},
		{
			"bufferView":3,
			"componentType":5123,
			"count":36,
			"type":"SCALAR"
		},
		{
			"bufferView":4,
			"componentType":5126,
			"count":24,
			"max":[
				0.02500000037252903,
				0.02500000037252903,
				0.02500000037252903
			],
			"min":[
				-0.02500000037252903,
				-0.02500000037252903,
				-0.02500000037252903
			],
			"type":"VEC3"
		},
		{
			"bufferView":5,
			"componentType":5126,
			"count":24,
			"type":"VEC3"
		},
		{
			"bufferView":6,
			"componentType":5126,
			"count":24,
			"type":"VEC2"
		},
		{
			"bufferView":7,
			"componentType":5126,
			"count":128,
			"max":[
				0.3199999928474426,
				0.2750000059604645,
				0.3199999928474426
			],
			"min":[
				-0.3199999928474426,
				-0.2750000059604645,
				-0.3199999928474426
			],
			"type":"VEC3"
		},
		{
			"bufferView":8,
			"componentType":5126,
			"count":128,
			"type":"VEC3"
		},
		{
			"bufferView":9,
			"componentType":5126,
			"count":128,
			"type":"VEC2"
		},
		{
			"bufferView":10,
			"componentType":5123,
			"count":186,
			"type":"SCALAR"
		},
		{
			"bufferView":11,
			"componentType":5126,
			"count":1984,
			"max":[
				0.034999996423721313,
				0.03500000014901161,
				0.034999996423721313
			],
			"min":[
				-0.034999992698431015,
				-0.03500000014901161,
				-0.03500000014901161
			],
			"type":"VEC3"
		},
		{
			"bufferView":12,
			"componentType":5126,
			"count":1984,
			"type":"VEC3"
		},
		{
			"bufferView":13,
			"componentType":5126,
			"count":1984,
			"type":"VEC2"
		},
		{
			"bufferView":14,
			"componentType":5123,
			"count":2880,
			"type":"SCALAR"
		},
		{
			"bufferView":15,
			"componentType":5126,
			"count":1984,
			"max":[
				0.034999996423721313,
				0.03500000014901161,
				0.034999996423721313
			],
			"min":[
				-0.034999992698431015,
				-0.03500000014901161,
				-0.03500000014901161
			],
			"type":"VEC3"
		},
		{
			"bufferView":16,
			"componentType":5126,
			"count":1984,
			"type":"VEC3"
		},
		{
			"bufferView":17,
			"componentType":5126,
			"count":1984,
			"type":"VEC2"
		},
		{
			"bufferView":18,
			"componentType":5123,
			"count":2880,
			"type":"SCALAR"
		},
		{
			"bufferView":19,
			"componentType":5126,
			"count":24,
			"max":[
				0.22499999403953552,
				0.22499999403953552,
				0.22499999403953552
			],
			"min":[
				-0.22499999403953552,
				-0.22499999403953552,
				-0.22499999403953552
			],
			"type":"VEC3"
		},
		{
			"bufferView":20,
			"componentType":5126,
			"count":24,
			"type":"VEC3"
		},
		{
			"bufferView":21,
			"componentType":5126,
			"count":24,
			"type":"VEC2"
		},
		{
			"bufferView":22,
			"componentType":5126,
			"count":192,
			"max":[
				0.09000000357627869,
				0.42500001192092896,
				0.09000000357627869
			],
			"min":[
				-0.09000000357627869,
				-0.42500001192092896,
				-0.09000000357627869
			],
			"type":"VEC3"
		},
		{
			"bufferView":23,
			"componentType":5126,
			"count":192,
			"type":"VEC3"
		},
		{
			"bufferView":24,
			"componentType":5126,
			"count":192,
			"type":"VEC2"
		},
		{
			"bufferView":25,
			"componentType":5123,
			"count":372,
			"type":"SCALAR"
		},
		{
			"bufferView":26,
			"componentType":5126,
			"count":192,
			"max":[
				0.09000000357627869,
				0.42500001192092896,
				0.09000000357627869
			],
			"min":[
				-0.09000000357627869,
				-0.42500001192092896,
				-0.09000000357627869
			],
			"type":"VEC3"
		},
		{
			"bufferView":27,
			"componentType":5126,
			"count":192,
			"type":"VEC3"
		},
		{
			"bufferView":28,
			"componentType":5126,
			"count":192,
			"type":"VEC2"
		},
		{
			"bufferView":29,
			"componentType":5126,
			"count":24,
			"max":[
				0.07500000298023224,
				0.07500000298023224,
				0.07500000298023224
			],
			"min":[
				-0.07500000298023224,
				-0.07500000298023224,
				-0.07500000298023224
			],
			"type":"VEC3"
		},
		{
			"bufferView":30,
			"componentType":5126,
			"count":24,
			"type":"VEC3"
		},
		{
			"bufferView":31,
			"componentType":5126,
			"count":24,
			"type":"VEC2"
		},
		{
			"bufferView":32,
			"componentType":5126,
			"count":2,
			"max":[
				1
			],
			"min":[
				0.041666666666666664
			],
			"type":"SCALAR"
		},
		{
			"bufferView":33,
			"componentType":5126,
			"count":2,
			"type":"VEC3"
		},
		{
			"bufferView":34,
			"componentType":5126,
			"count":2,
			"type":"VEC4"
		},
		{
			"bufferView":35,
			"componentType":5126,
			"count":2,
			"type":"VEC3"
		},
		{
			"bufferView":36,
			"componentType":5126,
			"count":2,
			"type":"VEC3"
		},
		{
			"bufferView":37,
			"componentType":5126,
			"count":2,
			"type":"VEC3"
		},
		{
			"bufferView":38,
			"componentType":5126,
			"count":2,
			"type":"VEC4"
		},
		{
			"bufferView":39,
			"componentType":5126,
			"count":2,
			"type":"VEC3"
		},
		{
			"bufferView":40,
			"componentType":5126,
			"count":2,
			"type":"VEC3"
		},
		{
			"bufferView":41,
			"componentType":5126,
			"count":2,
			"type":"VEC4"
		},
		{
			"bufferView":42,
			"componentType":5126,
			"count":2,
			"type":"VEC3"
		},
		{
			"bufferView":43,
			"componentType":5126,
			"count":2,
			"type":"VEC3"
		},
		{
			"bufferView":44,
			"componentType":5126,
			"count":2,
			"type":"VEC4"
		},
		{
			"bufferView":45,
			"componentType":5126,
			"count":2,
			"type":"VEC3"
		},
		{
			"bufferView":46,
			"componentType":5126,
			"count":2,
			"max":[
				1.25
			],
			"min":[
				0.041666666666666664
			],
			"type":"SCALAR"
		},
		{
			"bufferView":47,
			"componentType":5126,
			"count":25,
			"max":[
				1.0416666666666667
			],
			"min":[
				0.041666666666666664
			],
			"type":"SCALAR"
		},
		{
			"bufferView":48,
			"componentType":5126,
			"count":25,
			"type":"VEC3"
		},
		{
			"bufferView":49,
			"componentType":5126,
			"count":2,
			"max":[
				1.0416666666666667
			],
			"min":[
				0.041666666666666664
			],
			"type":"SCALAR"
		},
		{
			"bufferView":50,
			"componentType":5126,
			"count":2,
			"type":"VEC3"
		},
		{
			"bufferView":51,
			"componentType":5126,
			"count":2,
			"type":"VEC3"
		},
		{
			"bufferView":52,
			"componentType":5126,
			"count":2,
			"type":"VEC3"
		},
		{
			"bufferView":53,
			"componentType":5126,
			"count":2,
			"type":"VEC3"
		},
		{
			"bufferView":54,
			"componentType":5126,
			"count":2,
			"max":[
				0.6666666666666666
			],
			"min":[
				0.041666666666666664
			],
			"type":"SCALAR"
		},
		{
			"bufferView":55,
			"componentType":5126,
			"count":16,
			"max":[
				0.6666666666666666
			],
			"min":[
				0.041666666666666664
			],
			"type":"SCALAR"
		},
		{
			"bufferView":56,
			"componentType":5126,
			"count":16,
			"type":"VEC3"
		},
		{
			"bufferView":57,
			"componentType":5126,
			"count":30,
			"max":[
				1.25
			],
			"min":[
				0.041666666666666664
			],
			"type":"SCALAR"
		},
		{
			"bufferView":58,
			"componentType":5126,
			"count":30,
			"type":"VEC3"
		},
		{
			"bufferView":59,
			"componentType":5126,
			"count":30,
			"type":"VEC3"
		},
		{
			"bufferView":60,
			"componentType":5126,
			"count":7,
			"type":"MAT4"
		}
	],
	"bufferViews":[
		{
			"buffer":0,
			"byteLength":288,
			"byteOffset":0,
			"target":34962
		},
		{
			"buffer":0,
			"byteLength":288,
			"byteOffset":288,
			"target":34962
		},
		{
			"buffer":0,
			"byteLength":192,
			"byteOffset":576,
			"target":34962
		},
		{
			"buffer":0,
			"byteLength":72,
			"byteOffset":768,
			"target":34963
		},
		{
			"buffer":0,
			"byteLength":288,
			"byteOffset":840,
			"target":34962
		},
		{
			"buffer":0,
			"byteLength":288,
			"byteOffset":1128,
			"target":34962
		},
		{
			"buffer":0,
			"byteLength":192,
			"byteOffset":1416,
			"target":34962
		},
		{
			"buffer":0,
			"byteLength":1536,
			"byteOffset":1608,
			"target":34962
		},
		{
			"buffer":0,
			"byteLength":1536,
			"byteOffset":3144,
			"target":34962
		},
		{
			"buffer":0,
			"byteLength":1024,
			"byteOffset":4680,
			"target":34962
		},
		{
			"buffer":0,
			"byteLength":372,
			"byteOffset":5704,
			"target":34963
		},
		{
			"buffer":0,
			"byteLength":23808,
			"byteOffset":6076,
			"target":34962
		},
		{
			"buffer":0,
			"byteLength":23808,
			"byteOffset":29884,
			"target":34962
		},
		{
			"buffer":0,
			"byteLength":15872,
			"byteOffset":53692,
			"target":34962
		},
		{
			"buffer":0,
			"byteLength":5760,
			"byteOffset":69564,
			"target":34963
		},
		{
			"buffer":0,
			"byteLength":23808,
			"byteOffset":75324,
			"target":34962
		},
		{
			"buffer":0,
			"byteLength":23808,
			"byteOffset":99132,
			"target":34962
		},
		{
			"buffer":0,
			"byteLength":15872,
			"byteOffset":122940,
			"target":34962
		},
		{
			"buffer":0,
			"byteLength":5760,
			"byteOffset":138812,
			"target":34963
		},
		{
			"buffer":0,
			"byteLength":288,
			"byteOffset":144572,
			"target":34962
		},
		{
			"buffer":0,
			"byteLength":288,
			"byteOffset":144860,
			"target":34962
		},
		{
			"buffer":0,
			"byteLength":192,
			"byteOffset":145148,
			"target":34962
		},
		{
			"buffer":0,
			"byteLength":2304,
			"byteOffset":145340,
			"target":34962
		},
		{
			"buffer":0,
			"byteLength":2304,
			"byteOffset":147644,
			"target":34962
		},
		{
			"buffer":0,
			"byteLength":1536,
			"byteOffset":149948,
			"target":34962
		},
		{
			"buffer":0,
			"byteLength":744,
			"byteOffset":151484,
			"target":34963
		},
		{
			"buffer":0,
			"byteLength":2304,
			"byteOffset":152228,
			"target":34962
		},
		{
			"buffer":0,
			"byteLength":2304,
			"byteOffset":154532,
			"target":34962
		},
		{
			"buffer":0,
			"byteLength":1536,
			"byteOffset":156836,
			"target":34962
		},
		{
			"buffer":0,
			"byteLength":288,
			"byteOffset":158372,
			"target":34962
		},
		{
			"buffer":0,
			"byteLength":288,
			"byteOffset":158660,
			"target":34962
		},
		{
			"buffer":0,
			"byteLength":192,
			"byteOffset":158948,
			"target":34962
		},
		{
			"buffer":0,
			"byteLength":8,
			"byteOffset":159140
		},
		{
			"buffer":0,
			"byteLength":24,
			"byteOffset":159148
		},
		{
			"buffer":0,
			"byteLength":32,
			"byteOffset":159172
		},
		{
			"buffer":0,
			"byteLength":24,
			"byteOffset":159204
		},
		{
			"buffer":0,
			"byteLength":24,
			"byteOffset":159228
		},
		{
			"buffer":0,
			"byteLength":24,
			"byteOffset":159252
		},
		{
			"buffer":0,
			"byteLength":32,
			"byteOffset":159276
		},
		{
			"buffer":0,
			"byteLength":24,
			"byteOffset":159308
		},
		{
			"buffer":0,
			"byteLength":24,
			"byteOffset":159332
		},
		{
			"buffer":0,
			"byteLength":32,
			"byteOffset":159356
		},
		{
			"buffer":0,
			"byteLength":24,
			"byteOffset":159388
		},
		{
			"buffer":0,
			"byteLength":24,
			"byteOffset":159412
		},
		{
			"buffer":0,
			"byteLength":32,
			"byteOffset":159436
		},
		{
			"buffer":0,
			"byteLength":24,
			"byteOffset":159468
		},
		{
			"buffer":0,
			"byteLength":8,
			"byteOffset":159492
		},
		{
			"buffer":0,
			"byteLength":100,
			"byteOffset":159500
		},
		{
			"buffer":0,
			"byteLength":300,
			"byteOffset":159600
		},
		{
			"buffer":0,
			"byteLength":8,
			"byteOffset":159900
		},
		{
			"buffer":0,
			"byteLength":24,
			"byteOffset":159908
		},
		{
			"buffer":0,
			"byteLength":24,
			"byteOffset":159932
		},
		{
			"buffer":0,
			"byteLength":24,
			"byteOffset":159956
		},
		{
			"buffer":0,
			"byteLength":24,
			"byteOffset":159980
		},
		{
			"buffer":0,
			"byteLength":8,
			"byteOffset":160004
		},
		{
			"buffer":0,
			"byteLength":64,
			"byteOffset":160012
		},
		{
			"buffer":0,
			"byteLength":192,
			"byteOffset":160076
		},
		{
			"buffer":0,
			"byteLength":120,
			"byteOffset":160268
		},
		{
			"buffer":0,
			"byteLength":360,
			"byteOffset":160388
		},
		{
			"buffer":0,
			"byteLength":360,
			"byteOffset":160748
		},
		{
			"buffer":0,
			"byteLength":448,
			"byteOffset":161108
		}
	],
	"buffers":[
		{
			"byteLength":161556,
			"uri":"thief_nightshade.bin"
		}
	]
}
